<svg width="109" height="51" viewBox="0 0 109 51" fill="none" xmlns="http://www.w3.org/2000/svg">
<path d="M1 16.7142V12.8308H4.2756V10.057H9.82907V8.3927H16.4932V10.057H31.4876V8.3927H39.8178V10.057H46.4819V12.8308H54.3133H80.9699H107.627V16.7142V46.1167H104.294V50H58.2007V46.1167H54.3133H50.9812V50H4.33208V46.1167H1V36.4083V26.6999V16.7142Z" fill="#21517F"/>
<path d="M1 16.7142V12.8308H44.8724M1 16.7142H27.6566M1 16.7142V26.6999M107.627 16.7142V46.1167H104.294M107.627 16.7142V12.8308H80.9699M107.627 16.7142H80.9699M54.3133 12.8308V46.1167M54.3133 12.8308H80.9699M54.3133 12.8308H44.8724M54.3133 46.1167H50.9812M54.3133 46.1167H58.2007M27.6566 16.7142V26.6999M27.6566 16.7142H80.9699M27.6566 46.1167V36.4083M27.6566 46.1167H4.33208M27.6566 46.1167H50.9812M1 26.6999H27.6566M1 26.6999V36.4083M27.6566 26.6999V36.4083M1 36.4083V46.1167H4.33208M1 36.4083H27.6566M4.33208 46.1167V50H50.9812V46.1167M58.2007 46.1167V50H104.294V46.1167M58.2007 46.1167H81.2476M104.294 46.1167H81.2476M80.9699 16.7142L81.2476 46.1167M75.4164 25.5904H77.6378V37.7952H75.4164M80.9699 12.8308L81.2476 2.29029C81.155 1.36569 81.7474 -0.372575 84.8573 0.0712358C85.7829 0.0713281 87.7451 0.737229 88.1894 3.4001M44.8159 12.8308H5.94164H4.2756V10.057H9.82907M44.8159 12.8308H44.8724M44.8159 12.8308H46.4819V10.057H39.8178M9.82907 10.057V8.3927H16.4932V10.057M9.82907 10.057H16.4932M16.4932 10.057H31.4876M31.4876 10.057V8.3927H39.8178V10.057M31.4876 10.057H39.8178M86.5233 25.5904H84.8573V37.7952H86.5233M33.7654 25.5904H31.5441V37.7952H33.7654M77.6378 11.7216V8.94774H84.8573V11.7216M81.2475 2.29029C81.1549 1.36569 81.7473 -0.372575 84.8572 0.0712358C85.7828 0.0713281 87.745 0.737229 88.1893 3.4001M77.6377 11.7216V8.94774H84.8572V11.7216M12.1069 21.081H14.3283V23.3001H12.1069V21.081ZM12.1069 31.0668H14.3283V33.2858H12.1069V31.0668ZM12.1069 41.0525V43.2716H14.3283V41.0525H12.1069Z" stroke="white"/>
<path d="M88.1893 3.4001C87.745 0.737229 85.7828 0.0713281 84.8572 0.0712358C81.7473 -0.372575 81.1549 1.36569 81.2475 2.29029V13.3035M77.6377 13.3035V11.7216V8.94774H84.8572V11.7216V13.3035" stroke="black" stroke-width="0.25"/>
</svg>
