<svg width="88" height="50" viewBox="0 0 88 50" fill="none" xmlns="http://www.w3.org/2000/svg">
<path fill-rule="evenodd" clip-rule="evenodd" d="M29.8087 19H28V26H60V19H58.1913H46.3304H41.687H29.8087ZM54 22.5C54 21.6774 54.8871 21 56 21C57.0968 21 58 21.6653 58 22.5C58 23.3226 57.1129 24 56 24C54.9032 23.9879 54 23.3226 54 22.5ZM50 21C48.8871 21 48 21.6774 48 22.5C48 23.3226 48.9032 23.9879 50 24C51.1129 24 52 23.3226 52 22.5C52 21.6653 51.0968 21 50 21ZM36 22.5C36 21.6774 36.8871 21 38 21C39.0968 21 40 21.6653 40 22.5C40 23.3226 39.1129 24 38 24C36.9032 23.9879 36 23.3226 36 22.5ZM32 21C30.8871 21 30 21.6774 30 22.5C30 23.3226 30.9032 23.9879 32 24C33.1129 24 34 23.3226 34 22.5C34 21.6653 33.0968 21 32 21Z" fill="#21517F"/>
<path d="M32.2262 15.4473H38.7555C39.9983 15.4473 41 16.057 41 16.8158V17.9269H30.0002V16.8158C29.9817 16.057 31.0019 15.4473 32.2262 15.4473Z" fill="#21517F"/>
<path d="M49.2262 15.4473H55.7555C56.9983 15.4473 58 16.057 58 16.8158V17.9269H47.0003V16.8158C46.9817 16.057 47.9834 15.4473 49.2262 15.4473Z" fill="#21517F"/>
<path d="M33.3047 6.60571H54.4429C54.4429 7.95531 53.3377 9.04474 51.9787 9.04474H35.7689C34.4099 9.04474 33.3047 7.94718 33.3047 6.60571Z" fill="#21517F"/>
<path d="M39.1291 3.35376H48.6224L53.3608 5.79278H34.3906L39.1291 3.35376Z" fill="#21517F"/>
<rect x="39.4023" y="0.101562" width="8.94309" height="2.43902" fill="#21517F"/>
<rect x="35" y="35.813" width="18" height="9.52575" fill="#21517F"/>
<path fill-rule="evenodd" clip-rule="evenodd" d="M60 27.0001H28V50.0001H60V27.0001ZM48 30.5001C48 30.7842 47.8647 31.0001 47.6956 31.0001H40.3044C40.1353 31.0001 40 30.7728 40 30.5001C40 30.216 40.1353 30.0001 40.3044 30.0001H47.6956C47.8647 30.0001 48 30.2273 48 30.5001ZM54.2045 47.0001C54.6465 47.0001 55 46.7407 55 46.3994V35.6007C55 35.2731 54.6465 35.0001 54.2045 35.0001H34.7955C34.3535 35.0001 34 35.2595 34 35.6007V46.3994C34 46.727 34.3535 47.0001 34.7955 47.0001H54.2045Z" fill="#21517F"/>
<path fill-rule="evenodd" clip-rule="evenodd" d="M62 19H88V26H62V19ZM76.5749 22C76.8068 22 77 21.7841 77 21.5C77 21.2273 76.8068 21 76.5749 21H73.4251C73.1932 21 73 21.2273 73 21.5C73 21.7727 73.1932 22 73.4251 22H76.5749Z" fill="#21517F"/>
<path fill-rule="evenodd" clip-rule="evenodd" d="M62 27.0001H88V50.0001H62V27.0001ZM66 41.0001C66.5556 41.0001 67 40.8688 67 40.7114V36.2888C67 36.1313 66.5556 36.0001 66 36.0001C65.4444 36.0001 65 36.1313 65 36.2888V40.7114C65 40.8688 65.4444 41.0001 66 41.0001Z" fill="#21517F"/>
<path fill-rule="evenodd" clip-rule="evenodd" d="M0 26V19H26V26H0ZM11.431 21C11.1897 21 11 21.2158 11 21.4998C11 21.7838 11.1897 22.011 11.431 21.9996H14.569C14.8103 21.9996 15 21.7724 15 21.4998C15 21.2272 14.8103 21 14.569 21H11.431Z" fill="#21517F"/>
<path fill-rule="evenodd" clip-rule="evenodd" d="M0 27.0001H26V34.0001H0V27.0001ZM14.5671 30.0001C14.8095 30.0001 15 29.7842 15 29.5001C15 29.2273 14.8095 29.0001 14.5844 29.0001H11.4329C11.1905 29.0001 11 29.2273 11 29.5001C11 29.7728 11.1905 30.0001 11.4329 30.0001H14.5671Z" fill="#21517F"/>
<path fill-rule="evenodd" clip-rule="evenodd" d="M0 35H26V42H0V35ZM14.5671 38C14.8095 38 15 37.7842 15 37.5002C15 37.2162 14.8095 36.989 14.5844 37.0004H11.4329C11.1905 37.0004 11 37.2276 11 37.5002C11 37.7728 11.1905 38 11.4329 38H14.5671Z" fill="#21517F"/>
<path fill-rule="evenodd" clip-rule="evenodd" d="M0 42.9999H26V49.9999H0V42.9999ZM14.5671 45.9999C14.8095 45.9999 15 45.7841 15 45.5001C15 45.2162 14.8095 44.989 14.5844 45.0003H11.4329C11.1905 45.0003 11 45.2275 11 45.5001C11 45.7727 11.1905 45.9999 11.4329 45.9999H14.5671Z" fill="#21517F"/>
</svg>
