<svg width="113" height="51" viewBox="0 0 113 51" fill="none" xmlns="http://www.w3.org/2000/svg">
<g id="Lshaped">
<path id="Path" d="M90.045 49.9996L76.3636 36.3182V33.9728H74.0183V36.3182H41.1828V33.9728H38.4465H36.492V36.3182H3.65649V33.9728H0.529297V26.7412V19.5096V12.4734V9.7371L2.09289 7.7826H28.2831V6.21888H32.1921V4.65527H37.6647V6.21888H48.6098V4.65527H53.3005V6.21888H58.7734V7.7826H69.3276V7.00078H72.4547H74.8001V7.7826H90.045C90.045 7.7826 102.631 12.7672 110.57 15.2097C110.647 17.3468 110.57 19.5096 110.57 19.5096L111.545 46.4814V49.9996H90.045Z" fill="#21517F"/>
<path id="Shape" d="M76.3636 36.3183H75.8636V36.5254L76.0101 36.6719L76.3636 36.3183ZM111.545 49.9997V50.4997H112.045V49.9997H111.545ZM90.045 7.78271L90.2291 7.31784L90.1404 7.28271H90.045V7.78271ZM2.09289 7.78271V7.28271H1.85258L1.70246 7.47037L2.09289 7.78271ZM0.529297 33.9729H0.0292969V34.4729H0.529297V33.9729ZM3.65649 36.3183H3.15649V36.8183H3.65649V36.3183ZM36.492 36.3183V36.8183H36.992V36.3183H36.492ZM41.1828 36.3183H40.6828V36.8183H41.1828V36.3183ZM74.0183 36.3183V36.8183H74.5183V36.3183H74.0183ZM90.3985 49.6462L76.7172 35.9648L76.0101 36.6719L89.6914 50.3533L90.3985 49.6462ZM76.8636 36.3183V33.9729H75.8636V36.3183H76.8636ZM90.045 50.4997H111.545V49.4997H90.045V50.4997ZM112.045 49.9997V46.4815H111.045V49.9997H112.045ZM90.545 49.9997V46.4815H89.545V49.9997H90.545ZM111.545 45.9815H90.045V46.9815H111.545V45.9815ZM112.044 46.4635L111.069 19.4916L110.07 19.5277L111.045 46.4996L112.044 46.4635ZM90.545 46.4815V19.5097H89.545V46.4815H90.545ZM90.3824 46.1125L82.0218 38.4684L81.347 39.2064L89.7076 46.8505L90.3824 46.1125ZM76.8636 33.9729V12.4735H75.8636V33.9729H76.8636ZM76.0262 34.3419L81.347 39.2064L82.0218 38.4684L76.701 33.6039L76.0262 34.3419ZM76.3636 33.4729H74.0183V34.4729H76.3636V33.4729ZM90.045 15.2098C90.0268 15.7095 90.0269 15.7095 90.027 15.7095C90.0271 15.7095 90.0272 15.7095 90.0274 15.7095C90.0278 15.7095 90.0284 15.7095 90.0292 15.7095C90.0308 15.7096 90.0331 15.7097 90.0362 15.7098C90.0423 15.71 90.0515 15.7103 90.0636 15.7108C90.0878 15.7116 90.1238 15.7129 90.171 15.7145C90.2655 15.7178 90.4049 15.7225 90.5851 15.7283C90.9455 15.74 91.469 15.7561 92.1219 15.774C93.4277 15.8098 95.2513 15.8528 97.3235 15.8815C101.464 15.9388 106.61 15.939 110.598 15.709L110.541 14.7106C106.59 14.9385 101.474 14.9388 97.3374 14.8816C95.2707 14.853 93.4516 14.8101 92.1494 14.7744C91.4982 14.7565 90.9764 14.7404 90.6175 14.7288C90.438 14.723 90.2993 14.7183 90.2055 14.7151C90.1586 14.7135 90.1229 14.7123 90.099 14.7114C90.0871 14.711 90.0781 14.7107 90.0721 14.7104C90.0691 14.7103 90.0668 14.7103 90.0653 14.7102C90.0646 14.7102 90.064 14.7102 90.0637 14.7101C90.0635 14.7101 90.0634 14.7101 90.0633 14.7101C90.0632 14.7101 90.0632 14.7101 90.045 15.2098ZM90.2307 14.7456L76.5493 9.27297L76.1779 10.2014L89.8593 15.674L90.2307 14.7456ZM89.545 15.2098V19.5097H90.545V15.2098H89.545ZM110.717 14.7319C106.763 13.5153 101.643 11.6631 97.506 10.1121C95.4387 9.3372 93.6191 8.63848 92.3164 8.13352C91.665 7.88105 91.143 7.67704 90.7839 7.53619C90.6043 7.46577 90.4655 7.41113 90.3716 7.37413C90.3247 7.35563 90.289 7.34153 90.2651 7.33207C90.2531 7.32735 90.2441 7.32378 90.2381 7.32139C90.235 7.3202 90.2328 7.31931 90.2313 7.31872C90.2305 7.31842 90.23 7.3182 90.2296 7.31805C90.2294 7.31798 90.2293 7.31793 90.2292 7.31789C90.2291 7.31786 90.2291 7.31784 90.045 7.78271C89.8609 8.24759 89.8609 8.24761 89.861 8.24765C89.8611 8.24769 89.8613 8.24775 89.8615 8.24783C89.8619 8.24799 89.8625 8.24822 89.8633 8.24853C89.8648 8.24915 89.8671 8.25006 89.8702 8.25128C89.8763 8.25371 89.8855 8.25733 89.8976 8.2621C89.9218 8.27166 89.9577 8.28585 90.0049 8.30445C90.0993 8.34166 90.2386 8.3965 90.4187 8.46714C90.779 8.60843 91.3022 8.81292 91.9549 9.06592C93.2602 9.57189 95.0834 10.272 97.155 11.0485C101.295 12.6005 106.438 14.4617 110.423 15.6877L110.717 14.7319ZM90.045 7.28271H58.7734V8.28271H90.045V7.28271ZM110.07 15.2279C110.108 16.2855 110.108 17.3518 110.099 18.1552C110.094 18.5565 110.087 18.8913 110.081 19.1255C110.078 19.2426 110.075 19.3345 110.073 19.397C110.072 19.4283 110.071 19.4521 110.071 19.4681C110.07 19.4761 110.07 19.4821 110.07 19.486C110.07 19.488 110.07 19.4895 110.07 19.4905C110.07 19.4909 110.07 19.4913 110.07 19.4915C110.07 19.4916 110.07 19.4917 110.07 19.4917C110.07 19.4917 110.07 19.4917 110.07 19.4918C110.07 19.4918 110.07 19.4917 110.57 19.5097C111.069 19.5276 111.069 19.5276 111.069 19.5275C111.069 19.5275 111.069 19.5275 111.069 19.5274C111.069 19.5273 111.069 19.5272 111.069 19.527C111.069 19.5267 111.069 19.5263 111.069 19.5257C111.069 19.5246 111.069 19.5229 111.069 19.5207C111.07 19.5164 111.07 19.51 111.07 19.5016C111.071 19.4849 111.071 19.4602 111.072 19.4281C111.074 19.3639 111.077 19.2702 111.08 19.1512C111.086 18.9131 111.094 18.5737 111.099 18.1672C111.108 17.3549 111.108 16.2712 111.069 15.1917L110.07 15.2279ZM0.919731 10.0496L2.48332 8.09506L1.70246 7.47037L0.138862 9.42486L0.919731 10.0496ZM2.09289 8.28271H28.2831V7.28271H2.09289V8.28271ZM0.529297 10.2372H38.4465V9.23721H0.529297V10.2372ZM0.0292969 9.73721V12.4735H1.0293V9.73721H0.0292969ZM76.3636 9.23721H38.4465V10.2372H76.3636V9.23721ZM75.8636 9.73721V12.4735H76.8636V9.73721H75.8636ZM37.9465 9.73721V33.9729H38.9465V9.73721H37.9465ZM38.4465 33.4729H36.492V34.4729H38.4465V33.4729ZM38.4465 34.4729H41.1828V33.4729H38.4465V34.4729ZM0.529297 12.9735H19.6833V11.9735H0.529297V12.9735ZM0.0292969 12.4735V19.5097H1.0293V12.4735H0.0292969ZM76.3636 11.9735H57.2098V12.9735H76.3636V11.9735ZM76.1349 12.9181L81.4557 15.6544L81.9131 14.7651L76.5923 12.0288L76.1349 12.9181ZM90.045 20.0097H110.57V19.0097H90.045V20.0097ZM90.2737 19.065L81.9131 14.7652L81.4557 15.6544L89.8163 19.9543L90.2737 19.065ZM19.6833 12.9735H57.2098V11.9735H19.6833V12.9735ZM19.1833 12.4689L19.1194 19.5051L20.1194 19.5142L20.1833 12.478L19.1833 12.4689ZM19.9879 33.9775L20.0536 26.7458L19.0536 26.7367L18.9879 33.9684L19.9879 33.9775ZM19.4879 33.4729H3.65649V34.4729H19.4879V33.4729ZM19.4879 34.4729H36.492V33.4729H19.4879V34.4729ZM56.7098 12.478L56.9052 33.9775L57.9051 33.9684L57.7098 12.4689L56.7098 12.478ZM57.4051 33.4729H41.1828V34.4729H57.4051V33.4729ZM57.4051 34.4729H74.0183V33.4729H57.4051V34.4729ZM81.1844 15.2098V38.8374H82.1844V15.2098H81.1844ZM0.529297 20.0097H19.6194V19.0097H0.529297V20.0097ZM0.0292969 19.5097V26.7413H1.0293V19.5097H0.0292969ZM19.1194 19.5051L19.0536 26.7367L20.0536 26.7458L20.1194 19.5142L19.1194 19.5051ZM0.0292969 26.7413V33.9729H1.0293V26.7413H0.0292969ZM0.529297 34.4729H3.65649V33.4729H0.529297V34.4729ZM0.529297 27.2413H19.5536V26.2413H0.529297V27.2413ZM3.15649 33.9729V36.3183H4.15649V33.9729H3.15649ZM3.65649 36.8183H36.492V35.8183H3.65649V36.8183ZM36.992 36.3183V33.9729H35.992V36.3183H36.992ZM40.6828 33.9729V36.3183H41.6828V33.9729H40.6828ZM41.1828 36.8183H74.0183V35.8183H41.1828V36.8183ZM74.5183 36.3183V33.9729H73.5183V36.3183H74.5183Z" fill="white"/>
<path id="Shape_2" d="M22.4189 18.728V18.353H22.0439V18.728H22.4189ZM22.4189 27.3278H22.0439V27.7028H22.4189V27.3278ZM55.2545 18.728H55.6295V18.353H55.2545V18.728ZM55.2545 27.3278V27.7028H55.6295V27.3278H55.2545ZM59.9451 18.728V18.353H59.5701V18.728H59.9451ZM59.9451 27.3278H59.5701V27.7028H59.9451V27.3278ZM79.8811 23.0279H80.2561V22.9144L80.1932 22.8199L79.8811 23.0279ZM79.8811 31.2368V31.6118H80.2561V31.2368H79.8811ZM86.1354 25.7642H86.5104V25.6507L86.4474 25.5562L86.1354 25.7642ZM86.1354 33.9731V34.3481H86.5104V33.9731H86.1354ZM24.7643 18.353H22.4189V19.103H24.7643V18.353ZM22.0439 18.728V27.3278H22.7939V18.728H22.0439ZM22.4189 27.7028H23.9825V26.9528H22.4189V27.7028ZM53.2998 19.103H55.2545V18.353H53.2998V19.103ZM54.8795 18.728V27.3278H55.6295V18.728H54.8795ZM55.2545 26.9528H53.2998V27.7028H55.2545V26.9528ZM61.8998 18.353H59.9451V19.103H61.8998V18.353ZM59.5701 18.728V27.3278H60.3201V18.728H59.5701ZM59.9451 27.7028H61.8998V26.9528H59.9451V27.7028ZM78.7873 22.0632L79.5691 23.2359L80.1932 22.8199L79.4114 21.6472L78.7873 22.0632ZM79.5061 23.0279V31.2368H80.2561V23.0279H79.5061ZM79.8811 30.8618H79.0994V31.6118H79.8811V30.8618ZM85.0416 24.7995L85.8234 25.9722L86.4474 25.5562L85.6656 24.3835L85.0416 24.7995ZM85.7604 25.7642V33.9731H86.5104V25.7642H85.7604ZM86.1354 33.5981H85.3536V34.3481H86.1354V33.5981Z" fill="white"/>
<path id="Path_2" d="M10.7871 15.2539H8.05078V16.8175H10.7871V15.2539Z" fill="#F3DCB4"/>
<path id="Path_3" d="M10.3962 22.29H8.05078V23.8536H10.3962V22.29Z" fill="#F3DCB4"/>
<path id="Path_4" d="M10.3962 29.3267H8.05078V30.8902H10.3962V29.3267Z" fill="#F3DCB4"/>
<path id="Path_5" fill-rule="evenodd" clip-rule="evenodd" d="M10.7871 15.2539H8.05078V16.8175H10.7871V15.2539Z" stroke="white" stroke-width="0.25"/>
<path id="Path_6" fill-rule="evenodd" clip-rule="evenodd" d="M10.3962 22.29H8.05078V23.8536H10.3962V22.29Z" stroke="white" stroke-width="0.25"/>
<path id="Path 204" fill-rule="evenodd" clip-rule="evenodd" d="M10.3962 29.3267H8.05078V30.8902H10.3962V29.3267Z" stroke="white" stroke-width="0.25"/>
<path id="Path_7" d="M69.3271 8.73267V6.00098H72.4543" stroke="#221C35" stroke-width="0.25"/>
<path id="Path_8" d="M74.8004 8.73729V6.00098H72.4551" stroke="#221C35" stroke-width="0.25"/>
<path id="Path_9" d="M72.4551 7.00097V1.91929C72.7157 0.876894 73.8623 -0.817 76.364 0.746597C76.6246 1.00716 77.1458 1.76281 77.1458 2.70097" stroke="#221C35" stroke-width="0.25"/>
<g id="Group 9">
<path id="Path_10" d="M28.2832 7.78248V6.21875H32.1922" stroke="white" stroke-width="0.25"/>
<path id="Path_11" d="M28.2832 7.78267H58.7735" stroke="white" stroke-width="0.25"/>
<path id="Path_12" d="M58.7737 7.78248V6.21875H53.3008" stroke="white" stroke-width="0.25"/>
<path id="Path_13" d="M48.6104 6.21888V4.65527H53.301V6.21888" stroke="white" stroke-width="0.25"/>
<path id="Path_14" d="M48.6104 6.2187H53.301" stroke="white" stroke-width="0.25"/>
<path id="Path_15" d="M48.6102 6.2187H37.665" stroke="white" stroke-width="0.25"/>
<path id="Path_16" d="M32.1924 6.21888V4.65527H37.665V6.21888" stroke="white" stroke-width="0.25"/>
<path id="Path_17" d="M32.1924 6.2187H37.665" stroke="white" stroke-width="0.25"/>
</g>
</g>
</svg>
