<svg width="123" height="51" viewBox="0 0 123 51" fill="none" xmlns="http://www.w3.org/2000/svg">
<path d="M81.1484 31.1764V6.47049V3.08813V0.588135H95.5602L121.884 9.11755V14.8528V46.6175H97.3249L87.472 37.2125L81.1484 31.1764Z" fill="#21517F"/>
<path d="M41.7341 0V3.08824V6.02941V31.3235V33.9706L25.7047 49.8529H1.29297V46.6176V14.4118V8.82353L27.0283 0H41.7341Z" fill="#21517F"/>
<path d="M121.884 46.6176V47.1176H122.384V46.6176H121.884ZM81.1484 31.1765H80.6484V31.3904L80.8032 31.5381L81.1484 31.1765ZM81.1484 0.588235V0.0882353H80.6484V0.588235H81.1484ZM95.5602 0.588235L95.7143 0.112582L95.6392 0.0882353H95.5602V0.588235ZM85.4131 17.9412H85.9131V17.4412H85.4131V17.9412ZM85.4131 28.2353L85.2162 28.6949L85.9131 28.9936V28.2353H85.4131ZM89.5308 21.6176V21.1176H89.0308V21.6176H89.5308ZM89.5308 30.7353H89.0308V31.1257L89.4095 31.2204L89.5308 30.7353ZM41.7367 33.9706L42.0886 34.3258L42.2367 34.179V33.9706H41.7367ZM41.7367 0H42.2367V-0.5H41.7367V0ZM27.0308 0V-0.5H26.9475L26.8686 -0.472973L27.0308 0ZM1.2955 49.8529H0.795496V50.3529H1.2955V49.8529ZM33.5014 21.4706H34.0014V20.9706H33.5014V21.4706ZM33.5014 31.3235L33.7494 31.7577L34.0014 31.6137V31.3235H33.5014ZM97.3249 47.1176H121.884V46.1176H97.3249V47.1176ZM122.384 46.6176V14.8529H121.384V46.6176H122.384ZM97.8249 46.6176V14.8529H96.8249V46.6176H97.8249ZM97.6701 46.256L87.8172 36.851L87.1267 37.5743L96.9797 46.9793L97.6701 46.256ZM80.6484 6.47059V31.1765H81.6484V6.47059H80.6484ZM80.8032 31.5381L87.1267 37.5743L87.8172 36.851L81.4937 30.8148L80.8032 31.5381ZM81.6484 6.47059V3.08824H80.6484V6.47059H81.6484ZM80.9184 6.91453L87.2419 10.1913L87.702 9.30339L81.3785 6.02665L80.9184 6.91453ZM81.6484 3.08824V0.588235H80.6484V3.08824H81.6484ZM81.1484 1.08824H95.5602V0.0882353H81.1484V1.08824ZM95.4061 1.06389L121.73 9.5933L122.038 8.64199L95.7143 0.112582L95.4061 1.06389ZM80.9738 3.55675L97.1503 9.58616L97.4995 8.64913L81.3231 2.61972L80.9738 3.55675ZM121.884 8.61765H97.3249V9.61765H121.884V8.61765ZM121.384 9.11765V14.8529H122.384V9.11765H121.384ZM96.8249 9.11765V14.8529H97.8249V9.11765H96.8249ZM121.884 14.3529H97.3249V15.3529H121.884V14.3529ZM97.555 14.409L87.702 9.30339L87.2419 10.1913L97.0949 15.2969L97.555 14.409ZM86.972 9.74732V37.2126H87.972V9.74732H86.972ZM84.3837 18.4412H85.4131V17.4412H84.3837V18.4412ZM84.9131 17.9412V28.2353H85.9131V17.9412H84.9131ZM85.6101 27.7757L84.5807 27.3345L84.1868 28.2537L85.2162 28.6949L85.6101 27.7757ZM91.2955 21.1176H89.5308V22.1176H91.2955V21.1176ZM89.0308 21.6176V30.7353H90.0308V21.6176H89.0308ZM89.4095 31.2204L91.1742 31.6615L91.4168 30.6914L89.6521 30.2502L89.4095 31.2204ZM41.2367 31.3235V33.9706H42.2367V31.3235H41.2367ZM41.3848 33.6154L25.3553 49.4978L26.0592 50.2081L42.0886 34.3258L41.3848 33.6154ZM42.2367 31.3235V6.02941H41.2367V31.3235H42.2367ZM41.3915 30.9618L35.068 36.9953L35.7583 37.7188L42.0818 31.6853L41.3915 30.9618ZM42.2367 3.08824V0H41.2367V3.08824H42.2367ZM41.7367 -0.5H27.0308V0.5H41.7367V-0.5ZM26.8686 -0.472973L1.13333 8.35056L1.45766 9.2965L27.193 0.472973L26.8686 -0.472973ZM41.5682 2.61746L25.5388 8.35276L25.8757 9.2943L41.9051 3.55901L41.5682 2.61746ZM41.2367 3.08824V6.02941H42.2367V3.08824H41.2367ZM1.2955 9.32353H25.7073V8.32353H1.2955V9.32353ZM0.795496 8.82353V14.4118H1.7955V8.82353H0.795496ZM25.2073 8.82353V14.4118H26.2073V8.82353H25.2073ZM25.2073 46.6176V49.8529H26.2073V46.6176H25.2073ZM26.2073 46.6176V14.4118H25.2073V46.6176H26.2073ZM25.7073 46.1176H1.2955V47.1176H25.7073V46.1176ZM26.0524 46.9794L35.7583 37.7188L35.068 36.9953L25.3621 46.2559L26.0524 46.9794ZM25.7073 49.3529H1.2955V50.3529H25.7073V49.3529ZM1.7955 49.8529V46.6176H0.795496V49.8529H1.7955ZM1.2955 14.9118H25.7073V13.9118H1.2955V14.9118ZM0.795496 14.4118V46.6176H1.7955V14.4118H0.795496ZM25.939 14.8548L35.6448 9.77928L35.1814 8.89313L25.4756 13.9687L25.939 14.8548ZM41.505 5.58634L35.1814 8.89313L35.6448 9.77928L41.9684 6.47249L41.505 5.58634ZM34.9131 9.33621V37.3571H35.9131V9.33621H34.9131ZM31.4426 21.9706H33.5014V20.9706H31.4426V21.9706ZM33.0014 21.4706V31.3235H34.0014V21.4706H33.0014ZM33.2533 30.8894L31.1945 32.0659L31.6906 32.9341L33.7494 31.7577L33.2533 30.8894Z" fill="white"/>
</svg>
