<svg width="146" height="51" viewBox="0 0 146 51" fill="none" xmlns="http://www.w3.org/2000/svg">
<g id="Ushaped">
<path id="Path" d="M0.78125 19.5098V14.8223L23.0469 7.00977L62.5 7.31923V5.83789H66.4062V4.27539H71.4844V5.83789H82.4219V4.27539H87.5V5.83789H92.1875V7.55204L103.125 7.63782V6.22852H106.055H108.984V7.68376L122.656 7.79102L144.922 14.8223V19.5098V46.4629V49.5879H123.828L111.363 37.0879V34.3535L110.156 33.1816H108.203V35.916H75V33.1816H72.6562H70.3125V35.916H37.5V33.1816H35.1562V35.916L21.875 49.5879H0.78125V46.4629V19.5098Z" fill="#21517F"/>
<path id="Shape" d="M35.1562 35.9159L35.5149 36.2643L35.6562 36.1188V35.9159H35.1562ZM23.0469 7.00968L23.0508 6.50969L22.9636 6.50901L22.8813 6.53788L23.0469 7.00968ZM0.78125 49.5878H0.28125V50.0878H0.78125V49.5878ZM37.5 35.9159H37V36.4159H37.5V35.9159ZM70.3125 35.9159V36.4159H70.8125V35.9159H70.3125ZM75 35.9159H74.5V36.4159H75V35.9159ZM108.203 35.9159V36.4159H108.703V35.9159H108.203ZM111.363 37.0878H110.863V37.2945L111.008 37.4409L111.363 37.0878ZM144.922 49.5878V50.0878H145.422V49.5878H144.922ZM122.656 7.79094L122.807 7.31414L122.735 7.29154L122.66 7.29095L122.656 7.79094ZM56.6406 18.3378V17.8378H56.1406V18.3378H56.6406ZM56.6406 27.3222H56.1406V27.8222H56.6406V27.3222ZM89.0625 18.3378H89.5625V17.8378H89.0625V18.3378ZM89.0625 27.3222V27.8222H89.5625V27.3222H89.0625ZM93.3594 18.3378V17.8378H92.8594V18.3378H93.3594ZM93.3594 27.3222H92.8594V27.8222H93.3594V27.3222ZM113.672 22.2441H114.172V21.7441H113.672V22.2441ZM113.672 30.8378L113.318 31.1914L114.172 32.0449V30.8378H113.672ZM117.188 25.3691V24.8691H116.688V25.3691H117.188ZM117.188 33.1816H116.688V33.4316L116.887 33.5816L117.188 33.1816ZM103.125 6.22843V5.72843H102.625V6.22843H103.125ZM108.984 6.22843H109.484V5.72843H108.984V6.22843ZM106.055 1.1503L105.557 1.10075L105.555 1.12547V1.1503H106.055ZM109.375 0.369053L109.199 0.837218L109.284 0.869051L109.375 0.869053L109.375 0.369053ZM28.125 25.3691H28.625V24.8691H28.125V25.3691ZM28.125 33.1816L28.425 33.5816L28.625 33.4316V33.1816H28.125ZM22.375 46.4628V19.5097H21.375V46.4628H22.375ZM22.2286 46.8164L30.4317 38.6132L29.7246 37.9061L21.5214 46.1093L22.2286 46.8164ZM21.875 45.9628H0.78125V46.9628H21.875V45.9628ZM21.375 46.4628V49.5878H22.375V46.4628H21.375ZM22.0536 15.2892L35.3348 10.2111L34.9777 9.27704L21.6964 14.3552L22.0536 15.2892ZM21.375 14.8222V19.5097H22.375V14.8222H21.375ZM21.875 14.3222H0.78125V15.3222H21.875V14.3222ZM35.1562 10.2441H72.6562V9.24406H35.1562V10.2441ZM34.6562 9.74406V12.4784H35.6562V9.74406H34.6562ZM35.6562 33.1816V26.3456H34.6562V33.1816H35.6562ZM34.8027 32.828L29.7246 37.9061L30.4317 38.6132L35.5098 33.5351L34.8027 32.828ZM34.6562 33.1816V35.9159H35.6562V33.1816H34.6562ZM34.7976 35.5675L21.5164 49.2394L22.2336 49.9362L35.5149 36.2643L34.7976 35.5675ZM35.1562 33.6816H37.5V32.6816H35.1562V33.6816ZM110.656 33.1816V12.4784H109.656V33.1816H110.656ZM110.156 32.6816H108.203V33.6816H110.156V32.6816ZM109.808 33.5402L111.014 34.7121L111.711 33.9948L110.505 32.8229L109.808 33.5402ZM123.328 46.4628V49.5878H124.328V46.4628H123.328ZM123.828 46.9628H144.922V45.9628H123.828V46.9628ZM124.328 46.4628V19.5097H123.328V46.4628H124.328ZM124.177 46.1042L115.973 38.1354L115.277 38.8527L123.48 46.8214L124.177 46.1042ZM124.002 14.3535L110.33 9.27535L109.982 10.2128L123.654 15.2909L124.002 14.3535ZM123.828 15.3222H144.922V14.3222H123.828V15.3222ZM123.328 14.8222V19.5097H124.328V14.8222H123.328ZM110.156 9.24406H72.6562V10.2441H110.156V9.24406ZM109.656 9.74406V12.4784H110.656V9.74406H109.656ZM72.1562 9.74406V33.1816H73.1562V9.74406H72.1562ZM72.6562 32.6816H70.3125V33.6816H72.6562V32.6816ZM72.6562 33.6816H75V32.6816H72.6562V33.6816ZM35.1562 12.9784H53.9062V11.9784H35.1562V12.9784ZM34.6562 12.4784V19.5097H35.6562V12.4784H34.6562ZM34.9223 12.0365L29.8442 14.725L30.3121 15.6088L35.3902 12.9203L34.9223 12.0365ZM110.156 11.9784H91.4062V12.9784H110.156V11.9784ZM109.928 12.9231L115.396 15.7356L115.854 14.8463L110.385 12.0338L109.928 12.9231ZM53.9062 12.9784H91.4062V11.9784H53.9062V12.9784ZM53.4062 12.4784V19.5097H54.4062V12.4784H53.4062ZM54.4062 33.1816V26.3456H53.4062V33.1816H54.4062ZM53.9062 32.6816H37.5V33.6816H53.9062V32.6816ZM53.9062 33.6816H70.3125V32.6816H53.9062V33.6816ZM90.9062 12.4784V33.1816H91.9062V12.4784H90.9062ZM91.4062 32.6816H75V33.6816H91.4062V32.6816ZM91.4062 33.6816H108.203V32.6816H91.4062V33.6816ZM35.1562 20.0097H53.9062V19.0097H35.1562V20.0097ZM34.6562 19.5097V26.3456H35.6562V19.5097H34.6562ZM53.4062 19.5097V26.3456H54.4062V19.5097H53.4062ZM35.1562 26.8456H53.9062V25.8456H35.1562V26.8456ZM22.1089 19.9516L30.3121 15.6088L29.8442 14.725L21.6411 19.0678L22.1089 19.9516ZM21.875 19.0097H0.78125V20.0097H21.875V19.0097ZM29.5781 15.1669V38.2597H30.5781V15.1669H29.5781ZM1.28125 19.5097V14.8222H0.28125V19.5097H1.28125ZM0.28125 19.5097V46.4628H1.28125V19.5097H0.28125ZM0.946794 15.294L23.2124 7.48148L22.8813 6.53788L0.615706 14.3504L0.946794 15.294ZM23.043 7.50966L62.4961 7.81912L62.5039 6.81915L23.0508 6.50969L23.043 7.50966ZM0.28125 46.4628V49.5878H1.28125V46.4628H0.28125ZM0.78125 50.0878H21.875V49.0878H0.78125V50.0878ZM37 33.1816V35.9159H38V33.1816H37ZM37.5 36.4159H70.3125V35.4159H37.5V36.4159ZM70.8125 35.9159V33.1816H69.8125V35.9159H70.8125ZM74.5 33.1816V35.9159H75.5V33.1816H74.5ZM75 36.4159H108.203V35.4159H75V36.4159ZM108.703 35.9159V33.1816H107.703V35.9159H108.703ZM110.863 34.3534V37.0878H111.863V34.3534H110.863ZM111.008 37.4409L123.474 49.9409L124.182 49.2347L111.717 36.7347L111.008 37.4409ZM111.014 34.7121L115.277 38.8527L115.973 38.1354L111.711 33.9948L111.014 34.7121ZM123.828 50.0878H144.922V49.0878H123.828V50.0878ZM145.422 49.5878V46.4628H144.422V49.5878H145.422ZM145.422 46.4628V19.5097H144.422V46.4628H145.422ZM144.422 14.8222V19.5097H145.422V14.8222H144.422ZM145.072 14.3454L122.807 7.31414L122.506 8.26773L144.771 15.299L145.072 14.3454ZM122.66 7.29095L108.988 7.18369L108.98 8.18365L122.652 8.29092L122.66 7.29095ZM123.828 20.0097H144.922V19.0097H123.828V20.0097ZM124.057 19.065L115.854 14.8463L115.396 15.7356L123.599 19.9543L124.057 19.065ZM115.125 15.2909V38.4941H116.125V15.2909H115.125ZM92.1836 8.05194L103.121 8.13772L103.129 7.13775L92.1914 7.05197L92.1836 8.05194ZM58.9844 17.8378H56.6406V18.8378H58.9844V17.8378ZM56.1406 18.3378V27.3222H57.1406V18.3378H56.1406ZM56.6406 27.8222H58.9844V26.8222H56.6406V27.8222ZM86.7188 18.8378H89.0625V17.8378H86.7188V18.8378ZM88.5625 18.3378V27.3222H89.5625V18.3378H88.5625ZM89.0625 26.8222H86.7188V27.8222H89.0625V26.8222ZM96.0938 17.8378H93.3594V18.8378H96.0938V17.8378ZM92.8594 18.3378V27.3222H93.8594V18.3378H92.8594ZM93.3594 27.8222H96.0938V26.8222H93.3594V27.8222ZM112.891 22.7441H113.672V21.7441H112.891V22.7441ZM113.172 22.2441V30.8378H114.172V22.2441H113.172ZM114.025 30.4843L113.244 29.703L112.537 30.4101L113.318 31.1914L114.025 30.4843ZM118.75 24.8691H117.188V25.8691H118.75V24.8691ZM116.688 25.3691V33.1816H117.688V25.3691H116.688ZM116.887 33.5816L118.45 34.7534L119.05 33.9534L117.488 32.7816L116.887 33.5816ZM103.625 7.63773V6.22843H102.625V7.63773H103.625ZM103.125 6.72843H106.055V5.72843H103.125V6.72843ZM103.121 8.13772L108.98 8.18365L108.988 7.18369L103.129 7.13775L103.121 8.13772ZM109.484 7.68367V6.22843H108.484V7.68367H109.484ZM108.984 5.72843H106.055V6.72843H108.984V5.72843ZM106.555 6.22843V1.1503H105.555V6.22843H106.555ZM106.552 1.19986C106.569 1.02811 106.682 0.767408 107.008 0.61931C107.347 0.465494 108.011 0.391434 109.199 0.837218L109.551 -0.0991109C108.239 -0.59083 107.275 -0.599788 106.595 -0.291365C105.903 0.0227752 105.605 0.621451 105.557 1.10075L106.552 1.19986ZM109.375 0.869053C109.303 0.869051 109.415 0.850411 109.658 1.10514C109.882 1.33981 110.177 1.76814 110.473 2.50789L111.402 2.1365C111.073 1.31377 110.717 0.765527 110.381 0.414248C110.064 0.0830322 109.707 -0.130937 109.375 -0.130947L109.375 0.869053ZM26.5625 25.8691H28.125V24.8691H26.5625V25.8691ZM27.625 25.3691V33.1816H28.625V25.3691H27.625ZM27.825 32.7816L26.2625 33.9534L26.8625 34.7534L28.425 33.5816L27.825 32.7816Z" fill="white"/>
<path id="Path_2" d="M103.125 6.22852V7.63782L108.984 7.68376V6.22852H106.055H103.125Z" fill="#21517F"/>
<path id="Shape_2" d="M103.125 6.22843V6.10343H103V6.22843H103.125ZM103.125 7.63773H103V7.76176L103.124 7.76273L103.125 7.63773ZM108.984 7.68367L108.983 7.80867L109.109 7.80965V7.68367H108.984ZM108.984 6.22843H109.109V6.10343H108.984V6.22843ZM106.055 1.1503L105.93 1.13785V1.1503H106.055ZM109.375 0.369053L109.331 0.486095L109.352 0.494053L109.375 0.494053L109.375 0.369053ZM106.055 6.10343H103.125V6.35343H106.055V6.10343ZM103 6.22843V7.63773H103.25V6.22843H103ZM103.124 7.76273L108.983 7.80867L108.985 7.55867L103.126 7.51274L103.124 7.76273ZM109.109 7.68367V6.22843H108.859V7.68367H109.109ZM108.984 6.10343H106.055V6.35343H108.984V6.10343ZM106.18 6.22843V1.1503H105.93V6.22843H106.18ZM106.179 1.16269C106.208 0.875612 106.39 0.488171 106.853 0.277807C107.32 0.066013 108.096 0.0230849 109.331 0.486095L109.419 0.252012C108.154 -0.222481 107.302 -0.200308 106.75 0.0501378C106.195 0.302013 105.967 0.773948 105.93 1.13791L106.179 1.16269ZM109.375 0.494053C109.455 0.494056 109.658 0.562644 109.929 0.846057C110.195 1.12445 110.513 1.59775 110.821 2.36862L111.054 2.27577C110.737 1.48416 110.404 0.980883 110.11 0.673333C109.821 0.370799 109.556 0.244059 109.375 0.244053L109.375 0.494053Z" fill="black"/>
<path id="Path_3" d="M45.3125 14.8438H43.75V16.4062H45.3125V14.8438Z" fill="#F3DCB4"/>
<path id="Path_4" d="M45.3125 21.875H43.75V23.4375H45.3125V21.875Z" fill="#F3DCB4"/>
<path id="Path_5" d="M45.3125 28.9062H43.75V30.4688H45.3125V28.9062Z" fill="#F3DCB4"/>
<path id="Path_6" fill-rule="evenodd" clip-rule="evenodd" d="M45.3125 14.8438H43.75V16.4062H45.3125V14.8438Z" stroke="white" stroke-width="0.25"/>
<path id="Path_7" fill-rule="evenodd" clip-rule="evenodd" d="M45.3125 21.875H43.75V23.4375H45.3125V21.875Z" stroke="white" stroke-width="0.25"/>
<path id="Path_8" fill-rule="evenodd" clip-rule="evenodd" d="M45.3125 28.9062H43.75V30.4688H45.3125V28.9062Z" stroke="white" stroke-width="0.25"/>
<g id="Group 10">
<path id="Path_9" d="M62.5 7.31923V5.83789H66.4062" stroke="white" stroke-width="0.25"/>
<path id="Path_10" d="M62.5 7.31914L92.1875 7.55195" stroke="white" stroke-width="0.25"/>
<path id="Path_11" d="M92.1875 7.55204V5.83789H87.5" stroke="white" stroke-width="0.25"/>
<path id="Path_12" d="M87.5 5.83789V4.27539H82.4219V5.83789" stroke="white" stroke-width="0.25"/>
<path id="Path_13" d="M87.5 5.83789H82.4219" stroke="white" stroke-width="0.25"/>
<path id="Path_14" d="M82.4219 5.83789H71.4844" stroke="white" stroke-width="0.25"/>
<path id="Path_15" d="M66.4062 5.83789V4.27539H71.4844V5.83789" stroke="white" stroke-width="0.25"/>
<path id="Path_16" d="M66.4062 5.83789H71.4844" stroke="white" stroke-width="0.25"/>
</g>
</g>
</svg>
