<svg width="103" height="50" viewBox="0 0 103 50" fill="none" xmlns="http://www.w3.org/2000/svg">
<path fill-rule="evenodd" clip-rule="evenodd" d="M101.302 0.986816H1.32879C0.684063 0.986816 0.157715 1.51308 0.157715 2.15789C0.157715 2.80261 0.684063 3.32888 1.32879 3.32888H101.302C101.947 3.32888 102.474 2.80261 102.474 2.15789C102.474 1.51308 101.947 0.986816 101.302 0.986816ZM98.1314 49.0131C99.1577 49.0131 99.9867 48.1842 99.9867 47.1578V21.171H96.2761V47.1578C96.2761 48.1842 97.1182 49.0131 98.1314 49.0131ZM99.9867 5.96046H2.64458V46.2237C2.64458 47.2499 3.47353 48.0789 4.4998 48.0789C5.51299 48.0789 6.35511 47.2499 6.35511 46.2237V35.0921C6.35511 34.3684 6.93406 33.7763 7.6709 33.7763H49.9998V19.8552C49.9998 19.1315 50.5919 18.5394 51.3156 18.5394H99.9867V5.96046ZM81.5393 14.3684V11.3552H70.1841V14.3684H67.5525V10.0395C67.5525 9.31571 68.1445 8.72366 68.8683 8.72366H82.8551C83.592 8.72366 84.1708 9.31571 84.1708 10.0395V14.3684H81.5393Z" fill="#21517F"/>
<path d="M99.9867 21.171H100.112V21.046H99.9867V21.171ZM96.2761 21.171V21.046H96.1511V21.171H96.2761ZM2.64458 5.96046V5.83546H2.51958V5.96046H2.64458ZM99.9867 5.96046H100.112V5.83546H99.9867V5.96046ZM49.9998 33.7763V33.9013H50.1248V33.7763H49.9998ZM99.9867 18.5394V18.6644H100.112V18.5394H99.9867ZM81.5393 11.3552H81.6643V11.2302H81.5393V11.3552ZM81.5393 14.3684H81.4143V14.4934H81.5393V14.3684ZM70.1841 11.3552V11.2302H70.0591V11.3552H70.1841ZM70.1841 14.3684V14.4934H70.3091V14.3684H70.1841ZM67.5525 14.3684H67.4275V14.4934H67.5525V14.3684ZM84.1708 14.3684V14.4934H84.2958V14.3684H84.1708ZM1.32879 1.11182H101.302V0.861816H1.32879V1.11182ZM0.282715 2.15789C0.282715 1.58213 0.753093 1.11182 1.32879 1.11182V0.861816C0.615033 0.861816 0.0327148 1.44404 0.0327148 2.15789H0.282715ZM1.32879 3.20388C0.753087 3.20388 0.282715 2.73357 0.282715 2.15789H0.0327148C0.0327148 2.87166 0.615038 3.45388 1.32879 3.45388V3.20388ZM101.302 3.20388H1.32879V3.45388H101.302V3.20388ZM102.349 2.15789C102.349 2.73357 101.878 3.20388 101.302 3.20388V3.45388C102.016 3.45388 102.599 2.87166 102.599 2.15789H102.349ZM101.302 1.11182C101.878 1.11182 102.349 1.58213 102.349 2.15789H102.599C102.599 1.44404 102.016 0.861816 101.302 0.861816V1.11182ZM99.8617 47.1578C99.8617 48.1151 99.0887 48.8881 98.1314 48.8881V49.1381C99.2267 49.1381 100.112 48.2532 100.112 47.1578H99.8617ZM99.8617 21.171V47.1578H100.112V21.171H99.8617ZM96.2761 21.296H99.9867V21.046H96.2761V21.296ZM96.4011 47.1578V21.171H96.1511V47.1578H96.4011ZM98.1314 48.8881C97.1867 48.8881 96.4011 48.1146 96.4011 47.1578H96.1511C96.1511 48.2538 97.0498 49.1381 98.1314 49.1381V48.8881ZM2.64458 6.08546H99.9867V5.83546H2.64458V6.08546ZM2.76958 46.2237V5.96046H2.51958V46.2237H2.76958ZM4.4998 47.9539C3.54257 47.9539 2.76958 47.1809 2.76958 46.2237H2.51958C2.51958 47.319 3.40449 48.2039 4.4998 48.2039V47.9539ZM6.23011 46.2237C6.23011 47.1803 5.44453 47.9539 4.4998 47.9539V48.2039C5.58144 48.2039 6.48011 47.3196 6.48011 46.2237H6.23011ZM6.23011 35.0921V46.2237H6.48011V35.0921H6.23011ZM7.6709 33.6513C6.86421 33.6513 6.23011 34.3002 6.23011 35.0921H6.48011C6.48011 34.4366 7.00391 33.9013 7.6709 33.9013V33.6513ZM49.9998 33.6513H7.6709V33.9013H49.9998V33.6513ZM49.8748 19.8552V33.7763H50.1248V19.8552H49.8748ZM51.3156 18.4144C50.5229 18.4144 49.8748 19.0625 49.8748 19.8552H50.1248C50.1248 19.2006 50.661 18.6644 51.3156 18.6644V18.4144ZM99.9867 18.4144H51.3156V18.6644H99.9867V18.4144ZM99.8617 5.96046V18.5394H100.112V5.96046H99.8617ZM81.4143 11.3552V14.3684H81.6643V11.3552H81.4143ZM70.1841 11.4802H81.5393V11.2302H70.1841V11.4802ZM70.3091 14.3684V11.3552H70.0591V14.3684H70.3091ZM67.5525 14.4934H70.1841V14.2434H67.5525V14.4934ZM67.4275 10.0395V14.3684H67.6775V10.0395H67.4275ZM68.8683 8.59866C68.0755 8.59866 67.4275 9.24667 67.4275 10.0395H67.6775C67.6775 9.38474 68.2136 8.84866 68.8683 8.84866V8.59866ZM82.8551 8.59866H68.8683V8.84866H82.8551V8.59866ZM84.2958 10.0395C84.2958 9.24749 83.6618 8.59866 82.8551 8.59866V8.84866C83.5221 8.84866 84.0458 9.38392 84.0458 10.0395H84.2958ZM84.2958 14.3684V10.0395H84.0458V14.3684H84.2958ZM81.5393 14.4934H84.1708V14.2434H81.5393V14.4934Z" fill="black"/>
</svg>
