<svg width="45" height="50" viewBox="0 0 45 50" fill="none" xmlns="http://www.w3.org/2000/svg">
<path fill-rule="evenodd" clip-rule="evenodd" d="M43.9024 49.8188H37.6196C37.1877 49.8188 36.8383 49.4689 36.8383 49.0375V36.5913H8.47372V49.0375C8.47372 49.4689 8.12439 49.8188 7.69247 49.8188H1.40967C0.977892 49.8188 0.628418 49.4689 0.628418 49.0375V13.8195V9.06406H0.63352C0.63352 8.95453 0.651497 8.84462 0.697893 8.74171L4.36844 0.64006C4.49509 0.360443 4.77352 0.181152 5.08022 0.181152H40.2319C40.5386 0.181152 40.8171 0.360443 40.9438 0.64006L44.6142 8.74171C44.6606 8.84462 44.6786 8.95453 44.6786 9.06406H44.6836V13.8195V49.0375C44.6836 49.4689 44.3342 49.8188 43.9024 49.8188ZM8.47372 30.0686H36.8383V14.6007H8.47372V30.0686ZM2.19092 13.0382V9.84531H43.1211V13.0382H2.19092ZM8.47372 31.6311V35.0288H36.8383V31.6311H8.47372Z" fill="#21517F"/>
<path d="M36.8383 36.5913H36.9633V36.4663H36.8383V36.5913ZM8.47372 36.5913V36.4663H8.34872V36.5913H8.47372ZM0.628418 9.06406V8.93906H0.503418V9.06406H0.628418ZM0.63352 9.06406V9.18906H0.75852V9.06406H0.63352ZM0.697893 8.74171L0.584034 8.69013L0.583941 8.69034L0.697893 8.74171ZM4.36844 0.64006L4.4823 0.691646L4.48231 0.691634L4.36844 0.64006ZM40.9438 0.64006L40.8299 0.691634L40.8299 0.691645L40.9438 0.64006ZM44.6142 8.74171L44.7282 8.69034L44.7281 8.69013L44.6142 8.74171ZM44.6786 9.06406H44.5536V9.18906H44.6786V9.06406ZM44.6836 9.06406H44.8086V8.93906H44.6836V9.06406ZM36.8383 30.0686V30.1936H36.9633V30.0686H36.8383ZM8.47372 30.0686H8.34872V30.1936H8.47372V30.0686ZM36.8383 14.6007H36.9633V14.4757H36.8383V14.6007ZM8.47372 14.6007V14.4757H8.34872V14.6007H8.47372ZM2.19092 9.84531V9.72031H2.06592V9.84531H2.19092ZM2.19092 13.0382H2.06592V13.1632H2.19092V13.0382ZM43.1211 9.84531H43.2461V9.72031H43.1211V9.84531ZM43.1211 13.0382V13.1632H43.2461V13.0382H43.1211ZM8.47372 35.0288H8.34872V35.1538H8.47372V35.0288ZM8.47372 31.6311V31.5061H8.34872V31.6311H8.47372ZM36.8383 35.0288V35.1538H36.9633V35.0288H36.8383ZM36.8383 31.6311H36.9633V31.5061H36.8383V31.6311ZM37.6196 49.9438H43.9024V49.6938H37.6196V49.9438ZM36.7133 49.0375C36.7133 49.5379 37.1186 49.9438 37.6196 49.9438V49.6938C37.2568 49.6938 36.9633 49.4 36.9633 49.0375H36.7133ZM36.7133 36.5913V49.0375H36.9633V36.5913H36.7133ZM8.47372 36.7163H36.8383V36.4663H8.47372V36.7163ZM8.59872 49.0375V36.5913H8.34872V49.0375H8.59872ZM7.69247 49.9438C8.19348 49.9438 8.59872 49.5379 8.59872 49.0375H8.34872C8.34872 49.4 8.05531 49.6938 7.69247 49.6938V49.9438ZM1.40967 49.9438H7.69247V49.6938H1.40967V49.9438ZM0.503418 49.0375C0.503418 49.5379 0.908822 49.9438 1.40967 49.9438V49.6938C1.04696 49.6938 0.753418 49.3999 0.753418 49.0375H0.503418ZM0.503418 13.8195V49.0375H0.753418V13.8195H0.503418ZM0.503418 9.06406V13.8195H0.753418V9.06406H0.503418ZM0.63352 8.93906H0.628418V9.18906H0.63352V8.93906ZM0.583941 8.69034C0.528704 8.81284 0.50852 8.94104 0.50852 9.06406H0.75852C0.75852 8.96801 0.77429 8.87639 0.811846 8.79309L0.583941 8.69034ZM4.25458 0.588475L0.584034 8.69013L0.811753 8.7933L4.4823 0.691646L4.25458 0.588475ZM5.08022 0.0561523C4.72449 0.0561523 4.40149 0.26412 4.25458 0.588487L4.48231 0.691634C4.58869 0.456767 4.82255 0.306152 5.08022 0.306152V0.0561523ZM40.2319 0.0561523H5.08022V0.306152H40.2319V0.0561523ZM41.0576 0.588487C40.9107 0.264104 40.5876 0.0561523 40.2319 0.0561523V0.306152C40.4896 0.306152 40.7235 0.456782 40.8299 0.691634L41.0576 0.588487ZM44.7281 8.69013L41.0576 0.588476L40.8299 0.691645L44.5004 8.7933L44.7281 8.69013ZM44.8036 9.06406C44.8036 8.94104 44.7834 8.81284 44.7282 8.69034L44.5003 8.79309C44.5378 8.87639 44.5536 8.96801 44.5536 9.06406H44.8036ZM44.6836 8.93906H44.6786V9.18906H44.6836V8.93906ZM44.8086 13.8195V9.06406H44.5586V13.8195H44.8086ZM44.8086 49.0375V13.8195H44.5586V49.0375H44.8086ZM43.9024 49.9438C44.4033 49.9438 44.8086 49.5379 44.8086 49.0375H44.5586C44.5586 49.4 44.2651 49.6938 43.9024 49.6938V49.9438ZM36.8383 29.9436H8.47372V30.1936H36.8383V29.9436ZM36.7133 14.6007V30.0686H36.9633V14.6007H36.7133ZM8.47372 14.7257H36.8383V14.4757H8.47372V14.7257ZM8.59872 30.0686V14.6007H8.34872V30.0686H8.59872ZM2.06592 9.84531V13.0382H2.31592V9.84531H2.06592ZM43.1211 9.72031H2.19092V9.97031H43.1211V9.72031ZM43.2461 13.0382V9.84531H42.9961V13.0382H43.2461ZM2.19092 13.1632H43.1211V12.9132H2.19092V13.1632ZM8.59872 35.0288V31.6311H8.34872V35.0288H8.59872ZM36.8383 34.9038H8.47372V35.1538H36.8383V34.9038ZM36.7133 31.6311V35.0288H36.9633V31.6311H36.7133ZM8.47372 31.7561H36.8383V31.5061H8.47372V31.7561Z" fill="black"/>
</svg>
