<svg width="74" height="50" viewBox="0 0 74 50" fill="none" xmlns="http://www.w3.org/2000/svg">
<g>
<path d="M2.16064 23.875H71.5894C72.7308 23.875 73.625 24.6746 73.625 25.625C73.625 26.5754 72.7308 27.375 71.5894 27.375H2.16064C1.0192 27.375 0.125 26.5754 0.125 25.625C0.125 24.6746 1.0192 23.875 2.16064 23.875Z" fill="#21517F" stroke="black" stroke-width="0.25"/>
<path d="M51.9801 38.7287C51.5047 35.9786 50.0079 33.4005 47.6972 31.375H62.765C64.1401 34.2641 64.875 37.3983 64.875 40.625V48.125C64.875 49.0748 63.9791 49.875 62.8365 49.875H54.1827C53.0401 49.875 52.1442 49.0748 52.1442 48.125V42.5V42.375H52.0192H21.7308H21.6058V42.5V48.125C21.6058 49.0748 20.7099 49.875 19.5673 49.875H10.9135C9.77087 49.875 8.875 49.0748 8.875 48.125V40.625C8.875 37.3983 9.60987 34.2641 10.985 31.375H26.0528C23.742 33.4005 22.2453 35.9786 21.7699 38.7287L21.7446 38.875H21.893H51.857H52.0054L51.9801 38.7287Z" fill="#21517F" stroke="black" stroke-width="0.25"/>
<mask id="path-3-inside-1" fill="white">
<path fill-rule="evenodd" clip-rule="evenodd" d="M39.356 19.0296C39.1325 19.8079 38.7813 20.5542 38.3089 21.25H27.5839C26.7125 19.9666 26.25 18.5123 26.25 16.9994V11.1102C26.25 10.4974 26.85 10 27.5893 10H38.3036C39.0429 10 39.6429 10.4974 39.6429 11.1102V12.3684H43.6607C44.4004 12.3684 45 12.8655 45 13.4786V17.9194C45 18.5325 44.4004 19.0296 43.6607 19.0296H39.356ZM42.5 17.5V15H40V17.5H42.5Z"/>
</mask>
<path fill-rule="evenodd" clip-rule="evenodd" d="M39.356 19.0296C39.1325 19.8079 38.7813 20.5542 38.3089 21.25H27.5839C26.7125 19.9666 26.25 18.5123 26.25 16.9994V11.1102C26.25 10.4974 26.85 10 27.5893 10H38.3036C39.0429 10 39.6429 10.4974 39.6429 11.1102V12.3684H43.6607C44.4004 12.3684 45 12.8655 45 13.4786V17.9194C45 18.5325 44.4004 19.0296 43.6607 19.0296H39.356ZM42.5 17.5V15H40V17.5H42.5Z" fill="#21517F"/>
<path d="M38.3089 21.25V21.5H38.4414L38.5158 21.3904L38.3089 21.25ZM39.356 19.0296V18.7796H39.1677L39.1157 18.9606L39.356 19.0296ZM27.5839 21.25L27.3771 21.3904L27.4515 21.5H27.5839V21.25ZM39.6429 12.3684H39.3929V12.6184H39.6429V12.3684ZM42.5 15H42.75V14.75H42.5V15ZM42.5 17.5V17.75H42.75V17.5H42.5ZM40 15V14.75H39.75V15H40ZM40 17.5H39.75V17.75H40V17.5ZM38.5158 21.3904C39.0026 20.6734 39.3653 19.9031 39.5963 19.0986L39.1157 18.9606C38.8997 19.7127 38.5601 20.435 38.1021 21.1096L38.5158 21.3904ZM27.5839 21.5H38.3089V21H27.5839V21.5ZM26 16.9994C26 18.5647 26.4789 20.0676 27.3771 21.3904L27.7908 21.1096C26.9461 19.8656 26.5 18.4598 26.5 16.9994H26ZM26 11.1102V16.9994H26.5V11.1102H26ZM27.5893 9.75C26.7579 9.75 26 10.3174 26 11.1102H26.5C26.5 10.6773 26.9421 10.25 27.5893 10.25V9.75ZM38.3036 9.75H27.5893V10.25H38.3036V9.75ZM39.8929 11.1102C39.8929 10.3174 39.135 9.75 38.3036 9.75V10.25C38.9507 10.25 39.3929 10.6773 39.3929 11.1102H39.8929ZM39.8929 12.3684V11.1102H39.3929V12.3684H39.8929ZM43.6607 12.1184H39.6429V12.6184H43.6607V12.1184ZM45.25 13.4786C45.25 12.6856 44.4925 12.1184 43.6607 12.1184V12.6184C44.3082 12.6184 44.75 13.0454 44.75 13.4786H45.25ZM45.25 17.9194V13.4786H44.75V17.9194H45.25ZM43.6607 19.2796C44.4925 19.2796 45.25 18.7125 45.25 17.9194H44.75C44.75 18.3526 44.3082 18.7796 43.6607 18.7796V19.2796ZM39.356 19.2796H43.6607V18.7796H39.356V19.2796ZM42.25 15V17.5H42.75V15H42.25ZM40 15.25H42.5V14.75H40V15.25ZM40.25 17.5V15H39.75V17.5H40.25ZM42.5 17.25H40V17.75H42.5V17.25Z" fill="black" mask="url(#path-3-inside-1)"/>
<path d="M34.0417 6.25C34.0417 6.85391 33.4635 7.375 32.7083 7.375C31.9532 7.375 31.375 6.85391 31.375 6.25C31.375 4.26867 33.2629 2.625 35.625 2.625H44.375C45.2294 2.625 45.9583 2.02567 45.9583 1.25C45.9583 0.646086 46.5365 0.125 47.2917 0.125C48.0468 0.125 48.625 0.646086 48.625 1.25C48.625 3.23133 46.7371 4.875 44.375 4.875H35.625C34.7706 4.875 34.0417 5.47433 34.0417 6.25Z" fill="#21517F" stroke="black" stroke-width="0.25"/>
</g>
</svg>
