<svg width="89" height="49" viewBox="0 0 89 49" fill="none" xmlns="http://www.w3.org/2000/svg">
<mask id="path-1-inside-1" fill="white">
<path fill-rule="evenodd" clip-rule="evenodd" d="M4.66617 27.421H4.76797H17.3426H21.5077V32.3769V36.5043V47.241H19.7922L18.5664 37.3308H3.90372L3.0375 47.241H0.0322266V32.3749V29.0721V27.421V0.993164H3.0375L4.66617 27.421ZM4.04668 35.6795H18.3612L17.9544 32.3771H4.33673L4.04668 35.6795Z"/>
</mask>
<path fill-rule="evenodd" clip-rule="evenodd" d="M4.66617 27.421H4.76797H17.3426H21.5077V32.3769V36.5043V47.241H19.7922L18.5664 37.3308H3.90372L3.0375 47.241H0.0322266V32.3749V29.0721V27.421V0.993164H3.0375L4.66617 27.421ZM4.04668 35.6795H18.3612L17.9544 32.3771H4.33673L4.04668 35.6795Z" fill="#21517F"/>
<path d="M4.66617 27.421L4.41664 27.4364L4.4311 27.671H4.66617V27.421ZM21.5077 27.421H21.7577V27.171H21.5077V27.421ZM21.5077 47.241V47.491H21.7577V47.241H21.5077ZM19.7922 47.241L19.5441 47.2717L19.5712 47.491H19.7922V47.241ZM18.5664 37.3308L18.8145 37.3001L18.7874 37.0808H18.5664V37.3308ZM3.90372 37.3308V37.0808H3.67462L3.65467 37.309L3.90372 37.3308ZM3.0375 47.241V47.491H3.26661L3.28655 47.2628L3.0375 47.241ZM0.0322266 47.241H-0.217773V47.491H0.0322266V47.241ZM0.0322266 0.993164V0.743164H-0.217773V0.993164H0.0322266ZM3.0375 0.993164L3.28703 0.977787L3.27257 0.743164H3.0375V0.993164ZM18.3612 35.6795V35.9295H18.6439L18.6094 35.6489L18.3612 35.6795ZM4.04668 35.6795L3.79764 35.6576L3.77376 35.9295H4.04668V35.6795ZM17.9544 32.3771L18.2025 32.3465L18.1755 32.1271H17.9544V32.3771ZM4.33673 32.3771V32.1271H4.10773L4.08769 32.3552L4.33673 32.3771ZM4.76797 27.171H4.66617V27.671H4.76797V27.171ZM17.3426 27.171H4.76797V27.671H17.3426V27.171ZM21.5077 27.171H17.3426V27.671H21.5077V27.171ZM21.7577 32.3769V27.421H21.2577V32.3769H21.7577ZM21.7577 36.5043V32.3769H21.2577V36.5043H21.7577ZM21.7577 47.241V36.5043H21.2577V47.241H21.7577ZM19.7922 47.491H21.5077V46.991H19.7922V47.491ZM18.3183 37.3615L19.5441 47.2717L20.0403 47.2103L18.8145 37.3001L18.3183 37.3615ZM3.90372 37.5808H18.5664V37.0808H3.90372V37.5808ZM3.28655 47.2628L4.15277 37.3526L3.65467 37.309L2.78845 47.2192L3.28655 47.2628ZM0.0322266 47.491H3.0375V46.991H0.0322266V47.491ZM-0.217773 32.3749V47.241H0.282227V32.3749H-0.217773ZM-0.217773 29.0721V32.3749H0.282227V29.0721H-0.217773ZM-0.217773 27.421V29.0721H0.282227V27.421H-0.217773ZM-0.217773 0.993164V27.421H0.282227V0.993164H-0.217773ZM3.0375 0.743164H0.0322266V1.24316H3.0375V0.743164ZM4.91569 27.4056L3.28703 0.977787L2.78798 1.00854L4.41664 27.4364L4.91569 27.4056ZM18.3612 35.4295H4.04668V35.9295H18.3612V35.4295ZM17.7063 32.4076L18.1131 35.71L18.6094 35.6489L18.2025 32.3465L17.7063 32.4076ZM4.33673 32.6271H17.9544V32.1271H4.33673V32.6271ZM4.29572 35.7014L4.58577 32.3989L4.08769 32.3552L3.79764 35.6576L4.29572 35.7014Z" fill="black" mask="url(#path-1-inside-1)"/>
<mask id="path-3-inside-2" fill="white">
<path fill-rule="evenodd" clip-rule="evenodd" d="M83.0308 27.421H83.1326L84.7632 0.993164H88.1806V27.4226V29.0741V32.3769V47.243H84.7648L83.8988 37.3328H69.2361L68.0101 47.243H65.0576V32.3769V27.421H70.4601H83.0308ZM69.4377 35.6795H83.7521L83.464 32.3771H69.8463L69.4377 35.6795Z"/>
</mask>
<path fill-rule="evenodd" clip-rule="evenodd" d="M83.0308 27.421H83.1326L84.7632 0.993164H88.1806V27.4226V29.0741V32.3769V47.243H84.7648L83.8988 37.3328H69.2361L68.0101 47.243H65.0576V32.3769V27.421H70.4601H83.0308ZM69.4377 35.6795H83.7521L83.464 32.3771H69.8463L69.4377 35.6795Z" fill="#21517F"/>
<path d="M83.1326 27.421V27.671H83.3677L83.3821 27.4364L83.1326 27.421ZM84.7632 0.993164V0.743164H84.5282L84.5137 0.977768L84.7632 0.993164ZM88.1806 0.993164H88.4306V0.743164H88.1806V0.993164ZM88.1806 47.243V47.493H88.4306V47.243H88.1806ZM84.7648 47.243L84.5158 47.2647L84.5357 47.493H84.7648V47.243ZM83.8988 37.3328L84.1478 37.311L84.1279 37.0828H83.8988V37.3328ZM69.2361 37.3328V37.0828H69.0151L68.988 37.3021L69.2361 37.3328ZM68.0101 47.243V47.493H68.2311L68.2582 47.2737L68.0101 47.243ZM65.0576 47.243H64.8076V47.493H65.0576V47.243ZM65.0576 27.421V27.171H64.8076V27.421H65.0576ZM83.7521 35.6795V35.9295H84.0248L84.0011 35.6578L83.7521 35.6795ZM69.4377 35.6795L69.1896 35.6488L69.1549 35.9295H69.4377V35.6795ZM83.464 32.3771L83.7131 32.3553L83.6931 32.1271H83.464V32.3771ZM69.8463 32.3771V32.1271H69.6254L69.5982 32.3464L69.8463 32.3771ZM83.1326 27.171H83.0308V27.671H83.1326V27.171ZM84.5137 0.977768L82.8831 27.4056L83.3821 27.4364L85.0128 1.00856L84.5137 0.977768ZM88.1806 0.743164H84.7632V1.24316H88.1806V0.743164ZM88.4306 27.4226V0.993164H87.9306V27.4226H88.4306ZM88.4306 29.0741V27.4226H87.9306V29.0741H88.4306ZM88.4306 32.3769V29.0741H87.9306V32.3769H88.4306ZM88.4306 47.243V32.3769H87.9306V47.243H88.4306ZM84.7648 47.493H88.1806V46.993H84.7648V47.493ZM83.6497 37.3545L84.5158 47.2647L85.0139 47.2212L84.1478 37.311L83.6497 37.3545ZM69.2361 37.5828H83.8988V37.0828H69.2361V37.5828ZM68.2582 47.2737L69.4842 37.3635L68.988 37.3021L67.762 47.2123L68.2582 47.2737ZM65.0576 47.493H68.0101V46.993H65.0576V47.493ZM64.8076 32.3769V47.243H65.3076V32.3769H64.8076ZM64.8076 27.421V32.3769H65.3076V27.421H64.8076ZM70.4601 27.171H65.0576V27.671H70.4601V27.171ZM83.0308 27.171H70.4601V27.671H83.0308V27.171ZM83.7521 35.4295H69.4377V35.9295H83.7521V35.4295ZM83.215 32.3988L83.503 35.7012L84.0011 35.6578L83.7131 32.3553L83.215 32.3988ZM69.8463 32.6271H83.464V32.1271H69.8463V32.6271ZM69.6858 35.7102L70.0944 32.4078L69.5982 32.3464L69.1896 35.6488L69.6858 35.7102Z" fill="black" mask="url(#path-3-inside-2)"/>
<path d="M34.4687 21.9763V21.8513H34.3437H19.4273C18.8497 21.8513 18.3701 21.3549 18.3701 20.7277V16.1412C18.3701 15.514 18.8497 15.0176 19.4273 15.0176H72.063C72.6405 15.0176 73.1201 15.514 73.1201 16.1412V20.7277C73.1201 21.3554 72.6417 21.8513 72.0676 21.8513H57.1513H57.0263V21.9763V24.6838H51.7851H51.6601V24.8088V45.9013C51.6601 45.9192 51.658 45.9384 51.6546 45.9643C51.6542 45.9674 51.6537 45.9708 51.6533 45.9743C51.6503 45.9966 51.6465 46.0245 51.6449 46.0526L51.6374 46.1847H51.7697H57.0247V48.7676H49.1013H42.3939H34.4703V46.1847H39.7253H39.8576L39.8501 46.0527C39.8485 46.0244 39.8447 45.9968 39.8418 45.9747C39.8413 45.9712 39.8408 45.9678 39.8404 45.9646C39.837 45.9393 39.835 45.92 39.835 45.9013V24.8088V24.6838H39.71H34.4687V21.9763Z" fill="#21517F" stroke="black" stroke-width="0.25"/>
</svg>
