<svg width="58" height="50" viewBox="0 0 58 50" fill="none" xmlns="http://www.w3.org/2000/svg">
<path fill-rule="evenodd" clip-rule="evenodd" d="M3.44531 0.320312H54.3594L56.7188 5.09374H1.09379L3.44531 0.320312ZM57.1953 14.9453H42.9766H18.3516H0.617188V6.65624H57.1953V14.9453ZM30.2813 32.3379C30.2813 33.0995 29.6657 33.7168 28.9063 33.7168C28.1469 33.7168 27.5313 33.0995 27.5313 32.3379C27.5313 31.5764 28.1469 30.959 28.9063 30.959C29.6657 30.959 30.2813 31.5764 30.2813 32.3379ZM13.6641 49.6797H17.1719L26.6953 37.4375C26.8906 37.1875 27.2188 37.0781 27.5234 37.1641C27.9532 37.2891 28.3828 37.3516 28.8125 37.3516C29.3047 37.375 29.7968 37.3047 30.2891 37.1641C30.5937 37.0781 30.9219 37.1875 31.1172 37.4375L40.6407 49.6797H44.1485L33.3047 35.7344C33.1094 35.4844 33.0859 35.1406 33.25 34.8594C33.6953 34.0938 33.9297 33.2187 33.9297 32.336C33.9297 31.4532 33.6953 30.5782 33.25 29.8125C33.0859 29.5391 33.1094 29.1875 33.3047 28.9375L42.9766 16.5078H39.461L31.1172 27.2344C30.9687 27.4297 30.7422 27.5391 30.5 27.5391C30.4297 27.5391 30.3594 27.5313 30.2891 27.5078C29.8593 27.3828 29.4297 27.3203 29 27.3203C28.5078 27.2969 28.0156 27.3672 27.5234 27.5078C27.2188 27.5938 26.8906 27.4844 26.6953 27.2344L18.3516 16.5078H14.8359L24.5078 28.9375C24.7031 29.1875 24.7266 29.5391 24.5625 29.8125C24.1172 30.5782 23.8828 31.4532 23.8828 32.336C23.8828 33.2187 24.1172 34.0938 24.5625 34.8594C24.7266 35.1406 24.7031 35.4844 24.5078 35.7344L13.6641 49.6797ZM28.9063 29.3985C30.5313 29.3985 31.8438 30.7188 31.8438 32.336C31.8438 33.9609 30.5313 35.2812 28.9063 35.2812C27.2813 35.2812 25.9688 33.9609 25.9688 32.336C25.9688 30.7188 27.2813 29.3985 28.9063 29.3985Z" fill="#21517F"/>
<path d="M54.3594 0.320312L54.4715 0.264925L54.4371 0.195312H54.3594V0.320312ZM3.44531 0.320312V0.195312H3.36754L3.33318 0.265073L3.44531 0.320312ZM56.7188 5.09374V5.21874H56.92L56.8308 5.03835L56.7188 5.09374ZM1.09379 5.09374L0.981654 5.0385L0.892863 5.21874H1.09379V5.09374ZM57.1953 14.9453V15.0703H57.3203V14.9453H57.1953ZM0.617188 14.9453H0.492188V15.0703H0.617188V14.9453ZM0.617188 6.65624V6.53124H0.492188V6.65624H0.617188ZM57.1953 6.65624H57.3203V6.53124H57.1953V6.65624ZM17.1719 49.6797V49.8047H17.233L17.2705 49.7564L17.1719 49.6797ZM13.6641 49.6797L13.5654 49.6029L13.4085 49.8047H13.6641V49.6797ZM26.6953 37.4375L26.5968 37.3606L26.5967 37.3608L26.6953 37.4375ZM27.5234 37.1641L27.5583 37.0441L27.5574 37.0438L27.5234 37.1641ZM28.8125 37.3516L28.8185 37.2266H28.8125V37.3516ZM30.2891 37.1641L30.2551 37.0438L30.2548 37.0439L30.2891 37.1641ZM31.1172 37.4375L31.2159 37.3608L31.2157 37.3606L31.1172 37.4375ZM40.6407 49.6797L40.542 49.7564L40.5795 49.8047H40.6407V49.6797ZM44.1485 49.6797V49.8047H44.404L44.2471 49.6029L44.1485 49.6797ZM33.3047 35.7344L33.4034 35.6577L33.4032 35.6574L33.3047 35.7344ZM33.25 34.8594L33.358 34.9224L33.3581 34.9222L33.25 34.8594ZM33.25 29.8125L33.3581 29.7496L33.3572 29.7482L33.25 29.8125ZM33.3047 28.9375L33.4032 29.0145L33.4034 29.0143L33.3047 28.9375ZM42.9766 16.5078L43.0752 16.5846L43.2322 16.3828H42.9766V16.5078ZM39.461 16.5078V16.3828H39.3998L39.3623 16.4311L39.461 16.5078ZM31.1172 27.2344L31.0185 27.1576L31.0177 27.1587L31.1172 27.2344ZM30.2891 27.5078L30.3287 27.3891L30.324 27.3878L30.2891 27.5078ZM29 27.3203L28.9941 27.4453H29V27.3203ZM27.5234 27.5078L27.5574 27.6281L27.5578 27.628L27.5234 27.5078ZM26.6953 27.2344L26.5967 27.3111L26.5968 27.3113L26.6953 27.2344ZM18.3516 16.5078L18.4502 16.4311L18.4127 16.3828H18.3516V16.5078ZM14.8359 16.5078V16.3828H14.5803L14.7373 16.5846L14.8359 16.5078ZM24.5078 28.9375L24.4092 29.0143L24.4093 29.0145L24.5078 28.9375ZM24.5625 29.8125L24.4553 29.7482L24.4545 29.7497L24.5625 29.8125ZM24.5625 34.8594L24.4545 34.9222L24.4546 34.9224L24.5625 34.8594ZM24.5078 35.7344L24.4093 35.6574L24.4091 35.6577L24.5078 35.7344ZM54.3594 0.195312H3.44531V0.445312H54.3594V0.195312ZM56.8308 5.03835L54.4715 0.264925L54.2473 0.3757L56.6067 5.14913L56.8308 5.03835ZM1.09379 5.21874H56.7188V4.96874H1.09379V5.21874ZM3.33318 0.265073L0.981654 5.0385L1.20592 5.14898L3.55744 0.375552L3.33318 0.265073ZM42.9766 15.0703H57.1953V14.8203H42.9766V15.0703ZM18.3516 15.0703H42.9766V14.8203H18.3516V15.0703ZM0.617188 15.0703H18.3516V14.8203H0.617188V15.0703ZM0.492188 6.65624V14.9453H0.742188V6.65624H0.492188ZM57.1953 6.53124H0.617188V6.78124H57.1953V6.53124ZM57.3203 14.9453V6.65624H57.0703V14.9453H57.3203ZM28.9063 33.8418C29.735 33.8418 30.4063 33.1682 30.4063 32.3379H30.1563C30.1563 33.0307 29.5963 33.5918 28.9063 33.5918V33.8418ZM27.4063 32.3379C27.4063 33.1682 28.0775 33.8418 28.9063 33.8418V33.5918C28.2162 33.5918 27.6563 33.0307 27.6563 32.3379H27.4063ZM28.9063 30.834C28.0775 30.834 27.4063 31.5077 27.4063 32.3379H27.6563C27.6563 31.6451 28.2162 31.084 28.9063 31.084V30.834ZM30.4063 32.3379C30.4063 31.5077 29.735 30.834 28.9063 30.834V31.084C29.5963 31.084 30.1563 31.6451 30.1563 32.3379H30.4063ZM17.1719 49.5547H13.6641V49.8047H17.1719V49.5547ZM26.5967 37.3608L17.0732 49.6029L17.2705 49.7564L26.794 37.5143L26.5967 37.3608ZM27.5574 37.0438C27.2032 36.9438 26.823 37.0711 26.5968 37.3606L26.7938 37.5145C26.9583 37.3039 27.2344 37.2124 27.4895 37.2844L27.5574 37.0438ZM28.8125 37.2266C28.3951 37.2266 27.9772 37.1659 27.5583 37.0441L27.4885 37.2841C27.9291 37.4123 28.3705 37.4766 28.8125 37.4766V37.2266ZM30.2548 37.0439C29.773 37.1815 29.2947 37.2494 28.8185 37.2267L28.8066 37.4764C29.3148 37.5006 29.8206 37.4279 30.3234 37.2843L30.2548 37.0439ZM31.2157 37.3606C30.9896 37.0711 30.6093 36.9438 30.2551 37.0438L30.323 37.2844C30.5782 37.2124 30.8542 37.3039 31.0187 37.5145L31.2157 37.3606ZM40.7393 49.6029L31.2159 37.3608L31.0186 37.5143L40.542 49.7564L40.7393 49.6029ZM44.1485 49.5547H40.6407V49.8047H44.1485V49.5547ZM33.206 35.8111L44.0498 49.7564L44.2471 49.6029L33.4034 35.6577L33.206 35.8111ZM33.142 34.7964C32.9525 35.1212 32.979 35.5205 33.2062 35.8113L33.4032 35.6574C33.2398 35.4483 33.2193 35.16 33.358 34.9224L33.142 34.7964ZM33.8047 32.336C33.8047 33.1968 33.5761 34.0501 33.142 34.7965L33.3581 34.9222C33.8145 34.1374 34.0547 33.2407 34.0547 32.336H33.8047ZM33.142 29.8753C33.5761 30.6218 33.8047 31.4751 33.8047 32.336H34.0547C34.0547 31.4312 33.8145 30.5345 33.3581 29.7497L33.142 29.8753ZM33.2062 28.8605C32.9793 29.151 32.9519 29.5587 33.1428 29.8768L33.3572 29.7482C33.22 29.5195 33.2395 29.2241 33.4032 29.0145L33.2062 28.8605ZM42.8779 16.4311L33.2061 28.8607L33.4034 29.0143L43.0752 16.5846L42.8779 16.4311ZM39.461 16.6328H42.9766V16.3828H39.461V16.6328ZM31.2159 27.3111L39.5596 16.5846L39.3623 16.4311L31.0186 27.1576L31.2159 27.3111ZM30.5 27.6641C30.7805 27.6641 31.0441 27.537 31.2167 27.3101L31.0177 27.1587C30.8933 27.3223 30.7039 27.4141 30.5 27.4141V27.6641ZM30.2495 27.6264C30.336 27.6552 30.4204 27.6641 30.5 27.6641V27.4141C30.439 27.4141 30.3828 27.4073 30.3287 27.3892L30.2495 27.6264ZM29 27.4453C29.4174 27.4453 29.8353 27.506 30.2542 27.6278L30.324 27.3878C29.8834 27.2596 29.442 27.1953 29 27.1953V27.4453ZM27.5578 27.628C28.0394 27.4904 28.5179 27.4225 28.9941 27.4452L29.006 27.1955C28.4978 27.1713 27.9919 27.244 27.4891 27.3876L27.5578 27.628ZM26.5968 27.3113C26.823 27.6008 27.2032 27.7281 27.5574 27.6281L27.4895 27.3875C27.2344 27.4595 26.9583 27.368 26.7938 27.1574L26.5968 27.3113ZM18.2529 16.5846L26.5967 27.3111L26.794 27.1576L18.4502 16.4311L18.2529 16.5846ZM14.8359 16.6328H18.3516V16.3828H14.8359V16.6328ZM24.6065 28.8607L14.9346 16.4311L14.7373 16.5846L24.4092 29.0143L24.6065 28.8607ZM24.6697 29.8768C24.8606 29.5587 24.8332 29.151 24.6063 28.8605L24.4093 29.0145C24.5731 29.2241 24.5926 29.5195 24.4553 29.7482L24.6697 29.8768ZM24.0078 32.336C24.0078 31.4751 24.2364 30.6218 24.6706 29.8753L24.4545 29.7497C23.998 30.5345 23.7578 31.4312 23.7578 32.336H24.0078ZM24.6706 34.7965C24.2364 34.0501 24.0078 33.1968 24.0078 32.336H23.7578C23.7578 33.2407 23.998 34.1374 24.4545 34.9222L24.6706 34.7965ZM24.6063 35.8113C24.8336 35.5205 24.86 35.1212 24.6705 34.7964L24.4546 34.9224C24.5932 35.16 24.5727 35.4483 24.4093 35.6574L24.6063 35.8113ZM13.7627 49.7564L24.6065 35.8111L24.4091 35.6577L13.5654 49.6029L13.7627 49.7564ZM31.9688 32.336C31.9688 30.65 30.6005 29.2735 28.9063 29.2735V29.5235C30.462 29.5235 31.7188 30.7876 31.7188 32.336H31.9688ZM28.9063 35.4062C30.6007 35.4062 31.9688 34.0295 31.9688 32.336H31.7188C31.7188 33.8923 30.4618 35.1562 28.9063 35.1562V35.4062ZM25.8438 32.336C25.8438 34.0295 27.2118 35.4062 28.9063 35.4062V35.1562C27.3507 35.1562 26.0938 33.8923 26.0938 32.336H25.8438ZM28.9063 29.2735C27.212 29.2735 25.8438 30.65 25.8438 32.336H26.0938C26.0938 30.7876 27.3505 29.5235 28.9063 29.5235V29.2735Z" fill="black"/>
</svg>
