<svg width="81" height="51" viewBox="0 0 81 51" fill="none" xmlns="http://www.w3.org/2000/svg">
<path d="M0.655273 34.767V29.3906L28.1032 22.2222L56.4365 32.9749L57.3219 38.3512L28.9886 49.9999L0.655273 34.767Z" fill="#21517F"/>
<path d="M0.655273 34.767H0.530273V34.8417L0.596082 34.8771L0.655273 34.767ZM28.9886 49.9999L28.9294 50.11L28.9815 50.138L29.0361 50.1156L28.9886 49.9999ZM57.3219 38.3512L57.3695 38.4668L57.4614 38.429L57.4453 38.3309L57.3219 38.3512ZM28.1032 22.2222L28.1475 22.1053L28.1102 22.0911L28.0716 22.1012L28.1032 22.2222ZM28.9886 42.8315L28.935 42.9444L28.982 42.9667L29.0309 42.9491L28.9886 42.8315ZM0.530273 29.3906V34.767H0.780273V29.3906H0.530273ZM0.596082 34.8771L28.9294 50.11L29.0478 49.8898L0.714465 34.6569L0.596082 34.8771ZM29.0361 50.1156L57.3695 38.4668L57.2744 38.2356L28.9411 49.8843L29.0361 50.1156ZM57.4453 38.3309L56.5599 32.9545L56.3132 32.9952L57.1986 38.3715L57.4453 38.3309ZM0.68686 29.5116L28.1348 22.3431L28.0716 22.1012L0.623687 29.2697L0.68686 29.5116ZM28.0588 22.339L56.3922 33.0917L56.4809 32.858L28.1475 22.1053L28.0588 22.339ZM0.601698 29.5036L28.935 42.9444L29.0422 42.7186L0.708849 29.2777L0.601698 29.5036ZM29.0309 42.9491L56.4788 33.0925L56.3943 32.8572L28.9464 42.7138L29.0309 42.9491Z" fill="black"/>
<path d="M9.54395 6.0961V3.48348L36.7593 0L80.6551 6.96697V10.4505L53.4397 17.4174V32.2222L47.2943 30.4805V15.8324L27.58 10.7479V23.5135L20.9568 24.3844V9.57958L27.58 10.7479L9.54395 6.0961Z" fill="#21517F"/>
<path d="M9.54395 6.0961H9.41895V6.19295L9.51273 6.21714L9.54395 6.0961ZM36.7593 0L36.7789 -0.123455L36.7612 -0.126263L36.7434 -0.123988L36.7593 0ZM80.6551 10.4505L80.6861 10.5715L80.7801 10.5475V10.4505H80.6551ZM53.4397 32.2222L53.4056 32.3425L53.5647 32.3876V32.2222H53.4397ZM47.2943 30.4805H47.1693V30.575L47.2602 30.6007L47.2943 30.4805ZM27.58 10.7479H27.705V10.643L27.6017 10.6248L27.58 10.7479ZM27.58 23.5135L27.5963 23.6374L27.705 23.6232V23.5135H27.58ZM20.9568 24.3844H20.8318V24.5269L20.9731 24.5083L20.9568 24.3844ZM20.9568 9.57958L20.9786 9.45648L20.8318 9.4306V9.57958H20.9568ZM9.41895 3.48348V6.0961H9.66895V3.48348H9.41895ZM9.51273 6.21714L27.5488 10.8689L27.6112 10.6268L9.57516 5.97506L9.51273 6.21714ZM9.515 3.60508L53.4107 14.0555L53.4686 13.8123L9.5729 3.36188L9.515 3.60508ZM9.55982 3.60747L36.7752 0.123988L36.7434 -0.123988L9.52808 3.3595L9.55982 3.60747ZM36.7397 0.123455L80.6355 7.09042L80.6747 6.84351L36.7789 -0.123455L36.7397 0.123455ZM53.3147 13.9339V17.4174H53.5647V13.9339H53.3147ZM53.4707 14.055L80.6861 7.08806L80.6241 6.84587L53.4087 13.8128L53.4707 14.055ZM53.4707 17.5385L80.6861 10.5715L80.6241 10.3294L53.4087 17.2963L53.4707 17.5385ZM80.7801 10.4505V6.96697H80.5301V10.4505H80.7801ZM53.3147 17.4174V32.2222H53.5647V17.4174H53.3147ZM53.4738 32.102L47.3284 30.3602L47.2602 30.6007L53.4056 32.3425L53.4738 32.102ZM47.4193 30.4805V15.8324H47.1693V30.4805H47.4193ZM53.4709 17.2964L47.3255 15.7114L47.2631 15.9535L53.4085 17.5385L53.4709 17.2964ZM47.3255 15.7114L27.6112 10.6268L27.5488 10.8689L47.2631 15.9535L47.3255 15.7114ZM27.455 10.7479V23.5135H27.705V10.7479H27.455ZM27.5637 23.3896L20.9405 24.2605L20.9731 24.5083L27.5963 23.6374L27.5637 23.3896ZM21.0818 24.3844V9.57958H20.8318V24.3844H21.0818ZM20.9351 9.70268L27.5583 10.871L27.6017 10.6248L20.9786 9.45648L20.9351 9.70268Z" fill="black"/>
</svg>
