<svg width="90" height="49" viewBox="0 0 90 49" fill="none" xmlns="http://www.w3.org/2000/svg">
<path d="M2.62889 0.513672H87.104C87.7822 0.513672 88.4054 0.876512 88.8632 1.48114C89.321 2.08584 89.6079 2.92681 89.6079 3.86089C89.6079 4.79498 89.321 5.63594 88.8632 6.24065C88.4054 6.84528 87.7822 7.20812 87.104 7.20812H2.62889C1.95063 7.20812 1.32744 6.84528 0.869661 6.24065C0.411827 5.63594 0.125 4.79498 0.125 3.86089C0.125 2.92681 0.411827 2.08584 0.869661 1.48114C1.32744 0.876512 1.95063 0.513672 2.62889 0.513672Z" fill="#21517F" stroke="black" stroke-width="0.25"/>
<path d="M63.2197 28.1521C62.6349 23.0038 60.7695 18.1721 57.8781 14.4023H76.3715C78.0592 19.7824 78.9618 25.6233 78.9618 31.6385V45.5273C78.9618 46.4609 78.6745 47.3018 78.2159 47.9067C77.7574 48.5115 77.1334 48.8746 76.4545 48.8746H65.9252C65.2463 48.8746 64.6222 48.5115 64.1638 47.9067C63.7052 47.3018 63.4179 46.4609 63.4179 45.5273V35.1107V34.9857H63.2929H26.4404H26.3154V35.1107V45.5273C26.3154 46.4609 26.0281 47.3018 25.5695 47.9067C25.111 48.5115 24.487 48.8746 23.8081 48.8746H13.2788C12.5999 48.8746 11.9758 48.5115 11.5174 47.9067C11.0588 47.3018 10.7715 46.4609 10.7715 45.5273V31.6385C10.7715 25.6233 11.6741 19.7824 13.3617 14.4023H31.8552C28.9636 18.1721 27.0984 23.0038 26.5136 28.1521L26.4978 28.2912H26.6378H63.0955H63.2355L63.2197 28.1521Z" fill="#21517F" stroke="black" stroke-width="0.25"/>
</svg>
