<svg width="75" height="51" viewBox="0 0 75 51" fill="none" xmlns="http://www.w3.org/2000/svg">
<path fill-rule="evenodd" clip-rule="evenodd" d="M1 6.02426L51.4353 17.6787L74.5294 11.661L24.0875 0L1 6.02426ZM51.4353 20.1919L1 8.24853V10.7588L51.4353 23.3684L74.5294 16.6816V14L51.4353 20.1919ZM55.2279 48.3838L51.4353 49.8919L47.3125 48.3838V25.0051L51.4353 26.2051L55.2279 25.0051V48.3838ZM70.7368 42.6154L74.5294 41.1074V19.0647L66.6103 21.4103V41.1074L70.7368 42.6154ZM28.2169 28.064L24.4235 29.5721L20.2978 28.064V18.1375L28.2169 20.0926V28.064ZM4.78971 36.8478L1 35.3449V13.3684L8.9125 15.2632V35.3449L4.78971 36.8478Z" fill="#21517F"/>
<path d="M51.4353 17.6787L51.4072 17.8005L51.4371 17.8074L51.4668 17.7996L51.4353 17.6787ZM1 6.02426L0.96844 5.90331L0.971857 6.14606L1 6.02426ZM74.5294 11.661L74.5609 11.782L74.5576 11.5392L74.5294 11.661ZM24.0875 0L24.1157 -0.121788L24.0857 -0.128714L24.0559 -0.12095L24.0875 0ZM1 8.24853L1.0288 8.12689L0.875 8.09047V8.24853H1ZM51.4353 20.1919L51.4065 20.3135L51.4372 20.3208L51.4677 20.3126L51.4353 20.1919ZM1 10.7588H0.875V10.8564L0.969681 10.8801L1 10.7588ZM51.4353 23.3684L51.405 23.4896L51.4377 23.4978L51.4701 23.4884L51.4353 23.3684ZM74.5294 16.6816L74.5642 16.8017L74.6544 16.7756V16.6816H74.5294ZM74.5294 14H74.6544V13.8371L74.497 13.8793L74.5294 14ZM51.4353 49.8919L51.3924 50.0093L51.4372 50.0257L51.4815 50.0081L51.4353 49.8919ZM55.2279 48.3838L55.2741 48.5L55.3529 48.4686V48.3838H55.2279ZM47.3125 48.3838H47.1875V48.4712L47.2696 48.5012L47.3125 48.3838ZM47.3125 25.0051L47.3474 24.8851L47.1875 24.8386V25.0051H47.3125ZM51.4353 26.2051L51.4004 26.3252L51.4368 26.3358L51.473 26.3243L51.4353 26.2051ZM55.2279 25.0051H55.3529V24.8345L55.1902 24.886L55.2279 25.0051ZM74.5294 41.1074L74.5756 41.2235L74.6544 41.1922V41.1074H74.5294ZM70.7368 42.6154L70.6939 42.7328L70.7386 42.7492L70.7829 42.7316L70.7368 42.6154ZM74.5294 19.0647H74.6544V18.8973L74.4939 18.9449L74.5294 19.0647ZM66.6103 21.4103L66.5748 21.2904L66.4853 21.317V21.4103H66.6103ZM66.6103 41.1074H66.4853V41.1948L66.5674 41.2248L66.6103 41.1074ZM24.4235 29.5721L24.3806 29.6895L24.4254 29.7058L24.4697 29.6882L24.4235 29.5721ZM28.2169 28.064L28.2631 28.1801L28.3419 28.1488V28.064H28.2169ZM20.2978 28.064H20.1728V28.1514L20.2549 28.1814L20.2978 28.064ZM20.2978 18.1375L20.3278 18.0161L20.1728 17.9779V18.1375H20.2978ZM28.2169 20.0926H28.3419V19.9948L28.2469 19.9713L28.2169 20.0926ZM1 35.3449H0.875V35.4298L0.953918 35.461L1 35.3449ZM4.78971 36.8478L4.74362 36.964L4.78783 36.9815L4.83252 36.9652L4.78971 36.8478ZM1 13.3684L1.02911 13.2468L0.875 13.2099V13.3684H1ZM8.9125 15.2632H9.0375V15.1646L8.94161 15.1417L8.9125 15.2632ZM8.9125 35.3449L8.95531 35.4623L9.0375 35.4323V35.3449H8.9125ZM51.4634 17.5569L1.02814 5.90247L0.971857 6.14606L51.4072 17.8005L51.4634 17.5569ZM74.4979 11.5401L51.4038 17.5577L51.4668 17.7996L74.5609 11.782L74.4979 11.5401ZM24.0593 0.121788L74.5013 11.7828L74.5576 11.5392L24.1157 -0.121788L24.0593 0.121788ZM1.03156 6.14522L24.1191 0.12095L24.0559 -0.12095L0.96844 5.90331L1.03156 6.14522ZM0.971196 8.37017L51.4065 20.3135L51.4641 20.0703L1.0288 8.12689L0.971196 8.37017ZM1.125 10.7588V8.24853H0.875V10.7588H1.125ZM51.4656 23.2471L1.03032 10.6376L0.969681 10.8801L51.405 23.4896L51.4656 23.2471ZM74.4946 16.5615L51.4005 23.2483L51.4701 23.4884L74.5642 16.8017L74.4946 16.5615ZM74.4044 14V16.6816H74.6544V14H74.4044ZM51.4677 20.3126L74.5618 14.1207L74.497 13.8793L51.4029 20.0712L51.4677 20.3126ZM51.4815 50.0081L55.2741 48.5L55.1818 48.2677L51.3891 49.7758L51.4815 50.0081ZM47.2696 48.5012L51.3924 50.0093L51.4782 49.7745L47.3554 48.2664L47.2696 48.5012ZM47.1875 25.0051V48.3838H47.4375V25.0051H47.1875ZM51.4702 26.0851L47.3474 24.8851L47.2776 25.1252L51.4004 26.3252L51.4702 26.0851ZM55.1902 24.886L51.3976 26.086L51.473 26.3243L55.2656 25.1243L55.1902 24.886ZM55.3529 48.3838V25.0051H55.1029V48.3838H55.3529ZM74.4832 40.9912L70.6906 42.4993L70.7829 42.7316L74.5756 41.2235L74.4832 40.9912ZM74.4044 19.0647V41.1074H74.6544V19.0647H74.4044ZM66.6458 21.5301L74.5649 19.1846L74.4939 18.9449L66.5748 21.2904L66.6458 21.5301ZM66.7353 41.1074V21.4103H66.4853V41.1074H66.7353ZM70.7797 42.498L66.6532 40.9899L66.5674 41.2248L70.6939 42.7328L70.7797 42.498ZM24.4697 29.6882L28.2631 28.1801L28.1707 27.9478L24.3774 29.4559L24.4697 29.6882ZM20.2549 28.1814L24.3806 29.6895L24.4664 29.4547L20.3407 27.9466L20.2549 28.1814ZM20.1728 18.1375V28.064H20.4228V18.1375H20.1728ZM28.2469 19.9713L20.3278 18.0161L20.2678 18.2589L28.1869 20.214L28.2469 19.9713ZM28.3419 28.064V20.0926H28.0919V28.064H28.3419ZM0.953918 35.461L4.74362 36.964L4.83579 36.7316L1.04608 35.2287L0.953918 35.461ZM0.875 13.3684V35.3449H1.125V13.3684H0.875ZM8.94161 15.1417L1.02911 13.2468L0.970889 13.4899L8.88339 15.3848L8.94161 15.1417ZM9.0375 35.3449V15.2632H8.7875V35.3449H9.0375ZM4.83252 36.9652L8.95531 35.4623L8.86969 35.2274L4.74689 36.7304L4.83252 36.9652Z" fill="black"/>
</svg>
