<svg width="78" height="50" viewBox="0 0 78 50" fill="none" xmlns="http://www.w3.org/2000/svg">
<g>
<path d="M7.06934 44.5693H9.59711V49.8749H7.06934V44.5693Z" fill="#21517F" stroke="black" stroke-width="0.25"/>
<mask id="path-2-inside-1" fill="white">
<path fill-rule="evenodd" clip-rule="evenodd" d="M70.8332 13.889H6.94434V5.55566H70.8332V13.889ZM43.0554 8.33344H34.7221V11.1112H43.0554V8.33344Z"/>
</mask>
<path fill-rule="evenodd" clip-rule="evenodd" d="M70.8332 13.889H6.94434V5.55566H70.8332V13.889ZM43.0554 8.33344H34.7221V11.1112H43.0554V8.33344Z" fill="#21517F"/>
<path d="M6.94434 13.889H6.69434V14.139H6.94434V13.889ZM70.8332 13.889V14.139H71.0832V13.889H70.8332ZM6.94434 5.55566V5.30566H6.69434V5.55566H6.94434ZM70.8332 5.55566H71.0832V5.30566H70.8332V5.55566ZM34.7221 8.33344V8.08344H34.4721V8.33344H34.7221ZM43.0554 8.33344H43.3054V8.08344H43.0554V8.33344ZM34.7221 11.1112H34.4721V11.3612H34.7221V11.1112ZM43.0554 11.1112V11.3612H43.3054V11.1112H43.0554ZM6.94434 14.139H70.8332V13.639H6.94434V14.139ZM6.69434 5.55566V13.889H7.19434V5.55566H6.69434ZM70.8332 5.30566H6.94434V5.80566H70.8332V5.30566ZM71.0832 13.889V5.55566H70.5832V13.889H71.0832ZM34.7221 8.58344H43.0554V8.08344H34.7221V8.58344ZM34.9721 11.1112V8.33344H34.4721V11.1112H34.9721ZM43.0554 10.8612H34.7221V11.3612H43.0554V10.8612ZM42.8054 8.33344V11.1112H43.3054V8.33344H42.8054Z" fill="black" mask="url(#path-2-inside-1)"/>
<mask id="path-4-inside-2" fill="white">
<path fill-rule="evenodd" clip-rule="evenodd" d="M37.4999 38.8887H68.0554V16.6665H70.8332V49.9998H68.0554V41.6665H6.94434V16.6665H37.4999V38.8887ZM26.3888 19.4443H18.0554V22.2221H26.3888V19.4443Z"/>
</mask>
<path fill-rule="evenodd" clip-rule="evenodd" d="M37.4999 38.8887H68.0554V16.6665H70.8332V49.9998H68.0554V41.6665H6.94434V16.6665H37.4999V38.8887ZM26.3888 19.4443H18.0554V22.2221H26.3888V19.4443Z" fill="#21517F"/>
<path d="M68.0554 38.8887V39.1387H68.3054V38.8887H68.0554ZM37.4999 38.8887H37.2499V39.1387H37.4999V38.8887ZM68.0554 16.6665V16.4165H67.8054V16.6665H68.0554ZM70.8332 16.6665H71.0832V16.4165H70.8332V16.6665ZM70.8332 49.9998V50.2498H71.0832V49.9998H70.8332ZM68.0554 49.9998H67.8054V50.2498H68.0554V49.9998ZM68.0554 41.6665H68.3054V41.4165H68.0554V41.6665ZM6.94434 41.6665H6.69434V41.9165H6.94434V41.6665ZM6.94434 16.6665V16.4165H6.69434V16.6665H6.94434ZM37.4999 16.6665H37.7499V16.4165H37.4999V16.6665ZM18.0554 19.4443V19.1943H17.8054V19.4443H18.0554ZM26.3888 19.4443H26.6388V19.1943H26.3888V19.4443ZM18.0554 22.2221H17.8054V22.4721H18.0554V22.2221ZM26.3888 22.2221V22.4721H26.6388V22.2221H26.3888ZM68.0554 38.6387H37.4999V39.1387H68.0554V38.6387ZM67.8054 16.6665V38.8887H68.3054V16.6665H67.8054ZM70.8332 16.4165H68.0554V16.9165H70.8332V16.4165ZM71.0832 49.9998V16.6665H70.5832V49.9998H71.0832ZM68.0554 50.2498H70.8332V49.7498H68.0554V50.2498ZM67.8054 41.6665V49.9998H68.3054V41.6665H67.8054ZM6.94434 41.9165H68.0554V41.4165H6.94434V41.9165ZM6.69434 16.6665V41.6665H7.19434V16.6665H6.69434ZM37.4999 16.4165H6.94434V16.9165H37.4999V16.4165ZM37.7499 38.8887V16.6665H37.2499V38.8887H37.7499ZM18.0554 19.6943H26.3888V19.1943H18.0554V19.6943ZM18.3054 22.2221V19.4443H17.8054V22.2221H18.3054ZM26.3888 21.9721H18.0554V22.4721H26.3888V21.9721ZM26.1388 19.4443V22.2221H26.6388V19.4443H26.1388Z" fill="black" mask="url(#path-4-inside-2)"/>
<path d="M0.125 0.125H77.6528V2.65278H0.125V0.125Z" fill="#21517F" stroke="black" stroke-width="0.25"/>
</g>
</svg>
