<svg width="24" height="14" viewBox="0 0 24 14" fill="none" xmlns="http://www.w3.org/2000/svg">
<path fill-rule="evenodd" clip-rule="evenodd" d="M16.1904 1.00913C16.6874 0.512095 17.4933 0.512095 17.9903 1.00913L23.0805 6.09929L23.0812 6.10003C23.2033 6.22206 23.2953 6.3627 23.3574 6.51281C23.4196 6.66287 23.454 6.82742 23.454 6.99999C23.454 7.17187 23.4199 7.3358 23.3582 7.48538C23.3275 7.5597 23.2896 7.63169 23.2443 7.70028C23.1977 7.77085 23.1433 7.83781 23.0812 7.89995L23.0805 7.90069L17.9903 12.9909C17.4933 13.4878 16.6874 13.4878 16.1904 12.9909C15.6934 12.4938 15.6934 11.688 16.1904 11.1909L19.1087 8.27272H1.81765C1.11474 8.27272 0.544922 7.70289 0.544922 6.99999C0.544922 6.29709 1.11474 5.72726 1.81765 5.72726H19.1087L16.1904 2.80904C15.6934 2.312 15.6934 1.50616 16.1904 1.00913Z" fill="#221C35"/>
</svg>
