<svg width="75" height="120" viewBox="0 0 75 120" fill="none" xmlns="http://www.w3.org/2000/svg">
<path d="M0 111.667H-0.5V111.968L-0.233944 112.109L0 111.667ZM58.3333 0L58.5462 -0.452409L58.3172 -0.560178L58.0948 -0.439427L58.3333 0ZM74.1667 88.3333L74.3952 88.778L74.6729 88.6353L74.6666 88.3231L74.1667 88.3333ZM-0.5 31.6667V111.667H0.5V31.6667H-0.5ZM-0.233944 112.109L13.9327 119.609L14.4006 118.725L0.233944 111.225L-0.233944 112.109ZM-0.212899 32.1191L13.9538 38.7857L14.3796 37.8809L0.212899 31.2143L-0.212899 32.1191ZM0.238546 32.1061L58.5719 0.439427L58.0948 -0.439427L-0.238546 31.2272L0.238546 32.1061ZM58.1204 0.452409L72.2871 7.11908L72.7129 6.21426L58.5462 -0.452409L58.1204 0.452409ZM14.6667 119.167V38.3333H13.6667V119.167H14.6667ZM14.3952 119.611L72.7285 89.6346L72.2715 88.7451L13.9381 118.722L14.3952 119.611ZM14.4052 38.7728L58.5719 14.7966L58.0948 13.9177L13.9281 37.8939L14.4052 38.7728ZM72.0001 6.67687L73.6668 88.3435L74.6666 88.3231L72.9999 6.65646L72.0001 6.67687ZM73.9381 87.8886L72.2715 88.7451L72.7285 89.6346L74.3952 88.778L73.9381 87.8886ZM72.2615 6.22724L58.0948 13.9177L58.5719 14.7966L72.7385 7.10609L72.2615 6.22724ZM14.4002 104.609L58.5669 81.2754L58.0998 80.3912L13.9331 103.725L14.4002 104.609ZM58.0793 81.264L72.246 89.6205L72.754 88.7592L58.5874 80.4027L58.0793 81.264ZM58.8333 80.8333V14.3572H57.8333V80.8333H58.8333Z" fill="black"/>
<path d="M15 45L59.1667 21.6667V29.1667L65.8333 33.3333L15 60V53.3333V45Z" fill="#F3DCB4"/>
<path d="M59.1667 21.6667H59.6667V20.837L58.9331 21.2246L59.1667 21.6667ZM15 45L14.7664 44.5579L14.5 44.6987V45H15ZM65.8333 33.3333L66.0656 33.7761L66.8374 33.3712L66.0983 32.9093L65.8333 33.3333ZM15 60H14.5V60.8269L15.2323 60.4428L15 60ZM59.6667 29.1667V21.6667H58.6667V29.1667H59.6667ZM58.9331 21.2246L14.7664 44.5579L15.2336 45.4421L59.4002 22.1088L58.9331 21.2246ZM14.5 45V53.3333H15.5V45H14.5ZM58.9267 28.728L14.76 52.8947L15.24 53.772L59.4067 29.6053L58.9267 28.728ZM58.9017 29.5907L65.5683 33.7573L66.0983 32.9093L59.4317 28.7427L58.9017 29.5907ZM65.6011 32.8905L14.7677 59.5572L15.2323 60.4428L66.0656 33.7761L65.6011 32.8905ZM15.5 60V53.3333H14.5V60H15.5Z" fill="black"/>
</svg>
