<svg width="104" height="122" viewBox="0 0 104 122" fill="none" xmlns="http://www.w3.org/2000/svg">
<path d="M1.02539 63.5641V45.1026L86.6664 1L103.077 10.2308V26.641V45.1026V63.5641L86.6664 71.2564V54.3333V36.3846L66.1536 47.1538L41.5382 59.9744L18.4613 71.2564L1.02539 63.5641Z" fill="#F3DCB4"/>
<path d="M86.666 85.1025V81.5128V76.3846V71.2564L103.076 63.5641V77.4102L86.666 85.1025Z" fill="#F3DCB4"/>
<path d="M1.02539 112.795H0.525391V113.112L0.812492 113.247L1.02539 112.795ZM86.6664 1L86.9116 0.564212L86.6769 0.43221L86.4375 0.55548L86.6664 1ZM103.077 77.4103L103.289 77.863L103.577 77.7281V77.4103H103.077ZM18.6742 120.548L1.23829 112.342L0.812492 113.247L18.2484 121.452L18.6742 120.548ZM1.52539 112.795V63.5641H0.525391V112.795H1.52539ZM18.6942 121.442L86.8993 85.545L86.4335 84.6601L18.2284 120.558L18.6942 121.442ZM18.9613 121V116.897H17.9613V121H18.9613ZM18.6952 53.8914L1.25933 44.6607L0.791447 45.5445L18.2273 54.7752L18.6952 53.8914ZM17.9613 54.3333V71.2564H18.9613V54.3333H17.9613ZM18.6924 54.7767L41.7693 42.7487L41.3071 41.8619L18.2302 53.8899L18.6924 54.7767ZM0.525391 45.1026V63.5641H1.52539V45.1026H0.525391ZM1.25431 45.5471L86.8953 1.44452L86.4375 0.55548L0.796476 44.658L1.25431 45.5471ZM86.4213 1.43579L102.832 10.6666L103.322 9.79498L86.9116 0.564212L86.4213 1.43579ZM0.823571 64.0216L18.2595 71.7139L18.6631 70.799L1.22721 63.1066L0.823571 64.0216ZM18.6809 71.7056L41.7578 60.4235L41.3186 59.5252L18.2417 70.8072L18.6809 71.7056ZM17.9613 71.2564V116.897H18.9613V71.2564H17.9613ZM102.846 9.78738L86.4353 18.3406L86.8975 19.2274L103.308 10.6742L102.846 9.78738ZM102.577 10.2308V26.641H103.577V10.2308H102.577ZM41.0382 42.3053V59.9744H42.0382V42.3053H41.0382ZM41.7693 42.7487L66.3847 29.9189L65.9225 29.0321L41.3071 41.8619L41.7693 42.7487ZM41.7692 60.4178L66.3846 47.5973L65.9226 46.7104L41.3072 59.5309L41.7692 60.4178ZM66.6536 47.1538V29.4755H65.6536V47.1538H66.6536ZM66.386 47.5965L86.8988 36.8273L86.434 35.9419L65.9212 46.7111L66.386 47.5965ZM66.3847 29.9189L86.8975 19.2274L86.4353 18.3406L65.9225 29.0321L66.3847 29.9189ZM86.1664 18.784V36.3846H87.1664V18.784H86.1664ZM87.1664 85.1026V81.5128H86.1664V85.1026H87.1664ZM86.8786 85.5553L103.289 77.863L102.864 76.9575L86.4542 84.6498L86.8786 85.5553ZM103.577 77.4103V63.5641H102.577V77.4103H103.577ZM18.6915 117.341L86.8967 81.9566L86.4362 81.069L18.231 116.454L18.6915 117.341ZM87.1664 81.5128V76.3846H86.1664V81.5128H87.1664ZM87.1664 76.3846V71.2564H86.1664V76.3846H87.1664ZM86.9217 36.8145L103.332 27.071L102.821 26.2111L86.4111 35.9547L86.9217 36.8145ZM86.1664 36.3846V54.3333H87.1664V36.3846H86.1664ZM102.577 26.641V45.1026H103.577V26.641H102.577ZM86.9115 54.7691L103.322 45.5384L102.832 44.6668L86.4213 53.8975L86.9115 54.7691ZM86.1664 54.3333V71.2564H87.1664V54.3333H86.1664ZM102.577 45.1026V63.5641H103.577V45.1026H102.577ZM86.8786 71.7091L103.289 64.0168L102.864 63.1114L86.4542 70.8037L86.8786 71.7091Z" fill="black"/>
</svg>
