<svg width="80" height="121" viewBox="0 0 80 121" fill="none" xmlns="http://www.w3.org/2000/svg">
<path d="M15.3802 40.6694L1 33.7273L46.6198 9.42975L60.0083 17.3636L15.3802 40.6694Z" fill="#F3DCB4"/>
<path d="M46.6201 9.42975L60.0085 17.3636L77.3639 7.94215L63.9755 1L46.6201 9.42975Z" fill="#F3DCB4"/>
<path d="M60.0078 17.3636L77.3632 7.94214L77.8039 31.7438L78.1162 48.6033L78.4651 67.4463L78.8508 88.2727L61.9913 96.2066L61.8915 92.2397L61.4798 75.876L61.0183 57.5289L60.5941 40.6694L60.0078 17.3636Z" fill="#F3DCB4"/>
<path d="M16.8675 51.5785H15.3799V63.4793H16.8675V51.5785Z" fill="#F3DCB4"/>
<path d="M1 113.066H0.5V113.39L0.795472 113.522L1 113.066ZM15.3802 119.512L15.1756 119.969L15.8802 120.284V119.512H15.3802ZM63.9752 1L64.2054 0.556123L63.9825 0.440581L63.7568 0.550246L63.9752 1ZM78.8512 88.2727L79.0641 88.7251L79.3572 88.5872L79.3512 88.2635L78.8512 88.2727ZM16.8678 51.5785H17.3678V51.0785H16.8678V51.5785ZM16.8678 63.4793V63.9793H17.3678V63.4793H16.8678ZM15.5975 40.2191L1.21737 33.277L0.782625 34.1775L15.1628 41.1197L15.5975 40.2191ZM15.6116 41.1126L60.2397 17.8068L59.7768 16.9204L15.1487 40.2262L15.6116 41.1126ZM14.8802 40.6694V51.5785H15.8802V40.6694H14.8802ZM0.5 33.7273V113.066H1.5V33.7273H0.5ZM0.795472 113.522L15.1756 119.969L15.5847 119.056L1.20453 112.61L0.795472 113.522ZM15.8802 119.512V116.537H14.8802V119.512H15.8802ZM1.23505 34.1686L46.8549 9.87106L46.3848 8.98844L0.764955 33.286L1.23505 34.1686ZM60.2632 16.9335L46.8747 8.99961L46.3649 9.8599L59.7534 17.7938L60.2632 16.9335ZM60.2468 17.8031L77.6022 8.38158L77.1251 7.50272L59.7697 16.9242L60.2468 17.8031ZM59.5084 17.3762L60.0947 40.682L61.0944 40.6568L60.5081 17.3511L59.5084 17.3762ZM46.8383 9.87951L64.1937 1.44975L63.7568 0.550246L46.4014 8.98L46.8383 9.87951ZM63.745 1.44388L77.1335 8.38603L77.5938 7.49827L64.2054 0.556123L63.745 1.44388ZM76.8637 7.95141L77.3045 31.7531L78.3043 31.7345L77.8636 7.93289L76.8637 7.95141ZM62.2046 96.659L79.0641 88.7251L78.6383 87.8203L61.7788 95.7542L62.2046 96.659ZM79.3512 88.2635L78.9655 67.437L77.9656 67.4555L78.3513 88.282L79.3512 88.2635ZM61.7567 95.7653L16.1369 120.063L16.6069 120.945L62.2268 96.6479L61.7567 95.7653ZM62.4916 96.194L62.3918 92.2271L61.3921 92.2522L61.4919 96.2192L62.4916 96.194ZM61.7026 76.3239L78.6878 67.8942L78.2433 66.9984L61.258 75.4282L61.7026 76.3239ZM61.9801 75.8635L61.5186 57.5164L60.5189 57.5415L60.9805 75.8886L61.9801 75.8635ZM60.9805 75.8886L61.3921 92.2522L62.3918 92.2271L61.9801 75.8635L60.9805 75.8886ZM78.9655 67.437L78.6166 48.5941L77.6168 48.6126L77.9656 67.4555L78.9655 67.437ZM61.2501 57.9722L78.348 49.0465L77.8853 48.1601L60.7874 57.0857L61.2501 57.9722ZM61.5186 57.5163L61.0944 40.6568L60.0947 40.682L60.5189 57.5415L61.5186 57.5163ZM78.6166 48.594L78.3043 31.7345L77.3045 31.7531L77.6167 48.6126L78.6166 48.594ZM60.8248 41.1133L78.0346 32.1877L77.5742 31.2999L60.3644 40.2256L60.8248 41.1133ZM15.6117 116.98L62.1235 92.6828L61.6605 91.7965L15.1487 116.094L15.6117 116.98ZM15.8802 116.537V63.4793H14.8802V116.537H15.8802ZM15.3802 52.0785H16.8678V51.0785H15.3802V52.0785ZM16.3678 51.5785V63.4793H17.3678V51.5785H16.3678ZM16.8678 62.9793H15.3802V63.9793H16.8678V62.9793ZM14.8802 51.5785V63.4793H15.8802V51.5785H14.8802Z" fill="black"/>
</svg>
