<svg width="92" height="121" viewBox="0 0 92 121" fill="none" xmlns="http://www.w3.org/2000/svg">
<path d="M15.7829 92.1739V73.9131L67.9569 49.5652L69.696 61.7392H73.1743L90.5656 71.3044V87.8261L87.0873 90.4348L35.7829 118.261L34.0438 118.696L28.8264 120L12.3047 110.435V94.7826L15.7829 92.1739Z" fill="#F3DCB4"/>
<path d="M15.7829 73.9131L15.5715 73.46L15.2829 73.5946V73.9131H15.7829ZM67.9569 49.5652L68.4518 49.4945L68.3565 48.827L67.7454 49.1122L67.9569 49.5652ZM34.0438 103.478H34.5438V103.2L34.307 103.053L34.0438 103.478ZM12.3047 110.435H11.8047V110.723L12.0542 110.868L12.3047 110.435ZM28.8264 120L28.5759 120.433L28.7512 120.534L28.9477 120.485L28.8264 120ZM28.8264 103.478L29.3264 103.473L29.3232 103.175L29.0593 103.036L28.8264 103.478ZM73.1743 61.7392L73.4152 61.3011L73.3027 61.2392H73.1743V61.7392ZM90.5656 71.3044H91.0656V71.0087L90.8065 70.8663L90.5656 71.3044ZM90.5656 87.8261L90.8656 88.2261L91.0656 88.0761V87.8261H90.5656ZM87.0873 90.4348L87.3257 90.8743L87.3579 90.8568L87.3873 90.8348L87.0873 90.4348ZM35.7829 118.261L35.9042 118.746L35.9657 118.731L36.0213 118.7L35.7829 118.261ZM69.696 65.2174H69.196V65.5264L69.4724 65.6646L69.696 65.2174ZM87.0873 73.9131H87.5873V73.6041L87.3109 73.4659L87.0873 73.9131ZM87.0873 82.6087L87.3321 83.0447L87.5873 82.9014V82.6087H87.0873ZM22.0003 95.5L21.7674 95.0576L21.0231 95.4495L21.723 95.9161L22.0003 95.5ZM67.9569 71.3044L68.1509 70.8436L67.9331 70.7518L67.7239 70.8619L67.9569 71.3044ZM84.4786 78.2609L84.7022 78.7081L85.6745 78.2219L84.6726 77.8001L84.4786 78.2609ZM34.0003 103.5L33.723 103.916L33.9644 104.077L34.2239 103.947L34.0003 103.5ZM16.2829 92.1739V73.9131H15.2829V92.1739H16.2829ZM15.9944 74.3662L68.1683 50.0183L67.7454 49.1122L15.5715 73.46L15.9944 74.3662ZM67.4619 49.636L69.201 61.8099L70.191 61.6684L68.4518 49.4945L67.4619 49.636ZM15.4829 91.7739L12.0047 94.3826L12.6047 95.1826L16.0829 92.5739L15.4829 91.7739ZM15.5198 92.5991L33.7806 103.903L34.307 103.053L16.0461 91.7488L15.5198 92.5991ZM33.5438 103.478V106.087H34.5438V103.478H33.5438ZM11.8047 94.7826V110.435H12.8047V94.7826H11.8047ZM12.0542 110.868L28.5759 120.433L29.0769 119.567L12.5552 110.002L12.0542 110.868ZM28.9477 120.485L34.1651 119.181L33.9226 118.211L28.7052 119.515L28.9477 120.485ZM12.0718 95.2251L28.5936 103.921L29.0593 103.036L12.5376 94.3402L12.0718 95.2251ZM28.3265 103.484L28.5004 119.505L29.5003 119.495L29.3264 103.473L28.3265 103.484ZM69.696 62.2392H73.1743V61.2392H69.696V62.2392ZM72.9333 62.1773L90.3246 71.7425L90.8065 70.8663L73.4152 61.3011L72.9333 62.1773ZM90.0656 71.3044V87.8261H91.0656V71.3044H90.0656ZM90.2656 87.4261L86.7873 90.0348L87.3873 90.8348L90.8656 88.2261L90.2656 87.4261ZM86.8489 89.9953L35.5446 117.821L36.0213 118.7L87.3257 90.8743L86.8489 89.9953ZM35.6617 117.776L33.9226 118.211L34.1651 119.181L35.9042 118.746L35.6617 117.776ZM69.196 61.7392V65.2174H70.196V61.7392H69.196ZM69.4724 65.6646L86.8637 74.3603L87.3109 73.4659L69.9196 64.7702L69.4724 65.6646ZM86.5873 73.9131V82.6087H87.5873V73.9131H86.5873ZM86.8425 82.1727L33.799 111.955L34.2886 112.827L87.3321 83.0447L86.8425 82.1727ZM34.5438 118.696V112.391H33.5438V118.696H34.5438ZM22.2333 95.9425L68.1898 71.7468L67.7239 70.8619L21.7674 95.0576L22.2333 95.9425ZM67.7628 71.7652L84.2846 78.7217L84.6726 77.8001L68.1509 70.8436L67.7628 71.7652ZM84.255 77.8137L33.7767 103.053L34.2239 103.947L84.7022 78.7081L84.255 77.8137ZM34.2777 103.084L22.2777 95.084L21.723 95.9161L33.723 103.916L34.2777 103.084ZM33.5438 106.087V112.391H34.5438V106.087H33.5438Z" fill="black"/>
<path d="M54.913 0.869568L55.1367 0.422354L54.902 0.305018L54.6721 0.43146L54.913 0.869568ZM1 101.739L0.500145 101.727L0.492499 102.044L0.776393 102.186L1 101.739ZM11.4348 106.957L11.2112 107.404L11.9348 107.766V106.957H11.4348ZM11.4348 93.0435V92.5435H10.9348V93.0435H11.4348ZM14.913 93.0435V93.5435H15.413V93.0435H14.913ZM68.8261 48.6957L69.0379 49.1486L69.3261 49.0138V48.6957H68.8261ZM2.98009 30.0033L55.154 1.30768L54.6721 0.43146L2.49817 29.1271L2.98009 30.0033ZM54.6894 1.31678L68.6025 8.2733L69.0497 7.37888L55.1367 0.422354L54.6894 1.31678ZM2.49106 29.9993L14.665 36.9559L15.1611 36.0876L2.9872 29.1311L2.49106 29.9993ZM2.23928 29.5532L0.500145 101.727L1.49985 101.751L3.23899 29.5773L2.23928 29.5532ZM0.776393 102.186L11.2112 107.404L11.6584 106.509L1.22361 101.292L0.776393 102.186ZM11.9348 106.957V93.0435H10.9348V106.957H11.9348ZM11.4348 93.5435H14.913V92.5435H11.4348V93.5435ZM15.413 93.0435V73.913H14.413V93.0435H15.413ZM68.5912 7.38472L14.6781 36.0804L15.148 36.9631L69.061 8.26746L68.5912 7.38472ZM68.3261 7.82609V48.6957H69.3261V7.82609H68.3261ZM68.6142 48.2427L14.7012 73.4601L15.1249 74.366L69.0379 49.1486L68.6142 48.2427ZM14.413 36.5217V73.913H15.413V36.5217H14.413Z" fill="black"/>
</svg>
