<svg width="77" height="121" viewBox="0 0 77 121" fill="none" xmlns="http://www.w3.org/2000/svg">
<path d="M61.8571 0L62.0807 -0.447214L61.8506 -0.562286L61.6232 -0.441894L61.8571 0ZM1 111.429L0.500254 111.413L0.490524 111.718L0.757178 111.866L1 111.429ZM61.8571 80.5714L62.1023 80.1356L61.8675 80.0036L61.6281 80.127L61.8571 80.5714ZM61.8571 42.8571L62.0807 42.4099L61.8521 42.2956L61.6255 42.4141L61.8571 42.8571ZM67 45.4286L67.2329 45.871L68.0952 45.4172L67.2236 44.9814L67 45.4286ZM18.1429 71.1429L17.91 70.7004L17.6429 70.841V71.1429H18.1429ZM18.1429 86.5714H17.6429V87.393L18.3726 87.0155L18.1429 86.5714ZM67.8571 60.8571L68.0869 61.3013L68.3571 61.1614V60.8571H67.8571ZM3.80537 31.299L62.0911 0.441894L61.6232 -0.441894L3.33748 30.4152L3.80537 31.299ZM61.6335 0.447214L75.3478 7.30436L75.795 6.40993L62.0807 -0.447214L61.6335 0.447214ZM3.34782 31.3044L18.7764 39.0186L19.2236 38.1242L3.79504 30.4099L3.34782 31.3044ZM3.07168 30.8412L0.500254 111.413L1.49975 111.445L4.07117 30.8731L3.07168 30.8412ZM0.757178 111.866L16.1858 120.437L16.6714 119.563L1.24282 110.991L0.757178 111.866ZM75.3269 6.421L18.7555 38.1353L19.2445 39.0076L75.8159 7.29328L75.3269 6.421ZM75.0714 6.85714V88.2857H76.0714V6.85714H75.0714ZM18.5002 38.5556L17.6431 65.6984L18.6426 65.73L19.4998 38.5872L18.5002 38.5556ZM16.6649 120.441L75.8077 88.7264L75.3351 87.8451L16.1923 119.559L16.6649 120.441ZM16.9283 120.016L17.4426 103.73L16.4431 103.699L15.9288 119.984L16.9283 120.016ZM75.8166 87.8499L62.1023 80.1356L61.612 81.0072L75.3263 88.7215L75.8166 87.8499ZM61.6281 80.127L16.7138 103.27L17.1719 104.159L62.0862 81.0159L61.6281 80.127ZM17.4426 103.73L18.6426 65.73L17.6431 65.6984L16.4431 103.699L17.4426 103.73ZM18.3745 66.1573L62.0888 43.3002L61.6255 42.4141L17.9112 65.2711L18.3745 66.1573ZM61.6335 43.3044L66.7764 45.8758L67.2236 44.9814L62.0807 42.4099L61.6335 43.3044ZM66.7671 44.9861L17.91 70.7004L18.3757 71.5853L67.2329 45.871L66.7671 44.9861ZM17.6429 71.1429V86.5714H18.6429V71.1429H17.6429ZM18.3726 87.0155L68.0869 61.3013L67.6274 60.413L17.9131 86.1273L18.3726 87.0155ZM68.3571 60.8571V45.4286H67.3571V60.8571H68.3571Z" fill="black"/>
<path d="M19 84.8571V71.1428L67 46.2857V60.8571L19 84.8571Z" fill="#F3DCB4"/>
</svg>
