<svg width="85" height="122" viewBox="0 0 85 122" fill="none" xmlns="http://www.w3.org/2000/svg">
<path d="M0 112.905H-0.5V113.196L-0.246506 113.34L0 112.905ZM73.3333 90.0476L73.5655 90.4905L73.8333 90.3501V90.0476H73.3333ZM59.0476 1L59.2941 0.564989L59.0569 0.430584L58.8155 0.557154L59.0476 1ZM14.7857 121V39.5714H13.7857V121H14.7857ZM14.5322 120.565L0.246506 112.47L-0.246506 113.34L14.0392 121.435L14.5322 120.565ZM0.5 112.905V31.9524H-0.5V112.905H0.5ZM14.5179 121.443L73.5655 90.4905L73.1012 89.6048L14.0536 120.557L14.5179 121.443ZM73.8333 90.0476V9.09524H72.8333V90.0476H73.8333ZM14.521 39.1303L0.235294 31.5112L-0.235294 32.3936L14.0504 40.0126L14.521 39.1303ZM14.515 40.0157L73.5627 9.53955L73.104 8.65093L14.0564 39.1271L14.515 40.0157ZM0.232137 32.3952L59.2798 1.44285L58.8155 0.557154L-0.232137 31.5095L0.232137 32.3952ZM58.8011 1.43501L73.0868 9.53025L73.5798 8.66023L59.2941 0.564989L58.8011 1.43501Z" fill="black"/>
<path d="M83.8093 61.4762L26.1903 91.9524L14.7617 85.7619L73.3331 54.3333L83.8093 61.4762Z" fill="#F3DCB4" stroke="black"/>
</svg>
