<svg width="67" height="121" viewBox="0 0 67 121" fill="none" xmlns="http://www.w3.org/2000/svg">
<path d="M62.6071 10.1786L16 35.3571V119.464L65.8214 94.8214L62.6071 10.1786Z" fill="#F3DCB4"/>
<path d="M1 111.429H0.5V111.713L0.745099 111.859L1 111.429ZM49.2143 0L49.4989 -0.411096L49.2433 -0.588074L48.9715 -0.437079L49.2143 0ZM65.8214 95.3571L66.0412 95.8063L66.3313 95.6643L66.3212 95.3415L65.8214 95.3571ZM0.5 26.7857V111.429H1.5V26.7857H0.5ZM0.745099 111.859L15.2094 120.43L15.7192 119.57L1.2549 110.998L0.745099 111.859ZM0.757179 27.2228L15.2215 35.2585L15.7071 34.3843L1.24282 26.3486L0.757179 27.2228ZM1.24282 27.2228L49.4571 0.437079L48.9715 -0.437079L0.757179 26.3486L1.24282 27.2228ZM48.9297 0.411096L62.8583 10.054L63.4275 9.23176L49.4989 -0.411096L48.9297 0.411096ZM15.9643 120V34.8214H14.9643V120H15.9643ZM15.6841 120.449L66.0412 95.8063L65.6017 94.908L15.2445 119.551L15.6841 120.449ZM66.3212 95.3415L63.6426 9.62724L62.6431 9.65847L65.3217 95.3728L66.3212 95.3415ZM15.6978 35.2636L63.3763 10.085L62.9094 9.20072L15.2308 34.3793L15.6978 35.2636Z" fill="black"/>
</svg>
