<svg width="110" height="119" viewBox="0 0 110 119" fill="none" xmlns="http://www.w3.org/2000/svg">
<path d="M1 107.524L0.500078 107.515L0.494522 107.83L0.775928 107.971L1 107.524ZM87.3167 0.169022L87.5542 -0.270956L87.3181 -0.398425L87.0814 -0.272136L87.3167 0.169022ZM108.623 73.0172L108.857 73.459L109.123 73.3181V73.0172H108.623ZM1.59269 45.6219L0.500078 107.515L1.49992 107.533L2.59254 45.6395L1.59269 45.6219ZM0.775928 107.971L22.6283 118.926L23.0764 118.032L1.22407 107.077L0.775928 107.971ZM1.85927 46.0729L22.619 57.0275L23.0857 56.1431L2.32596 45.1885L1.85927 46.0729ZM2.32795 46.0718L87.552 0.610179L87.0814 -0.272136L1.85729 45.1895L2.32795 46.0718ZM87.0792 0.608999L108.385 12.1113L108.86 11.2314L87.5542 -0.270956L87.0792 0.608999ZM23.0865 118.921L108.857 73.459L108.389 72.5754L22.6182 118.037L23.0865 118.921ZM109.123 73.0172V68.0876H108.123V73.0172H109.123ZM23.3523 118.479V112.454H22.3523V118.479H23.3523ZM23.0843 57.0282L108.855 12.1143L108.391 11.2284L22.6204 56.1424L23.0843 57.0282ZM22.3523 56.5853V112.454H23.3523V56.5853H22.3523ZM108.123 11.6714V68.0876H109.123V11.6714H108.123ZM23.082 112.898L108.852 68.5318L108.393 67.6435L22.6226 112.01L23.082 112.898Z" fill="black"/>
<path d="M22.9717 111.718V56.8732L107.479 12V67.9531L22.9717 111.718Z" fill="#F3DCB4"/>
</svg>
