<svg width="52" height="52" viewBox="0 0 52 52" fill="none" xmlns="http://www.w3.org/2000/svg">
<g>
<path fill-rule="evenodd" clip-rule="evenodd" d="M48.0703 2.46484C48.0703 1.65586 48.7262 1 49.5352 1C50.3441 1 51 1.65586 51 2.46484V49.5352C51 50.3441 50.3441 51 49.5352 51C48.7262 51 48.0703 50.3441 48.0703 49.5352V45.1406H3.92969V49.5352C3.92969 50.3441 3.27383 51 2.46484 51C1.65586 51 1 50.3441 1 49.5352V8.51953C1 7.71055 1.65586 7.05469 2.46484 7.05469C3.27383 7.05469 3.92969 7.71055 3.92969 8.51953V12.9141H33.4219V11.4492C33.4219 9.02607 35.3933 7.05469 37.8164 7.05469H48.0703V2.46484ZM33.4219 36.3516V34.8867C33.4219 32.4636 35.3933 30.4922 37.8164 30.4922H48.0703V21.7031H21.5078V36.3516H33.4219ZM9.78906 27.5625H18.5781V30.4922H9.78906V27.5625ZM9.78906 24.6328H18.5781V21.7031H9.78906V24.6328ZM9.78906 33.4219H18.5781V36.3516H9.78906V33.4219ZM37.8164 9.98438C37.0087 9.98438 36.3516 10.6415 36.3516 11.4492V12.9141H48.0703V9.98438H37.8164ZM3.92969 21.7031H6.85938V36.3516H3.92969V21.7031ZM36.3516 34.8867V36.3516H48.0703V33.4219H37.8164C37.0087 33.4219 36.3516 34.079 36.3516 34.8867Z" fill="#21517F"/>
<path d="M48.0703 45.1406H48.1953V45.0156H48.0703V45.1406ZM3.92969 45.1406V45.0156H3.80469V45.1406H3.92969ZM3.92969 12.9141H3.80469V13.0391H3.92969V12.9141ZM33.4219 12.9141V13.0391H33.5469V12.9141H33.4219ZM48.0703 7.05469V7.17969H48.1953V7.05469H48.0703ZM33.4219 36.3516V36.4766H33.5469V36.3516H33.4219ZM48.0703 30.4922V30.6172H48.1953V30.4922H48.0703ZM48.0703 21.7031H48.1953V21.5781H48.0703V21.7031ZM21.5078 21.7031V21.5781H21.3828V21.7031H21.5078ZM21.5078 36.3516H21.3828V36.4766H21.5078V36.3516ZM18.5781 27.5625H18.7031V27.4375H18.5781V27.5625ZM9.78906 27.5625V27.4375H9.66406V27.5625H9.78906ZM18.5781 30.4922V30.6172H18.7031V30.4922H18.5781ZM9.78906 30.4922H9.66406V30.6172H9.78906V30.4922ZM18.5781 24.6328V24.7578H18.7031V24.6328H18.5781ZM9.78906 24.6328H9.66406V24.7578H9.78906V24.6328ZM18.5781 21.7031H18.7031V21.5781H18.5781V21.7031ZM9.78906 21.7031V21.5781H9.66406V21.7031H9.78906ZM18.5781 33.4219H18.7031V33.2969H18.5781V33.4219ZM9.78906 33.4219V33.2969H9.66406V33.4219H9.78906ZM18.5781 36.3516V36.4766H18.7031V36.3516H18.5781ZM9.78906 36.3516H9.66406V36.4766H9.78906V36.3516ZM36.3516 12.9141H36.2266V13.0391H36.3516V12.9141ZM48.0703 12.9141V13.0391H48.1953V12.9141H48.0703ZM48.0703 9.98438H48.1953V9.85938H48.0703V9.98438ZM6.85938 21.7031H6.98438V21.5781H6.85938V21.7031ZM3.92969 21.7031V21.5781H3.80469V21.7031H3.92969ZM6.85938 36.3516V36.4766H6.98438V36.3516H6.85938ZM3.92969 36.3516H3.80469V36.4766H3.92969V36.3516ZM36.3516 36.3516H36.2266V36.4766H36.3516V36.3516ZM48.0703 36.3516V36.4766H48.1953V36.3516H48.0703ZM48.0703 33.4219H48.1953V33.2969H48.0703V33.4219ZM49.5352 0.875C48.6571 0.875 47.9453 1.58682 47.9453 2.46484H48.1953C48.1953 1.7249 48.7952 1.125 49.5352 1.125V0.875ZM51.125 2.46484C51.125 1.58682 50.4132 0.875 49.5352 0.875V1.125C50.2751 1.125 50.875 1.7249 50.875 2.46484H51.125ZM51.125 49.5352V2.46484H50.875V49.5352H51.125ZM49.5352 51.125C50.4132 51.125 51.125 50.4132 51.125 49.5352H50.875C50.875 50.2751 50.2751 50.875 49.5352 50.875V51.125ZM47.9453 49.5352C47.9453 50.4132 48.6571 51.125 49.5352 51.125V50.875C48.7952 50.875 48.1953 50.2751 48.1953 49.5352H47.9453ZM47.9453 45.1406V49.5352H48.1953V45.1406H47.9453ZM3.92969 45.2656H48.0703V45.0156H3.92969V45.2656ZM4.05469 49.5352V45.1406H3.80469V49.5352H4.05469ZM2.46484 51.125C3.34286 51.125 4.05469 50.4132 4.05469 49.5352H3.80469C3.80469 50.2751 3.20479 50.875 2.46484 50.875V51.125ZM0.875 49.5352C0.875 50.4132 1.58682 51.125 2.46484 51.125V50.875C1.7249 50.875 1.125 50.2751 1.125 49.5352H0.875ZM0.875 8.51953V49.5352H1.125V8.51953H0.875ZM2.46484 6.92969C1.58682 6.92969 0.875 7.64151 0.875 8.51953H1.125C1.125 7.77958 1.72489 7.17969 2.46484 7.17969V6.92969ZM4.05469 8.51953C4.05469 7.64151 3.34286 6.92969 2.46484 6.92969V7.17969C3.20479 7.17969 3.80469 7.77958 3.80469 8.51953H4.05469ZM4.05469 12.9141V8.51953H3.80469V12.9141H4.05469ZM33.4219 12.7891H3.92969V13.0391H33.4219V12.7891ZM33.2969 11.4492V12.9141H33.5469V11.4492H33.2969ZM37.8164 6.92969C35.3242 6.92969 33.2969 8.95704 33.2969 11.4492H33.5469C33.5469 9.09511 35.4623 7.17969 37.8164 7.17969V6.92969ZM48.0703 6.92969H37.8164V7.17969H48.0703V6.92969ZM47.9453 2.46484V7.05469H48.1953V2.46484H47.9453ZM33.2969 34.8867V36.3516H33.5469V34.8867H33.2969ZM37.8164 30.3672C35.3242 30.3672 33.2969 32.3945 33.2969 34.8867H33.5469C33.5469 32.5326 35.4623 30.6172 37.8164 30.6172V30.3672ZM48.0703 30.3672H37.8164V30.6172H48.0703V30.3672ZM47.9453 21.7031V30.4922H48.1953V21.7031H47.9453ZM21.5078 21.8281H48.0703V21.5781H21.5078V21.8281ZM21.6328 36.3516V21.7031H21.3828V36.3516H21.6328ZM33.4219 36.2266H21.5078V36.4766H33.4219V36.2266ZM18.5781 27.4375H9.78906V27.6875H18.5781V27.4375ZM18.7031 30.4922V27.5625H18.4531V30.4922H18.7031ZM9.78906 30.6172H18.5781V30.3672H9.78906V30.6172ZM9.66406 27.5625V30.4922H9.91406V27.5625H9.66406ZM18.5781 24.5078H9.78906V24.7578H18.5781V24.5078ZM18.4531 21.7031V24.6328H18.7031V21.7031H18.4531ZM9.78906 21.8281H18.5781V21.5781H9.78906V21.8281ZM9.91406 24.6328V21.7031H9.66406V24.6328H9.91406ZM18.5781 33.2969H9.78906V33.5469H18.5781V33.2969ZM18.7031 36.3516V33.4219H18.4531V36.3516H18.7031ZM9.78906 36.4766H18.5781V36.2266H9.78906V36.4766ZM9.66406 33.4219V36.3516H9.91406V33.4219H9.66406ZM36.4766 11.4492C36.4766 10.7105 37.0777 10.1094 37.8164 10.1094V9.85938C36.9397 9.85938 36.2266 10.5725 36.2266 11.4492H36.4766ZM36.4766 12.9141V11.4492H36.2266V12.9141H36.4766ZM48.0703 12.7891H36.3516V13.0391H48.0703V12.7891ZM47.9453 9.98438V12.9141H48.1953V9.98438H47.9453ZM37.8164 10.1094H48.0703V9.85938H37.8164V10.1094ZM6.85938 21.5781H3.92969V21.8281H6.85938V21.5781ZM6.98438 36.3516V21.7031H6.73438V36.3516H6.98438ZM3.92969 36.4766H6.85938V36.2266H3.92969V36.4766ZM3.80469 21.7031V36.3516H4.05469V21.7031H3.80469ZM36.4766 36.3516V34.8867H36.2266V36.3516H36.4766ZM48.0703 36.2266H36.3516V36.4766H48.0703V36.2266ZM47.9453 33.4219V36.3516H48.1953V33.4219H47.9453ZM37.8164 33.5469H48.0703V33.2969H37.8164V33.5469ZM36.4766 34.8867C36.4766 34.148 37.0777 33.5469 37.8164 33.5469V33.2969C36.9397 33.2969 36.2266 34.01 36.2266 34.8867H36.4766Z" fill="#070707"/>
</g>
</svg>
