<svg width="121" height="120" viewBox="0 0 121 120" fill="none" xmlns="http://www.w3.org/2000/svg">
<path d="M1.875 103.212C1.875 94.9109 8.60413 88.1818 16.9052 88.1818H118.359V118.242H16.9052C8.60413 118.242 1.875 111.513 1.875 103.212H1.875Z" fill="#ECEAEC"/>
<path d="M43.208 88.1818H58.2382V118.242H43.208V88.1818Z" fill="#739AD6"/>
<path d="M73.2686 88.1818H88.2988V118.242H73.2686L73.2686 88.1818Z" fill="#B4B4EB"/>
<path d="M58.2383 88.1818H73.2685V118.242H58.2383L58.2383 88.1818Z" fill="#8BB3EA"/>
<path d="M88.2988 88.1818H103.329V118.242H88.2988L88.2988 88.1818Z" fill="#D6BDEF"/>
<path d="M103.329 88.1818H118.359V118.242H103.329L103.329 88.1818Z" fill="#EAD1FF"/>
<path d="M6.27708 113.84C0.407639 107.97 0.407639 98.454 6.27708 92.5836L78.016 20.8447L99.2727 42.1014L27.5338 113.84C21.6634 119.71 12.1474 119.71 6.27708 113.84Z" fill="#ECEAEC"/>
<path d="M35.5044 63.3563L56.7602 84.6121L46.1328 95.2405L24.877 73.9847L35.5044 63.3563Z" fill="#69A5A0"/>
<path d="M56.7603 42.1006L78.0161 63.3564L67.3886 73.9838L46.1328 52.728L56.7603 42.1006Z" fill="#96D2AA"/>
<path d="M46.1323 52.7289L67.3881 73.9838L56.7597 84.6121L35.5039 63.3563L46.1323 52.7289Z" fill="#78C2A4"/>
<path d="M67.3881 31.4722L88.6439 52.728L78.0156 63.3563L56.7598 42.1005L67.3881 31.4722Z" fill="#A4CCFF"/>
<path d="M78.0161 20.8447L99.2719 42.1005L88.6445 52.728L67.3887 31.4722L78.0161 20.8447Z" fill="#C3DDFF"/>
<path d="M16.9052 118.242C8.60413 118.242 1.875 111.513 1.875 103.212V1.75781H31.9354V103.212C31.9354 111.513 25.2063 118.242 16.9052 118.242Z" fill="#ECEAEC"/>
<path d="M7.51099 103.212V1.75781H1.875V103.212C1.875 111.513 8.60413 118.242 16.9052 118.242C17.8693 118.242 18.8095 118.142 19.7232 117.969C12.7707 116.648 7.51099 110.549 7.51099 103.212Z" fill="#DAD8DB"/>
<path d="M20.6621 103.212C20.6621 105.287 18.9803 106.969 16.9048 106.969C14.8293 106.969 13.1475 105.287 13.1475 103.212C13.1475 101.136 14.8293 99.4546 16.9048 99.4546C18.9803 99.4546 20.6621 101.136 20.6621 103.212Z" fill="#B6B1B7"/>
<path d="M1.875 61.8787H31.9354V76.9089H1.875V61.8787Z" fill="#BD4150"/>
<path d="M1.875 31.8182H31.9354V46.8484H1.875V31.8182Z" fill="#FFA95F"/>
<path d="M1.875 46.8484H31.9354V61.8786H1.875V46.8484Z" fill="#E5646E"/>
<path d="M1.875 16.788H31.9354V31.8182H1.875V16.788Z" fill="#FFC269"/>
<path d="M1.875 1.75781H31.9354V16.788H1.875V1.75781Z" fill="#FFE07D"/>
<path fill-rule="evenodd" clip-rule="evenodd" d="M16.9048 97.6968C19.9462 97.6968 22.4199 100.171 22.4199 103.212C22.4199 106.253 19.9462 108.727 16.9048 108.727C13.8634 108.727 11.3896 106.253 11.3896 103.212C11.3896 100.171 13.8634 97.6968 16.9048 97.6968ZM16.9048 101.212C15.8025 101.212 14.9053 102.109 14.9053 103.212C14.9053 104.314 15.8025 105.211 16.9048 105.211C18.0071 105.211 18.9043 104.314 18.9043 103.212C18.9043 102.11 18.0071 101.212 16.9048 101.212Z" fill="black"/>
<path fill-rule="evenodd" clip-rule="evenodd" d="M118.359 86.424H57.4356L100.515 43.3438C101.201 42.6572 101.201 41.5448 100.515 40.8582L79.259 19.6024C78.9294 19.2728 78.4827 19.0869 78.0157 19.0869C77.5497 19.0869 77.103 19.2728 76.7734 19.6024L33.6932 62.6816V1.75781C33.6932 0.787354 32.9059 0 31.9354 0H1.875C0.904541 0 0.117188 0.787354 0.117188 1.75781V103.212C0.117188 112.469 7.64832 120 16.9052 120H118.359C119.33 120 120.117 119.213 120.117 118.242V88.1818C120.117 87.2113 119.33 86.424 118.359 86.424ZM78.0157 23.3313L96.7859 42.1014L88.6441 50.2432L69.874 31.4731L78.0157 23.3313ZM78.0157 60.8716L86.1584 52.7289L67.3883 33.9587L59.2456 42.1014L78.0157 60.8716ZM56.7599 44.5871L75.5301 63.3572L67.3883 71.499L48.6182 52.7289L56.7599 44.5871ZM35.5042 65.8429L33.6932 67.6538V80.4089L46.0858 92.8015L54.2743 84.613L35.5042 65.8429ZM3.63281 18.5458H20.6625C21.633 18.5458 22.4203 17.7585 22.4203 16.788C22.4203 15.8176 21.633 15.0302 20.6625 15.0302H3.63281V3.51562H30.1776V15.0302H28.1781C27.2067 15.0302 26.4203 15.8176 26.4203 16.788C26.4203 17.7585 27.2067 18.5458 28.1781 18.5458H30.1776V30.0604H3.63281V18.5458ZM30.1776 33.576H3.63281V45.0906H30.1776V33.576ZM3.63281 48.6063H30.1776V60.1208H3.63281V48.6063ZM30.1776 63.6365H3.63281V75.1511H30.1776V63.6365ZM18.2794 116.413C18.2721 116.414 17.4536 116.484 16.9052 116.484C9.58649 116.484 3.63281 110.531 3.63281 103.212V78.6667H30.1776V103.212C30.1776 110.067 24.9545 115.724 18.2794 116.413ZM27.182 116.484H41.4505V102.409L28.7759 115.083C28.2706 115.588 27.7368 116.053 27.182 116.484ZM33.555 105.332C33.6429 104.637 33.6932 103.931 33.6932 103.212V85.3812L43.6002 95.2872L33.555 105.332ZM44.9661 116.484H56.4807V89.9396H53.92L44.9661 98.8934V116.484ZM37.9898 63.3572L46.1325 55.2145L64.9026 73.9847L56.7599 82.1265L37.9898 63.3572ZM59.9963 116.484H71.5109V89.9396H59.9963V116.484ZM86.5411 116.484H75.0266V89.9396H86.5411V116.484ZM105.087 116.484H116.602V89.9396H105.087V91.9391C105.087 92.9105 104.3 93.6969 103.329 93.6969C102.359 93.6969 101.571 92.9105 101.571 91.9391V89.9396H90.0568V116.484H101.571V99.4547C101.571 98.4842 102.359 97.6968 103.329 97.6968C104.3 97.6968 105.087 98.4842 105.087 99.4547V116.484Z" fill="black"/>
</svg>
