<svg width="103" height="121" viewBox="0 0 103 121" fill="none" xmlns="http://www.w3.org/2000/svg">
<path d="M0 3.13198L6.70051 1V6.48223V11.9645V89.0203V102.421V107.599V109.426V115.822V121L0 115.822V3.13198Z" fill="#F3DCB4"/>
<path d="M59.086 9.22335L6.7002 1V6.48223L58.9444 14.401L59.086 9.22335Z" fill="#F3DCB4"/>
<path d="M58.9444 14.401L49.9489 17.4467L6.7002 11.9645V6.48224L58.9444 14.401Z" fill="#F3DCB4"/>
<path d="M58.9453 14.401L49.95 17.4467L49.2852 43.9441H58.1372L58.9453 14.401Z" fill="#F3DCB4"/>
<path d="M56.3449 109.426L6.7002 121V115.822V109.426L47.8169 102.421L56.4699 104.858L56.3449 109.426Z" fill="#F3DCB4"/>
<path d="M46.2941 51.8629L37.7662 62.7525L6.7002 102.421V107.599L49.9499 99.9847L91.3702 61.0291L101.116 51.8629H96.8525H46.2941Z" fill="#F3DCB4"/>
<path d="M0 115.822H-0.5V116.068L-0.305724 116.218L0 115.822ZM0 3.13198L-0.151602 2.65552L-0.5 2.76637V3.13198H0ZM56.3452 109.426L56.4587 109.913L56.8344 109.826L56.845 109.44L56.3452 109.426ZM59.0863 9.22335L59.5861 9.23702L59.5981 8.79757L59.1638 8.7294L59.0863 9.22335ZM49.9502 99.9848L50.0369 100.477L50.184 100.451L50.2928 100.349L49.9502 99.9848ZM101.117 51.8629L101.459 52.2272L102.378 51.3629H101.117V51.8629ZM46.2944 51.8629V51.3629H46.0509L45.9008 51.5547L46.2944 51.8629ZM42.0305 41.8122V41.3122H41.7801L41.6301 41.5126L42.0305 41.8122ZM88.3249 41.8122L88.7721 41.5886L88.6339 41.3122H88.3249V41.8122ZM91.3706 47.9036L90.9233 48.1272L91.0615 48.4036H91.3706V47.9036ZM96.8528 47.9036H97.3528V47.4036H96.8528V47.9036ZM49.9502 17.4467L49.7899 16.9731L49.4591 17.0851L49.4504 17.4342L49.9502 17.4467ZM58.9456 14.401L59.4454 14.4147L59.465 13.6973L58.7852 13.9274L58.9456 14.401ZM58.1374 43.9442V44.4442H58.624L58.6373 43.9578L58.1374 43.9442ZM49.2854 43.9442L48.7856 43.9316L48.7727 44.4442H49.2854V43.9442ZM7.00623 120.604L0.305724 115.427L-0.305724 116.218L6.39478 121.396L7.00623 120.604ZM0.5 115.822V3.13198H-0.5V115.822H0.5ZM0.151602 3.60844L6.85211 1.47646L6.54891 0.523537L-0.151602 2.65552L0.151602 3.60844ZM6.81403 121.487L56.4587 109.913L56.2317 108.939L6.58699 120.513L6.81403 121.487ZM56.845 109.44L56.97 104.872L55.9704 104.844L55.8454 109.413L56.845 109.44ZM7.20051 121V115.822H6.20051V121H7.20051ZM6.62297 1.49395L59.0088 9.7173L59.1638 8.7294L6.77805 0.506049L6.62297 1.49395ZM58.5865 9.20968L58.4449 14.3873L59.4445 14.4147L59.5861 9.23702L58.5865 9.20968ZM6.20051 1V6.48223H7.20051V1H6.20051ZM6.80808 116.311L56.5777 105.346L56.3626 104.37L6.59294 115.334L6.80808 116.311ZM7.20051 115.822V109.426H6.20051V115.822H7.20051ZM56.6057 104.377L47.9528 101.94L47.6817 102.903L56.3347 105.339L56.6057 104.377ZM56.9701 104.852L56.8451 93.8877L55.8452 93.8991L55.9702 104.864L56.9701 104.852ZM47.7333 101.928L6.61653 108.933L6.78448 109.919L47.9012 102.914L47.7333 101.928ZM48.3173 102.421V99.9848H47.3173V102.421H48.3173ZM7.20051 109.426V107.599H6.20051V109.426H7.20051ZM50.1096 17.9203L59.105 14.8746L58.7843 13.9274L49.7889 16.9731L50.1096 17.9203ZM50.0121 16.9507L6.76338 11.4684L6.63763 12.4605L49.8864 17.9427L50.0121 16.9507ZM49.4494 17.4342L48.7846 43.9316L49.7843 43.9567L50.4491 17.4592L49.4494 17.4342ZM59.0196 13.9067L6.77544 5.98788L6.62558 6.97659L58.8697 14.8954L59.0196 13.9067ZM58.4449 14.3873L57.6367 43.9305L58.6363 43.9578L59.4445 14.4147L58.4449 14.3873ZM7.20051 11.9645V6.48223H6.20051V11.9645H7.20051ZM6.20051 11.9645V89.0203H7.20051V11.9645H6.20051ZM49.2844 44.4442H58.1365V43.4442H49.2844V44.4442ZM6.20051 102.421V107.599H7.20051V102.421H6.20051ZM7.09416 102.73L38.1601 63.0608L37.3728 62.4442L6.30686 102.113L7.09416 102.73ZM7.20051 102.421V89.0203H6.20051V102.421H7.20051ZM6.7872 108.091L50.0369 100.477L49.8635 99.4923L6.61381 107.107L6.7872 108.091ZM50.2928 100.349L91.7131 61.3934L91.028 60.665L49.6077 99.6205L50.2928 100.349ZM91.8706 76.8376V61.0292H90.8706V76.8376H91.8706ZM91.7131 61.3934L101.459 52.2272L100.774 51.4987L91.028 60.665L91.7131 61.3934ZM101.117 51.3629H96.8528V52.3629H101.117V51.3629ZM38.2665 78.9695V62.7525H37.2665V78.9695H38.2665ZM38.1602 63.0608L46.6881 52.1712L45.9008 51.5547L37.3728 62.4442L38.1602 63.0608ZM46.2944 52.3629H96.8528V51.3629H46.2944V52.3629ZM7.10082 89.3199L42.4308 42.1118L41.6301 41.5126L6.3002 88.7207L7.10082 89.3199ZM42.0305 42.3122H88.3249V41.3122H42.0305V42.3122ZM87.8777 42.0358L90.9233 48.1272L91.8178 47.6799L88.7721 41.5886L87.8777 42.0358ZM91.3706 48.4036H96.8528V47.4036H91.3706V48.4036ZM96.3528 47.9036V51.8629H97.3528V47.9036H96.3528ZM50.1106 17.9203L59.1059 14.8746L58.7852 13.9274L49.7899 16.9731L50.1106 17.9203ZM58.4458 14.3873L57.6376 43.9305L58.6373 43.9578L59.4454 14.4147L58.4458 14.3873ZM58.1374 43.4442H49.2854V44.4442H58.1374V43.4442ZM49.7852 43.9567L50.4501 17.4592L49.4504 17.4342L48.7856 43.9316L49.7852 43.9567Z" fill="black"/>
<path d="M45.9895 52.1675L6.7002 102.421V89.0203L42.3347 41.8121H88.3246L91.6748 47.9035H97.1571V52.1675H45.9895Z" fill="#DEDFE0" stroke="black"/>
</svg>
