<svg width="72" height="48" viewBox="0 0 72 48" fill="none" xmlns="http://www.w3.org/2000/svg">
<g>
<path d="M55.8955 35L4.95801 41.1458V43.0208L55.8955 36.875V35Z" fill="#21517F" stroke="black" stroke-width="0.25"/>
<path d="M55.8958 34.896V4.37513L49.75 4.2168V35.6251L55.8958 34.896Z" fill="#21517F" stroke="black" stroke-width="0.25"/>
<path d="M4.8618 3.02083L4.85449 0L55.8962 1.97917V4.375L4.8618 3.02083Z" fill="#21517F"/>
<path d="M1.10449 41.0417H0.979492V41.118L1.04739 41.1529L1.10449 41.0417ZM1.10449 0.566875L1.08581 0.443279L0.979492 0.459351V0.566875H1.10449ZM55.8962 36.875L55.9111 36.9991L56.0212 36.9858V36.875H55.8962ZM55.8962 1.97917H56.0212V1.85892L55.901 1.85426L55.8962 1.97917ZM49.7503 4.21187L49.7536 4.08692L49.6253 4.08351V4.21187H49.7503ZM5.01576 42.9096L1.16159 40.9305L1.04739 41.1529L4.90156 43.132L5.01576 42.9096ZM1.22949 41.0417V0.566875H0.979492V41.0417H1.22949ZM1.12318 0.690471L4.87318 0.123596L4.83581 -0.123596L1.08581 0.443279L1.12318 0.690471ZM4.97363 43.1449L55.9111 36.9991L55.8812 36.7509L4.94369 42.8967L4.97363 43.1449ZM56.0212 36.875V34.8958H55.7712V36.875H56.0212ZM5.08366 43.0205L5.07887 41.0414L4.82887 41.042L4.83366 43.0211L5.08366 43.0205ZM4.72949 0.000302585L4.73681 3.02114L4.9868 3.02053L4.97949 -0.000302585L4.72949 0.000302585ZM4.84965 0.124906L55.8913 2.10407L55.901 1.85426L4.85934 -0.124906L4.84965 0.124906ZM55.7712 1.97917V4.375H56.0212V1.97917H55.7712ZM4.85849 3.14579L55.8928 4.49996L55.8995 4.25004L4.86512 2.89588L4.85849 3.14579ZM4.7368 3.02114L4.82887 41.042L5.07887 41.0414L4.9868 3.02053L4.7368 3.02114ZM55.7712 4.375V34.8958H56.0212V4.375H55.7712ZM55.8995 4.25004L49.7536 4.08692L49.747 4.33683L55.8928 4.49996L55.8995 4.25004ZM49.6253 4.21187V35.6373H49.8753V4.21187H49.6253ZM4.96884 41.1658L49.7653 35.7614L49.7354 35.5132L4.9389 40.9176L4.96884 41.1658ZM55.8812 34.7717L49.7354 35.5132L49.7653 35.7614L55.9111 35.0199L55.8812 34.7717Z" fill="black"/>
<path d="M1 41.0417L4.95833 43.0208L4.85417 0L1.10417 0.520833L1 41.0417Z" fill="#21517F" stroke="#441401" stroke-width="0.25"/>
<path d="M70.6872 41.4585V33.021" stroke="black" stroke-width="0.25"/>
<path d="M18.5651 38.6458L5.0625 31.9212L49.79 26.5625L71.5208 32.8669L18.5651 38.6458Z" fill="#21517F" stroke="black" stroke-width="0.25"/>
<path d="M18.856 38.8177L5.0625 31.875V28.8542L50.9804 24.6875L71.519 30.2029V33.88L18.856 38.8177Z" fill="white"/>
<path d="M71.519 33.88L71.5306 34.0045L71.644 33.9938V33.88H71.519ZM18.856 38.8177L18.7998 38.9294L18.8319 38.9455L18.8677 38.9422L18.856 38.8177ZM5.0625 31.875H4.9375V31.952L5.0063 31.9867L5.0625 31.875ZM20.6466 34.7204L20.6025 34.8374L20.6292 34.8474L20.6576 34.8449L20.6466 34.7204ZM50.9804 24.6875L51.0128 24.5668L50.9913 24.561L50.9691 24.563L50.9804 24.6875ZM71.394 30.2029V33.88H71.644V30.2029H71.394ZM71.5073 33.7555L18.8444 38.6933L18.8677 38.9422L71.5306 34.0045L71.5073 33.7555ZM18.9122 38.7061L5.1187 31.7633L5.0063 31.9867L18.7998 38.9294L18.9122 38.7061ZM5.1875 31.875V28.8542H4.9375V31.875H5.1875ZM71.5079 30.0784L20.6355 34.5959L20.6576 34.8449L71.53 30.3274L71.5079 30.0784ZM20.6906 34.6034L5.10654 28.7372L5.01846 28.9712L20.6025 34.8374L20.6906 34.6034ZM71.5514 30.0822L51.0128 24.5668L50.948 24.8082L71.4865 30.3236L71.5514 30.0822ZM50.9691 24.563L5.0512 28.7297L5.0738 28.9787L50.9917 24.812L50.9691 24.563Z" fill="#040404"/>
<path d="M18.5 38.5L19.75 47" stroke="black" stroke-width="0.25"/>
</g>
</svg>
