<svg width="125" height="246" viewBox="0 0 125 246" fill="none" xmlns="http://www.w3.org/2000/svg">
<path d="M120.796 114.405C119.19 114.54 117.95 115.785 118.023 117.186C118.1 118.59 119.476 119.679 121.086 119.625C122.703 119.568 123.94 118.323 123.86 116.841C123.776 115.365 122.403 114.273 120.796 114.405Z" fill="#D6D9F1"/>
<path d="M118.636 98.0133C117.026 98.3766 116.183 99.8666 116.413 101.407C116.643 102.947 118.126 103.977 119.716 103.707C121.306 103.437 122.396 101.9 122.146 100.273C121.896 98.64 120.176 97.66 118.636 98.0133Z" fill="#D6D9F1"/>
<path d="M114.33 83.05C112.817 83.61 112.023 85.2533 112.56 86.7167C113.097 88.18 114.783 88.9767 116.327 88.5C117.87 88.0267 118.66 86.3833 118.097 84.8333C117.53 83.29 115.843 82.49 114.33 83.05Z" fill="#D6D9F1"/>
<path d="M107.47 68.6855C106.04 69.4265 105.433 71.1295 106.106 72.501C106.783 73.8693 108.523 74.4478 109.99 73.788C111.453 73.125 112.066 71.4188 111.35 69.9725C110.633 68.5263 108.896 67.951 107.47 68.6855Z" fill="#D6D9F1"/>
<path d="M98.8421 55.2067C97.5421 56.1533 97.2983 57.8833 98.1271 59.1867C98.9136 60.5133 100.633 60.9 101.965 60.04C103.298 59.1767 103.701 57.34 102.866 55.9333C101.988 54.56 100.11 54.2867 98.8421 55.2067Z" fill="#D6D9F1"/>
<path d="M89.5826 42.783C88.4321 43.8522 88.3216 45.6332 89.3453 46.7577C90.3691 47.8822 92.1793 47.9765 93.3916 46.9722C94.6006 45.9647 94.7078 44.187 93.6288 42.9975C92.5498 41.808 90.7396 41.7137 89.5826 42.783Z" fill="#D6D9F1"/>
<path d="M77.9836 31.55C76.9502 32.7933 77.0469 34.6533 78.2002 35.7C79.3536 36.7467 81.1769 36.6367 82.2769 35.4533C83.3736 34.27 83.2769 32.4133 82.0602 31.3033C80.8369 30.1967 79.0102 30.31 77.9836 31.55Z" fill="#D6D9F1"/>
<path d="M65.1166 21.9833C64.2532 23.35 64.6366 25.11 65.9699 25.92C67.2766 26.7733 68.9999 26.5233 69.9466 25.1866C70.8699 23.8866 70.5999 21.96 69.2199 21.0633C67.8132 20.2033 65.9732 20.6166 65.1166 21.9833Z" fill="#D6D9F1"/>
<path d="M51.1432 15.0375C50.4732 16.4675 51.0632 18.164 52.4632 18.8238C53.8665 19.4803 55.6132 18.8888 56.3699 17.4945C57.1265 16.1035 56.5399 14.4103 55.0532 13.7148C53.5699 13.0128 51.8199 13.6075 51.1432 15.0375Z" fill="#D6D9F1"/>
<path d="M36.5617 8.68425C36.097 10.189 36.8802 11.8303 38.3037 12.3568C39.7272 12.8768 41.3295 12.1065 41.8755 10.631C42.4247 9.15225 41.648 7.511 40.1367 6.95525C38.6222 6.406 37.0232 7.1795 36.5617 8.68425Z" fill="#D6D9F1"/>
<path d="M21.1135 5.43998C20.8468 7.03332 21.8768 8.51332 23.4168 8.74332C24.9568 8.97332 26.4435 8.12665 26.8101 6.51998C27.1601 4.98332 26.1801 3.25665 24.5501 3.00665C22.9235 2.75998 21.3868 3.84665 21.1135 5.43998Z" fill="#D6D9F1"/>
<path d="M4.57606 3.73002C4.50939 5.34002 5.72939 6.71669 7.28606 6.79335C8.84272 6.87335 10.2227 5.63002 10.3727 4.02335C10.5194 2.41669 9.30939 1.04002 7.66272 0.960021C6.01272 0.876687 4.63272 2.11669 4.57606 3.73002Z" fill="#D6D9F1"/>
<path d="M0 246C67.3788 246 122 191.827 122 125" stroke="#D6D9F1"/>
</svg>
