<svg width="125" height="246" viewBox="0 0 125 246" fill="none" xmlns="http://www.w3.org/2000/svg">
<path d="M4.20372 114.405C5.81039 114.54 7.05039 115.785 6.97706 117.186C6.90039 118.59 5.52372 119.679 3.91372 119.625C2.29706 119.568 1.06039 118.323 1.14039 116.841C1.22372 115.365 2.59706 114.273 4.20372 114.405Z" fill="#F7DFE7"/>
<path d="M6.36405 98.0133C7.97405 98.3766 8.81739 99.8666 8.58739 101.407C8.35739 102.947 6.87405 103.977 5.28405 103.707C3.69405 103.437 2.60405 101.9 2.85405 100.273C3.10405 98.64 4.82405 97.66 6.36405 98.0133Z" fill="#F7DFE7"/>
<path d="M10.67 83.05C12.1834 83.61 12.9767 85.2533 12.44 86.7167C11.9034 88.18 10.2167 88.9767 8.67337 88.5C7.13004 88.0267 6.34004 86.3833 6.90337 84.8333C7.47004 83.29 9.1567 82.49 10.67 83.05Z" fill="#F7DFE7"/>
<path d="M17.5304 68.6855C18.9604 69.4265 19.567 71.1295 18.8937 72.501C18.217 73.8693 16.477 74.4478 15.0104 73.788C13.547 73.125 12.9337 71.4188 13.6504 69.9725C14.367 68.5263 16.1037 67.951 17.5304 68.6855Z" fill="#F7DFE7"/>
<path d="M26.1579 55.2067C27.4579 56.1533 27.7017 57.8833 26.8729 59.1867C26.0864 60.5133 24.3672 60.9 23.0347 60.04C21.7022 59.1767 21.2992 57.34 22.1344 55.9333C23.0119 54.56 24.8904 54.2867 26.1579 55.2067Z" fill="#F7DFE7"/>
<path d="M35.4174 42.783C36.5679 43.8522 36.6784 45.6332 35.6547 46.7577C34.6309 47.8822 32.8207 47.9765 31.6084 46.9722C30.3994 45.9647 30.2922 44.187 31.3712 42.9975C32.4502 41.808 34.2604 41.7137 35.4174 42.783Z" fill="#F7DFE7"/>
<path d="M47.0164 31.55C48.0498 32.7933 47.9531 34.6533 46.7998 35.7C45.6464 36.7467 43.8231 36.6367 42.7231 35.4533C41.6264 34.27 41.7231 32.4133 42.9398 31.3033C44.1631 30.1967 45.9898 30.31 47.0164 31.55Z" fill="#F7DFE7"/>
<path d="M59.8834 21.9833C60.7468 23.35 60.3634 25.11 59.0301 25.92C57.7234 26.7733 56.0001 26.5233 55.0534 25.1867C54.1301 23.8867 54.4001 21.96 55.7801 21.0633C57.1868 20.2033 59.0268 20.6167 59.8834 21.9833Z" fill="#F7DFE7"/>
<path d="M73.8568 15.0375C74.5268 16.4675 73.9368 18.164 72.5368 18.8237C71.1335 19.4802 69.3868 18.8887 68.6301 17.4945C67.8735 16.1035 68.4601 14.4102 69.9468 13.7147C71.4301 13.0127 73.1801 13.6075 73.8568 15.0375Z" fill="#F7DFE7"/>
<path d="M88.4383 8.68425C88.903 10.189 88.1198 11.8303 86.6963 12.3568C85.2728 12.8768 83.6705 12.1065 83.1245 10.631C82.5753 9.15225 83.352 7.511 84.8633 6.95525C86.3778 6.406 87.9768 7.1795 88.4383 8.68425Z" fill="#F7DFE7"/>
<path d="M103.887 5.43998C104.153 7.03332 103.123 8.51332 101.583 8.74332C100.043 8.97332 98.5565 8.12665 98.1899 6.51998C97.8399 4.98332 98.8199 3.25665 100.45 3.00665C102.077 2.75998 103.613 3.84665 103.887 5.43998Z" fill="#F7DFE7"/>
<path d="M120.424 3.72999C120.491 5.33999 119.271 6.71666 117.714 6.79332C116.157 6.87332 114.777 5.62999 114.627 4.02332C114.481 2.41666 115.691 1.03999 117.337 0.95999C118.987 0.876657 120.367 2.11666 120.424 3.72999Z" fill="#F7DFE7"/>
<path d="M125 246C57.6212 246 3 191.827 3 125" stroke="#F7DFE7"/>
</svg>
