<svg width="44" height="51" viewBox="0 0 44 51" fill="none" xmlns="http://www.w3.org/2000/svg">
<path d="M1 0.888325L3.79188 0V2.28426V4.56853V36.6751V42.2589V44.4162V45.1777V47.8426V50L1 47.8426V0.888325Z" fill="#21517F"/>
<path d="M25.6194 3.4264L3.79199 0V2.28426L25.5603 5.58376L25.6194 3.4264Z" fill="#21517F"/>
<path d="M25.5603 5.58367L21.8123 6.85271L3.79199 4.56844V2.28418L25.5603 5.58367Z" fill="#21517F"/>
<path d="M25.5602 5.58398L21.8122 6.85302L21.5352 42.8936L24.4996 43.5002L25.5602 5.58398Z" fill="#21517F"/>
<path d="M24.4773 45.1776L3.79199 49.9999V47.8425V45.1776L20.924 42.2588L21.5353 42.4309L24.5293 43.274L24.4773 45.1776Z" fill="#21517F"/>
<path d="M20.2895 21.1929L16.7362 25.7302L3.79199 42.2589V44.4162L21.5353 41.2924L21.8127 41.2436L24.5293 38.6886L39.0712 25.0121L43.1321 21.1929H41.3554H20.2895Z" fill="#21517F"/>
<path d="M1 47.8426H0.875V47.904L0.923569 47.9416L1 47.8426ZM1 0.888325L0.9621 0.769209L0.875 0.796923V0.888325H1ZM24.4772 45.1777L24.5055 45.2994L24.5995 45.2775L24.6021 45.1811L24.4772 45.1777ZM25.6193 3.4264L25.7442 3.42982L25.7473 3.31995L25.6387 3.30291L25.6193 3.4264ZM20.9239 42.2589L20.9577 42.1386L20.9306 42.1309L20.9029 42.1357L20.9239 42.2589ZM21.5352 17.8934L21.4102 17.8903L21.407 18.0184H21.5352V17.8934ZM25.2236 17.8934V18.0184H25.3452L25.3486 17.8968L25.2236 17.8934ZM43.132 21.1929L43.2176 21.284L43.4473 21.0679H43.132V21.1929ZM20.2893 21.1929V21.0679H20.2285L20.1909 21.1158L20.2893 21.1929ZM18.5127 17.0051V16.8801H18.4501L18.4126 16.9302L18.5127 17.0051ZM37.802 17.0051L37.9138 16.9492L37.8793 16.8801H37.802V17.0051ZM39.0711 19.5431L38.9593 19.599L38.9938 19.6681H39.0711V19.5431ZM41.3553 19.5431H41.4803V19.4181H41.3553V19.5431ZM21.8126 41.2437L21.8342 41.3668L21.871 41.3603L21.8982 41.3347L21.8126 41.2437ZM21.8126 6.85279L21.7725 6.73439L21.6898 6.76239L21.6876 6.84966L21.8126 6.85279ZM25.5607 5.58376L25.6856 5.58718L25.6905 5.40782L25.5206 5.46536L25.5607 5.58376ZM25.2239 17.8934V18.0184H25.3455L25.3488 17.8968L25.2239 17.8934ZM21.5356 17.8934L21.4106 17.8903L21.4074 18.0184H21.5356V17.8934ZM3.86831 49.9011L1.07643 47.7437L0.923569 47.9416L3.71545 50.0989L3.86831 49.9011ZM1.125 47.8426V0.888325H0.875V47.8426H1.125ZM1.0379 1.00744L3.82978 0.119116L3.75398 -0.119116L0.9621 0.769209L1.0379 1.00744ZM3.82026 50.1217L24.5055 45.2994L24.4488 45.0559L3.7635 49.8783L3.82026 50.1217ZM24.6021 45.1811L24.6541 43.2775L24.4042 43.2707L24.3522 45.1743L24.6021 45.1811ZM3.91688 50V47.8426H3.66688V50H3.91688ZM3.77249 0.123488L25.5999 3.54988L25.6387 3.30291L3.81126 -0.123488L3.77249 0.123488ZM25.4943 3.42297L25.4352 5.58033L25.6851 5.58718L25.7442 3.42982L25.4943 3.42297ZM3.66688 0V2.28426H3.91688V0H3.66688ZM3.81877 47.9647L24.5561 43.3962L24.5023 43.152L3.76499 47.7206L3.81877 47.9647ZM3.91688 47.8426V45.1777H3.66688V47.8426H3.91688ZM24.6542 43.2741V38.6886H24.4042V43.2741H24.6542ZM24.5631 43.1538L21.5691 42.3106L21.5013 42.5513L24.4953 43.3944L24.5631 43.1538ZM3.81287 45.3009L20.9449 42.3821L20.9029 42.1357L3.77088 45.0544L3.81287 45.3009ZM20.89 42.3792L21.5013 42.5513L21.569 42.3106L20.9577 42.1386L20.89 42.3792ZM3.91688 45.1777V44.4162H3.66688V45.1777H3.91688ZM21.8523 6.97119L25.6002 5.70215L25.5201 5.46536L21.7721 6.73439L21.8523 6.97119ZM21.8279 6.72878L3.8076 4.44452L3.77616 4.69254L21.7965 6.9768L21.8279 6.72878ZM21.6872 6.84966L21.4102 17.8903L21.6601 17.8965L21.9371 6.85593L21.6872 6.84966ZM21.5352 18.0184H25.2236V17.7684H21.5352V18.0184ZM25.3486 17.8968L25.6851 5.58717L25.4352 5.58034L25.0986 17.89L25.3486 17.8968ZM25.5789 5.46017L3.81061 2.16068L3.77315 2.40785L25.5414 5.70734L25.5789 5.46017ZM3.91688 4.56853V2.28426H3.66688V4.56853H3.91688ZM3.66688 4.56853V36.6751H3.91688V4.56853H3.66688ZM3.66688 42.2589V44.4162H3.91688V42.2589H3.66688ZM3.89029 42.336L16.8345 25.8073L16.6376 25.6531L3.69347 42.1818L3.89029 42.336ZM3.91688 42.2589V36.6751H3.66688V42.2589H3.91688ZM3.81355 44.5393L21.5569 41.4155L21.5135 41.1693L3.7702 44.2931L3.81355 44.5393ZM39.1961 31.599V25.0122H38.9461V31.599H39.1961ZM39.1567 25.1032L43.2176 21.284L43.0463 21.1018L38.9854 24.9211L39.1567 25.1032ZM43.132 21.0679H41.3553V21.3179H43.132V21.0679ZM38.9854 24.9211L24.4436 38.5975L24.6148 38.7796L39.1567 25.1032L38.9854 24.9211ZM16.861 32.4873V25.7302H16.611V32.4873H16.861ZM16.8345 25.8073L20.3878 21.27L20.1909 21.1158L16.6376 25.6531L16.8345 25.8073ZM20.2893 21.3179H41.3553V21.0679H20.2893V21.3179ZM3.89196 36.75L18.6128 17.08L18.4126 16.9302L3.6918 36.6002L3.89196 36.75ZM18.5127 17.1301H37.802V16.8801H18.5127V17.1301ZM37.6902 17.061L38.9593 19.599L39.1829 19.4872L37.9138 16.9492L37.6902 17.061ZM39.0711 19.6681H41.3553V19.4181H39.0711V19.6681ZM41.2303 19.5431V21.1929H41.4803V19.5431H41.2303ZM24.4435 38.5975L21.7269 41.1526L21.8982 41.3347L24.6148 38.7796L24.4435 38.5975ZM21.791 41.1205L21.5135 41.1693L21.5568 41.4155L21.8342 41.3668L21.791 41.1205ZM21.6602 42.431V41.2924H21.4102V42.431H21.6602ZM21.8527 6.97119L25.6007 5.70215L25.5206 5.46536L21.7725 6.73439L21.8527 6.97119ZM25.4357 5.58034L25.0989 17.89L25.3488 17.8968L25.6856 5.58718L25.4357 5.58034ZM25.2239 17.7684H21.5356V18.0184H25.2239V17.7684ZM21.6605 17.8965L21.9375 6.85593L21.6876 6.84966L21.4106 17.8903L21.6605 17.8965Z" fill="black"/>
<path d="M20.1625 21.3196L3.79199 42.2587V36.6749L18.6397 17.0049H37.8021L39.1981 19.543H41.4823V21.3196H20.1625Z" fill="white" stroke="black" stroke-width="0.25"/>
</svg>
