<svg width="92" height="50" viewBox="0 0 92 50" fill="none" xmlns="http://www.w3.org/2000/svg">
<path d="M0.125 22.0569C0.125 18.7573 2.32897 16.125 5 16.125C7.67103 16.125 9.875 18.7573 9.875 22.0569V49.875H1.68067C0.842855 49.875 0.125 49.043 0.125 47.9641V22.0569Z" fill="#21517F" stroke="black" stroke-width="0.25"/>
<path d="M0.125 22.0569C0.125 18.7573 2.32897 16.125 5 16.125C7.67103 16.125 9.875 18.7573 9.875 22.0569V49.875H1.68067C0.842855 49.875 0.125 49.043 0.125 47.9641V22.0569Z" fill="#21517F" stroke="black" stroke-width="0.25"/>
<path d="M87 16.125C89.671 16.125 91.875 18.7573 91.875 22.0569V47.9641C91.875 49.043 91.1575 49.875 90.3193 49.875H82.125V22.0569C82.125 18.7573 84.329 16.125 87 16.125Z" fill="#21517F" stroke="black" stroke-width="0.25"/>
<path d="M87 16.125C89.671 16.125 91.875 18.7573 91.875 22.0569V47.9641C91.875 49.043 91.1575 49.875 90.3193 49.875H82.125V22.0569C82.125 18.7573 84.329 16.125 87 16.125Z" fill="#21517F" stroke="black" stroke-width="0.25"/>
<rect x="4.125" y="38.125" width="83.75" height="11.75" fill="#21517F" stroke="black" stroke-width="0.25"/>
<path d="M13.125 33.9375C13.125 33.4774 13.4619 33.125 13.8533 33.125H44.1467C44.5381 33.125 44.875 33.4774 44.875 33.9375V35.875H13.125V33.9375Z" fill="#21517F" stroke="black" stroke-width="0.25"/>
<path d="M48.125 33.9375C48.125 33.4774 48.4619 33.125 48.8533 33.125H79.1467C79.5381 33.125 79.875 33.4774 79.875 33.9375V35.875H48.125V33.9375Z" fill="#21517F" stroke="black" stroke-width="0.25"/>
<path d="M48.125 5.41045C48.125 2.45906 49.9629 0.125 52.1667 0.125H74.8333C77.0371 0.125 78.875 2.45906 78.875 5.41045V28.875H48.125V5.41045Z" fill="#21517F" stroke="black" stroke-width="0.25"/>
<path d="M13.125 6.41045C13.125 3.45906 14.9629 1.125 17.1667 1.125H39.8333C42.0371 1.125 43.875 3.45906 43.875 6.41045V29.875H13.125V6.41045Z" fill="#21517F" stroke="black" stroke-width="0.25"/>
</svg>
