<svg width="164" height="50" viewBox="0 0 164 50" fill="none" xmlns="http://www.w3.org/2000/svg">
<g>
<path d="M118.125 33.9375C118.125 33.4775 118.462 33.125 118.853 33.125H149.147C149.538 33.125 149.875 33.4775 149.875 33.9375V35.875H118.125V33.9375Z" fill="#21517F" stroke="black" stroke-width="0.25"/>
<path d="M118.125 5.41045C118.125 2.45907 119.963 0.125 122.167 0.125H144.833C147.037 0.125 148.875 2.45907 148.875 5.41045V28.875H118.125V5.41045Z" fill="#21517F" stroke="black" stroke-width="0.25"/>
<path d="M83.125 5.41045C83.125 2.45906 84.9629 0.125 87.1667 0.125H109.833C112.037 0.125 113.875 2.45907 113.875 5.41045V28.875H83.125V5.41045Z" fill="#21517F" stroke="black" stroke-width="0.25"/>
<path d="M0.125 22.0569C0.125 18.7573 2.32897 16.125 5 16.125C7.67103 16.125 9.875 18.7573 9.875 22.0569V49.875H1.68067C0.842855 49.875 0.125 49.043 0.125 47.9641V22.0569Z" fill="#21517F" stroke="black" stroke-width="0.25"/>
<path d="M0.125 22.0569C0.125 18.7573 2.32897 16.125 5 16.125C7.67103 16.125 9.875 18.7573 9.875 22.0569V49.875H1.68067C0.842855 49.875 0.125 49.043 0.125 47.9641V22.0569Z" fill="#21517F" stroke="black" stroke-width="0.25"/>
<path d="M159 16.125C161.671 16.125 163.875 18.7573 163.875 22.0569V47.9641C163.875 49.043 163.157 49.875 162.319 49.875H154.125V22.0569C154.125 18.7573 156.329 16.125 159 16.125Z" fill="#21517F" stroke="black" stroke-width="0.25"/>
<path d="M159 16.125C161.671 16.125 163.875 18.7573 163.875 22.0569V47.9641C163.875 49.043 163.157 49.875 162.319 49.875H154.125V22.0569C154.125 18.7573 156.329 16.125 159 16.125Z" fill="#21517F" stroke="black" stroke-width="0.25"/>
<rect x="4.125" y="38.125" width="152.75" height="11.75" fill="#21517F" stroke="black" stroke-width="0.25"/>
<path d="M13.125 33.9375C13.125 33.4774 13.4619 33.125 13.8533 33.125H44.1467C44.5381 33.125 44.875 33.4774 44.875 33.9375V35.875H13.125V33.9375Z" fill="#21517F" stroke="black" stroke-width="0.25"/>
<path d="M48.125 33.9375C48.125 33.4774 48.4619 33.125 48.8533 33.125H79.1467C79.5381 33.125 79.875 33.4774 79.875 33.9375V35.875H48.125V33.9375Z" fill="#21517F" stroke="black" stroke-width="0.25"/>
<path d="M83.125 33.9375C83.125 33.4774 83.4619 33.125 83.8533 33.125H114.147C114.538 33.125 114.875 33.4775 114.875 33.9375V35.875H83.125V33.9375Z" fill="#21517F" stroke="black" stroke-width="0.25"/>
<path d="M48.125 5.41045C48.125 2.45906 49.9629 0.125 52.1667 0.125H74.8333C77.0371 0.125 78.875 2.45906 78.875 5.41045V28.875H48.125V5.41045Z" fill="#21517F" stroke="black" stroke-width="0.25"/>
<path d="M13.125 6.41045C13.125 3.45906 14.9629 1.125 17.1667 1.125H39.8333C42.0371 1.125 43.875 3.45906 43.875 6.41045V29.875H13.125V6.41045Z" fill="#21517F" stroke="black" stroke-width="0.25"/>
</g>
</svg>
