<svg width="91" height="50" viewBox="0 0 91 50" fill="none" xmlns="http://www.w3.org/2000/svg">
<g>
<path fill-rule="evenodd" clip-rule="evenodd" d="M80.8776 47.3967C80.9613 45.7951 81.0548 44.2029 81.1207 42.6096C81.1375 42.2063 80.4979 41.6193 80.1103 41.6157C79.7508 41.6125 79.3056 42.1668 79.3165 42.6406C79.336 43.4688 79.3653 44.2972 79.4094 45.1245C79.4491 45.872 79.5143 46.6183 79.5706 47.3967H80.8776ZM10.7543 47.3893C10.8236 45.775 10.8972 44.2001 10.9547 42.6247C10.9715 42.1642 10.5687 41.6394 10.2222 41.6148C9.84494 41.5877 9.13159 42.2073 9.15003 42.6193C9.22129 44.2105 9.32684 45.8001 9.4196 47.3893H10.7543ZM45.1457 22.0005C34.397 22.0005 23.6482 22.0004 12.8996 22.0013C12.598 22.0014 12.2956 22.0003 11.995 22.0207C10.5898 22.1155 9.57061 22.8218 8.97231 24.0719C8.36123 25.3491 8.49347 26.6033 9.3248 27.7567C10.15 28.9014 11.3286 29.2618 12.6859 29.2615C34.3341 29.2561 55.9824 29.2576 77.6306 29.2574C77.7815 29.2574 77.9327 29.2603 78.0831 29.251C79.6525 29.1541 80.8305 28.4423 81.4191 26.9607C81.9665 25.5829 81.7272 24.2877 80.7331 23.172C79.9223 22.2621 78.8651 21.992 77.6747 21.9934C66.8317 22.0057 55.9887 22.0006 45.1457 22.0005ZM85.4816 49.9804C85.6358 49.9804 85.7664 49.9832 85.897 49.9798C86.8159 49.9564 86.7952 49.9547 86.8526 49.0336C86.9609 47.303 87.0991 45.5745 87.2184 43.8446C87.2947 42.735 87.5902 41.6995 88.1865 40.7515C88.6375 40.0346 89.0607 39.3002 89.5085 38.5811C89.9013 37.9506 90.2386 37.3096 90.2382 36.5362C90.2342 29.9562 90.2406 23.3762 90.2293 16.7962C90.2275 15.7345 89.8674 14.7657 89.2966 13.8735C88.9676 13.3591 88.5224 13.0355 87.9221 12.8691C85.3624 12.1598 82.7233 12.0156 80.1015 11.7735C79.0555 11.6768 78.4421 12.2509 78.2501 13.282C78.1886 13.6131 78.1596 13.9554 78.1609 14.2923C78.1679 16.1779 78.2048 18.0635 78.1943 19.9489C78.1914 20.4493 78.3484 20.5855 78.8419 20.5837C81.0062 20.5754 82.598 21.7013 83.2565 23.7685C83.4748 24.4538 83.5412 25.2071 83.5602 25.9323C83.619 28.1781 81.9487 30.9106 78.5682 30.8937C64.727 30.8253 50.8851 30.8652 37.0435 30.8651C28.5009 30.8651 19.9584 30.8626 11.4158 30.8668C9.45059 30.8678 8.09086 29.9191 7.23328 28.2082C6.65489 27.054 6.57209 25.8027 6.80783 24.5625C7.29369 22.008 8.9455 20.654 11.5808 20.5789C11.9352 20.5688 12.0837 20.4776 12.0835 20.098C12.0819 18.0616 12.1334 16.0247 12.1042 13.9889C12.0789 12.2167 11.2448 11.5617 9.48328 11.7998C8.62503 11.916 7.75636 11.9607 6.90218 12.0985C5.32469 12.353 3.74709 12.6186 2.18623 12.9567C1.80432 13.0394 1.4084 13.3584 1.15546 13.677C0.485547 14.5207 0.0801169 15.5145 0.0743477 16.5962C0.0415423 22.7048 0.081135 28.8141 0.000931398 34.9219C-0.0223718 36.7027 0.389732 38.2203 1.44788 39.6565C2.47604 41.0521 3.07163 42.6468 3.12107 44.4333C3.16224 45.9196 3.33238 47.4026 3.4429 48.8871C3.52469 49.9865 3.52288 49.9871 4.6265 49.983C4.67865 49.9828 4.73068 49.9573 4.79573 49.9401C4.88057 48.7898 4.94595 47.6458 5.05376 46.5057C5.18487 45.1198 5.28894 43.7264 5.52265 42.3563C5.72231 41.1852 6.39052 40.6412 7.56779 40.5036C8.25862 40.4228 8.95806 40.3812 9.65365 40.3807C18.9316 40.3746 28.2096 40.3808 37.4876 40.38C51.5178 40.3787 65.5479 40.3717 79.5781 40.3762C80.5943 40.3765 81.6145 40.408 82.6257 40.5014C83.8979 40.6188 84.5187 41.1966 84.7943 42.4394C84.9121 42.9708 84.9901 43.5151 85.0344 44.0579C85.1937 46.0083 85.3309 47.9605 85.4816 49.9804ZM45.1592 20.5633V20.525C49.119 20.525 53.0791 20.5204 57.0391 20.526C62.6772 20.5339 68.3154 20.5601 73.9535 20.5561C76.3889 20.5543 77.2895 19.5618 77.1664 17.1276C77.0285 14.3977 76.8908 11.6677 76.7684 8.93717C76.6814 6.99724 76.6264 5.05584 76.5448 3.11568C76.4653 1.22179 75.6954 0.384458 73.8262 0.148938C73.5284 0.111494 73.224 0.118169 72.9228 0.118169C57.0259 0.116811 41.1291 0.116924 25.2323 0.116924C22.479 0.116924 19.7257 0.106517 16.9727 0.120883C14.9596 0.131404 14.0659 0.881065 13.7956 2.74C13.7633 2.96274 13.7708 3.19136 13.7605 3.41715C13.5534 7.9555 13.3427 12.4936 13.1446 17.0324C13.1233 17.5192 13.1343 18.0151 13.2033 18.4963C13.3386 19.4394 13.8702 20.1105 14.8059 20.3339C15.4396 20.4851 16.1077 20.5531 16.7605 20.5541C26.2267 20.5675 35.6929 20.5633 45.1592 20.5633Z" fill="#21517F"/>
<path d="M13.2033 18.4963L13.327 18.4786C13.3919 18.9316 13.5509 19.3117 13.7995 19.604C14.0475 19.8955 14.3903 20.1062 14.8348 20.2123C15.4577 20.361 16.116 20.4281 16.7607 20.4291C24.4026 20.4399 32.0447 20.4393 39.6868 20.4386C41.4692 20.4385 43.2516 20.4383 45.034 20.4383V20.4H45.159C46.3868 20.4 47.6146 20.3995 48.8424 20.3991C51.5746 20.3981 54.3069 20.3972 57.0391 20.401C59.1634 20.404 61.2875 20.4095 63.4115 20.4151C66.9256 20.4244 70.4393 20.4336 73.9534 20.4311C75.1592 20.4302 75.9493 20.1832 76.4278 19.6688C76.907 19.1538 77.1025 18.3402 77.0415 17.1339C76.9035 14.404 76.7658 11.6737 76.6433 8.94277C76.5958 7.88407 76.5578 6.82224 76.5199 5.76107C76.4883 4.87984 76.4568 3.99907 76.4199 3.12092C76.3807 2.18779 76.1721 1.53942 75.7645 1.09491C75.3569 0.650481 74.7312 0.388974 73.8105 0.272962C73.5603 0.241512 73.3055 0.242219 73.0425 0.242947C73.0028 0.243058 72.9628 0.243169 72.9226 0.243169C58.1613 0.241908 43.4 0.241916 28.6388 0.241923L25.2321 0.241924C24.4174 0.241924 23.6027 0.241013 22.7882 0.240102C20.8496 0.237935 18.9115 0.235767 16.9731 0.245882C15.9792 0.251077 15.2868 0.439165 14.8102 0.833587C14.335 1.22684 14.0521 1.84373 13.9193 2.75798L13.9193 2.75803C13.8979 2.90424 13.8949 3.04836 13.8918 3.20096C13.8903 3.27268 13.8887 3.34628 13.8853 3.42284L13.8853 3.42285C13.8392 4.43176 13.793 5.44065 13.7468 6.44952C13.5851 9.97893 13.4234 13.5082 13.2693 17.0378L13.2033 18.4963ZM13.2033 18.4963L13.327 18.4786C13.2594 18.0072 13.2484 17.5194 13.2693 17.0379L13.2033 18.4963Z" fill="#21517F" stroke="black" stroke-width="0.25"/>
<mask id="mask0" mask-type="alpha" maskUnits="userSpaceOnUse" x="0" y="11" width="91" height="39">
<path fill-rule="evenodd" clip-rule="evenodd" d="M0 11.7529H90.2381V49.9836H0V11.7529Z" fill="white"/>
</mask>
<g mask="url(#mask0)">
<path fill-rule="evenodd" clip-rule="evenodd" d="M85.4816 49.9806C85.3309 47.9608 85.1937 46.0085 85.0344 44.0582C84.9901 43.5154 84.9121 42.971 84.7943 42.4396C84.5186 41.1969 83.8979 40.619 82.6257 40.5016C81.6144 40.4082 80.5943 40.3768 79.578 40.3765C65.5479 40.372 51.5178 40.3789 37.4876 40.3802C28.2095 40.3811 18.9316 40.3748 9.65365 40.381C8.95806 40.3815 8.25862 40.423 7.56779 40.5039C6.39052 40.6414 5.72231 41.1854 5.52265 42.3566C5.28894 43.7266 5.18487 45.1199 5.05376 46.5059C4.94584 47.646 4.88046 48.7901 4.79573 49.9404C4.73068 49.9575 4.67865 49.9829 4.6265 49.9832C3.52276 49.9874 3.52457 49.9867 3.44279 48.8872C3.33238 47.4027 3.16224 45.9199 3.12107 44.4335C3.07163 42.647 2.47593 41.0523 1.44788 39.6567C0.389732 38.2205 -0.0223718 36.7029 0.000931398 34.9221C0.081135 28.8144 0.0414291 22.705 0.0743477 16.5964C0.0801169 15.5147 0.485547 14.5208 1.15546 13.6772C1.4084 13.3586 1.80421 13.0396 2.18611 12.9569C3.74697 12.6188 5.32469 12.3532 6.90218 12.0987C7.75636 11.9609 8.62503 11.9162 9.48317 11.8C11.2448 11.5619 12.0789 12.2169 12.1042 13.9891C12.1334 16.0249 12.0819 18.0618 12.0835 20.0982C12.0837 20.4777 11.9352 20.569 11.5808 20.5791C8.94539 20.6542 7.29358 22.0083 6.80783 24.5628C6.57197 25.803 6.65478 27.0542 7.23328 28.2084C8.09086 29.9193 9.45059 30.868 11.4158 30.867C19.9583 30.8628 28.5008 30.8653 37.0435 30.8653C50.8851 30.8654 64.7269 30.8255 78.5682 30.8939C81.9487 30.9108 83.619 28.1784 83.5602 25.9325C83.5412 25.2073 83.4748 24.454 83.2565 23.7687C82.598 21.7015 81.0061 20.5757 78.8419 20.5839C78.3483 20.5857 78.1914 20.4495 78.1943 19.9491C78.2048 18.0637 78.1679 16.1782 78.1609 14.2926C78.1596 13.9556 78.1885 13.6133 78.2501 13.2822C78.4421 12.251 79.0553 11.677 80.1014 11.7737C82.7233 12.0159 85.3622 12.16 87.9221 12.8694C88.5224 13.0357 88.9674 13.3594 89.2966 13.8737C89.8674 14.7659 90.2275 15.7348 90.2293 16.7964C90.2405 23.3764 90.2342 29.9564 90.2382 36.5363C90.2386 37.3098 89.9012 37.9508 89.5085 38.5813C89.0607 39.3004 88.6374 40.0348 88.1865 40.7517C87.5902 41.6997 87.2946 42.7352 87.2184 43.8448C87.0991 45.5747 86.9609 47.3032 86.8526 49.0337C86.7951 49.9549 86.8159 49.9566 85.897 49.98C85.7664 49.9834 85.6357 49.9806 85.4816 49.9806Z" fill="#21517F"/>
<path d="M85.4816 49.9806C85.3309 47.9608 85.1937 46.0085 85.0344 44.0582C84.9901 43.5154 84.9121 42.971 84.7943 42.4396C84.5186 41.1969 83.8979 40.619 82.6257 40.5016C81.6144 40.4082 80.5943 40.3768 79.578 40.3765C65.5479 40.372 51.5178 40.3789 37.4876 40.3802C28.2095 40.3811 18.9316 40.3748 9.65365 40.381C8.95806 40.3815 8.25862 40.423 7.56779 40.5039C6.39052 40.6414 5.72231 41.1854 5.52265 42.3566C5.28894 43.7266 5.18487 45.1199 5.05376 46.5059C4.94584 47.646 4.88046 48.7901 4.79573 49.9404C4.73068 49.9575 4.67865 49.9829 4.6265 49.9832C3.52276 49.9874 3.52457 49.9867 3.44279 48.8872C3.33238 47.4027 3.16224 45.9199 3.12107 44.4335C3.07163 42.647 2.47593 41.0523 1.44788 39.6567C0.389732 38.2205 -0.0223718 36.7029 0.000931398 34.9221C0.081135 28.8144 0.0414291 22.705 0.0743477 16.5964C0.0801169 15.5147 0.485547 14.5208 1.15546 13.6772C1.4084 13.3586 1.80421 13.0396 2.18611 12.9569C3.74697 12.6188 5.32469 12.3532 6.90218 12.0987C7.75636 11.9609 8.62503 11.9162 9.48317 11.8C11.2448 11.5619 12.0789 12.2169 12.1042 13.9891C12.1334 16.0249 12.0819 18.0618 12.0835 20.0982C12.0837 20.4777 11.9352 20.569 11.5808 20.5791C8.94539 20.6542 7.29358 22.0083 6.80783 24.5628C6.57197 25.803 6.65478 27.0542 7.23328 28.2084C8.09086 29.9193 9.45059 30.868 11.4158 30.867C19.9583 30.8628 28.5008 30.8653 37.0435 30.8653C50.8851 30.8654 64.7269 30.8255 78.5682 30.8939C81.9487 30.9108 83.619 28.1784 83.5602 25.9325C83.5412 25.2073 83.4748 24.454 83.2565 23.7687C82.598 21.7015 81.0061 20.5757 78.8419 20.5839C78.3483 20.5857 78.1914 20.4495 78.1943 19.9491C78.2048 18.0637 78.1679 16.1782 78.1609 14.2926C78.1596 13.9556 78.1885 13.6133 78.2501 13.2822C78.4421 12.251 79.0553 11.677 80.1014 11.7737C82.7233 12.0159 85.3622 12.16 87.9221 12.8694C88.5224 13.0357 88.9674 13.3594 89.2966 13.8737C89.8674 14.7659 90.2275 15.7348 90.2293 16.7964C90.2405 23.3764 90.2342 29.9564 90.2382 36.5363C90.2386 37.3098 89.9012 37.9508 89.5085 38.5813C89.0607 39.3004 88.6374 40.0348 88.1865 40.7517C87.5902 41.6997 87.2946 42.7352 87.2184 43.8448C87.0991 45.5747 86.9609 47.3032 86.8526 49.0337C86.7951 49.9549 86.8159 49.9566 85.897 49.98C85.7664 49.9834 85.6357 49.9806 85.4816 49.9806" stroke="black" stroke-width="0.25"/>
<path fill-rule="evenodd" clip-rule="evenodd" d="M45.1461 22.0004C55.9891 22.0004 66.832 22.0055 77.675 21.9932C78.8654 21.9918 79.9227 22.2618 80.7334 23.1717C81.7275 24.2875 81.9669 25.5826 81.4195 26.9605C80.8308 28.442 79.6529 29.1539 78.0834 29.2507C77.9331 29.26 77.7818 29.2572 77.631 29.2572C55.9827 29.2574 34.3344 29.2558 12.6862 29.2613C11.329 29.2615 10.1504 28.9012 9.32515 27.7565C8.49381 26.6031 8.36157 25.3488 8.97277 24.0717C9.57096 22.8216 10.5902 22.1152 11.9954 22.0204C12.296 22.0001 12.5983 22.0012 12.8999 22.0011C23.6486 22.0002 34.3973 22.0003 45.1461 22.0004Z" fill="#21517F"/>
<path d="M45.1461 22.0004C55.9891 22.0004 66.832 22.0055 77.675 21.9932C78.8654 21.9918 79.9227 22.2618 80.7334 23.1717C81.7275 24.2875 81.9669 25.5826 81.4195 26.9605C80.8308 28.442 79.6529 29.1539 78.0834 29.2507C77.9331 29.26 77.7818 29.2572 77.631 29.2572C55.9827 29.2574 34.3344 29.2558 12.6862 29.2613C11.329 29.2615 10.1504 28.9012 9.32515 27.7565C8.49381 26.6031 8.36157 25.3488 8.97277 24.0717C9.57096 22.8216 10.5902 22.1152 11.9954 22.0204C12.296 22.0001 12.5983 22.0012 12.8999 22.0011C23.6486 22.0002 34.3973 22.0003 45.1461 22.0004" stroke="black" stroke-width="0.25"/>
<path fill-rule="evenodd" clip-rule="evenodd" d="M10.7541 47.3892H9.41922C9.32657 45.7999 9.22103 44.2103 9.14976 42.6191C9.13133 42.2072 9.84456 41.5877 10.2219 41.6146C10.5683 41.6394 10.9711 42.1642 10.9544 42.6247C10.8968 44.2 10.8232 45.7748 10.7541 47.3892Z" fill="#21517F"/>
<path d="M10.7541 47.3892H9.41922C9.32657 45.7999 9.22103 44.2103 9.14976 42.6191C9.13133 42.2072 9.84456 41.5877 10.2219 41.6146C10.5683 41.6394 10.9711 42.1642 10.9544 42.6247C10.8968 44.2 10.8232 45.7748 10.7541 47.3892" stroke="black" stroke-width="0.25"/>
<path fill-rule="evenodd" clip-rule="evenodd" d="M80.8777 47.3967H79.5707C79.5143 46.6183 79.4492 45.8721 79.4095 45.1246C79.3654 44.2973 79.3361 43.4689 79.3166 42.6406C79.3056 42.1669 79.7509 41.6126 80.1104 41.6157C80.4979 41.6194 81.1375 42.2063 81.1208 42.6096C81.0548 44.203 80.9614 45.7951 80.8777 47.3967Z" fill="#21517F"/>
<path d="M80.8777 47.3967H79.5707C79.5143 46.6183 79.4492 45.8721 79.4095 45.1246C79.3654 44.2973 79.3361 43.4689 79.3166 42.6406C79.3056 42.1669 79.7509 41.6126 80.1104 41.6157C80.4979 41.6194 81.1375 42.2063 81.1208 42.6096C81.0548 44.203 80.9614 45.7951 80.8777 47.3967" stroke="black" stroke-width="0.25"/>
</g>
</g>
</svg>
