<svg width="99" height="51" viewBox="0 0 99 51" fill="none" xmlns="http://www.w3.org/2000/svg">
<path d="M10.0625 0L8.1875 2.29167H75.8958L83.7083 9.6875H91.625L80.5833 0H10.0625Z" fill="#21517F"/>
<path d="M7.146 16.979V3.854H28.6043V16.979H7.146Z" fill="#21517F"/>
<path d="M51.8333 3.854H30.375V16.979H51.8333V3.854Z" fill="#21517F"/>
<path d="M53.396 16.979V3.854H75.1668V16.979H53.396Z" fill="#21517F"/>
<path d="M82.4582 11.25L76.729 4.6875V17.6042L82.4582 26.0417V11.25Z" fill="#21517F"/>
<path d="M92.7708 11.6665H84.125V28.0207H92.7708V11.6665Z" fill="#21517F"/>
<path d="M97.4583 34.4793L92.7708 29.271L82.4583 29.3752L75.1667 18.3335H7.14583L2.25 23.8543H58.3958L63.7083 34.4793H97.4583Z" fill="#21517F"/>
<path d="M56.7292 25.3125H1V33.2292H56.7292V25.3125Z" fill="#21517F"/>
<path d="M61.9377 35.6252L58.396 28.021V34.4793L61.3127 42.0835L61.9377 35.6252Z" fill="#21517F"/>
<path d="M98.1877 36.5625H63.7085L62.771 44.375H98.1877V36.5625Z" fill="#21517F"/>
<path fill-rule="evenodd" clip-rule="evenodd" d="M10.0625 0L8.1875 2.29167H75.8958L83.7083 9.6875H91.625L80.5833 0H10.0625Z" stroke="black" stroke-width="0.25"/>
<path fill-rule="evenodd" clip-rule="evenodd" d="M7.146 16.979V3.854H28.6043V16.979H7.146Z" stroke="black" stroke-width="0.25"/>
<path fill-rule="evenodd" clip-rule="evenodd" d="M51.8333 3.854H30.375V16.979H51.8333V3.854Z" stroke="black" stroke-width="0.25"/>
<path fill-rule="evenodd" clip-rule="evenodd" d="M53.396 16.979V3.854H75.1668V16.979H53.396Z" stroke="black" stroke-width="0.25"/>
<path fill-rule="evenodd" clip-rule="evenodd" d="M82.4582 11.25L76.729 4.6875V17.6042L82.4582 26.0417V11.25Z" stroke="black" stroke-width="0.25"/>
<path fill-rule="evenodd" clip-rule="evenodd" d="M92.7708 11.6665H84.125V28.0207H92.7708V11.6665Z" stroke="black" stroke-width="0.25"/>
<path fill-rule="evenodd" clip-rule="evenodd" d="M97.4583 34.4793L92.7708 29.271L82.4583 29.3752L75.1667 18.3335H7.14583L2.25 23.8543H58.3958L63.7083 34.4793H97.4583Z" stroke="black" stroke-width="0.25"/>
<path fill-rule="evenodd" clip-rule="evenodd" d="M56.7292 25.3125H1V33.2292H56.7292V25.3125Z" stroke="black" stroke-width="0.25"/>
<path fill-rule="evenodd" clip-rule="evenodd" d="M61.9377 35.6252L58.396 28.021V34.4793L61.3127 42.0835L61.9377 35.6252Z" stroke="black" stroke-width="0.25"/>
<path fill-rule="evenodd" clip-rule="evenodd" d="M98.1877 36.5625H63.7085L62.771 44.375H98.1877V36.5625Z" stroke="black" stroke-width="0.25"/>
<rect x="4.4375" y="35.104" width="3.95833" height="2.91667" fill="#21517F" stroke="black" stroke-width="0.25"/>
<rect x="50.896" y="35.104" width="4.375" height="2.91667" fill="#21517F" stroke="black" stroke-width="0.25"/>
<rect x="64.646" y="45.9375" width="5.20833" height="3.95833" fill="#21517F" stroke="black" stroke-width="0.25"/>
<rect x="89.646" y="45.9375" width="5.41667" height="3.95833" fill="#21517F" stroke="black" stroke-width="0.25"/>
</svg>
