<svg width="70" height="50" viewBox="0 0 70 50" fill="none" xmlns="http://www.w3.org/2000/svg">
<path fill-rule="evenodd" clip-rule="evenodd" d="M52.8242 25.9072C37.7142 22.4197 16.9696 25.9072 16.9696 25.9072C16.9696 19.9421 13.9979 16.5651 12.3028 14.6388C11.6265 13.8701 11.1534 13.3325 11.1534 12.9536C11.1534 4.31783 18.7145 0 33.2551 0H36.5387C51.0793 0 58.6404 4.31783 58.6404 12.9536C58.6404 13.3345 58.1622 13.8862 57.48 14.6731C55.7831 16.6306 52.8242 20.0438 52.8242 25.9072ZM16.9696 47.8286V28.5771C16.9696 28.5771 32.8205 26.6447 53.0304 28.5771V47.8286H16.9696ZM65.8726 42.0014L65.8727 42.0013C70.1478 27.9844 73.8204 15.9429 62.2229 15.9429C54.985 15.9429 55.1868 26.6512 55.45 40.6231L55.45 40.6237C55.5019 43.3815 55.5563 46.2665 55.5563 49.2214C55.5563 49.2214 60.0826 49.1987 63.7264 49.2214C64.4119 46.7907 65.1508 44.3679 65.8726 42.0014ZM10.9319 49.2719C8.71262 49.2098 6.23845 49.1406 6.27361 49.2214C5.58808 46.7907 4.84913 44.3679 4.12737 42.0014C-0.147751 27.9845 -3.82039 15.9429 7.77707 15.9429C14.9689 15.9429 14.7525 26.5855 14.4707 40.4509C14.4129 43.2942 14.3523 46.2729 14.3523 49.3232C14.4095 49.3692 12.7569 49.323 10.9319 49.2719Z" fill="#21517F"/>
</svg>
