<svg width="52" height="50" viewBox="0 0 52 50" fill="none" xmlns="http://www.w3.org/2000/svg">
<g>
<rect x="5.16113" y="32.7417" width="3.44083" height="0.860181" fill="#21517F"/>
<path d="M5.16129 13.8174H0V24.14H12.043V13.8174H8.60212H5.16129Z" fill="#21517F"/>
<rect x="5.16113" y="30.1611" width="3.44083" height="0.860181" fill="#21517F"/>
<path fill-rule="evenodd" clip-rule="evenodd" d="M37.8498 49.9463H26.667V0.0537109H37.8498V49.9463ZM29.2476 24.1398C28.7728 24.1398 28.3875 24.5252 28.3875 25V27.5806C28.3875 28.0554 28.7728 28.4408 29.2476 28.4408C29.7224 28.4408 30.1078 28.0554 30.1078 27.5806V25.8602H31.8283C32.3031 25.8602 32.6885 25.4748 32.6885 25C32.6885 24.5252 32.3031 24.1398 31.8283 24.1398H29.2476Z" fill="#21517F"/>
<rect x="5.16113" y="35.3228" width="3.44083" height="0.860181" fill="#21517F"/>
<rect x="6.02148" y="10.3765" width="1.72046" height="1.72046" fill="#21517F"/>
<path d="M0 36.1829H3.44083V34.4625V31.8818V29.3012C3.44083 28.8264 3.82621 28.441 4.30101 28.441H9.4623C9.9371 28.441 10.3225 28.8264 10.3225 29.3012V31.8818V34.4625V36.1829H12.0429V25.8604H0V36.1829Z" fill="#21517F"/>
<path fill-rule="evenodd" clip-rule="evenodd" d="M24.9464 49.9463H13.7637V0.0537109H24.9464V49.9463ZM22.3659 24.1398H19.7852C19.3103 24.1398 18.925 24.5252 18.9251 25C18.9251 25.4748 19.3104 25.8602 19.7852 25.8602H21.5057V27.5806C21.5057 28.0554 21.8911 28.4408 22.3659 28.4408C22.8407 28.4408 23.2261 28.0554 23.2261 27.5806V25C23.2261 24.5252 22.8407 24.1398 22.3659 24.1398Z" fill="#21517F"/>
<path d="M39.5703 24.14H41.2908V17.2582C41.2908 16.7834 41.6753 16.398 42.151 16.398H44.7316H47.3122C47.788 16.398 48.1724 16.7834 48.1724 17.2582V24.14H51.6134V13.8174H39.5703V24.14Z" fill="#21517F"/>
<path d="M0 0.913993V12.0968H4.30111V10.3763C3.82631 10.3763 3.44093 9.99091 3.44093 9.51611C3.44093 9.04131 3.82631 8.65593 4.30111 8.65593H5.16129H8.60212H9.4623C9.9371 8.65593 10.3225 9.04131 10.3225 9.51611C10.3225 9.99091 9.9371 10.3763 9.4623 10.3763V12.0968H12.0429V0.0537109H0.860181C0.385383 0.0537109 0 0.439094 0 0.913993Z" fill="#21517F"/>
<path d="M39.5703 49.9464H41.2908V42.2044C41.2908 41.7296 41.6753 41.3442 42.151 41.3442C42.6267 41.3442 43.0111 41.7296 43.0111 42.2044V49.9464H43.8713V42.2044C43.8713 41.7296 44.2558 41.3442 44.7315 41.3442C45.2072 41.3442 45.5917 41.7296 45.5917 42.2044V49.9464H46.4519V42.2044C46.4519 41.7296 46.8363 41.3442 47.312 41.3442C47.7878 41.3442 48.1722 41.7296 48.1722 42.2044V49.9464H50.7529C51.2286 49.9464 51.6131 49.561 51.6131 49.0862V37.9033H39.5703V49.9464Z" fill="#21517F"/>
<path d="M50.7532 0.0537109H39.5703V12.0968H51.6134V0.913993C51.6134 0.439094 51.2289 0.0537109 50.7532 0.0537109Z" fill="#21517F"/>
<path d="M4.30111 37.9033H0V49.0861C0 49.5609 0.385383 49.9463 0.860181 49.9463H12.0429V37.9033H9.4623H4.30111Z" fill="#21517F"/>
<path d="M44.7316 25.8604H42.151H39.5703V36.1829H51.6134V25.8604H47.3122H44.7316Z" fill="#21517F"/>
<rect x="43.0107" y="18.1182" width="0.860181" height="6.02147" fill="#21517F"/>
<rect x="45.5918" y="18.1182" width="0.860181" height="6.02147" fill="#21517F"/>
</g>
</svg>
