<svg width="35" height="50" viewBox="0 0 35 50" fill="none" xmlns="http://www.w3.org/2000/svg">
<path fill-rule="evenodd" clip-rule="evenodd" d="M1.4873 0H16.016V50H1.4873C0.67832 50 0.0224609 49.3441 0.0224609 48.5352V1.46484C0.0224609 0.655859 0.67832 0 1.4873 0ZM10.1566 26.2207C10.1566 27.0297 10.8125 27.6855 11.6215 27.6855C12.4305 27.6855 13.0863 27.0297 13.0863 26.2207V23.7793C13.0863 22.9703 12.4305 22.3145 11.6215 22.3145C10.8125 22.3145 10.1566 22.9703 10.1566 23.7793V26.2207Z" fill="#21517F"/>
<path fill-rule="evenodd" clip-rule="evenodd" d="M18.9453 0H33.474C34.283 0 34.9389 0.655859 34.9389 1.46484V48.5352C34.9389 49.3441 34.283 50 33.474 50H18.9453V0ZM23.3398 27.6855C24.1488 27.6855 24.8047 27.0297 24.8047 26.2207V23.7793C24.8047 22.9703 24.1488 22.3145 23.3398 22.3145C22.5309 22.3145 21.875 22.9703 21.875 23.7793V26.2207C21.875 27.0297 22.5309 27.6855 23.3398 27.6855Z" fill="#21517F"/>
</svg>
