<svg width="45" height="51" viewBox="0 0 45 51" fill="none" xmlns="http://www.w3.org/2000/svg">
<g>
<path d="M1 0H44.1034V50H1V0Z" fill="#21517F"/>
<path d="M19.9658 0H44.1038V6.89655H19.9658V0Z" fill="#21517F" stroke="white"/>
<path d="M19.9658 43.1035H44.1038V50.0001H19.9658V43.1035Z" fill="#21517F" stroke="white"/>
<path d="M19.9658 36.207H44.1038V43.1036H19.9658V36.207Z" fill="#21517F" stroke="white"/>
<path d="M40.6555 12.7155H19.9659C19.6103 12.7155 19.3193 12.4245 19.3193 12.0689C19.3193 11.7133 19.6103 11.4224 19.9659 11.4224H40.6555C41.0111 11.4224 41.3021 11.7133 41.3021 12.0689C41.3021 12.4245 41.0111 12.7155 40.6555 12.7155Z" fill="white"/>
<path d="M23.4138 16.3795C22.9397 16.3795 22.5518 15.9915 22.5518 15.5174V10.345C22.5518 9.87084 22.9397 9.48291 23.4138 9.48291C23.888 9.48291 24.2759 9.87084 24.2759 10.345V15.5174C24.2759 15.9915 23.888 16.3795 23.4138 16.3795Z" fill="white"/>
<path d="M26.8621 16.3795C26.3879 16.3795 26 15.9915 26 15.5174V10.345C26 9.87084 26.3879 9.48291 26.8621 9.48291C27.3362 9.48291 27.7241 9.87084 27.7241 10.345V15.5174C27.7241 15.9915 27.3362 16.3795 26.8621 16.3795Z" fill="white"/>
<path d="M30.3103 16.3795C29.8362 16.3795 29.4482 15.9915 29.4482 15.5174V10.345C29.4482 9.87084 29.8362 9.48291 30.3103 9.48291C30.7844 9.48291 31.1724 9.87084 31.1724 10.345V15.5174C31.1724 15.9915 30.7844 16.3795 30.3103 16.3795Z" fill="white"/>
<path d="M33.7586 16.3795C33.2844 16.3795 32.8965 15.9915 32.8965 15.5174V10.345C32.8965 9.87084 33.2844 9.48291 33.7586 9.48291C34.2327 9.48291 34.6206 9.87084 34.6206 10.345V15.5174C34.6206 15.9915 34.2327 16.3795 33.7586 16.3795Z" fill="white"/>
<path d="M37.2068 16.3795C36.7327 16.3795 36.3447 15.9915 36.3447 15.5174V10.345C36.3447 9.87084 36.7327 9.48291 37.2068 9.48291C37.6809 9.48291 38.0689 9.87084 38.0689 10.345V15.5174C38.0689 15.9915 37.6809 16.3795 37.2068 16.3795Z" fill="white"/>
<path d="M33.7586 4.31056H30.3103C29.8362 4.31056 29.4482 3.92263 29.4482 3.44849C29.4482 2.97436 29.8362 2.58643 30.3103 2.58643H33.7586C34.2327 2.58643 34.6207 2.97436 34.6207 3.44849C34.6207 3.92263 34.2327 4.31056 33.7586 4.31056Z" fill="white"/>
<path d="M33.7586 40.5176H30.3103C29.8362 40.5176 29.4482 40.1297 29.4482 39.6555C29.4482 39.1814 29.8362 38.7935 30.3103 38.7935H33.7586C34.2327 38.7935 34.6207 39.1814 34.6207 39.6555C34.6207 40.1297 34.2327 40.5176 33.7586 40.5176Z" fill="white"/>
<path d="M33.7586 47.4141H30.3103C29.8362 47.4141 29.4482 47.0261 29.4482 46.552C29.4482 46.0779 29.8362 45.6899 30.3103 45.6899H33.7586C34.2327 45.6899 34.6207 46.0779 34.6207 46.552C34.6207 47.0261 34.2327 47.4141 33.7586 47.4141Z" fill="white"/>
<path d="M38.3277 35.9912H25.957C25.5044 35.9912 25.0626 35.8081 24.7394 35.4848C24.0713 34.8167 24.0713 33.7175 24.7394 33.0494C25.0626 32.7262 25.5044 32.543 25.957 32.543H38.3277C38.7803 32.543 39.2221 32.7262 39.5454 33.0494C40.2135 33.7175 40.2135 34.8167 39.5454 35.4848C39.2221 35.8081 38.7803 35.9912 38.3277 35.9912Z" fill="#F6F6E7"/>
<path d="M38.4673 32.543H26.1074C25.6548 32.543 25.213 32.3598 24.8897 32.0365C24.2216 31.3684 24.2216 30.2693 24.8897 29.6012C25.213 29.2779 25.6548 29.0947 26.1074 29.0947H38.4673C38.9199 29.0947 39.3617 29.2779 39.685 29.6012C40.3531 30.2693 40.3531 31.3684 39.685 32.0365C39.3725 32.3598 38.9307 32.543 38.4673 32.543Z" fill="#F6F6E7"/>
<path d="M1 0H19.9655V50H1V0Z" fill="#21517F" stroke="white"/>
<path d="M4.44801 10.3446C3.97387 10.3446 3.58594 9.9567 3.58594 9.48257C3.58594 9.25627 3.67214 9.02998 3.83378 8.86834L9.86827 2.83386C10.2023 2.48903 10.7411 2.47826 11.0859 2.81231C11.4308 3.14636 11.4415 3.68515 11.1075 4.02998C11.0967 4.04076 11.0967 4.04076 11.0859 4.05153L5.05145 10.086C4.90059 10.2584 4.6743 10.3446 4.44801 10.3446Z" fill="white"/>
<path d="M4.44801 15.5173C3.97387 15.5173 3.58594 15.1294 3.58594 14.6552C3.58594 14.4289 3.67214 14.2026 3.83378 14.041L14.1786 3.69616C14.5127 3.35134 15.0515 3.34056 15.3963 3.67461C15.7411 4.00866 15.7519 4.54746 15.4178 4.89228C15.4071 4.90306 15.4071 4.90306 15.3963 4.91384L5.05145 15.2587C4.90059 15.4311 4.6743 15.5173 4.44801 15.5173Z" fill="white"/>
<path d="M15.655 27.5862C15.1809 27.5862 14.793 27.1983 14.793 26.7242V22.4138C14.793 21.9397 15.1809 21.5518 15.655 21.5518C16.1292 21.5518 16.5171 21.9397 16.5171 22.4138V26.7242C16.5171 27.1983 16.1292 27.5862 15.655 27.5862Z" fill="white"/>
</g>
</svg>
