<svg width="234" height="150" viewBox="0 0 234 150" fill="none" xmlns="http://www.w3.org/2000/svg">
<path fill-rule="evenodd" clip-rule="evenodd" d="M194.585 17.4927C194.521 17.2595 194.458 17.0253 194.394 16.7922C189.609 18.1147 184.826 19.4361 180.041 20.7586C180.118 21.0336 180.195 21.3097 180.27 21.5869C185.042 20.2225 189.814 18.8571 194.585 17.4927ZM31.8528 129C29.375 127.557 26.3763 126.744 27.1136 123.157C27.584 120.876 27.9801 118.475 29.0198 116.438C32.2306 110.143 35.2077 103.628 39.2548 97.8865C44.629 90.2642 52.2592 85.2524 61.8537 84.8764C71.008 84.5165 80.2011 84.9946 89.3748 85.2277C101.976 85.5468 114.629 86.6469 126.348 80.2246C133.868 76.1035 140.254 71.0939 144.289 63.1858C148.85 54.2432 153.671 45.3843 159.073 36.9304C166.604 25.1472 177.23 17.4701 191.438 15.4633C192.877 15.2602 194.705 14.6522 195.714 15.2699C197.42 16.3152 198.843 18.0524 199.902 19.7928C200.273 20.3998 199.524 22.3841 198.751 22.8417C197.098 23.8226 195.047 24.1073 193.252 24.8883C191.827 25.5071 190.537 26.4386 189.192 27.2379C188.943 27.3851 188.691 27.7235 188.472 27.6998C183.679 27.1637 181.511 31.359 178.186 33.4217C170.503 38.1906 165.905 45.5927 161.739 53.2881C157.803 60.5559 154.059 67.9268 150.048 75.1517C148.905 77.2122 147.38 79.2137 145.597 80.7414C140.419 85.1805 135.121 89.1222 128.517 91.837C115.712 97.1012 102.851 95.6079 89.7892 94.8386C81.7004 94.3616 73.5138 93.9169 65.4756 94.6345C55.2729 95.5445 48.2046 101.982 42.5527 110.161C41.0652 112.313 38.8059 113.93 37.3012 116.073C36.3045 117.493 36.0989 119.445 35.4004 121.1C34.31 123.692 33.1035 126.234 31.8528 129Z" fill="black"/>
<path fill-rule="evenodd" clip-rule="evenodd" d="M29.9827 63.1822C30.1253 63.4387 30.269 63.6962 30.4105 63.9527C32.8281 62.6188 35.2468 61.285 37.6654 59.9511C37.5046 59.6603 37.3438 59.3695 37.183 59.0787C34.7836 60.4469 32.3821 61.814 29.9827 63.1822ZM100.932 63.135C100.996 63.371 101.059 63.6071 101.122 63.8432C104.068 63.0448 107.013 62.2475 109.959 61.4491C109.896 61.2163 109.834 60.9845 109.772 60.7516C106.826 61.5468 103.88 62.3409 100.932 63.135ZM164.3 2.10528C163.758 2.56456 163.215 3.02492 162.377 3.7353H165.064C166.977 7.24537 165.768 9.81326 163.15 12.071C160.868 14.038 158.756 16.2786 155.379 16.1724C155.031 16.1616 154.45 16.3044 154.353 16.5351C153.07 19.5891 150.822 19.4614 148.393 18.3636C148.253 19.8112 148.437 21.2846 147.91 22.4306C147.343 23.6647 146.145 24.6283 145.16 25.6488C139.459 31.5486 137.236 39.1815 134.378 46.5772C131.749 53.3774 128.084 59.6721 121.566 63.6511C120.714 64.1705 119.606 64.2724 117.987 64.7553C116.937 66.4733 115.387 68.5991 112.053 68.9135C110.114 69.097 108.328 70.7936 106.381 71.0243C101.02 71.6585 95.5504 72.5481 90.2381 72.0684C85.3118 71.6231 80.408 69.8761 75.7165 68.1098C65.5122 64.2692 55.0796 63.6822 44.618 65.9765C38.8083 67.2513 33.422 70.0242 29.4681 74.9207C28.2717 76.4026 26.6378 77.5219 25.2666 78.8707C18.5884 85.438 13.3287 92.9893 9.63958 101.616C8.50208 104.278 7.41819 106.964 6.28497 109.63C5.74999 110.883 5.14211 111.505 3.64975 110.499C-0.0232775 108.021 -0.578627 106.401 0.472034 101.839C4.68861 83.5226 15.7988 70.1948 30.8929 59.8374C37.5807 55.2478 45.4253 54.312 53.2463 54.5299C58.5221 54.678 63.8269 55.6834 69.0051 56.822C73.8339 57.8833 78.4868 59.7161 83.2609 61.05C89.0631 62.6703 94.8546 61.5929 100.611 60.6186C115.13 58.1601 124.114 49.5314 128.543 35.6629C133.453 20.2844 143.32 9.15868 157.95 2.36926C159.763 1.52903 161.921 1.43782 163.919 1C164.047 1.36807 164.174 1.73614 164.3 2.10528Z" fill="black"/>
<path fill-rule="evenodd" clip-rule="evenodd" d="M191 66.7605C189.872 67.9939 188.726 69.2113 187.624 70.4661C187.15 71.0052 186.286 71.9771 186.412 72.1475C188.13 74.4643 186.324 76.3975 185.075 77.2826C181.871 79.5555 182.92 82.7821 182.476 85.6497C182.212 87.3546 180.083 90.0272 178.522 90.3208C178.394 89.5428 178.27 88.7831 178.147 88.0233C177.461 88.3598 176.655 88.5655 176.117 89.0617C175.191 89.9168 174.432 90.9531 173.355 92.1983C174.477 92.4179 175.243 92.568 176.048 92.7244C176.204 93.7028 176.354 94.6447 176.502 95.576C173.573 96.6593 170.622 97.1801 168.377 99.6973C167.157 101.067 165.468 101.708 166.433 103.969C166.516 104.161 165.349 105.242 165.16 105.143C160.593 102.769 158.111 106.999 156.722 109.214C155.576 111.039 154.239 112.018 152.763 112.714C151.63 113.248 149.915 112.52 148.454 112.4C148.09 112.37 147.712 112.519 147.148 112.619C147.215 113.49 147.275 114.279 147.332 115.048C144.716 116.161 144.716 116.161 138.778 114.512C138.251 117.796 135.588 118.902 132.141 117.115C131.946 117.769 131.762 118.39 131.736 118.476C128.172 118.398 124.445 114.81 121.379 120.067C118.68 117.088 115.881 118.367 112.82 119.926C111.384 120.656 109.443 120.542 107.73 120.554C100.736 120.601 93.8574 121.068 87.0531 123.1C83.7196 124.096 80.8948 126.123 77.7508 127.044C70.9605 129.032 67.8455 135.06 63.0851 139.215C60.8516 141.164 59.714 144.355 58.0269 146.95C56.9975 148.531 56.5551 151.028 53.5675 149.548C51.2548 148.404 50.3828 146.939 51.454 144.128C56.4319 131.071 64.4819 120.927 77.7498 115.216C87.7398 110.919 98.1486 110.863 108.643 110.578C115.426 110.394 122.199 109.915 128.981 109.611C130.03 109.565 131.817 108.611 131.342 111.098L131.354 111.05L130.042 111.548C130.032 111.701 130.022 111.855 130.011 112.008C130.668 112.068 131.34 112.242 131.976 112.158C132.725 112.06 133.451 111.521 134.174 111.548C140.014 111.761 144.935 108.931 149.823 106.468C155.016 103.85 159.86 100.514 164.748 97.3259C166.237 96.3561 167.37 94.8398 168.667 93.5731L168.581 93.6449C169.54 92.8841 170.496 92.1222 172.059 90.8802C170.294 90.7698 169.397 90.7141 167.979 90.6262C169.898 88.2858 171.498 86.0623 173.392 84.1259C174.646 82.8421 175.512 83.4025 176.405 85.6829C177.835 85.5832 179.213 85.4879 180.863 85.3721C180.071 84.3016 179.402 83.3972 178.93 82.7617C177.676 82.6588 176.123 82.9 175.868 82.4317C175.398 81.5701 175.513 80.2585 175.708 79.1933C175.983 77.6909 176.446 76.196 177.039 74.7868C177.396 73.9403 178.152 73.263 179.014 72.1368C178.452 69.8125 179.427 67.4196 183.553 62.1098C184.116 62.3895 184.711 62.6831 185.446 63.0474C185.077 59.4522 185.444 58.8735 187.205 59.0203V62.7034L187.145 62.6209C187.762 63.8854 188.378 65.1488 189.064 66.5601C189.228 66.5151 189.837 66.3458 190.446 66.1754C190.63 66.3705 190.816 66.5655 191 66.7605Z" fill="black"/>
<path fill-rule="evenodd" clip-rule="evenodd" d="M191.782 65C191.601 64.8095 191.419 64.619 191.238 64.4285C191.621 60.3864 191.452 60.2064 188 60.9568L188.059 61.0374C189.31 59.8515 190.562 58.6647 191.967 57.3302C191.082 56.765 190.235 56.2249 188.94 55.3991C190.046 54.7586 190.836 54.2771 191.652 53.8438C191.922 53.7004 192.39 53.7894 192.547 53.5947C198.714 46.0243 206.894 41.4505 215.938 38.3503C220.122 36.9164 224.537 36.1534 228.856 35.1225C229.474 34.9749 230.141 35.0356 230.785 35L231.056 35.9064C225.64 37.491 220.222 39.0756 214.807 40.6603C214.876 40.923 214.947 41.1857 215.016 41.4494C220.638 39.9025 226.26 38.3545 231.828 36.8222C233.785 41.1229 233.482 41.6514 229.459 43.3732C224.18 45.6339 218.986 48.0925 213.736 50.4202C212.692 50.8828 211.701 51.6155 210.449 50.3365C209.94 49.8184 208.452 50.2517 207.136 50.2517V48.3102C205.886 49.0983 204.813 49.7744 203.095 50.8588C204.616 51.0398 205.36 51.1278 206.075 51.2136C206.075 51.4983 206.148 51.7223 206.066 51.8259C205.156 52.9719 203.794 53.5309 203.911 55.665C203.991 57.1271 202.051 57.0779 201.186 55.7016C200.406 56.564 199.621 57.4317 198.447 58.7275C198.656 61.4016 196.719 62.9664 193.108 61.9051C193.242 62.7759 193.562 63.5807 193.389 64.259C193.298 64.619 192.346 64.7603 191.782 65Z" fill="black"/>
<path fill-rule="evenodd" clip-rule="evenodd" d="M156 99.8557C151.869 101.571 147.736 103.285 143.604 105C143.402 104.743 143.202 104.486 143 104.228C143.566 103.89 144.095 103.501 144.703 103.22C147.58 101.889 150.456 100.555 153.388 99.3006C154.018 99.0315 154.873 99.0916 155.626 99C155.75 99.2849 155.876 99.5708 156 99.8557Z" fill="black"/>
<path fill-rule="evenodd" clip-rule="evenodd" d="M131 110C132.831 106.416 136.186 107.084 139 106C138.867 107.935 136.475 109.051 131.02 109.932C131.012 109.95 131 110 131 110Z" fill="black"/>
<path fill-rule="evenodd" clip-rule="evenodd" d="M168 92.7917C166.945 92.9478 165.82 92.9586 164.855 93.3014C163.907 93.6379 163.123 94.3118 162 95C162.262 92.929 164.691 90.7144 166.262 91.0303C166.94 91.1657 167.368 92.2174 167.913 92.8527C167.916 92.8518 168 92.7917 168 92.7917Z" fill="black"/>
</svg>
