<svg width="23" height="20" viewBox="0 0 23 20" fill="none" xmlns="http://www.w3.org/2000/svg">
<path fill-rule="evenodd" clip-rule="evenodd" d="M18.125 20C19.5057 20 20.625 18.8806 20.625 17.5C20.625 16.7971 20.3346 16.1625 19.8677 15.7082C19.7665 15.3082 19.4046 15 18.9581 15H7.39374L6.92499 12.5H19.8695C20.3136 12.5 20.6967 12.1884 20.7873 11.7537L22.48 3.62868C22.6012 3.04652 22.1568 2.49999 21.5621 2.49999H5.05L4.72464 0.764731C4.64148 0.321311 4.25433 0 3.80321 0H0.468749C0.209884 0 0 0.209884 0 0.468749V0.781248C0 1.04011 0.209884 1.25 0.468749 1.25H3.54373L6.27528 15.8182C5.87126 16.2622 5.62499 16.8523 5.62499 17.5C5.62499 18.8806 6.74429 20 8.12498 20C9.50567 20 10.625 18.8806 10.625 17.5V17.4972C10.625 17.1281 10.4748 16.5693 10.2897 16.25H15.9603C15.7752 16.5693 15.625 17.1281 15.625 17.4972V17.5C15.625 18.8806 16.7443 20 18.125 20ZM19.6154 11.25H6.69062L5.28437 3.74999H21.1779L19.6154 11.25ZM8.12498 18.75C7.43574 18.75 6.87498 18.1892 6.87498 17.5C6.87498 16.8107 7.43574 16.25 8.12498 16.25C8.81422 16.25 9.37498 16.8107 9.37498 17.5C9.37498 18.1892 8.81422 18.75 8.12498 18.75ZM18.125 18.75C17.4357 18.75 16.875 18.1892 16.875 17.5C16.875 16.8107 17.4357 16.25 18.125 16.25C18.8142 16.25 19.375 16.8107 19.375 17.5C19.375 18.1892 18.8142 18.75 18.125 18.75Z" fill="white"/>
</svg>
