<svg width="107" height="99" viewBox="0 0 107 99" fill="none" xmlns="http://www.w3.org/2000/svg">
<defs>
	 	<style>
		 .bed{
			 fill:none;
			 stroke:#000000;
			 stroke-width:3;
			 stroke-miterlimit:5;
			
			
		 }
		 .bedline{
			 stroke-dasharray:500;
			 stroke-dashoffset:500;
			 -webkit-animation: dash 5s infinite ease-in;
			 animation: dash 3s infinite ease-in;
		 }
		
		 @-webkit-keyframes dash{
			 to {
				 stroke-dashoffset:0;
			 }
		 }
		 </style>
	 </defs>
<path class="bed bedline" d="M10 37.0964V10.5964C10.1667 7.42971 12.4 1.09638 20 1.09638C27.6 1.09638 67.5 1.09638 86.5 1.09638C89.5 0.59638 95.6 1.79638 96 10.5964C96.4 19.3964 96.1667 31.9297 96 37.0964M10 37.0964L1.73762 65.0967M10 37.0964H20M96 37.0964L105.5 65.0967M96 37.0964H86.5M105.5 65.0967H1.73762M105.5 65.0967V87.0967M98 87.0967V97.0964H105.5V87.0967M98 87.0967H11.5M98 87.0967H105.5M11.5 87.0967V97.0964H1V87.0967M11.5 87.0967H1M1 87.0967V67.5964L1.73762 65.0967M20 37.0964C20.3333 32.7631 22.3 24.0967 27.5 24.0967C32.7 24.0967 39.3333 24.0967 42 24.0967C44.1667 23.7633 48.3 25.2967 47.5 34.0967C47.3971 35.2284 47.2049 36.2234 46.9417 37.0964M20 37.0964C23.6 42.2961 33.1667 42.9298 37.5 42.5967C40.1142 43.3228 45.1582 43.0113 46.9417 37.0964M46.9417 37.0964H60.5M60.5 37.0964V29.5967C60.1667 27.7633 61.1 24.0967 67.5 24.0967C73.9 24.0967 78.5 24.0967 80 24.0967C82.1667 24.5965 86.5 27.8961 86.5 37.0964M60.5 37.0964C60.5 40.0963 66.5 42.0132 69.5 42.5967C85 45.5967 86.5 38.5967 86.5 37.0964" stroke="black" stroke-width="2"/>
</svg>
