<svg width="26" height="30" viewBox="0 0 26 30" fill="none" xmlns="http://www.w3.org/2000/svg">
<g>
<path fill-rule="evenodd" clip-rule="evenodd" d="M24.7639 0.325195C24.4166 0.325195 24.1349 0.606831 24.1349 0.954126V3.60652H1.30474V0.954126C1.30474 0.606831 1.0231 0.325195 0.675806 0.325195C0.32851 0.325195 0.046875 0.606831 0.046875 0.954126V29.3407C0.046875 29.688 0.328447 29.9696 0.675806 29.9696C1.02316 29.9696 1.30474 29.688 1.30474 29.3407V27.8204H24.1349V29.3407C24.1349 29.688 24.4166 29.9696 24.7639 29.9696C25.1112 29.9696 25.3928 29.688 25.3928 29.3407V0.954126C25.3928 0.606831 25.1112 0.325195 24.7639 0.325195ZM4.19782 16.1222H9.10348V18.5751H4.19782V16.1222ZM4.19782 14.8644H9.10348V12.4115H4.19782V14.8644ZM4.19782 19.8329H9.10348V22.3487H4.19782V19.8329ZM4.19782 11.1537H9.10348V9.07821H4.19782V11.1537ZM1.30474 9.07821H2.93996V22.3487H1.30474V9.07821ZM10.3613 9.07821V22.3487H24.1349V9.07821H10.3613Z" fill="#000000"/>
<path d="M21.5241 18.7886H16.6184C15.6458 18.7886 14.8574 19.577 14.8574 20.5496V21.493H23.2851V20.5496C23.2851 19.577 22.4967 18.7886 21.5241 18.7886Z" fill="#000000"/>
<path d="M23.2851 1.76101C23.2851 0.788428 22.4967 0 21.5241 0H16.6184C15.6458 0 14.8574 0.788428 14.8574 1.76101V2.7044H23.2851V1.76101Z" fill="#000000"/>
</g>
</svg>
