<svg width="18" height="21" viewBox="0 0 18 21" fill="none" xmlns="http://www.w3.org/2000/svg">
<path fill-rule="evenodd" clip-rule="evenodd" d="M14.375 20.5C16.1008 20.5 17.5 19.1008 17.5 17.375V5.49999H13.75C13.75 2.743 11.507 0.5 8.74998 0.5C5.99295 0.5 3.74999 2.743 3.74999 5.49999H0V17.375C0 19.1008 1.39911 20.5 3.12499 20.5H14.375ZM4.99999 5.49999C4.99999 3.43224 6.68223 1.75 8.74998 1.75C10.8177 1.75 12.5 3.43224 12.5 5.49999H4.99999ZM1.25 17.375C1.25 18.4088 2.09114 19.25 3.12499 19.25H14.375C15.4088 19.25 16.25 18.4088 16.25 17.375V6.74999H13.75V8.62498C13.75 8.97017 13.4702 9.24998 13.125 9.24998C12.7798 9.24998 12.5 8.97017 12.5 8.62498V6.74999H4.99999V8.62498C4.99999 8.97017 4.72014 9.24998 4.37499 9.24998C4.02984 9.24998 3.74999 8.97017 3.74999 8.62498V6.74999H1.25V17.375Z" fill="#251A36"/>
</svg>
