<svg width="18" height="20" viewBox="0 0 18 20" fill="none" xmlns="http://www.w3.org/2000/svg">
<path id="s" fill-rule="evenodd" clip-rule="evenodd" d="M14.375 20C16.1008 20 17.5 18.6008 17.5 16.875V4.99999H13.75C13.75 2.243 11.507 0 8.74998 0C5.99295 0 3.74999 2.243 3.74999 4.99999H0V16.875C0 18.6008 1.39911 20 3.12499 20H14.375ZM12.5 4.99999H4.99999C4.99999 2.93224 6.68223 1.25 8.74998 1.25C10.8177 1.25 12.5 2.93224 12.5 4.99999ZM14.375 18.75H3.12499C2.09114 18.75 1.25 17.9088 1.25 16.875V6.24999H3.74999V8.12498C3.74999 8.47017 4.02984 8.74998 4.37499 8.74998C4.72014 8.74998 4.99999 8.47017 4.99999 8.12498V6.24999H12.5V8.12498C12.5 8.47017 12.7798 8.74998 13.125 8.74998C13.4702 8.74998 13.75 8.47017 13.75 8.12498V6.24999H16.25V16.875C16.25 17.9088 15.4088 18.75 14.375 18.75Z" fill="white"/>
</svg>
