<svg width="20" height="21" viewBox="0 0 20 21" fill="none" xmlns="http://www.w3.org/2000/svg">
<path d="M10 0.8125C11.7188 0.8125 13.3594 1.28125 14.8438 2.14062C16.3281 3 17.5 4.17188 18.3594 5.65625C19.2188 7.14062 19.6875 8.78125 19.6875 10.5C19.6875 12.2578 19.2188 13.8594 18.3594 15.3438C17.5 16.8281 16.3281 18.0391 14.8438 18.8984C13.3594 19.7578 11.7188 20.1875 10 20.1875C8.24219 20.1875 6.64062 19.7578 5.15625 18.8984C3.67188 18.0391 2.46094 16.8281 1.60156 15.3438C0.742188 13.8594 0.3125 12.2578 0.3125 10.5C0.3125 8.78125 0.742188 7.14062 1.60156 5.65625C2.46094 4.17188 3.67188 3 5.15625 2.14062C6.64062 1.28125 8.24219 0.8125 10 0.8125ZM10 18.9375C11.5234 18.9375 12.9297 18.5859 14.2188 17.8047C15.5078 17.0625 16.5234 16.0469 17.3047 14.7188C18.0469 13.4297 18.4375 12.0234 18.4375 10.5C18.4375 8.97656 18.0469 7.57031 17.3047 6.28125C16.5234 4.99219 15.5078 3.97656 14.2188 3.19531C12.8906 2.45312 11.4844 2.0625 9.96094 2.0625C8.4375 2.0625 7.03125 2.45312 5.74219 3.19531C4.45312 3.97656 3.4375 4.99219 2.69531 6.28125C1.91406 7.60938 1.5625 9.01562 1.5625 10.5391C1.5625 12.0625 1.91406 13.4688 2.69531 14.7578C3.4375 16.0469 4.45312 17.0625 5.78125 17.8047C7.07031 18.5859 8.47656 18.9375 10 18.9375ZM15.5469 8.19531C15.625 8.11719 15.6641 8.03906 15.6641 7.88281C15.6641 7.76562 15.625 7.64844 15.5469 7.53125L15.1953 7.21875C15.1172 7.14062 15 7.0625 14.8828 7.0625C14.7266 7.0625 14.6094 7.10156 14.5312 7.17969L8.16406 13.5469L5.46875 10.8125C5.35156 10.7344 5.23438 10.6953 5.11719 10.6953C4.96094 10.6953 4.88281 10.7344 4.80469 10.8125L4.45312 11.125C4.375 11.2422 4.33594 11.3594 4.33594 11.4766C4.33594 11.6328 4.375 11.7109 4.45312 11.7891L7.8125 15.1875C7.89062 15.3047 8.00781 15.3438 8.16406 15.3438C8.28125 15.3438 8.39844 15.3047 8.47656 15.1875L15.5469 8.19531Z" fill="#21517F"/>
</svg>
