<svg width="40" height="40" viewBox="0 0 40 40" fill="none" xmlns="http://www.w3.org/2000/svg">
<path d="M20.8781 19.9596L39.7387 1.09893C39.9901 0.847505 39.9901 0.43994 39.7387 0.188511C39.4873 -0.062837 39.0797 -0.062837 38.8283 0.188511L19.9676 19.0492L1.10695 0.188511C0.851174 -0.0584909 0.443608 -0.0514085 0.196526 0.204366C-0.0444402 0.453863 -0.0444402 0.849437 0.196526 1.09893L19.0572 19.9596L0.196526 38.8203C-0.059249 39.0674 -0.0663315 39.4749 0.180751 39.7307C0.427833 39.9865 0.835399 39.9936 1.09117 39.7465C1.09657 39.7413 1.1018 39.736 1.10695 39.7307L19.9676 20.87L38.8283 39.7307C39.0841 39.9778 39.4917 39.9707 39.7387 39.715C39.9798 39.4655 39.9798 39.0698 39.7387 38.8203L20.8781 19.9596Z" fill="black"/>
</svg>
