<svg width="20" height="20" viewBox="0 0 20 20" fill="none" xmlns="http://www.w3.org/2000/svg">
<path d="M2.26753 19.8531L9.99999 12.1213L17.7318 19.8531C17.9269 20.0481 18.2437 20.0481 18.4387 19.8531L19.8531 18.4387C20.0481 18.2437 20.0481 17.9269 19.8531 17.7318L12.1213 9.99999L19.8531 2.26814C20.0481 2.07313 20.0481 1.75624 19.8531 1.56129L18.4387 0.146866C18.2437 -0.0480803 17.9269 -0.0480803 17.7318 0.146866L9.99999 7.87872L2.26814 0.146255C2.07313 -0.0487517 1.75624 -0.0487517 1.56129 0.146255L0.146255 1.56062C-0.0487517 1.75563 -0.0487517 2.07252 0.146255 2.26753L7.87872 9.99999L0.146255 17.7318C-0.0487517 17.9269 -0.0487517 18.2437 0.146255 18.4387L1.56062 19.8531C1.75563 20.0481 2.07252 20.0481 2.26753 19.8531Z" fill="#251A36"/>
</svg>
