<svg width="53" height="60" viewBox="0 0 53 60" fill="none" xmlns="http://www.w3.org/2000/svg">
<path d="M44.0972 10.5668H40.5747C39.6012 10.5668 38.8134 11.3545 38.8134 12.3281C38.8134 13.3016 39.6011 14.0894 40.5747 14.0894H44.0972C45.0707 14.0894 45.8585 13.3017 45.8585 12.3281C45.8584 11.3545 45.0707 10.5668 44.0972 10.5668Z" fill="white"/>
<path d="M26.2988 4.4952L24.5376 0.97266C24.0991 0.102308 23.0446 -0.246793 22.1743 0.184925C21.3039 0.620043 20.9513 1.67789 21.3865 2.54825L23.1479 6.07079C23.5824 6.93762 24.635 7.29375 25.5112 6.85852C26.3813 6.4234 26.7339 5.36555 26.2988 4.4952Z" fill="white"/>
<path d="M37.8399 0.184904C36.9729 -0.246814 35.9118 0.102404 35.4765 0.972639L33.7152 4.49518C33.2801 5.36553 33.6327 6.42326 34.5029 6.8585C35.3817 7.2949 36.433 6.93467 36.8663 6.07076L38.6276 2.54822C39.0627 1.67787 38.7101 0.620022 37.8399 0.184904Z" fill="white"/>
<path d="M19.4393 10.5668H15.9167C14.9432 10.5668 14.1554 11.3545 14.1554 12.3281C14.1554 13.3016 14.9431 14.0894 15.9167 14.0894H19.4393C20.4127 14.0894 21.2006 13.3017 21.2006 12.3281C21.2006 11.3545 20.4127 10.5668 19.4393 10.5668Z" fill="white"/>
<path d="M8.87171 28.2971H1.82651C0.853857 28.2971 0.0651855 29.0856 0.0651855 30.0584V58.2387C0.0651855 59.2114 0.85374 60 1.82651 60H8.87159C9.84425 60 10.6329 59.2115 10.6329 58.2387V30.0583C10.6329 29.0856 9.84448 28.2971 8.87171 28.2971Z" fill="white"/>
<path d="M52.8685 32.9658C52.5579 30.2335 50.0056 28.297 47.2558 28.297H33.5244C34.6913 26.2074 35.3177 20.2973 35.2899 17.883C35.2439 13.8867 31.9344 10.6842 27.9379 10.6842H26.4846C25.5111 10.6842 24.7233 11.4719 24.7233 12.4455C24.7233 16.5184 23.1374 23.8698 20.1464 26.8609C18.1332 28.874 16.4122 29.6035 14.1555 30.7314V57.1592C17.6106 58.3108 21.9974 60.0001 28.6837 60.0001H40.2051C44.0014 60.0001 46.9581 56.4841 45.487 52.7693C47.7282 52.1587 49.381 50.1033 49.381 47.6712C49.381 46.9848 49.2486 46.3278 49.0095 45.7241C52.7864 44.6951 54.1766 40.0316 51.5552 37.1034C52.5183 36.0275 53.0493 34.5559 52.8685 32.9658Z" fill="white"/>
</svg>
