<svg width="37" height="30" viewBox="0 0 37 30" fill="none" xmlns="http://www.w3.org/2000/svg">
<g>
<path fill-rule="evenodd" clip-rule="evenodd" d="M32.8184 13.555L36.887 19.9963H0.0742188L4.14277 13.5549V1.70596L5.79892 0.0498047H31.1623L32.8184 1.70596V13.555ZM29.5061 11.6298V3.36211H7.45507V11.6298C9.58942 11.0777 13.2766 10.3969 18.4806 10.3969C23.6846 10.3969 27.3718 11.0777 29.5061 11.6298Z" fill="#000000"/>
<path d="M0 22.0342V25.3465H3.85912V29.9077H7.17142V25.3465H29.7897V29.9077H33.102V25.3465H36.9612V22.0342H0Z" fill="#000000"/>
<path d="M17.1361 8.67355V6.74399C17.1361 5.59869 15.4739 4.66992 13.4235 4.66992C11.3731 4.66992 9.71094 5.59869 9.71094 6.74399V9.64027C9.71094 9.64027 11.9008 9.08891 13.406 8.94639C14.7612 8.81797 17.1361 8.67355 17.1361 8.67355Z" fill="#000000"/>
<path d="M27.2495 9.64027V6.74399C27.2495 5.59869 25.5872 4.66992 23.5368 4.66992C21.4864 4.66992 19.8242 5.59869 19.8242 6.74399V8.67355C19.8242 8.67355 22.1992 8.81787 23.5543 8.94639C25.0596 9.08891 27.2495 9.64027 27.2495 9.64027Z" fill="#000000"/>
</g>
</svg>
