<svg width="16" height="15" viewBox="0 0 16 15" fill="none" xmlns="http://www.w3.org/2000/svg">
<path d="M5.48438 11.0039L5.62109 11.1406C5.67578 11.2227 5.75781 11.25 5.86719 11.25C5.94922 11.25 6.03125 11.2227 6.08594 11.1406L14.918 2.30859L14.9453 2.33594V4.79688C14.9453 4.90625 14.9727 4.98828 15.0273 5.04297C15.082 5.09766 15.1641 5.125 15.2734 5.125H15.5469C15.6289 5.125 15.7109 5.09766 15.7656 5.04297C15.8203 4.98828 15.875 4.90625 15.875 4.79688V1.07812C15.875 0.996094 15.8203 0.914062 15.7656 0.859375C15.7109 0.804688 15.6289 0.75 15.5469 0.75H11.8281C11.7188 0.75 11.6367 0.804688 11.582 0.859375C11.5273 0.914062 11.5 0.996094 11.5 1.07812V1.35156C11.5 1.46094 11.5273 1.54297 11.582 1.59766C11.6367 1.65234 11.7188 1.67969 11.8281 1.67969H14.2891L14.3164 1.70703L5.48438 10.5391C5.40234 10.5938 5.375 10.6758 5.375 10.7578C5.375 10.8672 5.40234 10.9492 5.48438 11.0039ZM11.8281 6.73828C11.9102 6.65625 12.0195 6.62891 12.1562 6.68359C12.293 6.73828 12.375 6.84766 12.375 6.98438V13.4375C12.375 13.8203 12.2383 14.1211 11.9922 14.3672C11.7188 14.6406 11.418 14.75 11.0625 14.75H1.4375C1.05469 14.75 0.753906 14.6406 0.507812 14.3672C0.234375 14.1211 0.125 13.8203 0.125 13.4375V3.8125C0.125 3.45703 0.234375 3.15625 0.507812 2.88281C0.753906 2.63672 1.05469 2.5 1.4375 2.5H10.9531C11.0898 2.5 11.1992 2.58203 11.2539 2.71875C11.3086 2.85547 11.2812 2.96484 11.1719 3.04688L10.9531 3.26562C10.8984 3.34766 10.8164 3.375 10.7344 3.375H1.4375C1.30078 3.375 1.19141 3.42969 1.10938 3.51172C1.02734 3.59375 1 3.70312 1 3.8125V13.4375C1 13.5742 1.02734 13.6836 1.10938 13.7656C1.19141 13.8477 1.30078 13.875 1.4375 13.875H11.0625C11.1719 13.875 11.2812 13.8477 11.3633 13.7656C11.4453 13.6836 11.5 13.5742 11.5 13.4375V7.20312C11.5 7.12109 11.5273 7.03906 11.6094 6.95703L11.8281 6.73828Z" fill="#21517F"/>
</svg>
