<svg width="140" height="77" viewBox="0 0 140 77" fill="none" xmlns="http://www.w3.org/2000/svg">
<style>
		 .table{
			 fill:none;
			 stroke:#000000;
			 stroke-width:3;
			 stroke-miterlimit:5;
			
			
		 }
		 .tableline{
			 stroke-dasharray:500;
			 stroke-dashoffset:500;
			 -webkit-animation: dash 5s infinite ease-in;
			 animation: dash 3s infinite ease-in;
		 }
		
		 @-webkit-keyframes dash{
			 to {
				 stroke-dashoffset:0;
			 }
		 }
		 </style>
<path  class="table tableline" d="M8.14657 75.2964L11.2716 65.2964M15.6466 51.2964C11.9799 50.2964 4.64657 46.4964 4.64657 39.2964L2.14657 8.7964C1.64657 5.96306 2.14657 0.696397 8.14657 2.2964C10.4799 2.2964 14.9466 3.59641 14.1466 8.7964L17.1466 34.2964C17.8133 35.7964 20.4466 38.5964 25.6466 37.7964H39.1466C42.8133 37.2964 49.8466 38.7964 48.6466 48.7964C47.4799 49.7964 43.8466 51.6964 38.6466 51.2964M15.6466 51.2964L38.6466 51.2964M15.6466 51.2964L11.2716 65.2964M38.6466 51.2964L42.6466 65.2964M42.6466 65.2964H11.2716M42.6466 65.2964L46.1466 76.2964M46.6466 16.2964H42.6466C40.3133 16.1297 35.4466 16.7964 34.6466 20.7964C33.6466 25.7964 38.1466 25.2964 44.1466 25.2964C48.9466 25.2964 59.8133 25.2964 64.6466 25.2964M64.6466 25.2964V66.2964M64.6466 25.2964H75.1466M64.6466 66.2964C61.9799 66.1297 56.4466 66.8964 55.6466 71.2964C54.6466 76.7964 61.1466 75.2964 68.1466 75.2964C73.7466 75.2964 79.1466 75.2964 81.1466 75.2964C82.8133 75.2964 85.5466 74.2964 83.1466 70.2964C80.7466 66.2964 76.8133 65.9631 75.1466 66.2964M64.6466 66.2964H75.1466M75.1466 66.2964V25.2964M75.1466 25.2964C79.3133 25.2964 88.7466 25.2964 93.1466 25.2964C98.6466 25.2964 105.147 26.2964 104.647 21.2964C104.247 17.2964 98.4799 16.2964 95.6466 16.2964H54.1466M94.1466 75.2964L97.0633 65.2964M101.147 51.2964C97.1466 51.7964 89.4466 51.0964 90.6466 44.2964C90.9799 41.6297 93.8466 36.4964 102.647 37.2964H113.647C116.813 37.2964 123.047 35.8964 122.647 30.2964L124.147 10.2964C124.313 7.46305 126.247 1.89639 132.647 2.29639C134.98 2.62972 139.147 4.69639 137.147 10.2964L134.147 42.2964M101.147 51.2964L97.0633 65.2964M101.147 51.2964H119.147C121.051 51.5503 122.67 51.5087 124.019 51.2964M131.147 75.2964L127.647 65.2964M127.647 65.2964H97.0633M127.647 65.2964L124.019 51.2964M129.147 48.7964C128.578 49.5928 126.922 50.8397 124.019 51.2964" stroke="black" stroke-width="3"/>
</svg>
