<?xml version="1.0" encoding="UTF-8"?>
<svg width="33px" height="30px" viewBox="0 0 33 30" version="1.1" xmlns="http://www.w3.org/2000/svg" xmlns:xlink="http://www.w3.org/1999/xlink">
    <title>filter</title>
    <g id="Page-1" stroke="none" stroke-width="1" fill="none" fill-rule="evenodd">
        <g id="filter" fill="#000000" fill-rule="nonzero">
            <path d="M31.426108,2.76707386 L11.955,2.76707386 C11.4196875,1.17715909 9.91585227,0.0284659091 8.14772727,0.0284659091 C6.37960227,0.0284659091 4.87576705,1.17715909 4.34045455,2.76707386 L1.30116477,2.76707386 C0.595142045,2.76707386 0.0227556818,3.33946023 0.0227556818,4.04548295 C0.0227556818,4.75150568 0.595142045,5.32389205 1.30116477,5.32389205 L4.34053977,5.32389205 C4.87585227,6.91380682 6.3796875,8.0625 8.1478125,8.0625 C9.9159375,8.0625 11.4197727,6.91380682 11.9550852,5.32389205 L31.4261932,5.32389205 C32.1322159,5.32389205 32.7046023,4.75150568 32.7046023,4.04548295 C32.7046023,3.33946023 32.1322159,2.76707386 31.426108,2.76707386 Z M8.14772727,5.50568182 C7.34258523,5.50568182 6.68752841,4.850625 6.68752841,4.04548295 C6.68752841,3.24034091 7.34258523,2.58528409 8.14772727,2.58528409 C8.95286932,2.58528409 9.60792614,3.24034091 9.60792614,4.04548295 C9.60792614,4.850625 8.95286932,5.50568182 8.14772727,5.50568182 Z" id="Shape"></path>
            <path d="M31.426108,13.7215909 L28.386733,13.7215909 C27.8514205,12.1316761 26.3475,10.982983 24.5794602,10.982983 C22.8114205,10.982983 21.3075852,12.1316761 20.7722727,13.7215909 L1.30116477,13.7215909 C0.595142045,13.7215909 0.0227556818,14.2939773 0.0227556818,15 C0.0227556818,15.7060227 0.595142045,16.2784091 1.30116477,16.2784091 L20.7722727,16.2784091 C21.3075852,17.8683239 22.8115057,19.017017 24.5795455,19.017017 C26.3475852,19.017017 27.8515057,17.8683239 28.3868182,16.2784091 L31.4261932,16.2784091 C32.1322159,16.2784091 32.7046023,15.7060227 32.7046023,15 C32.7046023,14.2939773 32.1322159,13.7215909 31.426108,13.7215909 Z M24.5795455,16.4601989 C23.7744034,16.4601989 23.1193466,15.805142 23.1193466,15 C23.1193466,14.194858 23.7744034,13.5398011 24.5795455,13.5398011 C25.3846875,13.5398011 26.0397443,14.194858 26.0397443,15 C26.0397443,15.805142 25.3846875,16.4601989 24.5795455,16.4601989 Z" id="Shape"></path>
            <path d="M31.426108,24.676108 L17.4323011,24.676108 C16.8969886,23.0861932 15.3931534,21.9375 13.6250284,21.9375 C11.8569034,21.9375 10.3530682,23.0861932 9.81775568,24.676108 L1.30116477,24.676108 C0.595142045,24.676108 0.0227556818,25.2484943 0.0227556818,25.954517 C0.0227556818,26.6605398 0.595142045,27.2329261 1.30116477,27.2329261 L9.81775568,27.2329261 C10.3530682,28.8228409 11.8569034,29.9715341 13.6250284,29.9715341 C15.3931534,29.9715341 16.8969886,28.8228409 17.4323011,27.2329261 L31.4261932,27.2329261 C32.1322159,27.2329261 32.7046023,26.6605398 32.7046023,25.954517 C32.7046023,25.2484943 32.1322159,24.676108 31.426108,24.676108 Z M13.6250284,27.4148011 C12.8198864,27.4148011 12.1648295,26.7597443 12.1648295,25.9546023 C12.1648295,25.1494602 12.8198864,24.4944034 13.6250284,24.4944034 C14.4301705,24.4944034 15.0852273,25.149375 15.0852273,25.954517 C15.0852273,26.7596591 14.4301705,27.4148011 13.6250284,27.4148011 L13.6250284,27.4148011 Z" id="Shape"></path>
        </g>
    </g>
</svg>