<svg width="20" height="20" viewBox="0 0 20 20" fill="none" xmlns="http://www.w3.org/2000/svg">
<path d="M18.75 4.0625H5C4.75136 4.0625 4.5129 4.16127 4.33709 4.33709C4.16127 4.5129 4.0625 4.75136 4.0625 5C4.0625 5.24864 4.16127 5.4871 4.33709 5.66291C4.5129 5.83873 4.75136 5.9375 5 5.9375H18.75C18.9986 5.9375 19.2371 5.83873 19.4129 5.66291C19.5887 5.4871 19.6875 5.24864 19.6875 5C19.6875 4.75136 19.5887 4.5129 19.4129 4.33709C19.2371 4.16127 18.9986 4.0625 18.75 4.0625Z" fill="#B6B6B6"/>
<path d="M5.76099 6.5625L9.68755 11.3616V19.375C9.68752 19.4398 9.70762 19.503 9.74506 19.5558C9.78251 19.6087 9.83545 19.6486 9.89657 19.67C9.95769 19.6915 10.024 19.6934 10.0862 19.6755C10.1485 19.6577 10.2037 19.6209 10.2441 19.5703L13.9941 14.8828C14.0384 14.8274 14.0626 14.7585 14.0625 14.6875V11.3616L17.9891 6.5625H5.76099Z" fill="#B6B6B6"/>
<path d="M1.5625 2.8125C1.31527 2.8125 1.0736 2.73919 0.868038 2.60184C0.662476 2.46449 0.502261 2.26926 0.407651 2.04086C0.313042 1.81245 0.288287 1.56111 0.336519 1.31864C0.38475 1.07616 0.503801 0.853433 0.678617 0.678617C0.853433 0.503801 1.07616 0.38475 1.31864 0.336519C1.56111 0.288287 1.81245 0.313042 2.04086 0.407651C2.26926 0.502261 2.46449 0.662476 2.60184 0.868038C2.73919 1.0736 2.8125 1.31527 2.8125 1.5625C2.8125 1.89402 2.6808 2.21196 2.44638 2.44638C2.21196 2.6808 1.89402 2.8125 1.5625 2.8125V2.8125ZM1.5625 0.937501C1.43889 0.937501 1.31805 0.974156 1.21527 1.04283C1.11249 1.11151 1.03238 1.20912 0.985076 1.32332C0.937771 1.43753 0.925394 1.56319 0.94951 1.68443C0.973626 1.80567 1.03315 1.91703 1.12056 2.00444C1.20797 2.09185 1.31933 2.15138 1.44057 2.17549C1.56181 2.19961 1.68747 2.18723 1.80168 2.13993C1.91588 2.09262 2.01349 2.01251 2.08217 1.90973C2.15085 1.80695 2.1875 1.68611 2.1875 1.5625C2.1875 1.39674 2.12165 1.23777 2.00444 1.12056C1.88723 1.00335 1.72826 0.937501 1.5625 0.937501Z" fill="#1E1E23"/>
<path d="M1.5625 13.125C1.31527 13.125 1.0736 13.0517 0.868038 12.9143C0.662476 12.777 0.502261 12.5818 0.407651 12.3534C0.313042 12.1249 0.288287 11.8736 0.336519 11.6311C0.38475 11.3887 0.503801 11.1659 0.678617 10.9911C0.853433 10.8163 1.07616 10.6973 1.31864 10.649C1.56111 10.6008 1.81245 10.6255 2.04086 10.7202C2.26926 10.8148 2.46449 10.975 2.60184 11.1805C2.73919 11.3861 2.8125 11.6278 2.8125 11.875C2.8125 12.2065 2.6808 12.5245 2.44638 12.7589C2.21196 12.9933 1.89402 13.125 1.5625 13.125V13.125ZM1.5625 11.25C1.43889 11.25 1.31805 11.2867 1.21527 11.3553C1.11249 11.424 1.03238 11.5216 0.985076 11.6358C0.937771 11.75 0.925394 11.8757 0.94951 11.9969C0.973626 12.1182 1.03315 12.2295 1.12056 12.3169C1.20797 12.4044 1.31933 12.4639 1.44057 12.488C1.56181 12.5121 1.68747 12.4997 1.80168 12.4524C1.91588 12.4051 2.01349 12.325 2.08217 12.2222C2.15085 12.1195 2.1875 11.9986 2.1875 11.875C2.1875 11.7092 2.12165 11.5503 2.00444 11.4331C1.88723 11.3158 1.72826 11.25 1.5625 11.25Z" fill="#1E1E23"/>
<path d="M1.5625 6.25C1.31527 6.25 1.0736 6.17669 0.868038 6.03934C0.662476 5.90199 0.502261 5.70676 0.407651 5.47836C0.313042 5.24995 0.288287 4.99861 0.336519 4.75614C0.38475 4.51366 0.503801 4.29093 0.678617 4.11612C0.853433 3.9413 1.07616 3.82225 1.31864 3.77402C1.56111 3.72579 1.81245 3.75054 2.04086 3.84515C2.26926 3.93976 2.46449 4.09998 2.60184 4.30554C2.73919 4.5111 2.8125 4.75277 2.8125 5C2.8125 5.33152 2.6808 5.64946 2.44638 5.88388C2.21196 6.11831 1.89402 6.25 1.5625 6.25V6.25ZM1.5625 4.375C1.43889 4.375 1.31805 4.41166 1.21527 4.48033C1.11249 4.54901 1.03238 4.64662 0.985076 4.76082C0.937771 4.87503 0.925394 5.00069 0.94951 5.12193C0.973626 5.24317 1.03315 5.35454 1.12056 5.44194C1.20797 5.52935 1.31933 5.58888 1.44057 5.61299C1.56181 5.63711 1.68747 5.62473 1.80168 5.57743C1.91588 5.53012 2.01349 5.45001 2.08217 5.34723C2.15085 5.24445 2.1875 5.12361 2.1875 5C2.1875 4.83424 2.12165 4.67527 2.00444 4.55806C1.88723 4.44085 1.72826 4.375 1.5625 4.375Z" fill="#1E1E23"/>
<path d="M1.5625 9.6875C1.31527 9.6875 1.0736 9.61419 0.868038 9.47684C0.662476 9.33949 0.502261 9.14426 0.407651 8.91586C0.313042 8.68745 0.288287 8.43611 0.336519 8.19364C0.38475 7.95116 0.503801 7.72843 0.678617 7.55362C0.853433 7.3788 1.07616 7.25975 1.31864 7.21152C1.56111 7.16329 1.81245 7.18804 2.04086 7.28265C2.26926 7.37726 2.46449 7.53748 2.60184 7.74304C2.73919 7.9486 2.8125 8.19027 2.8125 8.4375C2.8125 8.76902 2.6808 9.08696 2.44638 9.32138C2.21196 9.5558 1.89402 9.6875 1.5625 9.6875V9.6875ZM1.5625 7.8125C1.43889 7.8125 1.31805 7.84916 1.21527 7.91783C1.11249 7.98651 1.03238 8.08412 0.985076 8.19832C0.937771 8.31253 0.925394 8.43819 0.94951 8.55943C0.973626 8.68067 1.03315 8.79203 1.12056 8.87944C1.20797 8.96685 1.31933 9.02638 1.44057 9.05049C1.56181 9.07461 1.68747 9.06223 1.80168 9.01493C1.91588 8.96762 2.01349 8.88751 2.08217 8.78473C2.15085 8.68195 2.1875 8.56111 2.1875 8.4375C2.1875 8.27174 2.12165 8.11277 2.00444 7.99556C1.88723 7.87835 1.72826 7.8125 1.5625 7.8125Z" fill="#1E1E23"/>
<path d="M15.625 1.875H4.0625C3.97962 1.875 3.90013 1.84208 3.84153 1.78347C3.78292 1.72487 3.75 1.64538 3.75 1.5625C3.75 1.47962 3.78292 1.40013 3.84153 1.34153C3.90013 1.28292 3.97962 1.25 4.0625 1.25H15.625C15.7079 1.25 15.7874 1.28292 15.846 1.34153C15.9046 1.40013 15.9375 1.47962 15.9375 1.5625C15.9375 1.64538 15.9046 1.72487 15.846 1.78347C15.7874 1.84208 15.7079 1.875 15.625 1.875Z" fill="#1E1E23"/>
<path d="M15.625 5.3125H4.0625C3.97962 5.3125 3.90013 5.27958 3.84153 5.22097C3.78292 5.16237 3.75 5.08288 3.75 5C3.75 4.91712 3.78292 4.83763 3.84153 4.77903C3.90013 4.72042 3.97962 4.6875 4.0625 4.6875H15.625C15.7079 4.6875 15.7874 4.72042 15.846 4.77903C15.9046 4.83763 15.9375 4.91712 15.9375 5C15.9375 5.08288 15.9046 5.16237 15.846 5.22097C15.7874 5.27958 15.7079 5.3125 15.625 5.3125Z" fill="#1E1E23"/>
<path d="M15.625 8.75H4.0625C3.97962 8.75 3.90013 8.71708 3.84153 8.65847C3.78292 8.59987 3.75 8.52038 3.75 8.4375C3.75 8.35462 3.78292 8.27513 3.84153 8.21653C3.90013 8.15792 3.97962 8.125 4.0625 8.125H15.625C15.7079 8.125 15.7874 8.15792 15.846 8.21653C15.9046 8.27513 15.9375 8.35462 15.9375 8.4375C15.9375 8.52038 15.9046 8.59987 15.846 8.65847C15.7874 8.71708 15.7079 8.75 15.625 8.75Z" fill="#1E1E23"/>
<path d="M15.625 12.1875H4.0625C3.97962 12.1875 3.90013 12.1546 3.84153 12.096C3.78292 12.0374 3.75 11.9579 3.75 11.875C3.75 11.7921 3.78292 11.7126 3.84153 11.654C3.90013 11.5954 3.97962 11.5625 4.0625 11.5625H15.625C15.7079 11.5625 15.7874 11.5954 15.846 11.654C15.9046 11.7126 15.9375 11.7921 15.9375 11.875C15.9375 11.9579 15.9046 12.0374 15.846 12.096C15.7874 12.1546 15.7079 12.1875 15.625 12.1875Z" fill="#1E1E23"/>
</svg>
