<svg width="60" height="60" viewBox="0 0 60 60" fill="none" xmlns="http://www.w3.org/2000/svg">
<path d="M12.4081 60L13.9777 56.6336C15.185 56.5138 16.3005 55.8278 16.837 54.6769L27.5827 31.5135C25.1872 31.034 23.0441 29.8561 21.3682 28.2028L10.4649 51.7036C9.92013 52.8704 10.1213 54.149 10.7949 55.1397L9.22205 58.5135L12.4081 60Z" fill="white"/>
<path fill-rule="evenodd" clip-rule="evenodd" d="M38.7891 19.4531C38.7891 24.2992 34.8461 28.2422 30 28.2422C25.1539 28.2422 21.2109 24.2992 21.2109 19.4531C21.2109 14.6071 25.1539 10.6641 30 10.6641C34.8461 10.6641 38.7891 14.6071 38.7891 19.4531ZM31.7578 17.6953H28.2422V21.2109H31.7578V17.6953Z" fill="white"/>
<path d="M49.535 51.7053L38.6306 28.2037C36.9546 29.8567 34.8116 31.034 32.4165 31.5133L43.1629 54.6767C43.7003 55.8299 44.8149 56.5138 46.022 56.6331L47.5918 60L50.7779 58.5133L49.2057 55.141C49.8828 54.1438 50.0744 52.8589 49.535 51.7053Z" fill="white"/>
<path d="M35.2734 8.38266V5.27344C35.2734 2.36555 32.9079 0 30 0C27.0921 0 24.7266 2.36555 24.7266 5.27344V8.38266C26.3312 7.61449 28.1057 7.14844 30 7.14844C31.8943 7.14844 33.6688 7.61449 35.2734 8.38266Z" fill="white"/>
<path d="M4.52719 55.2433L6.25406 52.1808C4.61297 51.2556 3.51562 50.236 3.51562 49.4531C3.51562 48.4198 5.39426 46.7467 9.58582 45.2714L11.578 40.9985C6.11543 42.4137 0 44.9835 0 49.4531C0 50.9621 0.882773 53.1903 4.52719 55.2433Z" fill="white"/>
<path d="M48.4247 41.0048L50.4187 45.2813C54.6047 46.7598 56.4844 48.4326 56.4844 49.4531C56.4844 50.2359 55.5042 51.2556 53.8631 52.1808L55.59 55.2432C59.2344 53.1902 60 50.962 60 49.4531C60 44.9736 53.8141 42.4064 48.4247 41.0048Z" fill="white"/>
<path d="M28.0354 38.9788L26.3713 42.5476C28.7901 42.4487 31.2124 42.4526 33.6293 42.5517L31.9601 38.9717C30.6458 38.9436 29.3504 38.9509 28.0354 38.9788Z" fill="white"/>
</svg>
