<svg width="1560" height="305" viewBox="0 0 1560 305" fill="none" xmlns="http://www.w3.org/2000/svg">
<g filter="url(#filter0_d)">
<path d="M2 6.44514H0V8.44514H2V6.44514ZM68.3384 36.983L66.8224 38.2875L68.3384 36.983ZM2 5.44514V3.44514H0V5.44514H2ZM69.0964 36.3307L70.6124 35.0262L69.0964 36.3307ZM106.068 104.032L104.219 104.795L106.068 104.032ZM109.374 112.081L111.225 111.323L109.374 112.081ZM138.476 171.501L136.837 172.649L138.476 171.501ZM255.624 179.435L254.474 177.798L255.624 179.435ZM310.393 129.65L311.822 131.049L311.822 131.049L310.393 129.65ZM310.412 129.631L308.983 128.232L308.982 128.232L310.412 129.631ZM365.301 79.7472L364.151 78.1108L365.301 79.7472ZM492.946 84.0788L491.62 85.5762L492.946 84.0788ZM543.88 143.423L545.475 142.217L545.475 142.216L543.88 143.423ZM543.899 143.448L542.303 144.654L542.304 144.655L543.899 143.448ZM594.717 202.673L593.391 204.17L594.717 202.673ZM717.823 194.681L716.284 193.404L717.823 194.681ZM765.56 117.762L763.802 116.808L763.802 116.808L765.56 117.762ZM765.577 117.731L767.335 118.684L767.335 118.684L765.577 117.731ZM813.407 40.6808L811.868 39.4038L813.407 40.6808ZM875 5.5H877V3.5H875V5.5ZM875 6.5V8.5H877V6.5H875ZM814.177 41.3192L815.716 42.5962L814.177 41.3192ZM766.44 118.238L768.198 119.192L768.198 119.192L766.44 118.238ZM766.423 118.269L764.665 117.316L764.665 117.316L766.423 118.269ZM718.593 195.319L720.132 196.596L718.593 195.319ZM594.054 203.421L592.729 204.919L594.054 203.421ZM543.12 144.077L544.715 142.87L544.714 142.869L543.12 144.077ZM543.101 144.052L541.506 145.258L541.507 145.26L543.101 144.052ZM492.283 84.8275L490.957 86.3249L492.283 84.8275ZM365.876 80.5653L364.726 78.929L365.876 80.5653ZM311.107 130.35L309.678 128.951L309.677 128.952L311.107 130.35ZM311.089 130.369L312.518 131.768L312.519 131.767L311.089 130.369ZM256.199 180.253L255.049 178.617L256.199 180.253ZM137.656 172.075L139.295 170.928L137.656 172.075ZM108.451 112.465L110.301 111.706V111.706L108.451 112.465ZM105.143 104.413L103.295 105.177L105.143 104.413ZM1123.14 157.348L1121.77 155.895V155.895L1123.14 157.348ZM1003.99 157.771L1002.47 159.069L1003.99 157.771ZM967.32 95.9852L965.528 96.8734L965.528 96.8735L967.32 95.9852ZM967.302 95.9486L969.094 95.0605L969.094 95.0604L967.302 95.9486ZM930.745 34.332L929.224 35.6309L930.745 34.332ZM875 6.45312H873V8.45312H875V6.45312ZM875 5.45312V3.45312H873V5.45312H875ZM931.505 33.6826L929.984 34.9814L931.505 33.6826ZM968.18 95.4679L969.972 94.5797L969.972 94.5796L968.18 95.4679ZM968.198 95.5045L966.406 96.3927L966.406 96.3927L968.198 95.5045ZM1004.76 157.121L1006.28 155.822L1004.76 157.121ZM1122.45 156.621L1123.83 158.074L1122.45 156.621ZM1172.59 93.9621L1174.23 95.1136L1174.23 95.1135L1172.59 93.9621ZM1172.61 93.9356L1170.97 92.7842L1170.97 92.7842L1172.61 93.9356ZM1222.86 31.1525L1224.23 32.6051V32.6051L1222.86 31.1525ZM1314.84 10.7165L1315.97 9.0706V9.0706L1314.84 10.7165ZM1332.2 32.4692L1334.01 31.6275V31.6275L1332.2 32.4692ZM1345.44 99.0199L1343.44 99.1904V99.1904L1345.44 99.0199ZM1346.29 109.357L1344.3 109.519V109.519L1346.29 109.357ZM1354.4 168.03L1352.47 168.567L1354.4 168.03ZM1387.6 205.509L1387.21 207.472L1387.6 205.509ZM1431.52 197.713L1430.43 196.034V196.034L1431.52 197.713ZM1462.26 168.265L1463.76 169.586V169.586L1462.26 168.265ZM1463.94 166.357L1462.44 165.035V165.035L1463.94 166.357ZM1558 116H1560V114H1558V116ZM1558 117V119H1560V117H1558ZM1464.69 167.018L1466.19 168.34L1464.69 167.018ZM1462.98 168.962L1464.48 170.283V170.283L1462.98 168.962ZM1432.06 198.553L1430.97 196.874L1432.06 198.553ZM1387.4 206.491L1387.79 204.528L1387.4 206.491ZM1353.43 168.298L1351.51 168.835L1353.43 168.298ZM1345.29 109.423L1347.29 109.261V109.261L1345.29 109.423ZM1344.44 99.1051L1342.45 99.2756L1344.44 99.1051ZM1331.29 32.8901L1333.1 32.0484V32.0484L1331.29 32.8901ZM1314.27 11.5394L1313.13 13.1853L1314.27 11.5394ZM1223.55 31.8788L1224.92 33.3314V33.3314L1223.55 31.8788ZM1173.41 94.5379L1171.77 93.3864L1171.77 93.3878L1173.41 94.5379ZM1173.39 94.5644L1175.03 95.7159L1175.03 95.7145L1173.39 94.5644ZM2 8.44514C31.2109 8.44514 51.3759 20.3369 66.8224 38.2875L69.8544 35.6785C53.752 16.9656 32.5263 4.44514 2 4.44514V8.44514ZM0 5.44514V6.44514H4V5.44514H0ZM70.6124 35.0262C54.346 16.1228 32.8552 3.44514 2 3.44514V7.44514C31.5397 7.44514 51.9699 19.494 67.5804 37.6352L70.6124 35.0262ZM107.916 103.268C97.7826 78.7309 86.7663 53.799 70.6124 35.0262L67.5804 37.6352C83.2583 55.8548 94.0643 80.2066 104.219 104.795L107.916 103.268ZM111.225 111.323C110.129 108.646 109.027 105.958 107.916 103.268L104.219 104.795C105.328 107.479 106.427 110.162 107.524 112.839L111.225 111.323ZM140.114 170.354C128.808 154.21 120.192 133.209 111.225 111.323L107.524 112.839C116.444 134.609 125.224 156.066 136.837 172.649L140.114 170.354ZM191.5 200C168.438 200 152.716 188.35 140.114 170.354L136.837 172.649C149.923 191.335 166.731 204 191.5 204V200ZM254.474 177.798C235.399 191.204 214.955 200 191.5 200V204C216.034 204 237.269 194.778 256.774 181.071L254.474 177.798ZM308.964 128.251C291.18 146.413 273.594 164.361 254.474 177.798L256.774 181.071C276.25 167.383 294.095 149.152 311.822 131.049L308.964 128.251ZM308.982 128.232L308.963 128.251L311.822 131.049L311.841 131.03L308.982 128.232ZM364.151 78.1108C344.593 91.8562 326.688 110.15 308.983 128.232L311.841 131.03C329.604 112.89 347.249 94.8786 366.451 81.3835L364.151 78.1108ZM430 55C405.197 55 383.763 64.3286 364.151 78.1108L366.451 81.3835C385.634 67.9029 406.275 59 430 59V55ZM494.271 82.5814C475.738 66.1717 454.952 55 430 55V59C453.636 59 473.516 69.547 491.62 85.5762L494.271 82.5814ZM545.475 142.216C529.208 120.711 512.751 98.9434 494.271 82.5814L491.62 85.5762C509.745 101.624 525.958 123.046 542.284 144.629L545.475 142.216ZM545.495 142.243L545.475 142.217L542.284 144.628L542.303 144.654L545.495 142.243ZM596.043 201.175C578 185.2 561.841 163.853 545.494 142.242L542.304 144.655C558.592 166.188 574.993 187.88 593.391 204.17L596.043 201.175ZM657 227.5C633.693 227.5 614.04 217.109 596.043 201.175L593.391 204.17C611.818 220.485 632.377 231.5 657 231.5V227.5ZM716.284 193.404C699.062 214.164 680.041 227.5 657 227.5V231.5C681.782 231.5 701.822 217.102 719.362 195.958L716.284 193.404ZM763.802 116.808C748.584 144.87 733.517 172.631 716.284 193.404L719.362 195.958C736.897 174.822 752.153 146.678 767.319 118.715L763.802 116.808ZM763.819 116.777L763.802 116.808L767.319 118.715L767.335 118.684L763.819 116.777ZM811.868 39.4038C794.265 60.6229 778.966 88.8487 763.819 116.777L767.335 118.684C782.535 90.6577 797.645 62.8138 814.946 41.9577L811.868 39.4038ZM875 3.5C849.782 3.5 829.488 18.1639 811.868 39.4038L814.946 41.9577C832.248 21.1016 851.524 7.5 875 7.5V3.5ZM877 6.5V5.5H873V6.5H877ZM815.716 42.5962C832.938 21.8363 851.959 8.5 875 8.5V4.5C850.218 4.5 830.178 18.8982 812.638 40.0423L815.716 42.5962ZM768.198 119.192C783.416 91.1304 798.483 63.3693 815.716 42.5962L812.638 40.0423C795.103 61.1784 779.847 89.3218 764.681 117.285L768.198 119.192ZM768.181 119.223L768.198 119.192L764.681 117.285L764.665 117.316L768.181 119.223ZM720.132 196.596C737.735 175.377 753.034 147.151 768.181 119.223L764.665 117.316C749.465 145.342 734.355 173.186 717.054 194.042L720.132 196.596ZM657 232.5C682.218 232.5 702.512 217.836 720.132 196.596L717.054 194.042C699.752 214.898 680.476 228.5 657 228.5V232.5ZM592.729 204.919C611.262 221.328 632.048 232.5 657 232.5V228.5C633.364 228.5 613.484 217.953 595.38 201.924L592.729 204.919ZM541.525 145.283C557.792 166.788 574.249 188.557 592.729 204.919L595.38 201.924C577.255 185.876 561.042 164.454 544.715 142.87L541.525 145.283ZM541.507 145.26L541.526 145.285L544.714 142.869L544.695 142.844L541.507 145.26ZM490.957 86.3249C509 102.3 525.159 123.647 541.506 145.258L544.696 142.845C528.408 121.312 512.007 99.6199 493.609 83.3301L490.957 86.3249ZM430 60C453.307 60 472.96 70.3909 490.957 86.3249L493.609 83.3301C475.182 67.0155 454.623 56 430 56V60ZM367.026 82.2017C386.101 68.7965 406.545 60 430 60V56C405.466 56 384.231 65.2221 364.726 78.929L367.026 82.2017ZM312.536 131.749C330.32 113.587 347.906 95.639 367.026 82.2017L364.726 78.929C345.25 92.6166 327.405 110.848 309.678 128.951L312.536 131.749ZM312.519 131.767L312.538 131.748L309.677 128.952L309.658 128.971L312.519 131.767ZM257.349 181.889C276.907 168.144 294.812 149.85 312.518 131.768L309.66 128.97C291.896 147.11 274.252 165.121 255.049 178.617L257.349 181.889ZM191.5 205C216.303 205 237.737 195.671 257.349 181.889L255.049 178.617C235.866 192.097 215.225 201 191.5 201V205ZM136.018 173.222C149.225 192.081 166.304 205 191.5 205V201C168.011 201 152.018 189.096 139.295 170.928L136.018 173.222ZM106.6 113.223C115.511 134.973 124.337 156.542 136.018 173.222L139.295 170.928C127.92 154.686 119.259 133.572 110.301 111.706L106.6 113.223ZM103.295 105.177C104.403 107.859 105.502 110.543 106.6 113.223L110.301 111.706C109.204 109.027 108.102 106.338 106.992 103.65L103.295 105.177ZM66.8224 38.2875C82.3812 56.3687 93.1347 80.5754 103.295 105.177L106.992 103.65C96.853 79.0999 85.8893 54.313 69.8544 35.6785L66.8224 38.2875ZM1060.5 188C1085.5 188 1106.18 176.155 1124.52 158.8L1121.77 155.895C1103.84 172.857 1084.1 184 1060.5 184V188ZM1002.47 159.069C1017.18 176.288 1035.45 188 1060.5 188V184C1036.93 184 1019.69 173.073 1005.52 156.472L1002.47 159.069ZM965.528 96.8735C976.611 119.231 987.866 141.964 1002.47 159.069L1005.52 156.472C991.293 139.817 980.253 117.572 969.112 95.097L965.528 96.8735ZM965.51 96.8368L965.528 96.8734L969.112 95.0971L969.094 95.0605L965.51 96.8368ZM929.224 35.6309C943.358 52.1816 954.349 74.3198 965.51 96.8369L969.094 95.0604C957.991 72.6612 946.785 50.0348 932.266 33.0332L929.224 35.6309ZM875 8.45312C898.196 8.45312 915.179 19.1846 929.224 35.6309L932.266 33.0332C917.693 15.9689 899.682 4.45312 875 4.45312V8.45312ZM873 5.45312V6.45312H877V5.45312H873ZM933.026 32.3838C918.321 15.1651 900.054 3.45312 875 3.45312V7.45312C898.568 7.45312 915.807 18.3806 929.984 34.9814L933.026 32.3838ZM969.972 94.5796C958.889 72.2217 947.634 49.4888 933.026 32.3838L929.984 34.9814C944.207 51.6358 955.247 73.881 966.388 96.3561L969.972 94.5796ZM969.99 94.6163L969.972 94.5797L966.388 96.356L966.406 96.3927L969.99 94.6163ZM1006.28 155.822C992.142 139.272 981.151 117.133 969.99 94.6163L966.406 96.3927C977.509 118.792 988.715 141.418 1003.23 158.42L1006.28 155.822ZM1060.5 183C1037.3 183 1020.32 172.269 1006.28 155.822L1003.23 158.42C1017.81 175.484 1035.82 187 1060.5 187V183ZM1121.08 155.169C1103.26 172.033 1083.75 183 1060.5 183V187C1085.15 187 1105.59 175.33 1123.83 158.074L1121.08 155.169ZM1170.96 92.8107C1154.86 115.676 1138.94 138.264 1121.08 155.169L1123.83 158.074C1142.04 140.841 1158.19 117.895 1174.23 95.1136L1170.96 92.8107ZM1170.97 92.7842L1170.96 92.8108L1174.23 95.1135L1174.25 95.087L1170.97 92.7842ZM1221.48 29.6999C1203.2 47.0078 1186.99 70.0326 1170.97 92.7842L1174.25 95.087C1190.32 72.2521 1206.29 49.5847 1224.23 32.6051L1221.48 29.6999ZM1285.5 0.5C1260.5 0.5 1239.82 12.3454 1221.48 29.6999L1224.23 32.6051C1242.16 15.6428 1261.9 4.5 1285.5 4.5V0.5ZM1315.97 9.0706C1307.99 3.557 1297.99 0.5 1285.5 0.5V4.5C1297.31 4.5 1306.48 7.3783 1313.7 12.3623L1315.97 9.0706ZM1334.01 31.6275C1329.72 22.3921 1323.94 14.5718 1315.97 9.0706L1313.7 12.3623C1320.93 17.3538 1326.31 24.5335 1330.38 33.311L1334.01 31.6275ZM1347.43 98.8494C1345.34 74.4443 1342.53 49.9879 1334.01 31.6275L1330.38 33.311C1338.56 50.9323 1341.35 74.6835 1343.44 99.1904L1347.43 98.8494ZM1348.28 109.195C1348 105.753 1347.72 102.298 1347.43 98.8493L1343.44 99.1904C1343.74 102.629 1344.02 106.076 1344.3 109.519L1348.28 109.195ZM1356.32 167.493C1351.68 150.825 1350 130.3 1348.28 109.195L1344.3 109.519C1346 130.51 1347.7 151.454 1352.47 168.567L1356.32 167.493ZM1387.98 203.547C1370.87 200.193 1361.72 186.855 1356.32 167.493L1352.47 168.567C1358.02 188.487 1367.88 203.684 1387.21 207.472L1387.98 203.547ZM1430.43 196.034C1419.04 203.407 1405.82 207.042 1387.98 203.547L1387.21 207.472C1406.11 211.175 1420.38 207.306 1432.6 199.392L1430.43 196.034ZM1460.76 166.944C1450.67 178.407 1441.37 188.951 1430.43 196.034L1432.6 199.392C1444.1 191.952 1453.76 180.948 1463.76 169.586L1460.76 166.944ZM1462.44 165.035C1461.87 165.673 1461.31 166.31 1460.76 166.944L1463.76 169.586C1464.32 168.952 1464.88 168.316 1465.44 167.679L1462.44 165.035ZM1558 114C1508.58 114 1483.8 140.786 1462.44 165.035L1465.44 167.679C1486.72 143.528 1510.45 118 1558 118V114ZM1560 117V116H1556V117H1560ZM1466.19 168.34C1487.45 144.214 1510.92 119 1558 119V115C1509.05 115 1484.53 141.472 1463.19 165.696L1466.19 168.34ZM1464.48 170.283C1465.05 169.636 1465.62 168.989 1466.19 168.34L1463.19 165.696C1462.61 166.346 1462.04 166.995 1461.47 167.641L1464.48 170.283ZM1433.15 200.232C1444.76 192.713 1454.51 181.612 1464.48 170.283L1461.47 167.641C1451.42 179.069 1442.04 189.712 1430.97 196.874L1433.15 200.232ZM1387.02 208.453C1406.18 212.208 1420.71 208.28 1433.15 200.232L1430.97 196.874C1419.37 204.382 1405.89 208.075 1387.79 204.528L1387.02 208.453ZM1351.51 168.835C1357.09 188.894 1367.13 204.556 1387.02 208.453L1387.79 204.528C1370.12 201.066 1360.79 187.264 1355.36 167.761L1351.51 168.835ZM1343.3 109.585C1345.01 130.566 1346.71 151.622 1351.51 168.835L1355.36 167.761C1350.69 150.992 1349 130.356 1347.29 109.261L1343.3 109.585ZM1342.45 99.2756C1342.74 102.704 1343.02 106.145 1343.3 109.585L1347.29 109.261C1347.01 105.822 1346.73 102.373 1346.43 98.9346L1342.45 99.2756ZM1329.47 33.7319C1337.56 51.1683 1340.35 74.743 1342.45 99.2756L1346.43 98.9346C1344.34 74.5042 1341.54 50.224 1333.1 32.0484L1329.47 33.7319ZM1313.13 13.1853C1320.18 18.0493 1325.45 25.0689 1329.47 33.7319L1333.1 32.0484C1328.87 22.9274 1323.19 15.2673 1315.41 9.89353L1313.13 13.1853ZM1285.5 5.5C1297.14 5.5 1306.11 8.33361 1313.13 13.1853L1315.41 9.89353C1307.61 4.51234 1297.82 1.5 1285.5 1.5V5.5ZM1224.92 33.3314C1242.74 16.4672 1262.25 5.5 1285.5 5.5V1.5C1260.85 1.5 1240.41 13.1697 1222.17 30.4262L1224.92 33.3314ZM1175.04 95.6893C1191.14 72.8245 1207.06 50.2355 1224.92 33.3314L1222.17 30.4262C1203.96 47.6587 1187.81 70.6053 1171.77 93.3864L1175.04 95.6893ZM1175.03 95.7145L1175.05 95.6879L1171.77 93.3878L1171.75 93.4144L1175.03 95.7145ZM1124.52 158.8C1142.8 141.492 1159.01 118.467 1175.03 95.7159L1171.75 93.413C1155.68 116.248 1139.71 138.915 1121.77 155.895L1124.52 158.8Z" fill="white"/>
<path d="M187.699 208C192.117 208 195.699 204.418 195.699 200C195.699 195.582 192.117 192 187.699 192C183.281 192 179.699 195.582 179.699 200C179.699 204.418 183.281 208 187.699 208Z" fill="white" stroke="#21517F" stroke-width="4"/>
<path d="M470.699 75C475.117 75 478.699 71.4183 478.699 67C478.699 62.5817 475.117 59 470.699 59C466.281 59 462.699 62.5817 462.699 67C462.699 71.4183 466.281 75 470.699 75Z" fill="white" stroke="#21517F" stroke-width="4"/>
<path d="M962.699 91C967.117 91 970.699 87.4183 970.699 83C970.699 78.5817 967.117 75 962.699 75C958.281 75 954.699 78.5817 954.699 83C954.699 87.4183 958.281 91 962.699 91Z" fill="white" stroke="#21517F" stroke-width="4"/>
<path d="M1361.7 202C1366.12 202 1369.7 198.418 1369.7 194C1369.7 189.582 1366.12 186 1361.7 186C1357.28 186 1353.7 189.582 1353.7 194C1353.7 198.418 1357.28 202 1361.7 202Z" fill="white" stroke="#21517F" stroke-width="4"/>
</g>
<defs>
<filter id="filter0_d" x="-17" y="0.5" width="1594" height="304" filterUnits="userSpaceOnUse" color-interpolation-filters="sRGB">
<feFlood flood-opacity="0" result="BackgroundImageFix"/>
<feColorMatrix in="SourceAlpha" type="matrix" values="0 0 0 0 0 0 0 0 0 0 0 0 0 0 0 0 0 0 127 0"/>
<feOffset dy="55"/>
<feGaussianBlur stdDeviation="8.5"/>
<feColorMatrix type="matrix" values="0 0 0 0 0 0 0 0 0 0 0 0 0 0 0 0 0 0 0.16 0"/>
<feBlend mode="normal" in2="BackgroundImageFix" result="effect1_dropShadow"/>
<feBlend mode="normal" in="SourceGraphic" in2="effect1_dropShadow" result="shape"/>
</filter>
</defs>
</svg>
