<svg width="20" height="19" viewBox="0 0 20 19" fill="none" xmlns="http://www.w3.org/2000/svg">
<path fill-rule="evenodd" clip-rule="evenodd" d="M10.8789 17.871C10.6367 18.1249 10.3164 18.2499 9.99608 18.2499C9.67576 18.2499 9.35544 18.121 9.11324 17.871L1.55467 10.0663C-0.640647 7.80068 -0.51171 4.04287 1.9414 1.94914C4.42186 -0.160232 7.63669 0.83193 9.23043 2.48037L9.99997 3.27333L10.7695 2.47648C12.746 0.437415 15.9296 0.136627 18.0585 1.94914C20.5116 4.04287 20.6406 7.80068 18.4374 10.0663L10.8789 17.871ZM2.4531 9.19911L10.0156 17.0038L17.5468 9.19911C19.0468 7.64832 19.3554 4.69911 17.246 2.90224C15.1133 1.08584 12.5742 2.41396 11.6679 3.35146L9.99997 5.07413L8.332 3.35146C7.41014 2.39836 4.8945 1.07412 2.75389 2.90224C0.640631 4.70304 0.95313 7.65225 2.4531 9.19911Z" fill="#251A36"/>
</svg>
