<svg width="25" height="22" viewBox="0 0 25 22" fill="none" xmlns="http://www.w3.org/2000/svg">
<path d="M22.1557 1.95298C23.0932 2.79673 23.7963 3.78111 24.1713 4.95298C24.5463 6.17173 24.5932 7.34361 24.312 8.56236C24.0307 9.78111 23.4682 10.8124 22.6245 11.6561L13.5776 21.0311C13.2495 21.3592 12.8745 21.4999 12.4995 21.4999C12.0776 21.4999 11.7026 21.3592 11.4213 21.0311L2.37447 11.703C1.48384 10.8124 0.921344 9.78111 0.640094 8.56236C0.358844 7.34361 0.452594 6.17173 0.827594 4.95298C1.20259 3.78111 1.85884 2.79673 2.84322 1.95298C3.68697 1.24986 4.62447 0.78111 5.70259 0.59361C6.73384 0.40611 7.81197 0.49986 8.84322 0.827985C9.87447 1.20298 10.7651 1.76548 11.562 2.56236L12.4995 3.49986L13.437 2.56236C14.187 1.76548 15.1245 1.20298 16.1557 0.827985C17.187 0.49986 18.2182 0.40611 19.2963 0.59361C20.3276 0.78111 21.312 1.24986 22.1557 1.95298Z" fill="#221C35"/>
</svg>
