<svg width="62" height="60" viewBox="0 0 62 60" fill="none" xmlns="http://www.w3.org/2000/svg">
<rect x="1" y="40" width="60" height="20" fill="white"/>
<rect x="1" y="28" width="60" height="8" fill="white"/>
<path d="M17.4168 11.0692C17.352 10.9137 17.2006 10.8122 17.0326 10.8122H12.4757V0.415867C12.4757 0.186316 12.2894 0 12.0598 0H5.40612C5.17657 0 4.99025 0.186316 4.99025 0.415867V10.8122H0.415864C0.247872 10.8122 0.0964875 10.9137 0.0316142 11.0684C-0.0324404 11.2239 0.00249138 11.4028 0.121439 11.5217L8.41774 19.8455C8.4959 19.9236 8.60156 19.9677 8.71216 19.9677C8.82276 19.9677 8.92842 19.9236 9.00659 19.8463L17.327 11.5225C17.446 11.4035 17.4817 11.2248 17.4168 11.0692Z" fill="white"/>
<path d="M39.4287 11.0692C39.3638 10.9137 39.2124 10.8122 39.0444 10.8122H34.4875V0.415867C34.4875 0.186316 34.3012 0 34.0716 0H27.418C27.1884 0 27.0021 0.186316 27.0021 0.415867V10.8122H22.4277C22.2597 10.8122 22.1083 10.9137 22.0435 11.0684C21.9794 11.2239 22.0143 11.4028 22.1333 11.5217L30.4296 19.8455C30.5077 19.9236 30.6134 19.9677 30.724 19.9677C30.8346 19.9677 30.9403 19.9236 31.0184 19.8463L39.3389 11.5225C39.4578 11.4035 39.4936 11.2248 39.4287 11.0692Z" fill="white"/>
<path d="M61.4405 11.0692C61.3756 10.9137 61.2243 10.8122 61.0563 10.8122H56.4994V0.415867C56.4994 0.186316 56.313 0 56.0835 0H49.4298C49.2002 0 49.0139 0.186316 49.0139 0.415867V10.8122H44.4395C44.2716 10.8122 44.1202 10.9137 44.0553 11.0684C43.9912 11.2239 44.0262 11.4028 44.1451 11.5217L52.4414 19.8455C52.5196 19.9236 52.6252 19.9677 52.7358 19.9677C52.8464 19.9677 52.9521 19.9236 53.0303 19.8463L61.3507 11.5225C61.4696 11.4035 61.5054 11.2248 61.4405 11.0692Z" fill="white"/>
</svg>
