<svg width="52" height="30" viewBox="0 0 52 30" fill="none" xmlns="http://www.w3.org/2000/svg">
<g>
<path fill-rule="evenodd" clip-rule="evenodd" d="M49.0666 17.1331H50.1333C50.7229 17.1331 51.2 17.6102 51.2001 18.1999V24.5999C51.2001 25.1895 50.723 25.6666 50.1334 25.6666H46.924C46.9339 26.3733 46.9344 27.3613 46.9334 28.8676C46.9334 29.4561 46.4552 29.9332 45.8667 29.9332H43.7334C43.3292 29.9332 42.9605 29.7051 42.7792 29.3436L40.9407 25.6665H11.3261L9.4876 29.3436C9.3063 29.7051 8.9376 29.9332 8.5334 29.9332H6.4001C5.8105 29.9332 5.3334 29.4561 5.3334 28.8665V25.6665H1.0667C0.4771 25.6665 0 25.1894 0 24.5998V1.13321C0 0.543606 0.4771 0.0665062 1.0666 0.0664062H4.2666C4.8562 0.0664062 5.3333 0.543506 5.3333 1.13311V10.2851C6.5168 9.21761 7.9605 8.59981 9.4531 8.59981H18.2802C20.1396 8.59981 21.9448 9.52381 23.2334 11.1331C23.5449 11.5226 23.5449 12.0768 23.2334 12.4664C23.1613 12.5563 23.0804 12.6329 22.9995 12.7095C22.9456 12.7604 22.8917 12.8114 22.8404 12.8664H44.7999C47.1531 12.8664 49.0666 14.78 49.0666 17.1331ZM6.4 14.9998C5.224 14.9998 4.2667 15.9571 4.2667 17.1331H46.9333C46.9333 15.9571 45.976 14.9998 44.8 14.9998H18.2802H9.4531H6.4Z" fill="#000000"/>
</g>
</svg>
