<svg width="37" height="30" viewBox="0 0 37 30" fill="none" xmlns="http://www.w3.org/2000/svg">
<g>
<path fill-rule="evenodd" clip-rule="evenodd" d="M36.1125 21.6792C36.112 21.6739 36.1115 21.6686 36.1111 21.6633V19.8913V19.6947H36.1012C36.0273 18.1163 35.0779 16.7665 33.726 16.1185L30.7767 9.39911C30.763 9.36787 30.7465 9.3387 30.7293 9.30994V4.19566C30.7293 1.91297 28.872 0.0556641 26.5893 0.0556641H9.52159C7.2389 0.0556641 5.38159 1.91297 5.38159 4.19566V9.31015C5.36483 9.33849 5.34848 9.36725 5.33483 9.39787L2.36917 16.1259C1.02579 16.7768 0.0835862 18.1223 0.00993103 19.6945H0V19.891V24.0803V29.8519H1.65517V24.9081H34.4559V29.8521H36.1111V24.0805V21.7659C36.1114 21.7598 36.1123 21.7537 36.1131 21.7477C36.1142 21.7405 36.1152 21.7333 36.1152 21.7258C36.1152 21.7101 36.1139 21.6947 36.1125 21.6792ZM7.03697 4.19566C7.03697 2.8256 8.15172 1.71084 9.52179 1.71084H26.5895C27.9596 1.71084 29.0743 2.8256 29.0743 4.19566V8.90401H24.6037C24.6095 8.83387 24.6145 8.76353 24.6145 8.69215V5.50718C24.6145 4.12097 23.4867 2.99339 22.1005 2.99339H14.3878C13.0016 2.99339 11.874 4.12097 11.874 5.50718V8.69215C11.874 8.76373 11.8788 8.83408 11.8848 8.90401H7.03697V4.19566ZM1.65517 19.8913V23.2529H34.4557V19.8913C34.4557 18.4959 33.3205 17.3607 31.9252 17.3607H4.18572C2.79041 17.3607 1.65517 18.4959 1.65517 19.8913Z" fill="#000000"/>
</g>
</svg>
