<svg width="101" height="101" viewBox="0 0 101 101" fill="none" xmlns="http://www.w3.org/2000/svg">
<style>
		 .kitchen{
			 fill:none;
			 stroke:#000000;
			 stroke-width:3;
			 stroke-miterlimit:5;
			
			
		 }
		 .kitchenline{
			 stroke-dasharray:300;
			 stroke-dashoffset:300;
			 -webkit-animation: dash 7s infinite ease-in;
			 animation: dash 3s infinite ease-in;
		 }
		
		 @-webkit-keyframes dash{
			 to {
				 stroke-dashoffset:0;
			 }
		 }
		 </style>
<path class="kitchen kitchenline" d="M27 99H2V77M27 99V77M27 99H74M27 61.5V77M27 61.5H21M27 61.5H33.5M2 77V61.5H8.5M2 77H27M8.5 61.5C8.33333 62.5 9 64.4 13 64H17.5C18.3333 64.1667 20.2 63.9 21 61.5M8.5 61.5H17.5M21 61.5H17.5M74 61.5V77M74 61.5H80.5M74 61.5H66M74 99H99V77M74 99V77M40 93H60.5M74 77H99M99 77V61.5H92.5M80.5 61.5C80.3333 62.5 81.2 64.3 86 63.5H90.5C91.1667 63.6667 92.5 63.5 92.5 61.5M80.5 61.5H92.5M66 61.5V55M66 61.5H33.5M82 52.5C82 46.5 76.6667 44.3334 74 44C68.8 43.6 66.5 48.5 66 51V55M70.5 55H66M17.5 61.5C16 60.6667 13.2 58.2 14 55V47H37.5V57C37.8333 58.5 37.5 61.5 33.5 61.5M17.5 44C17.5 42.6667 18.1 39.9 20.5 39.5C21 38.5 21.3 36.2 18.5 35C17.8333 33.8334 17.3 31.3 20.5 30.5C20.8333 29.8334 21.4 28.4 21 28C20.6 27.6 19.8333 27.8334 19.5 28L17.5 29M25.5 44C25.5 42.6667 26.1 39.9 28.5 39.5C29 38.5 29.3 36.2 26.5 35C25.8333 33.8334 25.3 31.3 28.5 30.5C28.8333 29.8334 29.4 28.4 29 28C28.6 27.6 27.8333 27.8334 27.5 28L25.5 29M33.5 44C33.5 42.6667 34.1 39.9 36.5 39.5C37 38.5 37.3 36.2 34.5 35C33.8333 33.8334 33.3 31.3 36.5 30.5C36.8333 29.8334 37.4 28.4 37 28C36.6 27.6 35.8333 27.8334 35.5 28L33.5 29M50.5 22.5H17.5V2H50.5M50.5 22.5V2M50.5 22.5H83V2H50.5M26.5 13H40.5M61 13H75M69 84.5V69.5H32V84.5H69Z" stroke="black" stroke-width="3"/>
</svg>
