<svg width="60" height="60" viewBox="0 0 60 60" fill="none" xmlns="http://www.w3.org/2000/svg">
<path fill-rule="evenodd" clip-rule="evenodd" d="M57.6904 25.1084C58.5381 25.1084 59.5186 25.7407 59.613 26.5812C59.8669 28.846 59.8641 31.1327 59.6 33.3804C59.4963 34.2558 58.7078 34.9166 57.8497 34.847L57.4799 34.8372C54.8367 34.8372 52.3793 36.4655 51.3635 38.8906C50.2827 41.4664 50.9574 44.4651 53.0386 46.3489C53.6905 46.9399 53.7689 47.9363 53.2167 48.6217C51.7948 50.3927 50.1684 52.0019 48.3798 53.4044C47.6913 53.9369 46.7142 53.8587 46.1233 53.2156C44.3437 51.2619 41.1787 50.5264 38.7182 51.5314C36.1726 52.5734 34.5262 55.1363 34.6263 57.9077C34.6555 58.7769 34.0136 59.5244 33.1467 59.62C32.0525 59.7419 30.9583 59.8016 29.8643 59.8016C28.7117 59.8016 27.5626 59.7354 26.4195 59.6017C25.5456 59.5019 24.9006 58.7348 24.9526 57.8547C25.1111 55.0538 23.4875 52.4454 20.9065 51.3654C18.4426 50.3312 15.2417 51.0633 13.4525 53.0418C12.8585 53.6966 11.8617 53.7739 11.1764 53.222C9.43071 51.8159 7.83554 50.206 6.447 48.4362C5.907 47.7537 5.98873 46.7718 6.6283 46.1839C8.67295 44.3087 9.34537 41.3381 8.3008 38.7894C7.25106 36.2376 4.75226 34.6264 2.14795 34.6926C1.29088 34.6926 0.281488 34.0657 0.187091 33.2216C-0.0658398 30.9576 -0.062995 28.6683 0.199764 26.4227C0.304505 25.5605 0.979246 24.9235 1.92735 24.954C4.84899 24.954 7.40132 23.3705 8.43321 20.9123C9.51399 18.3338 8.84287 15.3364 6.76123 13.4513C6.11287 12.8614 6.0314 11.8662 6.58304 11.1796C7.99873 9.41323 9.6283 7.80332 11.42 6.3972C12.1056 5.86263 13.0886 5.94177 13.6765 6.58625C15.455 8.54271 18.6342 9.27073 21.0785 8.2722C23.6272 7.22814 25.2699 4.66547 25.173 1.8928C25.1442 1.02383 25.7872 0.277196 26.653 0.181506C28.8932 -0.0670281 31.1466 -0.0595281 33.3803 0.199093C34.2573 0.301248 34.9007 1.06599 34.8482 1.94608C34.6886 4.74616 36.313 7.35487 38.8866 8.43771C41.3605 9.46987 44.562 8.73642 46.3442 6.76263C46.9351 6.10858 47.9357 6.03254 48.6167 6.57875C50.3572 7.97297 51.9508 9.58185 53.3536 11.3627C53.8925 12.046 53.8142 13.0303 53.1712 13.6181C51.1299 15.4908 50.4583 18.4626 51.4992 21.0113C52.519 23.5003 54.9505 25.1084 57.6904 25.1084ZM12.6622 29.9012C12.6622 39.4215 20.3797 47.139 29.9003 47.139C33.3164 47.139 36.4974 46.1412 39.1762 44.4271L31.5461 36.797C30.258 37.3435 28.8611 37.6319 27.4196 37.6319C24.5967 37.6319 21.9428 36.5327 19.9465 34.5367C17.2783 31.8682 16.2335 27.945 17.2191 24.2976C17.3634 23.7672 17.8217 23.3974 18.3335 23.3974C18.553 23.3974 18.8825 23.4646 19.2037 23.7848C19.2037 23.7848 22.7841 27.3395 24.0818 28.6373C24.283 28.8382 24.5044 28.8804 24.6549 28.8804C24.6824 28.8804 24.703 28.8788 24.7142 28.8775L24.7767 28.8618L24.7765 28.8693C26.1689 28.7446 27.8396 28.4994 28.4802 28.2938C28.5079 28.2654 28.5342 28.2377 28.563 28.209C28.5774 28.1946 28.5912 28.1815 28.605 28.1685C28.6174 28.1568 28.6299 28.1451 28.6426 28.1325C28.8425 27.5001 29.0849 25.8548 29.2105 24.4841L29.2222 24.4021C29.2405 24.2899 29.2408 23.9782 29.1102 23.8476C27.8634 22.6011 24.1369 18.8459 24.1369 18.8459C23.8188 18.5275 23.697 18.1104 23.8051 17.7033C23.9109 17.3053 24.2357 16.9779 24.633 16.8695C25.5399 16.6225 26.4774 16.4974 27.4193 16.4974C30.2417 16.4974 32.8954 17.5965 34.8911 19.5923C36.8874 21.5881 37.9868 24.2418 37.9868 27.0646C37.9871 28.5062 37.6985 29.903 37.152 31.1914L44.7001 38.7398C46.2474 36.1551 47.1384 33.1326 47.1384 29.9012C47.1384 20.3808 39.4206 12.6633 29.9003 12.6633C20.3799 12.6633 12.6622 20.3808 12.6622 29.9012Z" fill="white"/>
</svg>
