<svg width="1920" height="773" viewBox="0 0 1920 773" fill="none" xmlns="http://www.w3.org/2000/svg">
<rect width="1920" height="773" fill="#21517F"/>
<mask id="mask0" mask-type="alpha" maskUnits="userSpaceOnUse" x="0" y="0" width="1920" height="773">
<rect width="1920" height="773" fill="white"/>
</mask>
<g mask="url(#mask0)">
<path opacity="0.341285" d="M593.682 81.6875L667.318 146.312" stroke="#D6E0EB" stroke-width="4" stroke-linecap="square"/>
<path opacity="0.341285" d="M741 12L710 73.2328L735.179 136" stroke="#D6E0EB" stroke-width="4"/>
<path opacity="0.341285" d="M809.221 14L801 118.646L884 134" stroke="#D6E0EB" stroke-width="4"/>
<path opacity="0.341285" d="M863 55.4483C863 55.4483 887.008 27.5536 961 98" stroke="#D6E0EB" stroke-width="4"/>
<path opacity="0.341285" d="M972.409 11C972.409 11 1086.51 98.4633 972 147" stroke="#D6E0EB" stroke-width="4"/>
<path opacity="0.341285" d="M1113.78 101L1070 23.8085L1155 55.6908L1132.12 -3" stroke="#D6E0EB" stroke-width="4"/>
<path opacity="0.341285" d="M1023.61 162C1023.61 162 1052.48 237.035 996.099 220.664C939.714 204.292 942.784 154.589 915 201.341" stroke="#D6E0EB" stroke-width="4"/>
<path opacity="0.341285" d="M1080 151C1080 151 1120.27 216.737 1180 233" stroke="#D6E0EB" stroke-width="4"/>
<path opacity="0.341285" d="M1170 176L1256.61 192.344L1261.88 278.514L1326 292" stroke="#D6E0EB" stroke-width="4"/>
<path opacity="0.341285" d="M1357 241.689L1429.11 150L1450 270" stroke="#D6E0EB" stroke-width="4"/>
<path opacity="0.341285" d="M1341 316.166L1400.16 293L1368.34 378L1445 334.844" stroke="#D6E0EB" stroke-width="4"/>
<path opacity="0.341285" d="M1244 118L1272.61 158.816L1313.08 118.763L1346 177" stroke="#D6E0EB" stroke-width="4"/>
<path opacity="0.341285" d="M1319 51L1381.01 87L1443 60.1417" stroke="#D6E0EB" stroke-width="4"/>
<path opacity="0.341285" d="M1469 81C1469 81 1484.19 123.188 1520 102.094" stroke="#D6E0EB" stroke-width="4"/>
<path opacity="0.341285" d="M1485.44 162C1485.44 162 1597.24 250.06 1485 301" stroke="#D6E0EB" stroke-width="4"/>
<path opacity="0.341285" d="M1597 301C1597 301 1635.07 359.626 1695 382" stroke="#D6E0EB" stroke-width="4"/>
<path opacity="0.341285" d="M1624.7 264L1584 187.704L1666 219.558L1643.65 160" stroke="#D6E0EB" stroke-width="4"/>
<path opacity="0.341285" d="M1664 267L1692.11 309.491L1732.71 268.758L1766 325" stroke="#D6E0EB" stroke-width="4"/>
<path opacity="0.341285" d="M1127 300.282C1127 300.282 1177 286.007 1252 317" stroke="#D6E0EB" stroke-width="4"/>
<path opacity="0.341285" d="M1089.8 340L1064 260.603L1115 263.708L1078.92 235" stroke="#D6E0EB" stroke-width="4"/>
<path opacity="0.341285" d="M900 331L960.911 365L1022 337.787" stroke="#D6E0EB" stroke-width="4"/>
<path opacity="0.341285" d="M846 304.453L863.744 232L888.176 307L964 257.584" stroke="#D6E0EB" stroke-width="4"/>
<path opacity="0.341285" d="M788 179.687L862 179.313" stroke="#D6E0EB" stroke-width="4"/>
<path opacity="0.341285" d="M982 297C982 297 993.055 283.243 1032 285.189" stroke="#D6E0EB" stroke-width="4"/>
<path opacity="0.341285" d="M620 38L673.755 3.79107L635.764 -37.037L676 -64" stroke="#D6E0EB" stroke-width="4"/>
<path opacity="0.341285" d="M617 -136L602.062 -51.0674L516.752 -43.8088L505 19" stroke="#D6E0EB" stroke-width="4"/>
<path opacity="0.341285" d="M471 113.744L421.73 174L408 99" stroke="#D6E0EB" stroke-width="4"/>
<path opacity="0.341285" d="M486 162V240" stroke="#D6E0EB" stroke-width="4"/>
<path opacity="0.341285" d="M363 16C363 16 370.224 62.0237 412.061 36.0599C453.898 10.096 458 41.518 458 41.518" stroke="#D6E0EB" stroke-width="4"/>
<path opacity="0.341285" d="M566 37C566 37 530.434 46.777 548.217 78.9387C566 111.1 560.894 115.262 542 122" stroke="#D6E0EB" stroke-width="4"/>
<path opacity="0.341285" d="M190 -34L275.259 -18.1892L282.586 68.3427L346 81" stroke="#D6E0EB" stroke-width="4"/>
<path opacity="0.341285" d="M349 115L369 168" stroke="#D6E0EB" stroke-width="4"/>
<path opacity="0.341285" d="M264 131.412C264 131.412 302.747 123.904 301.989 173" stroke="#D6E0EB" stroke-width="4"/>
<path opacity="0.341285" d="M159 147C159 147 166.786 101.988 239 49" stroke="#D6E0EB" stroke-width="4"/>
<path opacity="0.341285" d="M63 41L167 33" stroke="#D6E0EB" stroke-width="4"/>
<path opacity="0.341285" d="M26.5128 -87L67 -12.5243L-13 -40.8467L6.97858 15" stroke="#D6E0EB" stroke-width="4"/>
<path opacity="0.341285" d="M53.9783 87L-1 131.637L67 166" stroke="#D6E0EB" stroke-width="4"/>
<path opacity="0.341285" d="M132 82C132 82 67.4761 101.221 108.844 160" stroke="#D6E0EB" stroke-width="4"/>
<path opacity="0.341285" d="M198 140L182.029 225.616L96.892 234.657L86 298" stroke="#D6E0EB" stroke-width="4"/>
<path opacity="0.341285" d="M18 199C18 199 -27.8072 206.148 -20.1333 262" stroke="#D6E0EB" stroke-width="4"/>
<path opacity="0.341285" d="M53 257L20.9018 293.585L32.3567 345.881L7 371.938L18.4019 426" stroke="#D6E0EB" stroke-width="4"/>
<path opacity="0.341285" d="M266 213L228.11 240.974L265.185 281.886L213 316" stroke="#D6E0EB" stroke-width="4"/>
<path opacity="0.341285" d="M149 313C149 313 111.655 321.443 131.765 359.122C151.875 396.802 125 400 125 400" stroke="#D6E0EB" stroke-width="4"/>
<path opacity="0.341285" d="M175 361L247 422" stroke="#D6E0EB" stroke-width="4"/>
<path opacity="0.341285" d="M322 286L291 347.085L315.947 408" stroke="#D6E0EB" stroke-width="4"/>
<path opacity="0.341285" d="M359.894 223L430 241.357L359 266.851L408.682 340" stroke="#D6E0EB" stroke-width="4"/>
<path opacity="0.341285" d="M461.591 291C461.591 291 491.362 302.967 474.787 321.655C458.213 340.343 422.909 401.135 455.049 406.63C487.189 412.125 500 399.314 500 399.314" stroke="#D6E0EB" stroke-width="4"/>
<path opacity="0.341285" d="M308 450.255L357.094 461L358.674 403L422 420.011" stroke="#D6E0EB" stroke-width="4"/>
<path opacity="0.341285" d="M90 393L47 446.935L58.969 511" stroke="#D6E0EB" stroke-width="4"/>
<path opacity="0.341285" d="M136 489.173L189.42 430L198.637 498L241 469.615" stroke="#D6E0EB" stroke-width="4"/>
<path opacity="0.341285" d="M291.517 496C291.517 496 213.345 598.35 355 616" stroke="#D6E0EB" stroke-width="4"/>
<path opacity="0.341285" d="M207 597.457L132.142 555.211L109.261 616L90 553" stroke="#D6E0EB" stroke-width="4"/>
<path opacity="0.341285" d="M1.61886 512L-7 614.411L75 629" stroke="#D6E0EB" stroke-width="4"/>
<path opacity="0.341285" d="M16.2827 664L79 704.284L7.18925 719.091L69.6917 780L-7 778.87" stroke="#D6E0EB" stroke-width="4"/>
<path opacity="0.341285" d="M133.511 781L125 683.888L208 674" stroke="#D6E0EB" stroke-width="4"/>
<path opacity="0.341285" d="M226 630.373L284.165 626L255.777 681.253L318 661.551L295.238 735" stroke="#D6E0EB" stroke-width="4"/>
<path opacity="0.341285" d="M201 724C201 724 313.191 770.598 201.463 844" stroke="#D6E0EB" stroke-width="4"/>
<path opacity="0.341285" d="M378 655C378 655 319.575 740.608 342.213 787" stroke="#D6E0EB" stroke-width="4"/>
<path opacity="0.341285" d="M409.079 680L434 744.842L404 802" stroke="#D6E0EB" stroke-width="4"/>
<path opacity="0.341285" d="M510 735L464 696.299L503.393 659.068L468.112 627" stroke="#D6E0EB" stroke-width="4"/>
<path opacity="0.341285" d="M551 731.196C551 731.196 587.916 725.934 586.983 770" stroke="#D6E0EB" stroke-width="4"/>
<path opacity="0.341285" d="M644 770L654.857 709.058L742.145 711.437L759 627" stroke="#D6E0EB" stroke-width="4"/>
<path opacity="0.341285" d="M517 551L522.463 634.895L590.593 616.469L604 706" stroke="#D6E0EB" stroke-width="4"/>
<path opacity="0.341285" d="M372 573L391.978 491L495 508.51" stroke="#D6E0EB" stroke-width="4"/>
<path opacity="0.341285" d="M453 565C453 565 412.444 567.8 417.424 604" stroke="#D6E0EB" stroke-width="4"/>
<path opacity="0.341285" d="M514 454C514 454 578.059 522.417 578 559" stroke="#D6E0EB" stroke-width="4"/>
<path opacity="0.341285" d="M624.341 422L611.151 445.223C611.151 445.223 595.806 483.012 610.074 487.727C624.341 492.442 631.995 485.085 651.303 465.154C670.612 445.223 707.666 490.466 666.004 522" stroke="#D6E0EB" stroke-width="4"/>
<path opacity="0.341285" d="M616 599.211L667.231 618L703 539" stroke="#D6E0EB" stroke-width="4"/>
<path opacity="0.341285" d="M718 636C718 636 732.059 587.755 798 534" stroke="#D6E0EB" stroke-width="4"/>
<path opacity="0.341285" d="M810 614.27C810 614.27 848.223 607.991 847.999 656" stroke="#D6E0EB" stroke-width="4"/>
<path opacity="0.341285" d="M751 454L836.33 469.699L842.206 555.535L907 566" stroke="#D6E0EB" stroke-width="4"/>
<path opacity="0.341285" d="M818 708L778.06 735.735L817.4 776.878L761 812" stroke="#D6E0EB" stroke-width="4"/>
<path opacity="0.341285" d="M879 717L847 780.714L872.714 841" stroke="#D6E0EB" stroke-width="4"/>
<path opacity="0.341285" d="M696 770C696 770 662.036 778.4 676.846 811.007C691.656 843.615 697.598 845.546 671 857" stroke="#D6E0EB" stroke-width="4"/>
<path opacity="0.341285" d="M970.628 826L921 753.673L991 726.688L921.998 710" stroke="#D6E0EB" stroke-width="4"/>
<path opacity="0.341285" d="M964.875 654L876 631.426L1023 578" stroke="#D6E0EB" stroke-width="4"/>
<path opacity="0.341285" d="M1046 651V730" stroke="#D6E0EB" stroke-width="4"/>
<path opacity="0.341285" d="M1092 745L1104.64 663L1210 670.115" stroke="#D6E0EB" stroke-width="4"/>
<path opacity="0.341285" d="M1171.46 719C1171.46 719 1196 755.269 1131 816" stroke="#D6E0EB" stroke-width="4"/>
<path opacity="0.341285" d="M1257 22L1274.3 -52L1297.42 20.8307L1373 -27.5697" stroke="#D6E0EB" stroke-width="4"/>
<path opacity="0.341285" d="M1229 61.3617C1229 61.3617 1183.53 54.9618 1187.21 96" stroke="#D6E0EB" stroke-width="4"/>
<path opacity="0.341285" d="M1611 22L1693 33.458L1687.66 138" stroke="#D6E0EB" stroke-width="4"/>
<path opacity="0.341285" d="M1731 60H1807" stroke="#D6E0EB" stroke-width="4"/>
<path opacity="0.341285" d="M1534 59C1534 59 1603.35 120.25 1632 99.8333" stroke="#D6E0EB" stroke-width="4"/>
<path opacity="0.341285" d="M1767 151.23C1767 151.23 1723.13 145.95 1725.06 186" stroke="#D6E0EB" stroke-width="4"/>
<path opacity="0.341285" d="M1753.33 -104L1746 -0.831551L1827 14" stroke="#D6E0EB" stroke-width="4"/>
<path opacity="0.341285" d="M1903 61L1872.39 142.355L1811 101.607L1838.67 166" stroke="#D6E0EB" stroke-width="4"/>
<path opacity="0.341285" d="M1774 219L1837.48 254L1899 228.832" stroke="#D6E0EB" stroke-width="4"/>
<path opacity="0.341285" d="M1830.57 307L1870 383.801L1789 354.643L1810.62 412" stroke="#D6E0EB" stroke-width="4"/>
<path opacity="0.341285" d="M1887 319C1887 319 1923.75 313.019 1911.5 270" stroke="#D6E0EB" stroke-width="4"/>
<path opacity="0.341285" d="M1907 387L1892.12 473.224L1805.44 480.581L1795 545" stroke="#D6E0EB" stroke-width="4"/>
<path opacity="0.341285" d="M1626 390.849L1522.01 383L1509 468" stroke="#D6E0EB" stroke-width="4"/>
<path opacity="0.341285" d="M1466 371V447" stroke="#D6E0EB" stroke-width="4"/>
<path opacity="0.341285" d="M1634 443.892L1691.26 420L1659.42 505L1739 462.742" stroke="#D6E0EB" stroke-width="4"/>
<path opacity="0.341285" d="M1755.32 494L1745 596.824L1828 610" stroke="#D6E0EB" stroke-width="4"/>
<path opacity="0.341285" d="M1589.69 449C1589.69 449 1616.67 467.694 1549 546" stroke="#D6E0EB" stroke-width="4"/>
<path opacity="0.341285" d="M1342.34 432L1410 448.981L1339 473.583L1388.75 551" stroke="#D6E0EB" stroke-width="4"/>
<path opacity="0.341285" d="M1316 497L1284 555.976L1308.17 619" stroke="#D6E0EB" stroke-width="4"/>
<path opacity="0.341285" d="M1191 523L1243.49 492.549L1207.38 451.682L1248 423" stroke="#D6E0EB" stroke-width="4"/>
<path opacity="0.341285" d="M1257 365.623C1257 365.623 1294.76 356.749 1293.99 406" stroke="#D6E0EB" stroke-width="4"/>
<path opacity="0.341285" d="M1192 343L1156.19 422.291L1072.31 411.254L1047 467" stroke="#D6E0EB" stroke-width="4"/>
<path opacity="0.341285" d="M1041 377L980 444" stroke="#D6E0EB" stroke-width="4"/>
<path opacity="0.341285" d="M727 307C727 307 700.287 371.867 726.573 433" stroke="#D6E0EB" stroke-width="4"/>
<path opacity="0.341285" d="M776.584 363C776.584 363 768.195 326.269 815 329.162" stroke="#D6E0EB" stroke-width="4"/>
<path opacity="0.341285" d="M827 387L854.824 430.532L895.038 390.834L928 443" stroke="#D6E0EB" stroke-width="4"/>
<path opacity="0.341285" d="M921 484C921 484 935.427 489.687 940.362 504.913C945.297 520.139 962.22 533.268 981.313 519.09C1000.41 504.913 1015.49 507.622 1023.06 526.817C1030.64 546.012 1034 547.637 1042 550" stroke="#D6E0EB" stroke-width="4"/>
<path opacity="0.341285" d="M1144 483L1099 535.074L1109.54 599" stroke="#D6E0EB" stroke-width="4"/>
<path opacity="0.341285" d="M1154 569L1226 629" stroke="#D6E0EB" stroke-width="4"/>
<path opacity="0.341285" d="M1261.22 630L1224 709.351L1288.39 683.542L1256.15 767L1334 723.474" stroke="#D6E0EB" stroke-width="4"/>
<path opacity="0.341285" d="M1331 779.344L1406.32 730.984L1430.73 803L1448 730" stroke="#D6E0EB" stroke-width="4"/>
<path opacity="0.341285" d="M1380.83 607L1391.9 629.183C1391.9 629.183 1399.1 650.619 1386.86 655.017C1374.62 659.415 1353.69 662.935 1336 634.967" stroke="#D6E0EB" stroke-width="4"/>
<path opacity="0.341285" d="M1527 656L1549.29 699.624L1593.47 664.078L1625 719" stroke="#D6E0EB" stroke-width="4"/>
<path opacity="0.341285" d="M1437.05 497C1437.05 497 1442.27 510.52 1437.97 518.099C1433.66 525.677 1419.27 553.043 1451.25 562.702C1483.23 572.36 1483.82 580.98 1478.45 598.338C1473.09 615.697 1470.54 612.34 1472.66 628" stroke="#D6E0EB" stroke-width="4"/>
<path opacity="0.341285" d="M1461 668C1461 668 1547.17 736.146 1490.96 802" stroke="#D6E0EB" stroke-width="4"/>
<path opacity="0.341285" d="M1708 884C1708 884 1822.26 841.04 1708.73 747" stroke="#D6E0EB" stroke-width="4"/>
<path opacity="0.341285" d="M1652 764L1718 698" stroke="#D6E0EB" stroke-width="4"/>
<path opacity="0.341285" d="M1758 671.22L1834 671.78" stroke="#D6E0EB" stroke-width="4"/>
<path opacity="0.341285" d="M1803 794.37L1821 726L1846.33 797L1920 748.719" stroke="#D6E0EB" stroke-width="4"/>
<path opacity="0.341285" d="M1650 661L1662.8 596.097L1724 563" stroke="#D6E0EB" stroke-width="4"/>
<path opacity="0.341285" d="M1648 538C1648 538 1571.87 652.872 1511 541.148" stroke="#D6E0EB" stroke-width="4"/>
<path opacity="0.341285" d="M1841 548C1841 548 1975.57 590.627 1884.2 678" stroke="#D6E0EB" stroke-width="4"/>
<path opacity="0.341285" d="M530 259L542.638 176L649 184.071" stroke="#D6E0EB" stroke-width="4"/>
<path opacity="0.341285" d="M666 203.581L724.105 182L691.468 265L768 222.54" stroke="#D6E0EB" stroke-width="4"/>
<path opacity="0.341285" d="M609.295 239C609.295 239 634.304 267.381 569 335" stroke="#D6E0EB" stroke-width="4"/>
<path opacity="0.341285" d="M521 342C521 342 572.852 453.976 658 342.783" stroke="#D6E0EB" stroke-width="4"/>
</g>
</svg>
