<svg width="1600" height="773" viewBox="0 0 1600 773" fill="none" xmlns="http://www.w3.org/2000/svg">
<path opacity="0.341285" d="M482.591 129.594L546.409 185.406" stroke="#D6E0EB" stroke-width="4" stroke-linecap="square"/>
<path opacity="0.341285" d="M610 69L583 121.838L604.93 176" stroke="#D6E0EB" stroke-width="4"/>
<path opacity="0.341285" d="M668.132 71L661 161.694L733 175" stroke="#D6E0EB" stroke-width="4"/>
<path opacity="0.341285" d="M715 106.654C715 106.654 735.823 82.8271 800 143" stroke="#D6E0EB" stroke-width="4"/>
<path opacity="0.341285" d="M809.353 69C809.353 69 907.794 144.244 809 186" stroke="#D6E0EB" stroke-width="4"/>
<path opacity="0.341285" d="M931.598 146L894 79.1996L967 106.79L947.346 56" stroke="#D6E0EB" stroke-width="4"/>
<path opacity="0.341285" d="M853.625 199C853.625 199 878.521 264.194 829.913 249.97C781.305 235.746 783.951 192.561 760 233.182" stroke="#D6E0EB" stroke-width="4"/>
<path opacity="0.341285" d="M902 189C902 189 936.63 245.919 988 260" stroke="#D6E0EB" stroke-width="4"/>
<path opacity="0.341285" d="M980 211L1054.95 225.09L1059.51 299.374L1115 311" stroke="#D6E0EB" stroke-width="4"/>
<path opacity="0.341285" d="M1141 267.464L1203.03 188L1221 292" stroke="#D6E0EB" stroke-width="4"/>
<path opacity="0.341285" d="M1127 331.895L1178.2 312L1150.66 385L1217 347.937" stroke="#D6E0EB" stroke-width="4"/>
<path opacity="0.341285" d="M1044 161L1068.69 196.282L1103.6 161.66L1132 212" stroke="#D6E0EB" stroke-width="4"/>
<path opacity="0.341285" d="M1108 103L1161.51 134L1215 110.872" stroke="#D6E0EB" stroke-width="4"/>
<path opacity="0.341285" d="M1238 129C1238 129 1251.1 164.938 1282 146.969" stroke="#D6E0EB" stroke-width="4"/>
<path opacity="0.341285" d="M1252.38 199C1252.38 199 1348.53 275.023 1252 319" stroke="#D6E0EB" stroke-width="4"/>
<path opacity="0.341285" d="M1348 319C1348 319 1381.02 369.665 1433 389" stroke="#D6E0EB" stroke-width="4"/>
<path opacity="0.341285" d="M1372.24 287L1337 220.975L1408 248.54L1388.65 197" stroke="#D6E0EB" stroke-width="4"/>
<path opacity="0.341285" d="M1406 289L1430.25 325.63L1465.28 290.516L1494 339" stroke="#D6E0EB" stroke-width="4"/>
<path opacity="0.341285" d="M943 317.79C943 317.79 986.197 305.656 1051 332" stroke="#D6E0EB" stroke-width="4"/>
<path opacity="0.341285" d="M910.258 353L888 284.189L932 286.88L900.87 262" stroke="#D6E0EB" stroke-width="4"/>
<path opacity="0.341285" d="M747 345L799.423 374L852 350.789" stroke="#D6E0EB" stroke-width="4"/>
<path opacity="0.341285" d="M700 321.792L715.338 259L736.457 324L802 281.173" stroke="#D6E0EB" stroke-width="4"/>
<path opacity="0.341285" d="M650 213.687L714 213.313" stroke="#D6E0EB" stroke-width="4"/>
<path opacity="0.341285" d="M818 315C818 315 827.508 303.536 861 305.157" stroke="#D6E0EB" stroke-width="4"/>
<path opacity="0.341285" d="M505 92L551.076 62.4864L518.512 27.2622L553 4" stroke="#D6E0EB" stroke-width="4"/>
<path opacity="0.341285" d="M715.681 -35L751 31.8628L682 5.40572L702.786 57" stroke="#D6E0EB" stroke-width="4"/>
<path opacity="0.341285" d="M503 -59L490.063 14.4256L416.178 20.7008L406 75" stroke="#D6E0EB" stroke-width="4"/>
<path opacity="0.341285" d="M376 156.778L333.769 209L322 144" stroke="#D6E0EB" stroke-width="4"/>
<path opacity="0.341285" d="M389.5 199V266" stroke="#D6E0EB" stroke-width="4"/>
<path opacity="0.341285" d="M378 -9L325 53" stroke="#D6E0EB" stroke-width="4"/>
<path opacity="0.341285" d="M601 -19.9395C601 -19.9395 635.969 -23.0322 632.797 15" stroke="#D6E0EB" stroke-width="4"/>
<path opacity="0.341285" d="M198 -20L222.263 15.7106L257.766 -17.9182L287 30" stroke="#D6E0EB" stroke-width="4"/>
<path opacity="0.341285" d="M283 73C283 73 289.235 112.449 325.347 90.1942C361.459 67.9394 365 94.8725 365 94.8725" stroke="#D6E0EB" stroke-width="4"/>
<path opacity="0.341285" d="M459 91C459 91 427.879 99.3967 443.44 127.018C459 154.639 454.532 158.213 438 164" stroke="#D6E0EB" stroke-width="4"/>
<path opacity="0.341285" d="M164 -42L75 -32.8797L75.9264 41" stroke="#D6E0EB" stroke-width="4"/>
<path opacity="0.341285" d="M134 30L207.782 43.611L214.123 118.104L269 129" stroke="#D6E0EB" stroke-width="4"/>
<path opacity="0.341285" d="M271 158L288 204" stroke="#D6E0EB" stroke-width="4"/>
<path opacity="0.341285" d="M198 172.353C198 172.353 231.648 165.918 230.99 208" stroke="#D6E0EB" stroke-width="4"/>
<path opacity="0.341285" d="M107 186C107 186 113.716 146.959 176 101" stroke="#D6E0EB" stroke-width="4"/>
<path opacity="0.341285" d="M24 94L114 87" stroke="#D6E0EB" stroke-width="4"/>
<path opacity="0.341285" d="M-6.92022 -16L28 48.2536L-41 23.8185L-23.7685 72" stroke="#D6E0EB" stroke-width="4"/>
<path opacity="0.341285" d="M16.7017 134L-31 172.422L28 202" stroke="#D6E0EB" stroke-width="4"/>
<path opacity="0.341285" d="M84 130C84 130 28.1955 146.511 63.9734 197" stroke="#D6E0EB" stroke-width="4"/>
<path opacity="0.341285" d="M141 180L127.168 253.695L53.4332 261.477L44 316" stroke="#D6E0EB" stroke-width="4"/>
<path opacity="0.341285" d="M16 281L-11.9115 312.606L-1.95067 357.785L-24 380.296L-14.0853 427" stroke="#D6E0EB" stroke-width="4"/>
<path opacity="0.341285" d="M200 243L167.114 267.172L199.293 302.523L154 332" stroke="#D6E0EB" stroke-width="4"/>
<path opacity="0.341285" d="M99 329C99 329 66.3235 336.279 83.9194 368.761C101.515 401.243 78 404 78 404" stroke="#D6E0EB" stroke-width="4"/>
<path opacity="0.341285" d="M121 370L183 423" stroke="#D6E0EB" stroke-width="4"/>
<path opacity="0.341285" d="M248 306L221 358.573L242.728 411" stroke="#D6E0EB" stroke-width="4"/>
<path opacity="0.341285" d="M280.768 251L341 266.847L280 288.854L322.685 352" stroke="#D6E0EB" stroke-width="4"/>
<path opacity="0.341285" d="M368.889 310C368.889 310 394.553 320.331 380.265 336.463C365.976 352.595 335.542 405.074 363.249 409.817C390.956 414.561 402 403.502 402 403.502" stroke="#D6E0EB" stroke-width="4"/>
<path opacity="0.341285" d="M236 447.737L278.203 457L279.562 407L334 421.665" stroke="#D6E0EB" stroke-width="4"/>
<path opacity="0.341285" d="M48 398L11 444.622L21.2989 500" stroke="#D6E0EB" stroke-width="4"/>
<path opacity="0.341285" d="M87 481.341L133.297 430L141.286 489L178 464.372" stroke="#D6E0EB" stroke-width="4"/>
<path opacity="0.341285" d="M221.479 487C221.479 487 154.344 575.703 276 591" stroke="#D6E0EB" stroke-width="4"/>
<path opacity="0.341285" d="M149 574.106L84.3788 537.895L64.6274 590L48 536" stroke="#D6E0EB" stroke-width="4"/>
<path opacity="0.341285" d="M-28.5373 501L-36 589.406L35 602" stroke="#D6E0EB" stroke-width="4"/>
<path opacity="0.341285" d="M-15.966 632L38 666.728L-23.7906 679.492L29.9906 732L-36 731.026" stroke="#D6E0EB" stroke-width="4"/>
<path opacity="0.341285" d="M85.3833 733L78 649.502L150 641" stroke="#D6E0EB" stroke-width="4"/>
<path opacity="0.341285" d="M165 602.771L214.946 599L190.57 646.649L244 629.659L224.454 693" stroke="#D6E0EB" stroke-width="4"/>
<path opacity="0.341285" d="M144 684C144 684 240.484 724.385 144.398 788" stroke="#D6E0EB" stroke-width="4"/>
<path opacity="0.341285" d="M296 624C296 624 246.125 697.934 265.45 738" stroke="#D6E0EB" stroke-width="4"/>
<path opacity="0.341285" d="M323.402 646L345 701.806L319 751" stroke="#D6E0EB" stroke-width="4"/>
<path opacity="0.341285" d="M365 779L427 731" stroke="#D6E0EB" stroke-width="4"/>
<path opacity="0.341285" d="M410 693L370 659.675L404.254 627.614L373.576 600" stroke="#D6E0EB" stroke-width="4"/>
<path opacity="0.341285" d="M446 690.17C446 690.17 477.789 685.583 476.985 724" stroke="#D6E0EB" stroke-width="4"/>
<path opacity="0.341285" d="M526 723L535.347 670.581L610.49 672.628L625 600" stroke="#D6E0EB" stroke-width="4"/>
<path opacity="0.341285" d="M416 534L420.709 606.529L479.442 590.599L491 668" stroke="#D6E0EB" stroke-width="4"/>
<path opacity="0.341285" d="M291 554L308.217 483L397 498.161" stroke="#D6E0EB" stroke-width="4"/>
<path opacity="0.341285" d="M361 546C361 546 326.077 548.441 330.365 580" stroke="#D6E0EB" stroke-width="4"/>
<path opacity="0.341285" d="M414 451C414 451 469.051 510.295 469 542" stroke="#D6E0EB" stroke-width="4"/>
<path opacity="0.341285" d="M508.579 423L497.179 442.972C497.179 442.972 483.919 475.47 496.249 479.525C508.579 483.58 515.193 477.253 531.88 460.112C548.566 442.972 580.588 481.881 544.583 509" stroke="#D6E0EB" stroke-width="4"/>
<path opacity="0.341285" d="M502 575.827L546.165 592L577 524" stroke="#D6E0EB" stroke-width="4"/>
<path opacity="0.341285" d="M590 608C590 608 602.126 566.377 659 520" stroke="#D6E0EB" stroke-width="4"/>
<path opacity="0.341285" d="M669 589.231C669 589.231 702.193 583.85 701.999 625" stroke="#D6E0EB" stroke-width="4"/>
<path opacity="0.341285" d="M618 451L691.843 464.596L696.928 538.937L753 548" stroke="#D6E0EB" stroke-width="4"/>
<path opacity="0.341285" d="M676 670L641.665 694.002L675.484 729.606L627 760" stroke="#D6E0EB" stroke-width="4"/>
<path opacity="0.341285" d="M729 678L701 732.979L723.499 785" stroke="#D6E0EB" stroke-width="4"/>
<path opacity="0.341285" d="M571 724C571 724 541.112 731.242 554.144 759.351C567.177 787.461 572.406 789.126 549 799" stroke="#D6E0EB" stroke-width="4"/>
<path opacity="0.341285" d="M807.538 772L765 709.649L825 686.386L765.855 672" stroke="#D6E0EB" stroke-width="4"/>
<path opacity="0.341285" d="M802.783 624L726 604.396L853 558" stroke="#D6E0EB" stroke-width="4"/>
<path opacity="0.341285" d="M872.5 621V689" stroke="#D6E0EB" stroke-width="4"/>
<path opacity="0.341285" d="M852.488 729C852.488 729 878.699 741.52 863.684 758.865C848.669 776.21 793.463 850.672 888 824.469" stroke="#D6E0EB" stroke-width="4"/>
<path opacity="0.341285" d="M912 702L922.927 631L1014 637.16" stroke="#D6E0EB" stroke-width="4"/>
<path opacity="0.341285" d="M981.064 679C981.064 679 1002.33 710.408 946 763" stroke="#D6E0EB" stroke-width="4"/>
<path opacity="0.341285" d="M912 765.639C912 765.639 955.348 862.035 1031 764" stroke="#D6E0EB" stroke-width="4"/>
<path opacity="0.341285" d="M833.576 -71C833.576 -71 734.587 -29.2952 835 47" stroke="#D6E0EB" stroke-width="4"/>
<path opacity="0.341285" d="M837 0.422474L874.29 18L886.553 -31L938 -5.17741" stroke="#D6E0EB" stroke-width="4"/>
<path opacity="0.341285" d="M899 -82L972 -71.3631L965.695 20" stroke="#D6E0EB" stroke-width="4"/>
<path opacity="0.341285" d="M1041 -10L988 49" stroke="#D6E0EB" stroke-width="4"/>
<path opacity="0.341285" d="M1055 78L1069.91 14L1089.84 76.9887L1155 35.1289" stroke="#D6E0EB" stroke-width="4"/>
<path opacity="0.341285" d="M1140 -47C1140 -47 1142.8 14.4294 1226 7.44683" stroke="#D6E0EB" stroke-width="4"/>
<path opacity="0.341285" d="M1031 112.31C1031 112.31 992.03 106.824 995.181 142" stroke="#D6E0EB" stroke-width="4"/>
<path opacity="0.341285" d="M1211 41.0951C1211 41.0951 1228.71 40.1479 1238.11 49.6167C1247.52 59.0855 1264.71 52.8776 1271.56 34.2395C1278.42 15.6014 1289.48 13.0874 1305.32 21.862C1321.17 30.6365 1322.39 31.1992 1329 29.3512" stroke="#D6E0EB" stroke-width="4"/>
<path opacity="0.341285" d="M1383 36L1441 5" stroke="#D6E0EB" stroke-width="4"/>
<path opacity="0.341285" d="M1360 78L1431 87.8776L1426.38 178" stroke="#D6E0EB" stroke-width="4"/>
<path opacity="0.341285" d="M1464 110.5H1530" stroke="#D6E0EB" stroke-width="4"/>
<path opacity="0.341285" d="M1294 110C1294 110 1354.15 163.083 1379 145.389" stroke="#D6E0EB" stroke-width="4"/>
<path opacity="0.341285" d="M1495 189.197C1495 189.197 1457.4 184.671 1459.05 219" stroke="#D6E0EB" stroke-width="4"/>
<path opacity="0.341285" d="M1483.33 -31L1477 58.1795L1547 71" stroke="#D6E0EB" stroke-width="4"/>
<path opacity="0.341285" d="M1530 3.58026C1530 3.58026 1546.17 -22.4703 1614 38" stroke="#D6E0EB" stroke-width="4"/>
<path opacity="0.341285" d="M1612 111L1585.72 181.508L1533 146.193L1556.76 202" stroke="#D6E0EB" stroke-width="4"/>
<path opacity="0.341285" d="M1501 248L1555.84 278L1609 256.427" stroke="#D6E0EB" stroke-width="4"/>
<path opacity="0.341285" d="M1549.92 324L1584 390.561L1514 365.29L1532.68 415" stroke="#D6E0EB" stroke-width="4"/>
<path opacity="0.341285" d="M1599 334C1599 334 1630.31 328.874 1619.87 292" stroke="#D6E0EB" stroke-width="4"/>
<path opacity="0.341285" d="M1616 393L1603.11 467.218L1528.04 473.551L1519 529" stroke="#D6E0EB" stroke-width="4"/>
<path opacity="0.341285" d="M1373 396.741L1283.23 390L1272 463" stroke="#D6E0EB" stroke-width="4"/>
<path opacity="0.341285" d="M1235.5 379V445" stroke="#D6E0EB" stroke-width="4"/>
<path opacity="0.341285" d="M1380 442.519L1429.63 422L1402.03 495L1471 458.708" stroke="#D6E0EB" stroke-width="4"/>
<path opacity="0.341285" d="M1484.96 485L1476 573.641L1548 585" stroke="#D6E0EB" stroke-width="4"/>
<path opacity="0.341285" d="M1342.38 446C1342.38 446 1365.84 462.188 1307 530" stroke="#D6E0EB" stroke-width="4"/>
<path opacity="0.341285" d="M1128.87 432L1187 446.698L1126 467.992L1168.74 535" stroke="#D6E0EB" stroke-width="4"/>
<path opacity="0.341285" d="M1106 488L1078 538.758L1099.15 593" stroke="#D6E0EB" stroke-width="4"/>
<path opacity="0.341285" d="M998 510L1043.12 483.812L1012.08 448.666L1047 424" stroke="#D6E0EB" stroke-width="4"/>
<path opacity="0.341285" d="M1055 374.531C1055 374.531 1087.66 366.957 1086.99 409" stroke="#D6E0EB" stroke-width="4"/>
<path opacity="0.341285" d="M999 355L968.131 423.421L895.82 413.897L874 462" stroke="#D6E0EB" stroke-width="4"/>
<path opacity="0.341285" d="M869 384L816 442" stroke="#D6E0EB" stroke-width="4"/>
<path opacity="0.341285" d="M597 324C597 324 574.739 380.115 596.644 433" stroke="#D6E0EB" stroke-width="4"/>
<path opacity="0.341285" d="M640.509 372C640.509 372 633.196 340.671 674 343.138" stroke="#D6E0EB" stroke-width="4"/>
<path opacity="0.341285" d="M684 393L707.967 430.313L742.607 396.287L771 441" stroke="#D6E0EB" stroke-width="4"/>
<path opacity="0.341285" d="M765 477C765 477 777.4 481.911 781.641 495.061C785.883 508.211 800.429 519.549 816.84 507.305C833.25 495.061 846.216 497.401 852.725 513.978C859.233 530.556 862.123 531.959 869 534" stroke="#D6E0EB" stroke-width="4"/>
<path opacity="0.341285" d="M957 476L918 520.891L927.136 576" stroke="#D6E0EB" stroke-width="4"/>
<path opacity="0.341285" d="M966 550L1028 602" stroke="#D6E0EB" stroke-width="4"/>
<path opacity="0.341285" d="M1058.14 603L1026 671.346L1081.61 649.116L1053.77 721L1121 683.511" stroke="#D6E0EB" stroke-width="4"/>
<path opacity="0.341285" d="M1119 731.584L1184.02 689.849L1205.09 752L1220 689" stroke="#D6E0EB" stroke-width="4"/>
<path opacity="0.341285" d="M1161.65 583L1171.19 602.138C1171.19 602.138 1177.39 620.632 1166.84 624.426C1156.29 628.221 1138.25 631.258 1123 607.129" stroke="#D6E0EB" stroke-width="4"/>
<path opacity="0.341285" d="M1288 625L1307.33 662.392L1345.65 631.924L1373 679" stroke="#D6E0EB" stroke-width="4"/>
<path opacity="0.341285" d="M1210.2 488C1210.2 488 1214.7 499.663 1210.99 506.2C1207.29 512.737 1194.91 536.342 1222.41 544.674C1249.92 553.005 1250.42 560.441 1245.81 575.414C1241.2 590.387 1239 587.492 1240.83 601" stroke="#D6E0EB" stroke-width="4"/>
<path opacity="0.341285" d="M1231 635C1231 635 1304.86 693.992 1256.68 751" stroke="#D6E0EB" stroke-width="4"/>
<path opacity="0.341285" d="M1308.92 733L1301 824.499L1372 837" stroke="#D6E0EB" stroke-width="4"/>
<path opacity="0.341285" d="M1616.71 769L1597 823.252L1627 872" stroke="#D6E0EB" stroke-width="4"/>
<path opacity="0.341285" d="M1330 765.237C1330 765.237 1353.98 745.613 1414 803" stroke="#D6E0EB" stroke-width="4"/>
<path opacity="0.341285" d="M1444 822C1444 822 1542.58 784.998 1444.63 704" stroke="#D6E0EB" stroke-width="4"/>
<path opacity="0.341285" d="M1396 718L1453 661" stroke="#D6E0EB" stroke-width="4"/>
<path opacity="0.341285" d="M1487 638.22L1553 638.78" stroke="#D6E0EB" stroke-width="4"/>
<path opacity="0.341285" d="M1526 744.74L1541.54 686L1563.4 747L1627 705.519" stroke="#D6E0EB" stroke-width="4"/>
<path opacity="0.341285" d="M1394 630L1405.07 573.706L1458 545" stroke="#D6E0EB" stroke-width="4"/>
<path opacity="0.341285" d="M1392 523C1392 523 1326.42 622.409 1274 525.724" stroke="#D6E0EB" stroke-width="4"/>
<path opacity="0.341285" d="M1559 532C1559 532 1675.63 568.725 1596.44 644" stroke="#D6E0EB" stroke-width="4"/>
<path opacity="0.341285" d="M427 283L437.939 211L530 218.002" stroke="#D6E0EB" stroke-width="4"/>
<path opacity="0.341285" d="M545 234.721L595.13 216L566.972 288L633 251.167" stroke="#D6E0EB" stroke-width="4"/>
<path opacity="0.341285" d="M495.923 265C495.923 265 517.597 289.538 461 348" stroke="#D6E0EB" stroke-width="4"/>
<path opacity="0.341285" d="M420 354C420 354 464.661 450.299 538 354.674" stroke="#D6E0EB" stroke-width="4"/>
</svg>
