<?xml version="1.0" encoding="UTF-8"?>
<svg width="90px" height="90px" viewBox="0 0 90 90" version="1.1" xmlns="http://www.w3.org/2000/svg" xmlns:xlink="http://www.w3.org/1999/xlink">
    <title>Play-icon</title>
    <g id="Page-1" stroke="none" stroke-width="1" fill="none" fill-rule="evenodd">
        <g id="Wall-bed" transform="translate(-1257.000000, -11243.000000)">
            <g id="Group-26" transform="translate(60.000000, 10886.000000)">
                <g id="Group-23">
                    <g id="Group-19" transform="translate(1197.000000, 357.000000)">
                        <g id="Play-icon">
                            <circle id="Oval" fill-opacity="0.97" fill="#FFFFFF" cx="45" cy="45" r="45"></circle>
                            <path d="M44.9999285,74.5624844 C61.0545777,74.5624844 74.0623592,61.5547029 74.0623592,45.5000536 C74.0623592,29.4454044 61.0545777,16.4376229 44.9999285,16.4376229 C28.9452793,16.4376229 15.9374978,29.4454044 15.9374978,45.5000536 C15.9374978,61.5547029 28.9452793,74.5624844 44.9999285,74.5624844 Z M33.7499553,57.6875246 L33.7499553,33.3125827 C33.7499553,31.1562921 36.0702394,29.8204264 37.933562,30.8516511 L58.5585128,43.3906837 C60.4803145,44.468829 60.4803145,47.246189 58.5585128,48.3125469 L37.933562,60.1484562 C36.0820268,61.1796809 33.7499553,59.8554882 33.7499553,57.6875246 Z" id="p" fill="#111111" fill-rule="nonzero" opacity="0.800000012"></path>
                        </g>
                    </g>
                </g>
            </g>
        </g>
    </g>
</svg>