<svg width="67" height="67" viewBox="0 0 67 67" fill="none" xmlns="http://www.w3.org/2000/svg">
<ellipse cx="33.35" cy="33.3698" rx="33.35" ry="33.3698" fill="white" fill-opacity="0.97"/>
<path opacity="0.8" d="M33.35 4.67822C38.5062 4.67822 43.4281 6.08447 47.8812 8.6626C52.3344 11.2407 55.85 14.7563 58.4281 19.2095C61.0062 23.6626 62.4125 28.5845 62.4125 33.7407C62.4125 39.0142 61.0062 43.8188 58.4281 48.272C55.85 52.7251 52.3344 56.3579 47.8812 58.936C43.4281 61.5142 38.5062 62.8032 33.35 62.8032C28.0765 62.8032 23.2719 61.5142 18.8187 58.936C14.3656 56.3579 10.7328 52.7251 8.15466 48.272C5.57654 43.8188 4.28748 39.0142 4.28748 33.7407C4.28748 28.5845 5.57654 23.6626 8.15466 19.2095C10.7328 14.7563 14.3656 11.2407 18.8187 8.6626C23.2719 6.08447 28.0765 4.67822 33.35 4.67822ZM46.9437 36.5532C47.8812 36.0845 48.35 35.2642 48.35 34.0923C48.35 33.0376 47.8812 32.2173 46.9437 31.6313L26.3187 19.0923C25.3812 18.6235 24.4437 18.6235 23.5062 19.0923C22.5687 19.6782 22.1 20.4985 22.1 21.5532V45.9282C22.1 47.1001 22.5687 47.9204 23.5062 48.3892C24.4437 48.9751 25.3812 48.9751 26.3187 48.3892L46.9437 36.5532Z" fill="#111111"/>
</svg>
