<svg width="48" height="40" viewBox="0 0 48 40" fill="none" xmlns="http://www.w3.org/2000/svg">
<path fill-rule="evenodd" clip-rule="evenodd" d="M3.20122 35.1863C6.7549 39.6632 14.3448 40.7811 18.8016 36.553C21.6198 33.8794 22.1499 30.512 21.0563 27.15C20.3669 25.0028 18.6872 23.1302 15.9217 22.1205C13.7586 21.3308 11.359 21.3406 8.53824 21.3523C8.1915 21.3537 7.83839 21.3552 7.47858 21.3552C8.2502 13.1671 13.6953 8.28331 20.9804 4.68127L18.6185 0.799805C13.4973 3.09588 9.11719 6.46711 5.48277 10.9135C-1.8445 19.8777 -1.0047 29.8989 3.20122 35.1863ZM29.6154 35.1863C33.1691 39.6632 40.759 40.7811 45.2157 36.553C48.034 33.8794 48.5641 30.512 47.4705 27.15C46.7811 25.0028 45.1013 23.1302 42.3359 22.1205C40.1727 21.3308 37.7732 21.3406 34.9524 21.3523C34.6057 21.3537 34.2526 21.3552 33.8928 21.3552C34.6644 13.1671 40.1095 8.28331 47.3946 4.68127L45.0327 0.799805C39.9114 3.09588 35.5314 6.46711 31.897 10.9135C24.5697 19.8777 25.4095 29.8989 29.6154 35.1863Z" fill="white"/>
</svg>
