<svg width="55" height="60" viewBox="0 0 55 60" fill="none" xmlns="http://www.w3.org/2000/svg">
<path d="M37.8507 39.9211C40.741 35.9033 42.518 31.2864 43.0726 26.4132L27.0134 21.8467L10.9541 26.4132C11.5087 31.2863 13.2856 35.9033 16.176 39.9211C18.9903 43.8329 22.7251 46.98 27.0134 49.0617C31.3016 46.98 35.0366 43.8329 37.8507 39.9211Z" fill="white"/>
<path d="M27.0135 18.1207L43.2607 22.7408V15.2887L27.0135 10.6686L10.7662 15.2887V22.7408L27.0135 18.1207Z" fill="white"/>
<path d="M28.8054 0V7.45211L46.8446 12.5818V23.0971C46.8446 29.9396 44.7407 36.481 40.7602 42.0143C37.6483 46.3395 33.5324 49.8329 28.8054 52.174V60.0001C35.9433 57.2186 42.0694 52.4686 46.5787 46.2002C51.4419 39.4402 54.0125 31.4512 54.0125 23.0971V7.1679L28.8054 0Z" fill="white"/>
<path d="M25.2214 52.1738C20.4944 49.8328 16.3784 46.3394 13.2668 42.0142C9.2862 36.481 7.18218 29.9396 7.18218 23.097V12.5817L25.2214 7.45199V0L0.0142822 7.1679V23.097C0.0142822 31.4511 2.58493 39.4401 7.44811 46.2001C11.9576 52.4684 18.0836 57.2185 25.2214 60V52.1738Z" fill="white"/>
</svg>
