<svg width="20" height="21" viewBox="0 0 20 21" fill="none" xmlns="http://www.w3.org/2000/svg">
<path fill-rule="evenodd" clip-rule="evenodd" d="M19.8632 19.9765L19.4765 20.3632C19.2929 20.5468 18.996 20.5468 18.8124 20.3632L13.7734 15.3242C13.6875 15.2343 13.6367 15.1172 13.6367 14.9922V14.5937C12.1875 15.9297 10.2539 16.75 8.12498 16.75C3.63669 16.75 0 13.1133 0 8.62498C0 4.13669 3.63669 0.5 8.12498 0.5C12.6133 0.5 16.25 4.13669 16.25 8.62498C16.25 10.7539 15.4297 12.6875 14.0898 14.1367H14.4922C14.6172 14.1367 14.7343 14.1836 14.8242 14.2734L19.8632 19.3124C20.0468 19.496 20.0468 19.7929 19.8632 19.9765ZM1.25 8.62498C1.25 12.4257 4.32422 15.5 8.12498 15.5C11.9257 15.5 15 12.4257 15 8.62498C15 4.82422 11.9257 1.75 8.12498 1.75C4.32422 1.75 1.25 4.82422 1.25 8.62498Z" fill="#251A36"/>
</svg>
