<svg width="126" height="102" viewBox="0 0 126 102" fill="none" xmlns="http://www.w3.org/2000/svg">
<style>
		 .sofa{
			 fill:none;
			 stroke:#000000;
			 stroke-width:3;
			 stroke-miterlimit:5;
			
			
		 }
		 .sofaline{
			 stroke-dasharray:500;
			 stroke-dashoffset:500;
			 -webkit-animation: dash 5s infinite ease-in;
			 animation: dash 3s infinite ease-in;
		 }
		
		 @-webkit-keyframes dash{
			 to {
				 stroke-dashoffset:0;
			 }
		 }
		 </style>
<path class="sofa sofaline" d="M0 99.6099H10M10 99.6099V25.6099C10.5 18.6099 15.4 4.10993 31 2.10993C38.3333 1.2766 53.5 4.80993 55.5 25.6099M10 99.6099H24M55.5 25.6099C51.3333 25.7766 43.2 29.0099 44 40.6099H51.5M55.5 25.6099C66.7 25.6099 68.5 35.6099 68 40.6099H59.75M51.5 40.6099C51.8333 42.1099 53.1 45.1099 55.5 45.1099C58.5 45.1099 59.5 43.6099 59.75 40.6099M51.5 40.6099H59.75M48.5 36.1099C49.1667 34.7765 51 32.0099 53 31.6099M38.5 74.6099C32.9 74.6099 31.8333 79.2765 32 81.6099V98.6099H44V95.1099M38.5 74.6099V63.6099C38.8333 61.6099 40.4 57.7099 44 58.1099H71.5C73.5 57.6099 77.5 58.2099 77.5 64.6099M38.5 74.6099C42.9 75.4099 44 80.2765 44 82.6099M77.5 64.6099V82.6099M77.5 64.6099C77 62.4432 77.7 58.1099 84.5 58.1099C91.3 58.1099 105 58.1099 111 58.1099C112.833 57.9432 116.5 59.0099 116.5 64.6099C116.5 70.2099 116.5 73.6099 116.5 74.6099M77.5 82.6099H44M77.5 82.6099H111M44 82.6099V95.1099M44 95.1099H77.5H111M111 95.1099V82.6099M111 95.1099V98.6099H123.5V82.6099C123.9 76.2099 119 74.6099 116.5 74.6099M111 82.6099C111 80.2765 112.1 75.4099 116.5 74.6099" stroke="black" stroke-width="3"/>
</svg>
