<svg width="60" height="60" viewBox="0 0 60 60" fill="none" xmlns="http://www.w3.org/2000/svg">
<path d="M36.5442 23.3451C35.8347 22.6314 35.048 21.9988 34.1988 21.4588C31.9494 20.0185 29.3345 19.2531 26.6635 19.2531C22.9562 19.2462 19.3996 20.7192 16.7828 23.3451L4.08756 36.0503C1.47516 38.6677 0.00685868 42.214 0.00451949 45.912C-0.000392786 53.629 6.2513 59.8887 13.9683 59.8937C17.6698 59.9065 21.2231 58.4406 23.839 55.8216L34.3186 45.3421C34.509 45.1533 34.6153 44.8958 34.6138 44.6277C34.6106 44.0765 34.1611 43.6323 33.6099 43.6354H33.2107C31.0212 43.6431 28.8513 43.2227 26.8232 42.3979C26.4495 42.2441 26.0201 42.3309 25.7354 42.6174L18.2001 50.1627C15.8602 52.5025 12.0665 52.5025 9.72662 50.1627C7.38674 47.8228 7.38674 44.0291 9.72662 41.6892L22.4718 28.9541C24.8098 26.619 28.5973 26.619 30.9353 28.9541C32.511 30.4371 34.9687 30.4371 36.5443 28.9541C37.2222 28.2756 37.6332 27.3758 37.7021 26.419C37.7749 25.2758 37.3533 24.1561 36.5442 23.3451Z" fill="white"/>
<path d="M55.7966 4.09272C50.3397 -1.36424 41.4922 -1.36424 36.0352 4.09272L25.5656 14.5523C25.2781 14.8411 25.1952 15.2756 25.356 15.6501C25.515 16.0257 25.8864 16.2668 26.2942 16.2589H26.6634C28.8503 16.2549 31.0167 16.6787 33.0409 17.5065C33.4146 17.6603 33.8441 17.5735 34.1288 17.287L41.6441 9.78161C43.984 7.44173 47.7777 7.44173 50.1176 9.78161C52.4574 12.1215 52.4574 15.9152 50.1176 18.2551L40.7558 27.6068L40.6759 27.6966L37.4024 30.9503C35.0643 33.2854 31.2769 33.2854 28.9388 30.9503C27.3632 29.4673 24.9054 29.4673 23.3298 30.9503C22.6476 31.6339 22.2363 32.5416 22.1721 33.5052C22.0991 34.6485 22.5207 35.7682 23.3298 36.5793C24.485 37.7394 25.8366 38.6855 27.322 39.3738C27.5316 39.4735 27.7412 39.5534 27.9508 39.6432C28.1604 39.7331 28.3799 39.8029 28.5895 39.8828C28.7991 39.9627 29.0186 40.0325 29.2282 40.0924L29.8171 40.252C30.2163 40.3518 30.6156 40.4317 31.0247 40.5015C31.5176 40.5747 32.0139 40.6214 32.5118 40.6413H33.2104H33.2703L33.8691 40.5714C34.0887 40.5615 34.3183 40.5116 34.5778 40.5116H34.9171L35.6057 40.4118L35.9252 40.3519L36.504 40.2321H36.6138C39.0654 39.6163 41.304 38.347 43.0911 36.5593L55.7963 23.8541C61.2536 18.3972 61.2536 9.54968 55.7966 4.09272Z" fill="white"/>
</svg>
