<svg width="11" height="18" viewBox="0 0 11 18" fill="none" xmlns="http://www.w3.org/2000/svg">
<path fill-rule="evenodd" clip-rule="evenodd" d="M8.45941 0C9.5058 0 10.3539 0.848109 10.3539 1.8945V16.1055C10.3539 17.1519 9.5058 18 8.45941 18H1.89855C0.852156 18 0.00390625 17.1519 0.00390625 16.1055V1.8945C0.00390625 0.848109 0.852156 0 1.89855 0H8.45941ZM9.45391 3.285H0.903906V13.77H9.45391V3.285ZM1.88941 0.9H8.46855C9.01684 0.9 9.45391 1.35703 9.45391 1.90547V2.385H0.903906V1.90547C0.903906 1.35703 1.34111 0.9 1.88941 0.9ZM1.88941 17.1H8.46855H8.48008C9.02064 17.0973 9.45658 16.657 9.45391 16.1165V14.67H0.903906V16.128C0.907703 16.6686 1.34884 17.1039 1.88941 17.1Z" fill="black"/>
<path d="M6.05898 15.4351H4.29766C4.04903 15.4351 3.84766 15.6364 3.84766 15.8851C3.84766 16.1337 4.04903 16.3351 4.29766 16.3351H6.05898C6.30747 16.3351 6.50898 16.1337 6.50898 15.8851C6.50898 15.6364 6.30747 15.4351 6.05898 15.4351Z" fill="black"/>
</svg>
