<svg width="20" height="19" viewBox="0 0 20 19" fill="none" xmlns="http://www.w3.org/2000/svg">
<path fill-rule="evenodd" clip-rule="evenodd" d="M3.92268 7.90429C3.82739 8.09507 3.57696 8.24994 3.36372 8.24998H0.625037C0.280036 8.24998 3.81469e-05 7.96998 3.81469e-05 7.62498L0 5.08761C0 4.76004 0.205307 4.32528 0.458258 4.11719C3.13598 1.96914 6.5309 0.75 10 0.75C13.4691 0.75 16.864 1.96914 19.5418 4.11719C19.7947 4.32528 20 4.76004 20 5.08761L20 7.62498C20 7.96998 19.72 8.24998 19.375 8.24998H16.6363C16.4231 8.24994 16.1726 8.09507 16.0773 7.90429L15 5.43749C13.4406 4.76248 11.7488 4.49999 10 4.49999C8.25121 4.49999 6.55863 4.76248 5.00003 5.43749L3.92268 7.90429ZM1.24771 6.99999H2.95356L3.85627 4.9367L4.05158 4.48553L4.50354 4.29022C6.12032 3.59023 7.918 3.24999 10 3.24999C12.082 3.24999 13.8801 3.59023 15.498 4.2906L15.95 4.48591L16.1453 4.93712L17.0465 6.99999H18.75V5.09726C16.6359 3.39251 12.7158 2.00492 10 2C7.28354 2.00671 3.35933 3.39198 1.24065 5.09218L1.24771 6.99999ZM17.5 18.25C18.19 18.25 18.75 17.69 18.75 17V14.8314C18.75 14.6483 18.6763 14.3707 18.5855 14.2117L14.4699 7.00975C14.0726 6.31437 13.1001 5.74999 12.2992 5.74999H7.70079C6.89989 5.74999 5.92742 6.31437 5.53012 7.00975L1.41449 14.2117C1.3237 14.3707 1.25004 14.6483 1.25004 14.8314V17C1.25004 17.69 1.81003 18.25 2.50003 18.25H17.5ZM2.50003 14.832V17H17.5V14.832L13.3844 7.62968C13.1854 7.28262 12.6993 7.00052 12.2992 6.99999H7.70079C7.30074 7.00052 6.8146 7.28262 6.61566 7.62968L2.50003 14.832ZM10 15.125C11.725 15.125 13.125 13.725 13.125 12C13.125 10.275 11.725 8.87498 10 8.87498C8.27501 8.87498 6.87502 10.275 6.87502 12C6.87502 13.725 8.27501 15.125 10 15.125ZM8.12502 12C8.12502 13.035 8.96501 13.875 10 13.875C11.0339 13.8739 11.8739 13.0339 11.875 12C11.875 10.965 11.035 10.125 10 10.125C8.96501 10.125 8.12502 10.965 8.12502 12Z" fill="#251A36"/>
</svg>
