<svg width="18" height="21" viewBox="0 0 18 21" fill="none" xmlns="http://www.w3.org/2000/svg">
<path fill-rule="evenodd" clip-rule="evenodd" d="M13.75 5.49999C13.75 8.26171 11.5117 10.5 8.74998 10.5C5.98826 10.5 3.74999 8.26171 3.74999 5.49999C3.74999 2.73827 5.98826 0.5 8.74998 0.5C11.5117 0.5 13.75 2.73827 13.75 5.49999ZM4.99999 5.49999C4.99999 7.5664 6.68356 9.24998 8.74998 9.24998C10.8164 9.24998 12.5 7.5664 12.5 5.49999C12.5 3.43357 10.8164 1.75 8.74998 1.75C6.68356 1.75 4.99999 3.43357 4.99999 5.49999ZM15.625 20.5C16.6601 20.5 17.5 19.6601 17.5 18.625V17C17.5 14.1015 15.1484 11.75 12.25 11.75C11.7585 11.75 11.3789 11.8701 10.9525 12.005C10.4062 12.1778 9.78324 12.375 8.74998 12.375C7.71751 12.375 7.0959 12.1781 6.55036 12.0054C6.12376 11.8703 5.74367 11.75 5.25 11.75C2.35156 11.75 0 14.1015 0 17V18.625C0 19.6601 0.839842 20.5 1.875 20.5H15.625ZM1.25 18.625C1.25 18.9687 1.53125 19.25 1.875 19.25H15.625C15.9687 19.25 16.25 18.9687 16.25 18.625V17C16.25 14.7929 14.457 13 12.25 13C11.9559 13 11.6618 13.0922 11.2996 13.2057C10.7187 13.3879 9.96257 13.625 8.74998 13.625C7.53453 13.625 6.7788 13.3877 6.19863 13.2055C5.83719 13.0921 5.54388 13 5.25 13C3.04298 13 1.25 14.7929 1.25 17V18.625Z" fill="#251A36"/>
</svg>
