<svg width="48" height="30" viewBox="0 0 48 30" fill="none" xmlns="http://www.w3.org/2000/svg">
<path d="M5.35491 9.11928C5.35491 6.66434 7.35215 4.667 9.80718 4.667H19.8015C21.3534 4.667 22.7217 5.46571 23.5188 6.67301C24.3161 5.46561 25.6843 4.667 27.2362 4.667H37.2306C39.6855 4.667 41.6828 6.66434 41.6828 9.11928V9.32431H42.7973V4.98269C42.7973 2.28853 40.6055 0.0966797 37.9113 0.0966797H9.12624C6.43208 0.0966797 4.24023 2.28853 4.24023 4.98269V9.32431H5.35481V9.11928H5.35491Z" fill="#000000"/>
<path d="M45.1668 11.4033H1.8712C0.839416 11.4033 0 12.2427 0 13.2745V24.1372C0 25.169 0.839416 26.0085 1.8712 26.0085H2.65013L1.72977 28.606C1.53799 29.1472 1.82133 29.7413 2.3624 29.933C2.47724 29.9736 2.59442 29.993 2.70964 29.993C3.13753 29.993 3.53844 29.7267 3.68951 29.3003L4.85591 26.0084H42.1821L43.3485 29.3003C43.4996 29.7267 43.9004 29.993 44.3284 29.993C44.4436 29.993 44.5608 29.9736 44.6756 29.933C45.2168 29.7412 45.5001 29.1471 45.3083 28.606L44.3879 26.0085H45.1669C46.1986 26.0085 47.0381 25.169 47.0381 24.1372V13.2745C47.0381 12.2427 46.1986 11.4033 45.1668 11.4033Z" fill="#000000"/>
<path d="M27.2364 6.74609C25.9279 6.74609 24.8633 7.81061 24.8633 9.11911V9.32415H39.6038V9.11911C39.6038 7.81061 38.5393 6.74609 37.2308 6.74609H27.2364Z" fill="#000000"/>
<path d="M9.80671 6.74609C8.49811 6.74609 7.43359 7.8107 7.43359 9.11921V9.32415H22.1741V9.11911C22.1741 7.81061 21.1096 6.74609 19.801 6.74609H9.80671V6.74609Z" fill="#000000"/>
</svg>
