<svg width="75" height="101" viewBox="0 0 75 101" fill="none" xmlns="http://www.w3.org/2000/svg">
<style>
		 .ward{
			 fill:none;
			 stroke:#000000;
			 stroke-width:3;
			 stroke-miterlimit:5;
			
			
		 }
		 .wardline{
			 stroke-dasharray:500;
			 stroke-dashoffset:500;
			 -webkit-animation: dash 5s infinite ease-in;
			 animation: dash 3s infinite ease-in;
		 }
		
		 @-webkit-keyframes dash{
			 to {
				 stroke-dashoffset:0;
			 }
		 }
		 </style>
<path class="ward wardline" d="M38.1958 85.6722V10.6722V9.17217M38.1958 85.6722H66.6958V9.17217H38.1958M38.1958 85.6722H9.19578V9.17217H38.1958M13.6958 93.1721C11.8649 93.5112 9.35521 93.6571 7.12999 93.1721M13.6958 93.1721L11.1958 99.1721H7.12999V93.1721M13.6958 93.1721H62.1958M7.12999 93.1721C3.88612 92.4651 1.24676 90.4172 2.19578 85.6722V9.17217C1.86245 6.33883 2.79578 0.972166 9.19578 2.17217H66.6958C69.0291 2.00551 73.5958 3.1722 73.1958 9.17217V85.6722C73.4991 88.0984 72.8366 92.6492 68.1958 93.1489M62.1958 93.1721H66.6958C67.2368 93.2082 67.7358 93.1984 68.1958 93.1489M62.1958 93.1721L64.1958 99.1721H68.1958V93.1489M24.6958 47.6721C24.5291 45.8388 25.2958 42.2721 29.6958 42.6721C31.5291 42.6721 35.0958 43.6721 34.6958 47.6721C34.8625 49.3388 33.9958 52.5721 29.1958 52.1721C27.6958 52.0055 24.6958 50.8721 24.6958 47.6721ZM41.1958 47.6721C40.8625 46.0055 41.2958 42.6721 45.6958 42.6721C47.6958 42.6721 51.4958 43.6721 50.6958 47.6721C50.5291 49.3388 49.2958 52.5721 45.6958 52.1721C44.1958 52.0055 41.1958 50.8721 41.1958 47.6721Z" stroke="black" stroke-width="3"/>
</svg>
