<svg width="123" height="142" viewBox="0 0 123 142" fill="none" xmlns="http://www.w3.org/2000/svg">
<g id="Group 47">
<g id="Vector 19">
<path id="Shape" d="M14.8028 64.2394L14.7716 64.7385L14.7872 64.7394H14.8028V64.2394ZM12.5493 62.2676L13.0443 62.3383L13.0493 62.3031V62.2676H12.5493ZM14.8028 50.2958V49.7958H14.7872L14.7716 49.7968L14.8028 50.2958ZM109.451 50.2958L109.486 49.797L109.469 49.7958H109.451V50.2958ZM111.563 52.1268H112.063V52.1059L112.062 52.0852L111.563 52.1268ZM111.563 61.8451L112.063 61.8728L112.063 61.859V61.8451H111.563ZM1 140.859H0.5V141.359H1V140.859ZM1 32.9718L0.765296 32.5303L0.5 32.6714V32.9718H1ZM61.1408 1L61.3726 0.556944L61.139 0.434745L60.9061 0.558509L61.1408 1ZM122.268 32.9718H122.768V32.6691L122.499 32.5288L122.268 32.9718ZM122.268 140.859V141.359H122.768V140.859H122.268ZM16.9789 64.2394V140.859H17.9789V64.2394H16.9789ZM17.4789 64.7394H107.479V63.7394H17.4789V64.7394ZM17.4789 63.7394H14.8028V64.7394H17.4789V63.7394ZM14.834 63.7404C13.2831 63.6435 12.997 62.6691 13.0443 62.3383L12.0543 62.1969C11.9138 63.1805 12.7169 64.61 14.7716 64.7385L14.834 63.7404ZM13.0493 62.2676V52.4085H12.0493V62.2676H13.0493ZM13.0493 52.4085C13.0493 51.8089 13.3224 51.4362 13.679 51.1893C14.0569 50.9276 14.5266 50.8141 14.8341 50.7948L14.7716 49.7968C14.3278 49.8245 13.6708 49.9786 13.1097 50.3671C12.5274 50.7704 12.0493 51.4306 12.0493 52.4085H13.0493ZM14.8028 50.7958H109.451V49.7958H14.8028V50.7958ZM109.415 50.7945C110.684 50.8852 111.033 51.7823 111.065 52.1684L112.062 52.0852C112 51.3444 111.372 49.9317 109.486 49.797L109.415 50.7945ZM111.063 52.1268V61.8451H112.063V52.1268H111.063ZM111.064 61.8173C111.023 62.5627 110.53 63.0464 109.78 63.3589C109.023 63.6739 108.107 63.7616 107.497 63.7398L107.461 64.7391C108.165 64.7643 109.235 64.6689 110.164 64.282C111.099 63.8926 111.991 63.1556 112.063 61.8728L111.064 61.8173ZM17.4789 140.359H1V141.359H17.4789V140.359ZM1.5 140.859V32.9718H0.5V140.859H1.5ZM1.2347 33.4133L61.3755 1.44149L60.9061 0.558509L0.765296 32.5303L1.2347 33.4133ZM60.9091 1.44306L122.036 33.4149L122.499 32.5288L61.3726 0.556944L60.9091 1.44306ZM121.768 32.9718V140.859H122.768V32.9718H121.768ZM122.268 140.359H107.479V141.359H122.268V140.359ZM17.4789 141.359H107.479V140.359H17.4789V141.359ZM106.979 64.2394V140.859H107.979V64.2394H106.979Z" fill="#221C35"/>
<g id="Group 3">
<path id="Fill 69" fill-rule="evenodd" clip-rule="evenodd" d="M61.5 132C61.4651 132 61.4302 131.991 61.3985 131.973L41.1015 120.409C41.039 120.374 41 120.308 41 120.236V111.2C41 111.09 41.0917 111 41.203 111C41.315 111 41.4059 111.09 41.4059 111.2V120.12L61.5 131.568L81.5941 120.12V111.2C81.5941 111.09 81.6858 111 81.797 111C81.9091 111 82 111.09 82 111.2V120.236C82 120.308 81.961 120.374 81.8985 120.409L61.6015 131.973C61.5698 131.991 61.5349 132 61.5 132Z" fill="#21517F"/>
<path id="Fill 70" fill-rule="evenodd" clip-rule="evenodd" d="M61.5 123C61.4651 123 61.4302 122.991 61.3985 122.974L41.1015 111.423C41.039 111.388 41 111.322 41 111.25C41 111.179 41.039 111.113 41.1015 111.078L44.7054 109.028C44.7996 108.972 44.9246 109.004 44.9831 109.1C45.0383 109.196 45.005 109.319 44.9084 109.373L41.6089 111.25L61.5 122.57L81.3911 111.25L78.0965 109.376C77.9999 109.32 77.9666 109.198 78.0218 109.102C78.0778 109.006 78.2036 108.974 78.2994 109.029L81.8985 111.078C81.961 111.113 82 111.179 82 111.25C82 111.322 81.961 111.388 81.8985 111.423L61.6015 122.974C61.5698 122.991 61.5349 123 61.5 123Z" fill="#21517F"/>
<path id="Fill 71" fill-rule="evenodd" clip-rule="evenodd" d="M61.5 131C61.363 131 61.25 130.914 61.25 130.809V122.191C61.25 122.086 61.363 122 61.5 122C61.638 122 61.75 122.086 61.75 122.191V130.809C61.75 130.914 61.638 131 61.5 131Z" fill="#21517F"/>
<g id="Group 75">
<path id="Fill 72" fill-rule="evenodd" clip-rule="evenodd" d="M61.4527 118.905C61.4179 118.905 61.3831 118.897 61.3515 118.879L41.1089 107.322C41.0466 107.286 41.0077 107.22 41.0077 107.149C41.0077 107.077 41.0466 107.011 41.1089 106.976L44.7032 104.924C44.7971 104.868 44.9218 104.901 44.9801 104.997C45.0352 105.093 45.002 105.216 44.9056 105.27L41.615 107.149L61.4527 118.475L81.2905 107.149L78.0047 105.273C77.9084 105.217 77.8752 105.095 77.9302 104.999C77.9861 104.903 78.1116 104.871 78.2072 104.926L81.7966 106.976C81.8589 107.011 81.8978 107.077 81.8978 107.149C81.8978 107.22 81.8589 107.286 81.7966 107.322L61.554 118.879C61.5224 118.897 61.4876 118.905 61.4527 118.905Z" fill="#221C35"/>
<path id="Fill 74" fill-rule="evenodd" clip-rule="evenodd" d="M41.615 103.045L61.4527 114.371L81.2905 103.045L61.4527 91.7199L41.615 103.045ZM61.4527 114.802C61.4179 114.802 61.3831 114.793 61.3515 114.776L41.1089 103.218C41.0466 103.183 41.0077 103.116 41.0077 103.045C41.0077 102.974 41.0466 102.907 41.1089 102.872L61.3515 91.3156C61.4147 91.2796 61.4908 91.2796 61.554 91.3156L81.7966 102.872C81.8589 102.907 81.8978 102.974 81.8978 103.045C81.8978 103.116 81.8589 103.183 81.7966 103.218L61.554 114.776C61.5224 114.793 61.4876 114.802 61.4527 114.802Z" fill="#21517F"/>
<g id="Group 4">
<path id="Fill 190" fill-rule="evenodd" clip-rule="evenodd" d="M54.8715 103.777C54.8402 103.777 54.811 103.758 54.8013 103.727C54.6685 103.314 54.6258 102.985 54.6738 102.747C54.6818 102.708 54.7213 102.683 54.7606 102.69C54.8007 102.698 54.8266 102.737 54.8184 102.776C54.7759 102.986 54.8187 103.299 54.9417 103.682C54.954 103.721 54.9325 103.762 54.8939 103.774C54.8865 103.776 54.8788 103.777 54.8715 103.777Z" fill="#60911D"/>
<path id="Fill 191" fill-rule="evenodd" clip-rule="evenodd" d="M57.7052 106.047C57.1457 106.047 56.0059 105.858 55.1101 104.485C55.0877 104.451 55.0977 104.406 55.132 104.384C55.1662 104.362 55.2116 104.372 55.2337 104.406C56.4091 106.207 57.9987 105.881 58.0143 105.878C58.0553 105.869 58.0937 105.894 58.1025 105.933C58.1111 105.972 58.086 106.011 58.0465 106.02C58.0418 106.021 57.9138 106.047 57.7052 106.047Z" fill="#60911D"/>
<path id="Fill 192" fill-rule="evenodd" clip-rule="evenodd" d="M55.3393 102.871C54.7393 102.871 53.6179 102.631 53.0902 100.958C53.0102 100.704 52.9456 100.422 52.8985 100.12C52.8542 99.8345 52.8241 99.5233 52.8094 99.1949C52.7825 98.5978 52.8058 97.9235 52.8787 97.1917C52.8825 97.1523 52.9182 97.1185 52.9574 97.1261C52.9976 97.129 53.0276 97.1631 53.0256 97.2025C53.0226 97.2599 52.9678 98.6069 54.3022 98.7197C54.552 98.7407 54.8036 98.7472 55.047 98.753L55.2254 98.7577C55.3643 98.7612 55.5469 98.7676 55.7251 98.7822C55.9124 98.7973 56.0734 98.8204 56.2168 98.8519C56.9864 99.0213 57.4273 99.4889 57.6459 100.369C57.6556 100.408 57.6314 100.447 57.5919 100.457C57.5518 100.467 57.5123 100.442 57.5025 100.403C57.2418 99.3541 56.6613 99.0992 56.1849 98.9942C56.0478 98.9642 55.8935 98.942 55.713 98.9274C55.5387 98.9131 55.3585 98.907 55.2213 98.9035L55.0431 98.8988C54.7977 98.8927 54.5441 98.8866 54.2895 98.865C53.4571 98.7947 53.1144 98.2784 52.974 97.8383C52.9442 98.3219 52.9383 98.774 52.9569 99.1884C52.9713 99.5116 53.0005 99.8173 53.0445 100.098C53.0902 100.392 53.153 100.667 53.2312 100.915C53.9258 103.117 55.6826 102.696 55.7006 102.691C55.741 102.681 55.7802 102.704 55.7906 102.743C55.8009 102.782 55.777 102.822 55.7375 102.832C55.7322 102.833 55.5764 102.871 55.3393 102.871Z" fill="#60911D"/>
<path id="Fill 193" fill-rule="evenodd" clip-rule="evenodd" d="M61.497 101.842C61.4692 101.842 61.4427 101.826 61.43 101.8C59.9278 98.6248 57.3601 99.7524 57.3347 99.7641C57.2976 99.781 57.2539 99.7653 57.2368 99.7285C57.2197 99.692 57.2359 99.6486 57.2725 99.632C57.2999 99.6191 59.9997 98.4329 61.5636 101.738C61.581 101.775 61.5651 101.818 61.5282 101.835C61.5182 101.84 61.5076 101.842 61.497 101.842Z" fill="#60911D"/>
<path id="Fill 194" fill-rule="evenodd" clip-rule="evenodd" d="M65.0241 109.539C65.0082 109.539 64.9922 109.534 64.9792 109.524C64.971 109.518 64.1454 108.907 62.0432 108.878C59.7371 108.846 57.2589 108.591 57.0447 105.955C57.0412 105.915 57.0716 105.879 57.1123 105.876C57.1521 105.872 57.1884 105.903 57.1916 105.943C57.396 108.457 59.8041 108.701 62.0452 108.732C63.7773 108.756 64.6545 109.161 64.9515 109.333C64.9536 108.879 64.9462 107.331 64.7804 105.761C64.7763 105.721 64.8058 105.685 64.8462 105.681C64.8863 105.675 64.9229 105.706 64.927 105.746C65.1244 107.613 65.0981 109.45 65.0978 109.468C65.0975 109.495 65.0813 109.52 65.0562 109.532C65.0459 109.537 65.035 109.539 65.0241 109.539Z" fill="#60911D"/>
<path id="Fill 195" fill-rule="evenodd" clip-rule="evenodd" d="M64.7071 104.716C64.6714 104.716 64.6401 104.69 64.6342 104.655C64.5516 104.147 64.4528 103.697 64.341 103.318C64.3295 103.28 64.3522 103.239 64.3911 103.228C64.4301 103.217 64.4714 103.239 64.4826 103.278C64.5961 103.662 64.6964 104.118 64.7799 104.631C64.7864 104.671 64.759 104.709 64.7189 104.715C64.715 104.716 64.7109 104.716 64.7071 104.716Z" fill="#60911D"/>
<path id="Fill 196" fill-rule="evenodd" clip-rule="evenodd" d="M63.8384 102.143C63.8169 102.143 63.7957 102.133 63.7809 102.115C62.5533 100.612 61.1543 101.064 61.0953 101.084C61.0563 101.097 61.0147 101.077 61.0015 101.039C60.9882 101.001 61.0088 100.959 61.0472 100.946C61.0622 100.941 62.6011 100.439 63.8956 102.024C63.9213 102.055 63.9166 102.101 63.8847 102.126C63.8712 102.137 63.8546 102.143 63.8384 102.143Z" fill="#60911D"/>
<path id="Fill 197" fill-rule="evenodd" clip-rule="evenodd" d="M61.497 105.198C61.4799 105.198 61.4628 105.192 61.4486 105.18C60.3171 104.206 59.2181 103.488 58.2485 102.856C57.0233 102.055 56.0555 101.423 55.6538 100.659C55.6349 100.623 55.649 100.579 55.6853 100.56C55.721 100.542 55.7658 100.556 55.7847 100.592C56.1685 101.323 57.1224 101.946 58.33 102.734C59.3033 103.369 60.4065 104.09 61.5454 105.07C61.576 105.096 61.5796 105.142 61.5527 105.173C61.538 105.189 61.5176 105.198 61.497 105.198Z" fill="#60911D"/>
<path id="Fill 198" fill-rule="evenodd" clip-rule="evenodd" d="M65.3798 110.245C65.3503 110.245 65.3226 110.228 65.3114 110.199C64.8345 108.984 63.9832 107.722 62.7809 106.45C62.7532 106.42 62.7547 106.374 62.7848 106.346C62.8142 106.319 62.8609 106.32 62.8889 106.35C64.1038 107.636 64.9651 108.914 65.4486 110.146C65.4636 110.183 65.4447 110.226 65.4067 110.241C65.3978 110.244 65.389 110.245 65.3798 110.245Z" fill="#60911D"/>
<path id="Fill 199" fill-rule="evenodd" clip-rule="evenodd" d="M65.7541 111.855C65.7532 111.855 65.7523 111.855 65.7512 111.855C65.7105 111.853 65.6789 111.819 65.6804 111.779C65.6804 111.776 65.6901 111.489 65.5642 110.983C65.5544 110.944 65.5786 110.904 65.6181 110.895C65.6583 110.885 65.6978 110.909 65.7072 110.948C65.8388 111.477 65.8282 111.773 65.8279 111.785C65.8261 111.824 65.7936 111.855 65.7541 111.855Z" fill="#60911D"/>
</g>
</g>
</g>
</g>
<path id="Path" d="M44.8029 41.4226H79.4507" stroke="#21517F"/>
<path id="Path_2" d="M44.8029 31.9861H79.4507" stroke="#21517F"/>
<path id="Path_3" d="M44.8029 23.1125H79.4507" stroke="#21517F"/>
</g>
</svg>
