<svg width="162" height="140" viewBox="0 0 162 140" fill="none" xmlns="http://www.w3.org/2000/svg">
<g id="Group 32">
<path id="Fill 46" fill-rule="evenodd" clip-rule="evenodd" d="M81.0826 139.482C80.9454 139.482 80.8082 139.444 80.6837 139.366L0.890361 90.2567C0.641405 90.107 0.491394 89.8246 0.491394 89.5218V51.147C0.491394 50.6774 0.848868 50.2964 1.28933 50.2964C1.72659 50.2964 2.08726 50.6774 2.08726 51.147V89.0285L81.0826 137.648L160.078 89.0285V51.147C160.078 50.6774 160.436 50.2964 160.876 50.2964C161.313 50.2964 161.674 50.6774 161.674 51.147V89.5218C161.674 89.8246 161.521 90.107 161.275 90.2567L81.4816 139.366C81.3539 139.444 81.2199 139.482 81.0826 139.482Z" fill="#221C35"/>
<path id="Fill 47" fill-rule="evenodd" clip-rule="evenodd" d="M2.88519 50.2959L81.0826 98.2503L159.28 50.2959L81.0826 2.3449L2.88519 50.2959ZM81.0826 100.074C80.9454 100.074 80.8082 100.037 80.6837 99.9622L0.890361 51.0281C0.641405 50.879 0.491394 50.5976 0.491394 50.2959C0.491394 49.9942 0.641405 49.7128 0.890361 49.5637L80.6837 0.632966C80.9326 0.480418 81.2295 0.480418 81.4816 0.632966L161.275 49.5637C161.521 49.7128 161.674 49.9942 161.674 50.2959C161.674 50.5976 161.521 50.879 161.275 51.0281L81.4816 99.9622C81.3539 100.037 81.2199 100.074 81.0826 100.074Z" fill="#221C35"/>
<path id="Fill 259" fill-rule="evenodd" clip-rule="evenodd" d="M39.125 101.125C34.1625 101.125 30.125 97.0875 30.125 92.125C30.125 87.1625 34.1625 83.125 39.125 83.125C44.0875 83.125 48.125 87.1625 48.125 92.125C48.125 94.3481 47.3075 96.4827 45.8232 98.1364C45.7213 98.2516 45.5463 98.2605 45.4322 98.1575C45.3181 98.0556 45.3081 97.8795 45.4112 97.7665C46.8035 96.2146 47.5712 94.2108 47.5712 92.125C47.5712 87.4672 43.7817 83.6788 39.125 83.6788C34.4672 83.6788 30.6788 87.4672 30.6788 92.125C30.6788 96.7817 34.4672 100.571 39.125 100.571C40.3446 100.571 41.522 100.316 42.6242 99.8135C42.7638 99.7526 42.9277 99.8124 42.9908 99.952C43.054 100.09 42.9931 100.254 42.8535 100.319C41.6793 100.853 40.4254 101.125 39.125 101.125Z" fill="#21517F"/>
<path id="Fill 260" fill-rule="evenodd" clip-rule="evenodd" d="M39.125 88.125L36.5107 91.8253C36.2588 92.2593 36.125 92.7357 36.125 93.223C36.125 94.823 37.471 96.125 39.125 96.125C40.779 96.125 42.125 94.823 42.125 93.223C42.125 92.739 41.9923 92.2659 41.7326 91.8156L39.125 88.125ZM39.125 97.125C36.9192 97.125 35.125 95.4601 35.125 93.4158C35.125 92.7883 35.303 92.1794 35.654 91.6022L38.8636 87.2444C38.9823 87.0852 39.2677 87.0852 39.3851 87.2444L42.5821 91.5812C42.5859 91.5882 42.5909 91.5952 42.596 91.6022C42.947 92.1794 43.125 92.7883 43.125 93.4158C43.125 95.4601 41.3295 97.125 39.125 97.125Z" fill="#221C35"/>
<path id="Fill 261" fill-rule="evenodd" clip-rule="evenodd" d="M39.1256 99.125C35.2653 99.125 32.125 95.9847 32.125 92.1256C32.125 91.9662 32.2534 91.8389 32.4116 91.8389C32.5698 91.8389 32.6983 91.9662 32.6983 92.1256C32.6983 95.6683 35.5817 98.5517 39.1256 98.5517C42.6694 98.5517 45.5517 95.6683 45.5517 92.1256C45.5517 88.5817 42.6694 85.6983 39.1256 85.6983C36.8532 85.6983 34.7941 86.862 33.6189 88.8099C33.5364 88.9463 33.3598 88.9887 33.2245 88.9073C33.0892 88.8248 33.0468 88.6494 33.1282 88.5129C34.4088 86.3919 36.6503 85.125 39.1256 85.125C42.9847 85.125 46.125 88.2653 46.125 92.1256C46.125 95.9847 42.9847 99.125 39.1256 99.125Z" fill="#21517F"/>
<g id="Group 52">
<path id="Fill 48" fill-rule="evenodd" clip-rule="evenodd" d="M80.7878 138.694C80.3444 138.694 79.9845 138.314 79.9845 137.846V99.5653C79.9845 99.0969 80.3444 98.7168 80.7878 98.7168C81.228 98.7168 81.5911 99.0969 81.5911 99.5653V137.846C81.5911 138.314 81.228 138.694 80.7878 138.694Z" fill="#221C35"/>
<path id="Fill 50" fill-rule="evenodd" clip-rule="evenodd" d="M80.7878 124.908C80.5115 124.908 80.2416 124.755 80.0906 124.484C79.8689 124.08 80.0006 123.56 80.3862 123.326L160.713 74.3382C161.086 74.1006 161.584 74.2398 161.808 74.647C162.03 75.0543 161.898 75.5736 161.516 75.8078L81.1894 124.796C81.0609 124.874 80.926 124.908 80.7878 124.908Z" fill="#221C35"/>
<path id="Fill 51" fill-rule="evenodd" clip-rule="evenodd" d="M80.7878 115.649C80.5115 115.649 80.2416 115.5 80.0906 115.225C79.8689 114.821 80.0006 114.302 80.3862 114.067L160.713 65.0794C161.086 64.8452 161.584 64.9809 161.808 65.3882C162.03 65.7955 161.898 66.3148 161.516 66.5489L81.1894 115.537C81.0609 115.615 80.926 115.649 80.7878 115.649Z" fill="#221C35"/>
</g>
<path id="Fill 53" fill-rule="evenodd" clip-rule="evenodd" d="M33.1719 52.3466C33.0485 52.3466 32.9223 52.3124 32.8048 52.2408L30.3444 50.7382C29.9921 50.5204 29.8717 50.0444 30.0743 49.6742C30.2799 49.2977 30.7291 49.1733 31.0785 49.3879L33.5389 50.8937C33.8912 51.1084 34.0116 51.5844 33.809 51.9577C33.671 52.2066 33.4244 52.3466 33.1719 52.3466Z" fill="#21517F"/>
<path id="Fill 54" fill-rule="evenodd" clip-rule="evenodd" d="M49.8816 62.716C49.7553 62.716 49.629 62.6818 49.5145 62.6103L47.0505 61.1076C46.7011 60.8929 46.5807 60.4169 46.7804 60.0436C46.9889 59.6672 47.4382 59.5458 47.7847 59.7605L50.2487 61.2632C50.5981 61.4778 50.7185 61.9538 50.5188 62.3272C50.3808 62.576 50.1341 62.716 49.8816 62.716Z" fill="#21517F"/>
<path id="Fill 55" fill-rule="evenodd" clip-rule="evenodd" d="M65.6059 72.0494C65.4795 72.0494 65.3531 72.0152 65.2385 71.9467L62.7751 70.441C62.4253 70.2263 62.3048 69.7503 62.5076 69.377C62.7134 69.0036 63.1631 68.8761 63.51 69.0938L65.9734 70.5996C66.3232 70.8143 66.4437 71.2903 66.2438 71.6605C66.1057 71.9094 65.8588 72.0494 65.6059 72.0494Z" fill="#21517F"/>
<path id="Fill 56" fill-rule="evenodd" clip-rule="evenodd" d="M82.3148 82.4193C82.1884 82.4193 82.062 82.3881 81.9473 82.3166L79.4839 80.8108C79.1341 80.5961 79.0136 80.1201 79.2135 79.7499C79.4193 79.3735 79.872 79.249 80.2188 79.4637L82.6822 80.9695C83.032 81.1841 83.1526 81.6602 82.9497 82.0304C82.8145 82.2824 82.5676 82.4193 82.3148 82.4193Z" fill="#21517F"/>
<path id="Fill 57" fill-rule="evenodd" clip-rule="evenodd" d="M49.8816 41.9757C49.7553 41.9757 49.629 41.9415 49.5145 41.8699L47.0505 40.3672C46.7011 40.1526 46.5807 39.6766 46.7804 39.3032C46.9859 38.9299 47.4382 38.8023 47.7847 39.0201L50.2487 40.5228C50.5981 40.7375 50.7185 41.2135 50.5188 41.5868C50.3808 41.8357 50.1341 41.9757 49.8816 41.9757Z" fill="#21517F"/>
<path id="Fill 58" fill-rule="evenodd" clip-rule="evenodd" d="M65.6067 52.3451C65.4804 52.3451 65.3541 52.314 65.2396 52.2424L62.7756 50.7367C62.4262 50.522 62.3058 50.046 62.5055 49.6727C62.714 49.2993 63.1633 49.1749 63.5098 49.3895L65.9738 50.8922C66.3232 51.11 66.4436 51.586 66.2439 51.9562C66.1059 52.2051 65.8592 52.3451 65.6067 52.3451Z" fill="#21517F"/>
<path id="Fill 59" fill-rule="evenodd" clip-rule="evenodd" d="M82.3157 62.715C82.1894 62.715 82.0632 62.6838 81.9487 62.6123L79.4854 61.1065C79.1331 60.8918 79.0127 60.4158 79.2153 60.0456C79.4208 59.6692 79.87 59.5478 80.2194 59.7594L82.6827 61.2652C83.0321 61.4798 83.1524 61.9558 82.9499 62.3261C82.8119 62.5781 82.5653 62.715 82.3157 62.715Z" fill="#21517F"/>
<path id="Fill 60" fill-rule="evenodd" clip-rule="evenodd" d="M98.0392 72.0494C97.9128 72.0494 97.7865 72.0152 97.6719 71.9436L95.209 70.4378C94.8593 70.2232 94.7388 69.7472 94.9386 69.377C95.1473 69.0036 95.597 68.8761 95.9438 69.0938L98.4066 70.5996C98.7563 70.8112 98.8768 71.2872 98.677 71.6605C98.5388 71.9094 98.292 72.0494 98.0392 72.0494Z" fill="#21517F"/>
<path id="Fill 61" fill-rule="evenodd" clip-rule="evenodd" d="M65.6061 32.6422C65.4797 32.6422 65.3534 32.608 65.2387 32.5364L62.7759 31.0306C62.4262 30.816 62.3057 30.3431 62.5055 29.9697C62.7113 29.5964 63.1668 29.4688 63.5106 29.6866L65.9735 31.1893C66.3232 31.404 66.4437 31.88 66.2439 32.2533C66.1057 32.5022 65.8589 32.6422 65.6061 32.6422Z" fill="#21517F"/>
<path id="Fill 62" fill-rule="evenodd" clip-rule="evenodd" d="M82.3128 41.9757C82.1866 41.9757 82.0603 41.9415 81.9458 41.8699L79.4854 40.3672C79.1331 40.1526 79.0127 39.6766 79.2153 39.3032C79.4208 38.9299 79.8701 38.8023 80.2194 39.0201L82.6798 40.5228C83.0322 40.7406 83.1526 41.2135 82.95 41.5868C82.812 41.8357 82.5653 41.9757 82.3128 41.9757Z" fill="#21517F"/>
<path id="Fill 63" fill-rule="evenodd" clip-rule="evenodd" d="M98.0398 52.3451C97.9135 52.3451 97.7872 52.314 97.6727 52.2424L95.2087 50.7367C94.8593 50.522 94.7389 50.046 94.9386 49.6727C95.1441 49.2993 95.5964 49.1749 95.9429 49.3895L98.4069 50.8922C98.7563 51.11 98.8767 51.586 98.677 51.9562C98.539 52.2051 98.2923 52.3451 98.0398 52.3451Z" fill="#21517F"/>
<path id="Fill 64" fill-rule="evenodd" clip-rule="evenodd" d="M114.747 62.7169C114.621 62.7169 114.494 62.6826 114.38 62.6111L111.917 61.1053C111.567 60.8906 111.447 60.4146 111.647 60.0444C111.855 59.6711 112.305 59.5435 112.652 59.7582L115.114 61.264C115.464 61.4786 115.585 61.9546 115.385 62.328C115.247 62.5769 115 62.7169 114.747 62.7169Z" fill="#21517F"/>
<path id="Fill 65" fill-rule="evenodd" clip-rule="evenodd" d="M82.3123 22.2712C82.186 22.2712 82.0596 22.237 81.945 22.1654L79.4829 20.6597C79.1332 20.4481 79.0128 19.9721 79.2155 19.5988C79.4182 19.2223 79.8736 19.101 80.2174 19.3157L82.6796 20.8183C83.0322 21.033 83.1526 21.509 82.9499 21.8823C82.8118 22.1312 82.565 22.2712 82.3123 22.2712Z" fill="#21517F"/>
<path id="Fill 66" fill-rule="evenodd" clip-rule="evenodd" d="M98.0398 32.6425C97.9135 32.6425 97.7872 32.6083 97.6727 32.5367L95.2087 31.0341C94.8593 30.8163 94.7389 30.3434 94.9386 29.9701C95.1441 29.5936 95.5964 29.4692 95.9429 29.687L98.4069 31.1896C98.7563 31.4043 98.8767 31.8803 98.677 32.2536C98.539 32.5025 98.2923 32.6425 98.0398 32.6425Z" fill="#21517F"/>
<path id="Fill 67" fill-rule="evenodd" clip-rule="evenodd" d="M114.748 41.975C114.621 41.975 114.495 41.9408 114.381 41.8692L111.917 40.3665C111.567 40.1519 111.447 39.6759 111.646 39.3025C111.855 38.9292 112.304 38.8048 112.651 39.0194L115.115 40.5221C115.464 40.7399 115.585 41.2128 115.385 41.5861C115.247 41.835 115 41.975 114.748 41.975Z" fill="#21517F"/>
<path id="Fill 68" fill-rule="evenodd" clip-rule="evenodd" d="M130.471 52.3458C130.345 52.3458 130.221 52.3147 130.104 52.2431L127.644 50.7373C127.291 50.5227 127.171 50.0467 127.374 49.6733C127.579 49.3 128.028 49.1725 128.378 49.3902L130.838 50.896C131.19 51.1107 131.311 51.5867 131.108 51.9569C130.97 52.2058 130.724 52.3458 130.471 52.3458Z" fill="#21517F"/>
</g>
</svg>
