<svg width="158" height="160" viewBox="0 0 158 160" fill="none" xmlns="http://www.w3.org/2000/svg">
<path fill-rule="evenodd" clip-rule="evenodd" d="M157.803 140.293C157.803 150.225 122.478 159.211 78.9016 159.211C35.3271 159.211 0 150.225 0 140.293C0 130.361 35.3271 122.311 78.9016 122.311C122.478 122.311 157.803 130.361 157.803 140.293Z" fill="#F38F00"/>
<path fill-rule="evenodd" clip-rule="evenodd" d="M54.4902 155.491C50.8677 155.214 47.2514 154.861 43.6436 154.413C40.0337 153.969 36.4321 153.444 32.8578 152.753C31.9642 152.576 31.0748 152.387 30.1854 152.19L29.5178 152.04C29.296 151.992 29.0741 151.944 28.8565 151.872C28.4191 151.741 28.0006 151.535 27.5674 151.395C26.6968 151.127 25.8053 150.941 24.918 150.732C24.0307 150.529 23.158 150.265 22.2895 149.991C20.5505 149.445 18.8387 148.807 17.1624 148.082C16.3274 147.714 15.4966 147.331 14.6846 146.908C14.4795 146.804 14.2807 146.691 14.0798 146.582C13.8789 146.473 13.6864 146.346 13.4708 146.262C13.023 146.113 12.64 145.852 12.2571 145.592C11.8741 145.333 11.4974 145.056 11.1375 144.757C10.7775 144.462 10.4301 144.142 10.1099 143.792C9.46957 143.1 8.90454 142.273 8.6576 141.296C8.3981 140.325 8.54668 139.249 8.98615 138.374C9.41307 137.485 10.0555 136.75 10.7524 136.123L11.014 135.886C11.104 135.809 11.1961 135.74 11.2881 135.666C11.4723 135.522 11.6502 135.369 11.8448 135.239C12.0352 135.108 12.2236 134.97 12.4161 134.84C12.617 134.727 12.7823 134.551 13.0565 134.557C13.1841 134.543 13.272 134.467 13.3725 134.413L13.6696 134.239C13.8664 134.122 14.0631 134.005 14.2661 133.898L14.8709 133.574L15.4861 133.268C17.1289 132.46 18.8177 131.763 20.5358 131.148C22.2519 130.522 24.0014 130.004 25.7593 129.526C27.5737 129.267 29.319 128.756 31.102 128.39C32.8745 127.99 34.6554 127.622 36.4426 127.283C37.3362 127.116 38.2339 126.963 39.1296 126.818C40.0295 126.684 40.9189 126.473 41.8418 126.519L41.9129 127.017C41.0445 127.331 40.1362 127.373 39.2426 127.532C38.3469 127.662 37.4555 127.819 36.5598 127.953C34.7726 128.241 32.9875 128.555 31.2108 128.909C29.4445 129.294 27.6553 129.621 25.9623 130.29C24.2127 130.744 22.48 131.251 20.7598 131.799C19.0458 132.362 17.3424 132.971 15.7184 133.749L15.1115 134.042L14.513 134.354C14.3121 134.455 14.1196 134.568 13.925 134.679L13.632 134.846C13.5357 134.905 13.429 134.944 13.3662 135.057C13.2595 135.306 13.0418 135.376 12.8619 135.507C12.6798 135.631 12.5019 135.765 12.3219 135.892C12.1378 136.016 11.9745 136.162 11.8009 136.298C11.7171 136.367 11.6293 136.434 11.5476 136.508L11.3049 136.727C10.6666 137.32 10.0995 137.985 9.73534 138.732C9.36284 139.475 9.25821 140.31 9.44655 141.101C9.6328 141.898 10.1037 142.633 10.6771 143.276C10.9638 143.6 11.2819 143.903 11.6167 144.186C11.9515 144.475 12.3031 144.74 12.6672 144.996C12.8493 145.123 13.0335 145.247 13.2218 145.368C13.4102 145.488 13.5776 145.64 13.7513 145.787C13.925 145.931 14.128 146.03 14.3226 146.14C14.5214 146.245 14.7181 146.356 14.919 146.456C15.7184 146.867 16.5367 147.245 17.3717 147.584C19.0396 148.271 20.7556 148.84 22.48 149.376C23.3443 149.637 24.2148 149.882 25.0749 150.165C25.9371 150.435 26.8035 150.703 27.695 150.87C28.1429 150.943 28.6054 150.954 29.0532 151.025C29.4989 151.1 29.9363 151.215 30.38 151.307C31.2631 151.5 32.1483 151.686 33.0356 151.862C36.5786 152.586 40.1488 153.208 43.7336 153.724C47.3226 154.235 50.9242 154.649 54.5341 154.988L54.4902 155.491Z" fill="#E7840F"/>
<path fill-rule="evenodd" clip-rule="evenodd" d="M134.737 130.432C137.462 131.225 140.166 132.138 142.744 133.385C144.033 134.009 145.289 134.72 146.448 135.607C147.022 136.057 147.578 136.545 148.051 137.129C148.292 137.418 148.505 137.732 148.7 138.062C148.884 138.399 149.049 138.753 149.156 139.132C149.261 139.51 149.317 139.906 149.319 140.303C149.317 140.701 149.255 141.097 149.146 141.475C149.035 141.852 148.89 142.216 148.679 142.536C148.466 142.859 148.166 143.108 147.911 143.369C147.409 143.905 146.909 144.426 146.362 144.903C145.822 145.389 145.218 145.786 144.6 146.155C143.37 146.9 142.066 147.492 140.75 148.036C140.091 148.304 139.429 148.566 138.762 148.812L138.261 148.995C138.094 149.057 137.922 149.101 137.766 149.195C137.464 149.411 137.119 149.503 136.784 149.622C134.093 150.547 131.351 151.315 128.578 151.933L127.536 152.159L127.015 152.27C126.839 152.293 126.678 152.389 126.473 152.276C126.375 152.236 126.291 152.274 126.205 152.288L125.944 152.345L125.423 152.454L124.383 152.669C122.993 152.956 121.606 153.245 120.21 153.504C118.816 153.772 117.418 154.004 116.014 154.205C114.58 154.197 113.187 154.463 111.78 154.634C110.376 154.827 108.97 155.011 107.563 155.181C106.86 155.271 106.155 155.335 105.45 155.409C104.742 155.463 104.044 155.61 103.322 155.49L103.28 154.988C103.623 154.865 103.974 154.812 104.326 154.779L105.383 154.691L107.494 154.503C108.903 154.385 110.309 154.254 111.715 154.107C113.12 153.935 114.532 153.831 115.901 153.423L120.097 152.824C121.495 152.619 122.893 152.406 124.282 152.152C124.63 152.09 124.975 152.023 125.322 151.954L125.841 151.849L126.101 151.797C126.187 151.776 126.277 151.776 126.352 151.7C126.492 151.516 126.678 151.537 126.848 151.485L127.363 151.37L128.394 151.133L130.449 150.635C131.134 150.466 131.816 150.286 132.498 150.11C133.863 149.756 135.214 149.365 136.556 148.936L137.058 148.773C137.224 148.71 137.406 148.702 137.583 148.674C137.761 148.649 137.922 148.576 138.088 148.519L138.584 148.335C139.241 148.086 139.898 147.829 140.538 147.54C141.825 146.973 143.075 146.328 144.265 145.604C144.86 145.238 145.429 144.843 145.996 144.445C146.559 144.045 147.095 143.591 147.49 143.028C147.677 142.741 147.792 142.411 147.919 142.112L148.12 141.672C148.179 141.524 148.237 141.377 148.277 141.224C148.363 140.921 148.411 140.613 148.413 140.301C148.409 139.992 148.363 139.682 148.281 139.378C148.196 139.077 148.07 138.782 147.919 138.495C147.76 138.213 147.582 137.937 147.373 137.675C146.963 137.152 146.467 136.679 145.94 136.242C144.881 135.369 143.675 134.649 142.434 134.004C139.94 132.73 137.28 131.763 134.593 130.913L134.737 130.432Z" fill="#E7840F"/>
<path fill-rule="evenodd" clip-rule="evenodd" d="M140.181 140.293C140.183 140.841 140.047 141.383 139.823 141.871C139.599 142.361 139.293 142.8 138.946 143.196C138.251 143.987 137.422 144.623 136.56 145.179C135.696 145.74 134.785 146.217 133.861 146.653C132.936 147.088 131.992 147.477 131.037 147.835C127.212 149.256 123.257 150.246 119.278 151.066C115.298 151.887 111.282 152.514 107.254 153.019C103.225 153.523 99.18 153.893 95.1285 154.157C93.1028 154.285 91.0749 154.385 89.0471 154.461L87.5257 154.515C87.0193 154.532 86.5107 154.546 86.0043 154.542C84.9893 154.534 83.9723 154.467 82.9573 154.442C80.9295 154.419 78.9037 154.471 76.8738 154.488C74.8459 154.511 72.8181 154.469 70.7903 154.402C66.7346 154.276 62.6831 154.025 58.642 153.684C56.6205 153.508 54.601 153.32 52.5836 153.096L51.0727 152.925C50.5683 152.866 50.0682 152.791 49.5597 152.766C49.0532 152.732 48.5426 152.722 48.0403 152.648L46.5315 152.443C42.5093 151.884 38.5038 151.183 34.5423 150.252C32.5605 149.788 30.5955 149.246 28.6576 148.609C26.7219 147.971 24.8049 147.245 22.9696 146.309C22.0551 145.839 21.1594 145.318 20.3202 144.698C19.8996 144.386 19.4978 144.045 19.1211 143.675C18.7549 143.296 18.3573 142.903 18.2045 142.361C18.1522 142.235 18.1041 142.109 18.0476 141.988L17.9576 141.808L17.8822 141.62C17.8592 141.557 17.832 141.494 17.8111 141.431L17.7546 141.235C17.7127 141.105 17.6876 140.971 17.6688 140.837C17.5809 140.299 17.6248 139.736 17.786 139.219C17.9471 138.7 18.2129 138.227 18.5268 137.803C18.8428 137.378 19.2048 136.997 19.592 136.65C20.3726 135.959 21.2348 135.383 22.1242 134.875C23.0136 134.364 23.9344 133.914 24.8719 133.506C26.7449 132.69 28.6744 132.023 30.6227 131.437C34.5235 130.26 38.5101 129.428 42.5114 128.733C46.5503 128.266 50.56 127.659 54.601 127.268C58.6358 126.845 62.6831 126.533 66.7346 126.322C68.7603 126.211 70.7882 126.146 72.816 126.092C74.8438 126.058 76.8738 125.952 78.9016 126.132V126.636C76.878 126.816 74.8564 126.755 72.8327 126.814C70.8091 126.851 68.7875 126.925 66.766 127.002C62.7228 127.161 58.6818 127.421 54.6533 127.797C50.629 128.205 46.5964 128.63 42.6432 129.513C38.6608 130.183 34.6993 131.003 30.8173 132.098C28.8794 132.65 26.9625 133.282 25.1084 134.059C24.1813 134.448 23.2731 134.875 22.3983 135.358C21.5236 135.842 20.6927 136.4 19.9477 137.047C19.2216 137.702 18.5665 138.47 18.2798 139.374C18.1396 139.822 18.0999 140.295 18.171 140.758C18.1878 140.875 18.2087 140.99 18.2443 141.101L18.2903 141.272L18.3552 141.438L18.418 141.603L18.4975 141.762C18.5247 141.816 18.5561 141.867 18.5896 141.917C18.6231 141.967 18.667 142.011 18.7089 142.055C19.0834 142.377 19.3304 142.773 19.6862 143.108C20.0294 143.445 20.4019 143.761 20.7974 144.054C21.5884 144.635 22.4506 145.135 23.3379 145.59C25.1167 146.494 27.0023 147.205 28.9129 147.831C30.8257 148.459 32.774 148.978 34.7307 149.463C38.6524 150.415 42.6328 151.142 46.634 151.728L48.1345 151.941C48.6347 152.006 49.1307 152.119 49.6287 152.215C50.1247 152.318 50.629 152.36 51.1313 152.422L52.6401 152.592C54.6512 152.807 56.6665 152.998 58.6839 153.146C62.7207 153.454 66.7639 153.636 70.8091 153.757L76.878 153.9C78.9016 153.948 80.9274 153.983 82.951 153.9C83.9618 153.847 84.9705 153.739 85.9813 153.674C86.9921 153.617 88.0028 153.603 89.0115 153.559C91.0331 153.479 93.0526 153.379 95.072 153.251C99.1089 153.008 103.139 152.667 107.157 152.209C111.173 151.746 115.177 151.163 119.142 150.386C123.104 149.601 127.042 148.647 130.828 147.274C131.774 146.927 132.707 146.55 133.618 146.132C134.53 145.713 135.422 145.251 136.263 144.715C137.102 144.183 137.899 143.576 138.55 142.848C139.199 142.126 139.674 141.235 139.678 140.293H140.181Z" fill="#E7840F"/>
<path fill-rule="evenodd" clip-rule="evenodd" d="M60.5736 128.927C67.2536 128.325 73.9649 128.063 80.6741 128.082C87.3813 128.097 94.0947 128.379 100.779 129.063C102.447 129.239 104.115 129.442 105.778 129.67C106.611 129.792 107.444 129.894 108.271 130.053C109.095 130.214 109.909 130.443 110.728 130.627C112.372 130.968 114.026 131.252 115.673 131.591C117.32 131.926 118.95 132.345 120.561 132.839C122.171 133.331 123.767 133.883 125.312 134.576C126.084 134.923 126.846 135.3 127.578 135.735C128.306 136.172 129.02 136.652 129.654 137.244C129.972 137.537 130.267 137.861 130.523 138.223C130.776 138.583 130.989 138.981 131.117 139.418C131.247 139.854 131.28 140.322 131.205 140.772C131.134 141.224 130.96 141.649 130.732 142.03C130.504 142.413 130.225 142.754 129.92 143.062C129.614 143.371 129.282 143.643 128.959 143.93C128.639 144.217 128.306 144.495 127.94 144.717C127.576 144.941 127.206 145.154 126.827 145.351C125.318 146.144 123.74 146.764 122.143 147.312C120.545 147.854 118.923 148.316 117.29 148.727C115.66 149.143 114.011 149.486 112.36 149.802C110.709 150.116 109.051 150.388 107.39 150.635C106.559 150.761 105.728 150.874 104.895 150.985L103.646 151.142C103.227 151.177 102.817 151.29 102.384 151.186C102.168 151.15 101.961 151.194 101.754 151.215L101.128 151.286L99.8769 151.42C99.044 151.506 98.209 151.587 97.374 151.663C94.0319 151.96 90.6857 152.205 87.3352 152.353C83.9827 152.514 80.6281 152.569 77.2735 152.554C73.9209 152.32 70.5684 152.314 67.218 152.127C63.8675 151.975 60.5192 151.751 57.1792 151.424C55.5092 151.269 53.8434 151.058 52.1776 150.844C51.3468 150.729 50.5139 150.618 49.6852 150.489C48.8544 150.363 48.0299 150.198 47.2179 149.968L47.3058 149.472C48.9821 149.574 50.6186 149.915 52.276 150.129C53.9313 150.357 55.5888 150.562 57.2504 150.746C60.5715 151.125 63.9073 151.399 67.2452 151.598C70.5852 151.765 73.9314 151.954 77.2777 151.763C80.6218 151.799 83.966 151.753 87.3101 151.665C90.6522 151.566 93.9943 151.409 97.328 151.129C98.1609 151.062 98.9938 150.985 99.8267 150.905L101.074 150.78L101.698 150.713C101.905 150.688 102.114 150.683 102.315 150.6C102.713 150.403 103.135 150.409 103.548 150.348L104.791 150.187C105.617 150.076 106.446 149.961 107.27 149.838C110.573 149.344 113.856 148.725 117.096 147.94C118.716 147.546 120.321 147.103 121.899 146.584C123.474 146.058 125.027 145.464 126.492 144.711C126.86 144.524 127.216 144.321 127.568 144.11C127.913 143.892 128.281 143.71 128.625 143.486C128.976 143.275 129.273 142.993 129.558 142.708C129.842 142.421 130.094 142.107 130.295 141.77C130.495 141.434 130.64 141.067 130.698 140.693C130.759 140.316 130.732 139.931 130.623 139.563C130.514 139.196 130.328 138.847 130.096 138.527C129.863 138.207 129.589 137.911 129.288 137.642C128.691 137.093 127.999 136.641 127.289 136.227C126.576 135.817 125.829 135.459 125.069 135.128C123.548 134.473 121.97 133.935 120.375 133.454C118.778 132.981 117.163 132.571 115.543 132.163C113.921 131.765 112.291 131.397 110.636 131.16C109.805 131.049 108.966 131.01 108.137 130.911C107.722 130.863 107.308 130.805 106.896 130.742L105.657 130.566C104.002 130.34 102.344 130.141 100.683 129.968C94.0403 129.248 87.3562 128.867 80.6679 128.775C73.9795 128.693 67.2849 128.892 60.6155 129.428L60.5736 128.927Z" fill="#E7840F"/>
<path fill-rule="evenodd" clip-rule="evenodd" d="M122.246 140.293C122.365 140.906 122.164 141.561 121.844 142.08C121.52 142.605 121.085 143.034 120.62 143.392C119.687 144.106 118.672 144.648 117.634 145.115C116.596 145.579 115.533 145.968 114.459 146.312C113.385 146.655 112.301 146.958 111.211 147.226C109.028 147.758 106.825 148.172 104.613 148.519C103.506 148.693 102.397 148.838 101.285 148.969C100.176 149.105 99.0629 149.214 97.9496 149.31L97.9056 148.93C100.113 148.616 102.315 148.283 104.502 147.873C106.691 147.475 108.867 147.008 111.008 146.435C113.151 145.872 115.269 145.198 117.27 144.305C118.264 143.855 119.226 143.329 120.065 142.683C120.48 142.356 120.856 142.001 121.177 141.616C121.495 141.226 121.735 140.804 121.863 140.293H122.246Z" fill="#E7840F"/>
<path fill-rule="evenodd" clip-rule="evenodd" d="M35.5573 140.293C35.4359 139.849 35.5133 139.36 35.6912 138.939C35.8712 138.514 36.1516 138.154 36.4572 137.843C37.0724 137.215 37.7818 136.744 38.5017 136.323C39.9541 135.486 41.5006 134.906 43.0576 134.392C44.6187 133.891 46.2029 133.485 47.7955 133.144C48.5928 132.973 49.3943 132.824 50.1958 132.684C50.9973 132.54 51.803 132.416 52.6087 132.305L52.6736 132.682C51.0915 133.027 49.5094 133.375 47.9483 133.787C46.385 134.193 44.8322 134.636 43.3171 135.168C41.8019 135.693 40.3098 136.302 38.9475 137.089C38.2736 137.489 37.6207 137.932 37.1038 138.47C36.8464 138.74 36.612 139.019 36.4132 139.314C36.2144 139.611 36.0616 139.923 35.9423 140.293H35.5573Z" fill="#E7840F"/>
<path fill-rule="evenodd" clip-rule="evenodd" d="M58.4789 133.785C62.9531 132.998 67.4797 132.557 72.0104 132.307C76.5432 132.063 81.0886 132.004 85.6277 132.19C86.7619 132.243 87.8962 132.31 89.0304 132.391C89.5955 132.437 90.1647 132.46 90.7276 132.54C91.2906 132.617 91.8472 132.768 92.4081 132.856C93.5319 133.019 94.664 133.103 95.7941 133.218C96.9262 133.32 98.05 133.494 99.1696 133.687C101.411 134.067 103.635 134.559 105.82 135.204C106.911 135.534 107.997 135.89 109.054 136.334C109.317 136.445 109.579 136.562 109.84 136.683C110.1 136.807 110.351 136.947 110.621 137.054C111.178 137.246 111.672 137.575 112.134 137.956C112.594 138.332 113.034 138.791 113.302 139.398C113.431 139.699 113.505 140.042 113.49 140.385C113.48 140.729 113.383 141.061 113.237 141.354C112.944 141.942 112.494 142.384 112.031 142.761C111.561 143.133 111.06 143.447 110.546 143.721C109.518 144.274 108.44 144.69 107.356 145.058C106.268 145.425 105.167 145.732 104.056 145.996C103.502 146.132 102.945 146.255 102.388 146.373L101.551 146.542C101.269 146.586 101.001 146.697 100.693 146.601C100.542 146.569 100.406 146.613 100.266 146.636L99.8477 146.714L99.0085 146.862C98.4497 146.959 97.8889 147.046 97.328 147.132C95.0826 147.467 92.8287 147.76 90.5686 147.971C88.3084 148.193 86.0399 148.325 83.7714 148.409C81.4967 148.269 79.2344 148.384 76.9638 148.346C74.6953 148.338 72.4268 148.287 70.1604 148.174C69.0262 148.122 67.894 148.036 66.7618 147.946C65.6339 147.838 64.4933 147.808 63.3863 147.496L63.4428 146.996C64.5854 146.946 65.6987 147.143 66.8246 147.229C67.9484 147.333 69.0743 147.411 70.2002 147.494C72.454 147.658 74.7121 147.76 76.9722 147.815C79.2302 147.831 81.4946 147.907 83.7463 147.618C86.0044 147.555 88.2582 147.434 90.5121 147.285C92.7638 147.124 95.0135 146.919 97.2506 146.603C97.8094 146.523 98.3681 146.442 98.9248 146.352L99.7598 146.214L100.176 146.14C100.314 146.113 100.457 146.107 100.584 146.023C100.833 145.82 101.12 145.826 101.394 145.757L102.219 145.582C102.769 145.462 103.315 145.337 103.862 145.199C106.032 144.646 108.204 144.01 110.165 143.003C110.652 142.752 111.119 142.466 111.54 142.141C111.956 141.815 112.333 141.438 112.55 141.011C112.772 140.586 112.799 140.124 112.613 139.686C112.431 139.249 112.078 138.851 111.672 138.51C111.469 138.339 111.251 138.18 111.023 138.029C110.795 137.882 110.583 137.703 110.357 137.539C110.131 137.374 109.874 137.263 109.625 137.142C109.372 137.024 109.116 136.911 108.857 136.803C107.825 136.376 106.754 136.024 105.672 135.723C103.504 135.118 101.285 134.695 99.0629 134.323C97.9496 134.143 96.8321 133.986 95.7188 133.8C94.6033 133.624 93.4858 133.454 92.3558 133.396C91.7907 133.373 91.2194 133.423 90.6544 133.404C90.3719 133.402 90.0914 133.375 89.811 133.354L88.9656 133.291C87.8397 133.214 86.7138 133.151 85.5858 133.101C76.5767 132.665 67.488 132.873 58.5626 134.281L58.4789 133.785Z" fill="#E7840F"/>
<path fill-rule="evenodd" clip-rule="evenodd" d="M88.7499 134.794C89.4782 134.641 90.1939 134.676 90.8992 134.771C91.6065 134.858 92.3138 134.959 93.0191 135.068C94.4296 135.285 95.8317 135.566 97.2213 135.907C98.6087 136.261 99.9857 136.679 101.308 137.271C101.97 137.564 102.612 137.922 103.204 138.37C103.495 138.6 103.774 138.86 104 139.176C104.223 139.49 104.383 139.883 104.372 140.293H103.987C103.97 139.99 103.826 139.705 103.623 139.458C103.422 139.209 103.162 138.994 102.888 138.801C102.325 138.424 101.695 138.132 101.051 137.878C99.7576 137.374 98.4016 137.008 97.0329 136.704C95.6643 136.392 94.2768 136.158 92.8852 135.945C92.1883 135.842 91.4893 135.746 90.7903 135.664C90.0914 135.583 89.3945 135.472 88.7123 135.177L88.7499 134.794Z" fill="#E7840F"/>
<path fill-rule="evenodd" clip-rule="evenodd" d="M140.369 34.2362H141.047V0.777344H140.369V34.2362Z" fill="#BBA89B"/>
<path fill-rule="evenodd" clip-rule="evenodd" d="M142.74 35.1525C142.74 36.2763 141.83 37.1845 140.708 37.1845C139.586 37.1845 138.676 36.2763 138.676 35.1525C138.676 34.0308 139.586 33.1226 140.708 33.1226C141.83 33.1226 142.74 34.0308 142.74 35.1525Z" fill="#939598"/>
<path fill-rule="evenodd" clip-rule="evenodd" d="M147.218 11.8234V11.4718H8.47547V6.39491H146.869V11.8234H147.218V11.4718V11.8234H147.57V5.69385H7.77441V12.1729H147.57V11.8234H147.218Z" fill="#929497"/>
<path fill-rule="evenodd" clip-rule="evenodd" d="M147.218 17.6012V17.2497H8.47547V12.1727H146.869V17.6012H147.218V17.2497V17.6012H147.57V11.4717H7.77441V17.9507H147.57V17.6012H147.218Z" fill="#929497"/>
<path fill-rule="evenodd" clip-rule="evenodd" d="M147.218 23.3791V23.0275H8.47547V17.9506H146.869V23.3791H147.218V23.0275V23.3791H147.57V17.2495H7.77441V23.7286H147.57V23.3791H147.218Z" fill="#929497"/>
<path fill-rule="evenodd" clip-rule="evenodd" d="M147.218 29.1574V28.8058H8.47547V23.7289H146.869V29.1574H147.218V28.8058V29.1574H147.57V23.0278H7.77441V29.5069H147.57V29.1574H147.218Z" fill="#929497"/>
<path fill-rule="evenodd" clip-rule="evenodd" d="M147.218 95.8169V95.4486H8.3457V1.19588H146.752V95.8169H147.218V95.4486V95.8169H147.685V0.45752H7.41235V96.1869H147.685V95.8169H147.218Z" fill="#929497"/>
<path fill-rule="evenodd" clip-rule="evenodd" d="M42.75 22.2513C42.9404 27.28 41.5467 32.2147 40.831 37.1953C40.1153 42.176 40.1759 47.5961 42.9341 51.8046C36.0491 52.4345 29.1411 48.7346 25.1398 43.0968C21.1364 37.4569 19.8766 30.1471 20.8853 23.306C21.4545 19.4491 21.1657 13.9369 23.8967 11.1557C26.6842 8.32005 32.9184 8.20704 36.5555 10.4672C40.3748 12.8382 42.5909 18.0114 42.75 22.2513Z" fill="#1D5DC4"/>
<path fill-rule="evenodd" clip-rule="evenodd" d="M22.4799 14.9878C24.9661 13.6359 27.8017 12.9222 30.6059 12.6816C32.8975 12.4849 35.5301 12.5644 37.7212 13.5103C39.23 16.1241 39.6172 19.2318 39.3158 22.1972C39.1379 23.9655 37.8865 30.6455 35.0739 32.7717C31.3719 35.5696 24.5915 28.5569 23.4007 26.1001C21.8605 22.9254 21.2389 20.6067 21.8835 17.1893C22.0237 16.4443 22.233 15.7097 22.4799 14.9878Z" fill="#F6BD96"/>
<path fill-rule="evenodd" clip-rule="evenodd" d="M28.1177 30.9029L19.6778 40.3096L15.6514 33.6987L23.4007 26.1001L28.1177 30.9029Z" fill="#F6BD96"/>
<path fill-rule="evenodd" clip-rule="evenodd" d="M35.2958 29.7895C35.4444 29.7016 35.6264 29.6325 35.8085 29.5467C35.9906 29.4609 36.1747 29.3542 36.3087 29.1721L36.3254 29.1428C36.3463 29.0884 36.3505 29.0382 36.3505 28.9838C36.3505 28.831 36.3087 28.6427 36.2689 28.3978C36.2312 28.1551 36.1915 27.86 36.1915 27.521C36.1915 27.1631 36.2354 26.755 36.3652 26.303C36.4259 26.0895 36.4886 25.897 36.5786 25.7401C36.6707 25.581 36.7858 25.4575 36.9658 25.3676C37.2441 25.2273 37.5664 25.1541 37.8845 25.1541C38.0142 25.1541 38.1461 25.1667 38.2716 25.1918C38.3449 25.2043 38.4139 25.1583 38.4286 25.085C38.4411 25.0118 38.3951 24.9427 38.3219 24.9281C38.1775 24.9009 38.031 24.8862 37.8845 24.8862C37.5266 24.8862 37.1646 24.9678 36.8465 25.1269C36.6163 25.242 36.4572 25.4136 36.3484 25.6061C36.2375 25.7987 36.1705 26.01 36.1078 26.2277C35.9696 26.7069 35.9236 27.1422 35.9236 27.521C35.9236 27.8809 35.9655 28.1906 36.0052 28.4397C36.045 28.6887 36.0827 28.8812 36.0827 28.9838C36.0827 29.0173 36.0785 29.0403 36.0764 29.0445L36.1998 29.0926L36.0931 29.0152C36.0031 29.1386 35.8629 29.2265 35.6955 29.304C35.5281 29.3835 35.3356 29.4525 35.1598 29.5593C35.0949 29.5969 35.0761 29.6785 35.1137 29.7434C35.1514 29.8062 35.233 29.8271 35.2958 29.7895Z" fill="#E7A579"/>
<path fill-rule="evenodd" clip-rule="evenodd" d="M32.8681 25.7695C33.1151 25.9955 33.4436 26.1148 33.7722 26.1148C33.9333 26.1148 34.0924 26.0876 34.243 26.0269C34.3121 25.9997 34.3456 25.9223 34.3184 25.8532C34.2912 25.7841 34.2137 25.7507 34.1447 25.7779C34.0275 25.8239 33.9019 25.8469 33.7722 25.8469C33.5085 25.8469 33.2406 25.7486 33.0502 25.5728C32.9958 25.5226 32.9121 25.5247 32.8618 25.5791C32.8116 25.6335 32.8137 25.7193 32.8681 25.7695Z" fill="#39395C"/>
<path fill-rule="evenodd" clip-rule="evenodd" d="M37.221 26.3532C37.3884 26.5039 37.6081 26.5771 37.8258 26.5771C38.0058 26.5771 38.1857 26.5269 38.3385 26.4201C38.3992 26.3783 38.4138 26.2946 38.3699 26.2339C38.328 26.1732 38.2443 26.1586 38.1836 26.2025C38.0832 26.2737 37.9555 26.3092 37.8258 26.3092C37.6688 26.3092 37.5119 26.2548 37.3989 26.1544C37.3445 26.1041 37.2608 26.1104 37.2105 26.1648C37.1603 26.2192 37.1666 26.305 37.221 26.3532Z" fill="#39395C"/>
<path fill-rule="evenodd" clip-rule="evenodd" d="M32.7844 24.5828C32.9623 24.5138 33.1527 24.4803 33.3453 24.4803C33.6927 24.4803 34.0401 24.5912 34.3121 24.7984C34.3707 24.8423 34.4544 24.8318 34.5004 24.7733C34.5444 24.7126 34.5339 24.6289 34.4732 24.5849C34.151 24.3401 33.7471 24.2124 33.3453 24.2124C33.1213 24.2124 32.8974 24.2522 32.6882 24.3338C32.6191 24.361 32.5835 24.4384 32.6107 24.5075C32.6379 24.5765 32.7154 24.61 32.7844 24.5828Z" fill="#E7A579"/>
<path fill-rule="evenodd" clip-rule="evenodd" d="M36.43 11.0512C38.5834 12.6542 39.8788 13.9454 39.0229 16.396C38.3762 18.2439 28.756 30.9111 17.8153 31.5786C18.4578 30.5762 19.9645 26.9098 19.4476 23.6619C18.9286 20.414 18.8366 16.9568 20.36 13.9873C23.2061 8.44368 31.5121 7.38476 36.43 11.0512Z" fill="#1D5DC4"/>
<path fill-rule="evenodd" clip-rule="evenodd" d="M10.4427 37.9343C7.7075 42.1909 7.77238 47.6215 8.26835 52.6566C9.3461 63.5952 12.0959 74.5317 17.763 83.949C21.0214 89.367 25.1022 93.519 31.6482 93.9689C37.5371 94.3728 43.5097 92.2089 48.2287 88.7664C55.0071 83.8192 59.6843 76.5784 64.2024 69.5071C64.3782 70.1057 64.5791 70.6937 64.8072 71.2734C66.3182 75.0926 68.9969 78.3237 71.9873 81.0861C74.304 83.2249 76.8424 85.1146 79.4667 86.8557C81.8231 88.419 86.7033 89.9718 86.8749 93.2846C86.9084 93.9166 86.7975 94.6113 87.1553 95.1324C87.6053 95.7895 88.5428 95.8293 89.338 95.8021C94.2413 95.4903 99.1152 95.6933 103.993 95.5133C104.207 95.507 104.493 95.417 104.464 95.2057C104.445 95.0738 104.301 95.0006 104.175 94.9504C100.783 93.6131 97.1418 92.504 93.8604 90.7712C89.9826 88.7245 87.7518 85.8638 85.1777 82.4171C79.6341 74.988 74.191 67.4772 68.5888 60.092C62.4571 61.942 56.4447 64.1854 50.5956 66.7992C47.6386 68.1197 37.3801 73.3012 34.6449 74.0316C33.2177 74.0316 32.1672 70.8507 31.9976 69.9382C31.6147 67.8874 31.6231 65.6858 32.0709 63.6454C32.8222 60.2301 36.2982 56.8985 35.8608 53.2572C35.5281 50.4948 32.4622 49.1346 30.1435 47.5985C26.2699 45.0328 23.6728 40.6277 23.3045 35.9965C23.4949 38.3947 16.5555 33.6275 16.4551 33.5899C14.0966 32.6816 11.5958 36.1367 10.4427 37.9343Z" fill="#F6BD96"/>
<path fill-rule="evenodd" clip-rule="evenodd" d="M21.3855 89.5993C24.4932 87.7075 28.3019 85.1251 30.606 82.3083C32.5962 79.8724 33.9376 77.0535 34.6449 74.0316C33.5128 73.3661 32.1441 70.7251 31.9976 69.9382C31.6147 67.8874 31.6231 65.6858 32.0709 63.6454C32.8222 60.2301 36.2982 56.8985 35.8608 53.2572C35.5281 50.4948 32.4622 49.1346 30.1435 47.5985C26.2699 45.0328 24.7171 40.7511 23.4594 36.279C23.608 36.8064 16.5555 33.6275 16.4551 33.5899C14.0966 32.6816 11.5958 36.1367 10.4427 37.9343C7.7075 42.1909 7.77238 47.6215 8.26835 52.6566C9.3461 63.5952 12.0959 74.5317 17.763 83.949C18.9224 85.8784 19.9436 88.1009 21.3855 89.5993Z" fill="#D73B1D"/>
<path fill-rule="evenodd" clip-rule="evenodd" d="M22.5177 87.6886C20.2533 83.8547 18.4264 79.7844 16.6622 75.7036C14.7181 71.2064 12.8828 66.6735 11.7192 61.9042C11.1228 59.4516 10.7524 56.9738 10.4029 54.4793C10.0493 51.9345 9.69768 49.3814 9.76465 46.8074C9.81906 44.7733 9.89858 42.7161 10.0409 40.6862C10.1016 39.8428 10.1811 38.9806 10.3255 38.1289C7.71588 42.3562 7.78075 47.6989 8.26836 52.6565C9.3461 63.5952 12.0959 74.5317 17.763 83.9489C18.9224 85.8784 19.9436 88.1009 21.3855 89.5992C21.9233 89.2728 22.4821 88.9191 23.0492 88.555C22.8713 88.2662 22.6893 87.9816 22.5177 87.6886Z" fill="#C42612"/>
<path fill-rule="evenodd" clip-rule="evenodd" d="M85.1797 82.4169C79.6341 74.9877 74.1909 67.477 68.5887 60.0918C62.457 61.9418 56.4447 64.1851 50.5955 66.7989C47.6385 68.1195 37.38 73.301 34.6449 74.0314C34.4858 74.0314 34.331 73.9874 34.1803 73.9142C33.9166 75.0547 33.5525 76.1701 33.0753 77.2458C31.3007 81.2491 28.2202 84.541 24.7505 87.1464C23.769 87.8851 22.7478 88.5695 21.7014 89.2098C24.2985 91.8801 27.471 93.6799 31.6481 93.9687C37.537 94.3726 43.5096 92.2087 48.2287 88.7662C55.007 83.819 59.6842 76.5782 64.2024 69.5069C64.3782 70.1054 64.5791 70.6935 64.8072 71.2732C66.3181 75.0924 68.9968 78.3235 71.9873 81.0859C74.3039 83.2247 76.8424 85.1144 79.4666 86.8555C79.9187 87.1548 80.4649 87.454 81.0508 87.7659C82.884 86.5228 84.5666 85.0307 85.795 83.233C85.5899 82.9631 85.3869 82.6952 85.1797 82.4169Z" fill="#39395C"/>
<path fill-rule="evenodd" clip-rule="evenodd" d="M48.4589 83.8297C45.753 84.9765 45.0624 87.3204 42.3566 88.4881C42.434 89.1013 42.5344 89.7082 42.6788 90.3088C42.7939 90.7838 42.9383 91.2714 43.1309 91.7339C44.9369 90.9177 46.6529 89.9153 48.2287 88.7664C52.8306 85.4055 59.5712 76.3273 62.8463 71.625C60.0023 74.6825 53.5317 81.6784 48.4589 83.8297Z" fill="#29294F"/>
<path fill-rule="evenodd" clip-rule="evenodd" d="M82.1956 86.3599C78.3366 84.7569 74.9799 82.1787 72.0648 79.2175C70.6166 77.7463 65.8975 73.5881 64.3594 69.9614C64.4996 70.403 64.6377 70.8446 64.8072 71.2736C66.3182 75.0928 68.9968 78.3239 71.9873 81.0863C74.304 83.2251 76.8424 85.1148 79.4667 86.8559C79.9187 87.1552 80.4649 87.4544 81.0509 87.7662C81.6138 87.3854 82.1558 86.9689 82.6811 86.5378C82.52 86.4771 82.3546 86.4248 82.1956 86.3599Z" fill="#29294F"/>
<path fill-rule="evenodd" clip-rule="evenodd" d="M24.6877 91.4281C26.7051 93.797 31.7339 94.7743 33.9898 95.3896C38.688 96.6724 43.5347 97.3672 48.3919 97.6707C56.6916 98.1897 65.0164 97.5911 73.3099 96.9926C73.1571 97.0031 72.6695 97.972 72.5711 98.1248C70.7986 100.877 68.3418 104.526 67.9379 107.85C67.5109 111.353 67.128 114.954 66.971 118.502C66.8287 121.737 67.2326 125.02 67.0045 128.239C66.9103 129.555 66.3809 130.901 65.3178 131.681C64.3468 132.395 62.9342 132.673 62.4529 133.78C62.1536 134.471 62.3357 135.264 62.5198 135.995C62.681 135.995 63.6876 140.437 63.7524 140.868C64.0077 142.543 63.9973 144.311 64.1249 146C64.1584 146.464 64.2024 146.952 64.4535 147.345C64.9725 148.151 68.3522 149.005 68.6201 147.647C68.7373 147.063 68.4045 146.5 68.2057 145.937C67.7056 144.52 68.0551 142.959 68.4129 141.498C69.0344 138.956 69.6644 136.415 70.3298 133.885C71.282 130.271 72.1944 126.588 73.517 123.103C74.8668 119.556 76.2166 116.005 77.4262 112.405C79.8266 105.261 81.7393 97.8088 81.6786 90.2206C81.664 88.2346 81.4966 85.9515 79.9019 84.7628C78.9916 84.0848 77.805 83.932 76.677 83.8001C63.9136 82.3143 51.1396 80.8285 38.3092 80.1065C33.8496 79.8554 31.3677 82.1762 28.1386 85.2148C27.0127 86.2716 24.0411 87.2489 23.8506 88.7808C23.723 89.8188 24.0599 90.6915 24.6877 91.4281Z" fill="#F6BD96"/>
<path fill-rule="evenodd" clip-rule="evenodd" d="M72.5712 98.1248C70.7987 100.877 68.3418 104.526 67.9379 107.85C67.511 111.353 67.128 114.954 66.9711 118.502C66.8999 120.142 66.9669 121.798 67.0234 123.449C68.2979 123.34 69.5786 123.294 70.8593 123.348C71.6943 123.384 72.521 123.482 73.3413 123.61C73.402 123.442 73.4543 123.271 73.5171 123.103C74.8669 119.556 76.2167 116.005 77.4263 112.405C79.8266 105.261 81.7394 97.8088 81.6787 90.2206C81.664 88.2325 81.4966 85.9515 79.902 84.7628C78.9916 84.0848 77.8051 83.932 76.6771 83.8001C63.9136 82.3143 50.6751 80.4769 37.8468 79.7549C33.3851 79.5059 30.6102 81.0127 27.8666 84.497C26.1652 86.6588 21.2285 89.327 21.2285 89.327C23.8235 94.0168 30.087 95.1908 32.3429 95.8061C37.0411 97.0889 43.5348 97.3672 48.392 97.6707C56.6917 98.1897 65.0165 97.5911 73.3099 96.9926C73.1572 97.0031 72.6695 97.972 72.5712 98.1248Z" fill="#39395C"/>
<path fill-rule="evenodd" clip-rule="evenodd" d="M71.5416 38.9409L66.4123 58.0934L48.9633 64.2879L49.8673 66.8389L68.6578 60.1673L74.1554 39.642L71.5416 38.9409Z" fill="#B6B2AF"/>
<path fill-rule="evenodd" clip-rule="evenodd" d="M18.1669 42.0652C23.9741 50.4277 29.162 59.6544 34.9693 68.019C38.6148 65.604 42.2749 63.1932 46.1465 61.1507C47.5653 60.4015 48.8963 59.194 50.3633 58.629C52.2446 57.9049 54.4399 57.7794 56.4322 57.8442C58.9915 57.93 61.5175 58.4197 64.0287 58.9073C61.2684 60.119 58.1649 60.1902 55.1954 60.7238C52.0793 61.2868 49.6392 62.4775 47.7139 64.9867C45.6547 67.6695 42.005 69.7853 39.3389 71.9157C38.1125 72.893 36.8276 73.8996 35.2936 74.2197C32.2634 74.8538 29.4131 72.6607 27.2639 70.4319C22.4841 65.4764 18.3929 59.397 15.2329 53.2842C13.5294 49.9924 12.776 47.5586 12.1838 44.1579C11.4388 39.8699 16.3734 39.4786 18.1669 42.0652Z" fill="#F6BD96"/>
<path fill-rule="evenodd" clip-rule="evenodd" d="M119.389 133.699C118.109 135.133 115.773 135.233 113.898 135.269C112.672 135.287 111.462 135.304 110.246 135.323H110.227C108.811 135.331 107.396 135.342 105.979 135.342C105.557 135.331 105.123 135.331 104.699 135.331C101.472 135.315 98.2508 134.953 95.0218 135.124C93.7515 135.187 92.4624 135.233 91.234 134.898C90.0076 134.574 88.8357 133.827 88.277 132.69C88.2058 132.535 88.1409 132.383 88.0886 132.23C86.8874 128.813 90.6124 125.303 93.9231 125.303C94.9046 125.303 95.8254 125.548 96.6374 125.979C97.5017 126.431 98.5585 126.295 99.2805 125.638C101.101 123.978 104.131 122.616 106.846 122.382C111.437 121.967 114.222 122.572 117.631 125.772C118.705 126.783 119.615 128.009 119.994 129.453C120.373 130.895 120.365 132.6 119.389 133.699Z" fill="#D9DBE2"/>
<path fill-rule="evenodd" clip-rule="evenodd" d="M116.307 124.845C115.244 124.267 114.107 123.819 112.933 123.528C110.709 122.978 108.455 123.005 106.22 123.48C104.328 123.884 102.47 124.485 100.881 125.619C100.055 126.209 99.3391 126.979 98.2906 127.157C97.2066 127.339 96.246 126.868 95.3085 126.389C94.4714 125.96 93.5716 125.665 92.6256 125.627C92.4499 125.619 92.272 125.629 92.0962 125.638C92.6884 125.424 93.3037 125.303 93.9189 125.303C94.9025 125.303 95.8275 125.546 96.6395 125.977C97.5017 126.433 98.5543 126.295 99.2742 125.638C101.103 123.974 104.129 122.618 106.844 122.377C111.265 121.984 114.009 122.534 117.251 125.428C116.943 125.223 116.633 125.022 116.307 124.845Z" fill="#B3B8C9"/>
<path fill-rule="evenodd" clip-rule="evenodd" d="M94.8879 127.111C95.5576 126.073 96.3884 125.142 97.3427 124.359C97.868 125.935 97.6922 127.731 96.8739 129.177L94.8879 127.111Z" fill="#D9DBE2"/>
<path fill-rule="evenodd" clip-rule="evenodd" d="M90.9703 127.199C90.2964 126.335 89.4489 125.567 88.4695 124.926C87.8793 126.278 88.0154 127.797 88.8357 129.005L90.9703 127.199Z" fill="#D9DBE2"/>
<path fill-rule="evenodd" clip-rule="evenodd" d="M92.5147 131.753C92.4122 131.924 92.2426 132.06 92.0648 132.196C91.9978 132.249 91.935 132.293 91.8785 132.301L91.8408 132.305C91.7655 132.307 91.6692 132.257 91.5834 132.194C91.4286 132.081 91.2905 131.947 91.1754 131.797C91.144 131.757 91.0875 131.751 91.0498 131.78C91.01 131.809 91.0017 131.866 91.0331 131.906C91.1586 132.071 91.3093 132.217 91.4788 132.339C91.5751 132.41 91.6964 132.483 91.8408 132.485C91.866 132.485 91.889 132.483 91.912 132.477C92.025 132.456 92.1066 132.391 92.1736 132.339C92.3515 132.201 92.544 132.054 92.6696 131.843C92.6947 131.801 92.68 131.744 92.6361 131.719C92.5942 131.694 92.5398 131.709 92.5147 131.753Z" fill="#3A3942"/>
<path fill-rule="evenodd" clip-rule="evenodd" d="M91.7676 132.41C91.7425 132.538 91.7321 132.665 91.7321 132.795C91.7321 132.885 91.7362 132.975 91.7488 133.065C91.7551 133.113 91.8011 133.149 91.8492 133.142C91.8995 133.136 91.933 133.09 91.9267 133.042C91.9162 132.96 91.9099 132.877 91.9099 132.795C91.9099 132.678 91.9204 132.561 91.9434 132.446C91.9539 132.395 91.9204 132.349 91.8723 132.341C91.8241 132.33 91.776 132.362 91.7676 132.412" fill="#3A3942"/>
<path fill-rule="evenodd" clip-rule="evenodd" d="M89.8424 130.633C89.7608 130.796 89.5724 130.911 89.3883 130.911V130.966L89.3904 130.911H89.3883V130.966L89.3904 130.911H89.3862C89.202 130.914 89.0137 130.798 88.93 130.635C88.909 130.591 88.8546 130.572 88.8107 130.595C88.7667 130.618 88.75 130.673 88.7709 130.717C88.8902 130.943 89.1309 131.089 89.3862 131.091V131.031L89.3841 131.091H89.3862V131.031L89.3841 131.091H89.3883C89.6436 131.089 89.8863 130.941 90.0035 130.715C90.0245 130.669 90.0077 130.616 89.9638 130.593C89.9198 130.57 89.8654 130.589 89.8424 130.633Z" fill="#3A3942"/>
<path fill-rule="evenodd" clip-rule="evenodd" d="M94.8084 130.633C94.7246 130.796 94.5363 130.911 94.3521 130.911V130.968L94.3542 130.911H94.3521V130.968L94.3542 130.911H94.3521C94.168 130.913 93.9796 130.798 93.8959 130.635C93.8729 130.591 93.8185 130.572 93.7746 130.595C93.7306 130.618 93.7139 130.673 93.7369 130.717C93.8541 130.943 94.0968 131.089 94.3521 131.091V131.033L94.3501 131.091H94.3521V131.033L94.3501 131.091H94.3521C94.6095 131.089 94.8502 130.941 94.9674 130.715C94.9904 130.669 94.9737 130.616 94.9297 130.593C94.8858 130.57 94.8314 130.587 94.8084 130.633Z" fill="#3A3942"/>
<path fill-rule="evenodd" clip-rule="evenodd" d="M114.629 128.677C113.953 128.162 113.159 127.821 112.329 127.63C111.309 127.387 110.156 127.387 109.344 128.036C108.604 128.641 108.334 129.704 108.532 130.642C108.74 131.581 109.344 132.383 110.083 132.996C109.87 132.82 109.309 132.81 109.045 132.791C108.666 132.764 108.286 132.787 107.913 132.858C107.172 132.998 106.503 133.276 106.063 133.912C106 134.005 105.942 134.103 105.931 134.214C105.914 134.381 106.013 134.542 106.145 134.647C106.651 135.043 107.361 135.057 107.972 135.133C108.721 135.227 109.474 135.289 110.228 135.323C108.811 135.331 107.396 135.342 105.979 135.342C105.674 135.233 105.393 135.07 105.213 134.808C104.763 134.141 105.241 133.176 105.952 132.824C106.674 132.464 107.513 132.546 108.315 132.628C107.884 132.582 107.494 131.508 107.415 131.175C107.26 130.535 107.369 129.966 107.522 129.352C107.829 128.153 108.947 127.352 110.129 127.053C111.211 126.783 112.391 126.954 113.348 127.532C113.844 127.837 114.258 128.235 114.629 128.677Z" fill="#B3B8C9"/>
<path fill-rule="evenodd" clip-rule="evenodd" d="M91.9308 142.723C91.7174 142.723 91.5018 142.675 91.2967 142.574C90.5873 142.225 90.2943 141.365 90.6459 140.655C92.251 137.397 95.953 136.099 98.8828 135.974C101.174 135.876 103.38 136.319 105.513 136.748C106.178 136.882 106.844 137.016 107.511 137.131C109.549 137.489 112.527 137.826 114.873 136.656C116.688 135.75 118.182 133.423 117.424 131.535C117.131 130.799 117.487 129.964 118.222 129.671C118.958 129.376 119.791 129.731 120.086 130.468C121.488 133.963 119.136 137.732 116.154 139.22C113.051 140.77 109.453 140.381 107.017 139.956C106.327 139.835 105.636 139.697 104.948 139.559C102.89 139.144 100.946 138.761 99.0084 138.837C96.9952 138.925 94.2705 139.785 93.2178 141.923C92.9667 142.43 92.4582 142.723 91.9308 142.723Z" fill="#D9DBE2"/>
<path fill-rule="evenodd" clip-rule="evenodd" d="M131.755 81.8731C132.153 81.5801 132.573 81.3269 133.011 81.1009C132.611 81.3876 132.193 81.6471 131.755 81.8731ZM149.732 67.4438C145.967 69.5868 142.198 71.8532 139.08 74.896C137.533 76.4048 136.123 78.3113 134.48 79.8704C133.883 80.1131 133.293 80.3705 132.724 80.6656C133.454 79.6318 134.036 78.4892 134.576 77.3214C135.777 74.7307 137.058 72.1985 138.385 69.6705C139.657 67.245 140.911 64.8028 141.813 62.212C142.773 59.4455 143.491 56.5994 144.833 53.9793C144.962 53.7303 144.613 53.4101 144.418 53.6591L144.378 53.7135L144.376 53.7156C142.575 56.0281 140.969 58.4807 139.13 60.7702C137.452 62.8608 135.731 64.943 134.352 67.2492C132.942 69.6098 132.038 72.1838 131.358 74.8374C131.077 75.9277 130.784 77.0326 130.56 78.1439C130.583 77.2147 130.514 76.2751 130.508 75.348C130.491 72.7719 130.602 70.112 130.091 67.5715C129.604 65.1418 128.488 62.9068 127.568 60.6258C126.609 58.2422 126.193 55.6953 125.226 53.3222C125.128 53.0815 124.809 53.0627 124.715 53.3201C123.857 55.6974 123.998 58.2149 124.242 60.6906C124.502 63.3421 124.705 65.9936 125.186 68.6157C125.651 71.1626 126.306 73.6717 126.944 76.1809C127.478 78.2841 128.07 80.4982 129.405 82.254C129.78 82.233 130.156 82.2079 130.531 82.1912C131.142 82.164 131.759 82.1514 132.373 82.1242C133.222 81.6303 133.996 81.0151 134.727 80.3308C135.376 80.0713 136.031 79.8285 136.665 79.5627C138.481 78.8031 140.312 78.0288 142.041 77.085C143.807 76.1181 145.419 74.9399 146.672 73.3495C148.02 71.6397 148.962 69.6558 150.092 67.8059C150.232 67.5778 149.958 67.3162 149.732 67.4438Z" fill="#0B7C5C"/>
<path fill-rule="evenodd" clip-rule="evenodd" d="M127.026 81.3079C127.086 81.6281 127.151 81.9441 127.233 82.258C127.44 82.2747 127.649 82.2873 127.859 82.2915C127.787 81.9357 127.685 81.5925 127.553 81.2598C127.453 80.7345 127.363 80.205 127.212 79.6881C126.921 78.692 126.523 77.7189 126.191 76.7353C125.477 74.6259 124.743 72.5185 123.596 70.5995C121.233 66.6484 117.73 63.5428 115.242 59.6776C115.124 59.4976 114.808 59.506 114.758 59.7383C114.377 61.4731 115.129 63.2226 115.88 64.7545C116.891 66.8158 118.065 68.8311 119.239 70.8025C120.455 72.845 121.819 74.7744 123.416 76.5386C124.682 77.9386 126.285 79.483 127.026 81.3079Z" fill="#0B7C5C"/>
<path fill-rule="evenodd" clip-rule="evenodd" d="M125.891 82.0779C126.097 82.1176 126.304 82.1511 126.511 82.1804C124.964 79.4766 122.838 76.8984 120.199 75.2263C118.925 74.4185 117.592 73.9707 116.089 73.8263C114.921 73.7133 113.75 73.7258 112.624 73.3533C111.594 73.0122 110.671 72.4137 109.738 71.878C109.514 71.7503 109.233 72.0098 109.376 72.24C110.92 74.7262 114.084 75.2724 116.533 76.4924C118.349 77.3986 120.061 78.4072 121.727 79.5666C122.577 80.1609 123.479 80.7071 124.301 81.3433C124.755 81.6928 125.274 81.9565 125.837 82.0674L125.891 82.0779Z" fill="#0B7C5C"/>
<path fill-rule="evenodd" clip-rule="evenodd" d="M144.251 60.9836C144.15 61.2263 144.067 61.4733 143.987 61.7223C143.259 63.522 141.807 65.305 140.702 66.7867C139.465 68.4525 138.084 69.9948 136.778 71.6041C135.62 73.0313 134.545 74.5381 133.802 76.2269C133.434 77.0661 133.172 77.9408 132.894 78.8135C132.636 79.6171 132.226 80.3893 132.002 81.2013L131.956 81.2264C131.785 81.3227 131.814 81.511 131.923 81.6198C131.954 81.8793 132.377 81.9463 132.437 81.6449C132.444 81.6115 132.454 81.578 132.463 81.5445C134.118 80.6007 135.729 79.5669 137.085 78.2171C138.515 76.794 139.569 75.0759 140.486 73.2908C141.409 71.4911 142.393 69.662 143.058 67.7472C143.715 65.8596 143.849 63.815 144.466 61.9274C144.571 61.6742 144.667 61.4209 144.743 61.1635C144.826 60.8789 144.364 60.7052 144.251 60.9836Z" fill="#0A8E6D"/>
<path fill-rule="evenodd" clip-rule="evenodd" d="M141.302 67.3349C139.885 69.2037 138.789 71.3068 137.634 73.343C136.713 74.9649 136.098 77.0765 134.476 78.1584C134.195 78.3467 134.459 78.805 134.742 78.6146C136.29 77.5829 137.456 75.6011 138.287 74.0169C139.463 71.7798 140.229 69.6201 141.756 67.6027C141.963 67.3307 141.505 67.067 141.302 67.3349Z" fill="#0B7C5C"/>
<path fill-rule="evenodd" clip-rule="evenodd" d="M127.321 77.2503C125.854 74.7579 123.705 72.9456 121.8 70.8152C120.731 69.6182 119.764 68.3249 118.91 66.9667C118.125 65.7173 117 64.3968 116.464 63.0261L116.437 62.9863L116.416 62.9298C116.296 62.6159 115.786 62.752 115.907 63.0701C116.981 65.9036 118.383 68.7329 120.235 71.1396C122.129 73.6027 124.749 75.3543 126.904 77.5705C127.114 77.786 127.474 77.5119 127.321 77.2503Z" fill="#0A8E6D"/>
<path fill-rule="evenodd" clip-rule="evenodd" d="M128.309 70.4906C127.955 68.7641 127.607 67.0376 127.237 65.3132C126.89 63.6956 126.603 62.0612 126.314 60.433C126.283 60.2614 126.287 60.1149 126.237 59.9433C126.172 59.7278 126.107 59.5122 126.038 59.2988C125.9 58.8719 125.751 58.4471 125.592 58.0264C125.563 57.9469 125.523 57.859 125.442 57.836C125.375 57.8171 125.303 57.8548 125.259 57.9071C125.169 58.018 125.157 58.2022 125.134 58.3382C125.105 58.5182 125.096 58.7003 125.098 58.8802C125.103 59.2297 125.149 59.5771 125.18 59.9245C125.324 61.561 125.456 63.4968 125.804 65.1019C126.222 67.0502 126.544 68.264 126.973 70.2102C127.283 71.6123 128.206 74.5672 128.901 75.8417C129.031 76.0824 129.405 76.7165 129.416 76.4653C129.487 75.0297 128.595 71.8886 128.309 70.4906Z" fill="#0A8E6D"/>
<path fill-rule="evenodd" clip-rule="evenodd" d="M137.931 54.4753C135.677 57.8216 134.386 61.9212 133.532 65.8848C133.643 63.7754 133.687 61.6617 133.754 59.546C133.8 58.1188 133.827 56.679 133.984 55.258C134.139 53.8622 134.386 52.4914 134.346 51.0831C134.336 50.7398 133.84 50.7419 133.819 51.081C133.66 53.6801 132.586 56.0428 131.711 58.4599C130.876 60.764 130.535 63.112 130.205 65.5312C129.849 68.1303 129.556 70.7504 129.55 73.3767C129.543 75.8796 129.711 78.3595 129.514 80.8498C129.332 78.7948 128.256 76.497 127.664 75.0718C126.929 73.3056 126.251 71.6482 125.841 69.7752C125.226 66.9626 124.73 64.1039 123.332 61.5508C123.238 61.3771 122.972 61.3792 122.876 61.5487C122.016 63.0701 122.351 64.9431 122.679 66.5733C123.167 68.9967 123.491 71.3677 123.82 73.8204C124.134 76.1475 124.607 78.4872 125.492 80.672C125.678 81.1324 125.898 81.643 126.17 82.1243C126.837 82.2394 127.513 82.3022 128.193 82.3001C128.903 82.2959 129.608 82.2394 130.316 82.2017C130.661 81.5739 130.968 80.9335 131.232 80.2806C131.217 80.6845 131.22 81.0905 131.245 81.5007C131.251 81.5927 131.295 81.6576 131.356 81.6995C131.199 81.8732 131.031 82.0385 130.847 82.1787C131.134 82.1682 131.42 82.1599 131.705 82.1494C132.283 81.5425 132.749 80.7745 133.095 80.2074C134.329 78.1795 135.129 75.9257 135.773 73.6509C137.523 67.4627 137.902 60.9879 138.423 54.6093C138.444 54.3289 138.065 54.2765 137.931 54.4753Z" fill="#00B580"/>
<path fill-rule="evenodd" clip-rule="evenodd" d="M135.662 95.8502H123.956C123.261 90.7419 122.541 85.6378 121.763 80.542C127.128 80.542 132.492 80.542 137.856 80.542C137.077 85.6378 136.359 90.7419 135.662 95.8502Z" fill="#58595B"/>
<path fill-rule="evenodd" clip-rule="evenodd" d="M137.856 80.542H121.763L122.487 85.2569H137.134L137.856 80.542Z" fill="#414042"/>
<path fill-rule="evenodd" clip-rule="evenodd" d="M138.634 80.542H120.986L121.547 84.2063H138.071L138.634 80.542Z" fill="#6D6E71"/>
<path fill-rule="evenodd" clip-rule="evenodd" d="M137.433 83.4884C137.426 83.4884 137.418 83.4864 137.412 83.4864C137.328 83.4738 137.267 83.3964 137.28 83.3127L137.586 81.0797C137.596 81.0023 137.663 80.9458 137.738 80.9458C137.745 80.9458 137.753 80.9458 137.759 80.9479C137.845 80.9584 137.904 81.0358 137.891 81.1216L137.586 83.3545C137.575 83.4319 137.508 83.4884 137.433 83.4884Z" fill="#B2B2B4"/>
<path fill-rule="evenodd" clip-rule="evenodd" d="M135.152 94.0443C135.145 94.0443 135.139 94.0443 135.133 94.0443C135.049 94.0339 134.989 93.9564 134.999 93.8727L135.939 85.866C135.947 85.7865 136.014 85.73 136.091 85.73C136.096 85.73 136.102 85.73 136.108 85.73C136.194 85.7404 136.255 85.8179 136.244 85.9016L135.305 93.9083C135.296 93.9878 135.229 94.0443 135.152 94.0443Z" fill="#A7A7A8"/>
</svg>
