<svg width="170" height="127" viewBox="0 0 170 127" fill="none" xmlns="http://www.w3.org/2000/svg">
<path fill-rule="evenodd" clip-rule="evenodd" d="M133.466 106.732C133.447 106.734 133.427 106.735 133.407 106.735C133.105 106.731 132.862 106.483 132.866 106.181L133.232 75.2828C133.236 74.9808 133.477 74.7375 133.786 74.7423C134.088 74.7456 134.33 74.9936 134.327 75.2958L133.96 106.194C133.957 106.476 133.741 106.706 133.466 106.732Z" fill="#3A3942"/>
<path fill-rule="evenodd" clip-rule="evenodd" d="M120.374 111.932C120.338 111.932 120.301 111.929 120.264 111.921C119.968 111.86 119.777 111.572 119.838 111.275L127.498 73.7489C127.558 73.4529 127.848 73.263 128.143 73.3224C128.439 73.383 128.63 73.6719 128.57 73.9681L120.909 111.495C120.857 111.754 120.629 111.932 120.374 111.932Z" fill="#3A3942"/>
<path fill-rule="evenodd" clip-rule="evenodd" d="M150.951 111.932C150.696 111.932 150.469 111.754 150.416 111.495L142.756 73.9682C142.695 73.672 142.886 73.3831 143.182 73.3224C143.477 73.2629 143.767 73.453 143.828 73.749L151.488 111.275C151.548 111.572 151.358 111.861 151.062 111.921C151.025 111.929 150.988 111.932 150.951 111.932Z" fill="#3A3942"/>
<path fill-rule="evenodd" clip-rule="evenodd" d="M146.975 72.0339C146.975 74.4449 141.605 76.3989 134.98 76.3989C128.355 76.3989 122.984 74.4449 122.984 72.0339C122.984 69.6232 128.355 67.6689 134.98 67.6689C141.605 67.6689 146.975 69.6232 146.975 72.0339Z" fill="#3A3942"/>
<path fill-rule="evenodd" clip-rule="evenodd" d="M146.563 89.7899H146.064C146.064 89.8227 146.059 89.8553 146.042 89.8981C146.013 89.9767 145.934 90.0926 145.785 90.2231C145.525 90.4529 145.059 90.7105 144.438 90.9407C143.505 91.289 142.226 91.5881 140.728 91.7957C139.229 92.0039 137.509 92.1226 135.682 92.1226C132.714 92.1232 130.025 91.8073 128.114 91.3094C127.16 91.0621 126.4 90.7653 125.918 90.4672C125.677 90.3194 125.508 90.1721 125.414 90.0523C125.367 89.9923 125.339 89.9404 125.322 89.8981C125.306 89.8553 125.301 89.8227 125.3 89.7899C125.301 89.7573 125.306 89.7246 125.322 89.682C125.352 89.6033 125.43 89.4875 125.58 89.3569C125.84 89.1272 126.305 88.8696 126.927 88.6394C127.859 88.2909 129.139 87.992 130.637 87.7844C132.136 87.5762 133.855 87.4575 135.682 87.4575C138.651 87.4568 141.34 87.7728 143.251 88.2707C144.205 88.5179 144.965 88.8148 145.447 89.1128C145.688 89.2606 145.857 89.408 145.95 89.5278C145.997 89.5878 146.026 89.6397 146.042 89.682C146.059 89.7246 146.064 89.7573 146.064 89.7899H147.062C147.063 89.6274 147.03 89.4667 146.972 89.3192C146.863 89.0408 146.674 88.8094 146.442 88.6057C146.033 88.2506 145.477 87.9629 144.787 87.7043C143.753 87.319 142.416 87.0114 140.865 86.7957C139.315 86.5805 137.553 86.4595 135.682 86.4595C132.641 86.4601 129.89 86.7781 127.863 87.3049C126.848 87.57 126.014 87.8834 125.395 88.2628C125.085 88.4538 124.827 88.662 124.63 88.9109C124.532 89.0354 124.45 89.171 124.392 89.3192C124.335 89.4667 124.302 89.6274 124.302 89.7899C124.302 89.9527 124.335 90.1133 124.392 90.2609C124.502 90.5393 124.691 90.7705 124.923 90.9743C125.332 91.3293 125.888 91.617 126.578 91.8758C127.612 92.2609 128.949 92.5685 130.5 92.7843C132.05 92.9994 133.812 93.1206 135.682 93.1206C138.723 93.12 141.475 92.802 143.502 92.2752C144.517 92.0099 145.351 91.6967 145.97 91.3172C146.279 91.1261 146.538 90.9179 146.735 90.6692C146.832 90.5447 146.914 90.4091 146.972 90.2609C147.03 90.1133 147.063 89.9527 147.062 89.7899H146.563Z" fill="#3A3942"/>
<path fill-rule="evenodd" clip-rule="evenodd" d="M139.469 43.0336C139.458 42.9625 139.42 42.9023 139.359 42.8641C139.321 42.8313 139.283 42.8093 139.234 42.7929C139.124 42.7655 139.015 42.7437 138.905 42.7381H138.872C138.314 42.6889 137.734 42.8749 137.176 43.1922C136.18 43.7614 135.272 44.7625 134.736 45.6708C134.665 45.0471 134.583 44.4233 134.484 43.7996C134.386 43.1102 134.265 42.4209 134.134 41.7367C134.118 41.6274 134.096 41.5234 134.074 41.414C133.992 40.9926 133.904 40.5715 133.817 40.1501C133.959 40.0407 134.096 39.9311 134.227 39.8217C135.157 39.0612 135.956 38.2786 136.427 37.0421C136.492 36.8615 136.574 36.621 136.635 36.3692C136.793 35.6962 136.793 34.9411 135.929 34.9903C134.96 35.0505 134.243 36.09 133.756 36.8398L133.724 36.8889C133.559 37.1515 133.395 37.4417 133.248 37.7371C133.023 36.8999 132.783 36.0682 132.52 35.2365C132.323 34.5853 132.104 33.9288 131.88 33.2832C131.858 33.2067 131.83 33.1355 131.803 33.0589C131.82 33.0425 131.836 33.0261 131.858 33.0151C132.115 32.7963 132.416 32.6375 132.657 32.3969C132.859 32.1997 133.034 31.9756 133.176 31.7292C133.259 31.609 133.324 31.4776 133.39 31.3462C133.724 30.6677 133.855 29.9127 133.975 29.1412C134.019 28.802 134.085 28.2001 133.992 27.6803C133.904 27.1659 133.636 26.7556 133.094 26.8158C132.044 26.9416 131.634 28.5338 131.354 29.371C131.201 29.8743 131.07 30.4161 130.966 30.9742C130.134 29.07 129.133 27.2425 127.935 25.5465C128.854 24.9991 129.281 23.4944 129.122 22.4165C129.062 21.979 128.941 21.5412 128.733 21.1362C128.526 20.7369 128.257 20.3483 127.951 19.9871C127.628 19.637 127.262 19.3142 126.879 19.0242C126.501 18.7342 126.063 18.5045 125.653 18.2909C125.429 18.1761 125.226 18.3403 125.259 18.559C125.565 20.2225 125.762 21.8914 126.228 23.3633C125.516 22.5753 124.778 21.8092 123.951 21.1362C123.481 19.8941 122.66 18.7506 121.538 17.9025C120.395 17.1038 118.901 16.6878 117.429 17.0544C117.276 17.0874 117.21 17.2734 117.271 17.4045C117.446 17.7985 117.67 18.1269 117.927 18.4115C118.053 18.5536 118.19 18.6796 118.332 18.7998C118.469 18.9366 118.611 19.0626 118.759 19.1774C119.355 19.6206 120.001 20.0365 120.597 20.3975C120.931 20.6329 121.298 20.7861 121.664 20.9613C122.02 21.1472 122.408 21.295 122.786 21.47C123.131 21.6452 123.486 21.7874 123.831 21.957C124.17 22.1322 124.493 22.3563 124.789 22.6355C125.352 23.2045 125.899 23.79 126.397 24.4248C125.976 24.1676 125.516 23.9596 125.035 23.8338C124.564 23.6968 124.088 23.6148 123.612 23.6478C122.671 23.6914 121.828 24.0744 121.155 24.8623C121.035 25.0047 121.062 25.1633 121.183 25.2289C121.845 25.5573 122.917 25.9131 124.055 26.1536C125.204 26.356 126.414 26.4218 127.377 25.7325L127.431 25.8035L127.475 25.8419C128.761 27.6529 129.806 29.6337 130.676 31.68C130.282 31.297 129.817 30.985 129.511 30.7936C128.903 30.3833 128.263 30.0549 127.585 29.8469C126.917 29.6281 126.2 29.5405 125.473 29.5899C125.292 29.6007 125.177 29.7649 125.199 29.9181C125.303 30.5585 125.615 31.0616 126.102 31.4502C126.173 31.5158 126.249 31.576 126.326 31.6308C126.747 31.9536 127.273 32.1943 127.771 32.4077C127.984 32.4953 128.214 32.5609 128.449 32.6101C129.374 32.8237 130.419 32.8729 131.152 33.502C132.317 34.5307 132.066 36.6374 132.722 37.9723C132.733 37.9997 132.75 38.0217 132.761 38.0489C132.744 38.0217 132.728 37.9887 132.711 37.9615C131.913 36.4732 130.468 35.0997 129.002 34.4923C128.591 34.3174 128.181 34.208 127.782 34.1696C127.645 34.1586 127.481 34.2518 127.459 34.383C127.278 35.7508 128.044 36.8615 129.122 37.8137C129.242 37.9177 129.363 38.0161 129.489 38.1147C129.894 38.4374 130.326 38.7384 130.769 39.0174C130.939 39.1214 131.103 39.2254 131.272 39.3294C131.787 39.6357 132.29 39.9093 132.75 40.1501C132.777 40.1665 132.805 40.1829 132.832 40.1939C132.919 40.2375 133.012 40.2813 133.094 40.3251C133.122 40.3361 133.149 40.3471 133.176 40.3471C133.204 40.3525 133.231 40.3525 133.259 40.3471L133.302 40.3689C133.401 40.834 133.494 41.299 133.581 41.7641C133.587 41.7969 133.592 41.8297 133.598 41.8571C133.74 42.6013 133.866 43.34 133.97 44.0842C134.041 44.5383 134.101 44.9869 134.15 45.441C134.161 45.4958 134.167 45.556 134.172 45.6106C134.139 45.5614 134.112 45.5176 134.079 45.4684C134.003 45.3591 133.926 45.2495 133.844 45.1401C133.724 44.9761 133.592 44.8119 133.45 44.6531C133.072 44.2263 132.64 43.838 132.175 43.5316C131.732 43.2304 131.261 43.0062 130.774 42.8859H130.769C130.424 42.7929 130.069 42.7601 129.718 42.7875C129.598 42.7983 129.511 42.9077 129.5 43.0173C129.489 43.0664 129.494 43.1156 129.521 43.154C129.697 43.4276 129.883 43.712 130.085 44.002C130.824 45.0635 131.743 46.1634 132.908 46.8309C133.061 46.9183 133.215 47.0005 133.379 47.0661L133.428 47.0879C133.538 47.1427 133.652 47.1865 133.773 47.2249L133.789 47.2303C133.871 47.2631 133.953 47.2851 134.036 47.3069C134.139 47.3397 134.249 47.3671 134.358 47.3891C134.419 47.3999 134.457 47.8484 134.479 48.3902V48.3958C134.495 48.713 134.506 49.0578 134.512 49.3751C134.528 49.8621 134.528 50.2725 134.533 50.371V50.453C134.539 50.5076 134.539 50.557 134.539 50.6116C134.544 50.6938 134.544 50.7814 134.544 50.8634C134.55 50.9126 134.55 50.9618 134.55 51.0112C134.561 51.3996 134.566 51.7827 134.566 52.1711C134.566 52.3901 134.566 52.6143 134.561 52.8386C134.566 53.0794 134.561 53.3256 134.555 53.572C134.55 53.7908 134.544 54.0095 134.539 54.2229C134.539 54.2831 134.539 54.3379 134.533 54.3925C134.523 54.8085 134.506 55.2188 134.479 55.6236C134.419 56.6031 134.315 57.5771 134.123 58.54V58.5456C134.085 58.7262 134.047 58.9067 133.997 59.0871C133.992 59.1365 133.975 59.1911 133.964 59.2405C133.932 59.3771 133.893 59.5141 133.866 59.6563C133.937 59.6563 134.008 59.6617 134.079 59.6617H134.2C134.386 59.6671 134.577 59.6727 134.769 59.6671V59.6563C134.812 58.3102 134.927 56.9643 135.01 55.6128C135.02 55.4542 135.031 55.2954 135.037 55.1313C135.053 54.8795 135.064 54.6279 135.075 54.3761C135.086 54.1189 135.097 53.8564 135.103 53.5994C135.103 53.5336 135.108 53.468 135.108 53.4022V53.3476C135.114 53.2052 135.097 52.6911 135.075 52.0125C135.07 51.8319 135.064 51.6459 135.059 51.449V51.3394C135.048 51.0494 135.037 50.7486 135.026 50.4476C135.026 50.382 135.02 50.3162 135.015 50.2451C135.004 49.8403 134.988 49.4299 134.971 49.0524C134.96 48.6528 134.944 48.2808 134.933 47.9744C134.906 47.4601 134.889 47.1263 134.878 47.1263C135.01 47.0989 135.141 47.0717 135.266 47.0333C135.71 46.9183 136.137 46.7377 136.547 46.508C136.782 46.3822 137.007 46.24 137.231 46.0812C137.319 46.021 137.412 45.9498 137.499 45.8842C137.679 45.7474 137.844 45.5942 137.991 45.4357C138.057 45.3701 138.117 45.2989 138.177 45.2223C138.665 44.6423 139.02 43.9638 139.431 43.2688C139.48 43.1868 139.491 43.1102 139.469 43.0336Z" fill="#00B580"/>
<path fill-rule="evenodd" clip-rule="evenodd" d="M160.622 33.2502C159.818 32.1941 158.094 31.9425 156.606 31.9095C155.752 31.8931 154.921 32.0573 154.1 32.276C153.339 32.4676 152.672 32.774 151.878 32.9054C151.101 33.0476 150.324 33.2118 149.564 33.4415C151.151 32.413 152.929 31.1873 152.765 29.6607C152.748 29.5239 152.546 29.4583 152.371 29.5129C151.37 29.8084 150.051 30.4486 149.121 31.2967C148.179 32.1393 147.687 33.1516 148.026 33.9505L147.944 33.9887C147.922 33.9943 147.911 34.0107 147.895 34.0161C146.872 34.4211 145.909 34.9736 144.995 35.5974C144.092 36.2321 143.271 36.9763 142.522 37.7752C142.746 37.31 142.927 36.8011 143.075 36.4837C143.638 35.176 144.251 33.8739 144.541 32.5826C144.579 32.4184 144.415 32.3582 144.218 32.4238C143.386 32.6864 142.708 33.2502 142.226 33.8739C141.74 34.5031 141.45 35.2144 141.285 35.8656C141.028 36.9817 141.499 37.9994 141.203 39.0883C141.012 39.794 140.525 40.4288 140.016 41.0853C139.6 41.6217 139.173 42.1742 138.905 42.7378C138.845 42.8582 138.796 42.9786 138.752 43.099C138.796 42.9786 138.834 42.8638 138.872 42.7378C139.162 41.8459 139.376 40.8721 139.518 39.9308C139.677 38.8639 139.737 37.8354 139.578 37.0419C139.551 36.9271 139.425 36.8613 139.288 36.9489C137.969 37.819 137.318 39.2853 137.149 40.7298C137.028 41.5725 137.067 42.4206 137.176 43.192C137.253 43.7391 137.368 44.2481 137.488 44.6802C137.493 44.7076 137.499 44.735 137.51 44.7568C137.532 44.8388 137.559 44.921 137.576 44.9976C137.592 45.0468 137.625 45.0798 137.658 45.1016L137.669 45.1398C137.515 45.4518 137.368 45.7635 137.231 46.0809C137.061 46.4475 136.897 46.8251 136.744 47.1972C136.383 48.0508 136.054 48.9153 135.759 49.7962C135.748 49.8344 135.732 49.8672 135.721 49.9056C135.721 49.8782 135.715 49.8508 135.715 49.8236C135.693 49.3694 135.655 48.8989 135.584 48.4393C135.546 48.1601 135.496 47.8866 135.431 47.6186C135.403 47.5146 135.376 47.4106 135.349 47.312C135.321 47.219 135.294 47.126 135.266 47.033C135.141 46.6335 134.977 46.2779 134.758 45.9825C134.61 45.7691 134.435 45.5886 134.233 45.4572C134.211 45.4408 134.178 45.4354 134.15 45.4408C134.129 45.4464 134.107 45.4518 134.079 45.4682C133.997 45.512 133.921 45.6104 133.91 45.7143C133.86 46.0317 133.822 46.3655 133.8 46.6993C133.784 46.8745 133.778 47.0494 133.773 47.2246C133.767 47.5036 133.767 47.7882 133.784 48.0618V48.0892C133.806 48.4337 133.844 48.7785 133.904 49.1013C133.997 49.621 134.139 50.1026 134.353 50.5186C134.375 50.5678 134.396 50.6113 134.43 50.6607C134.44 50.6935 134.462 50.7263 134.479 50.7537C134.5 50.7921 134.522 50.8303 134.544 50.8631C134.681 51.0711 134.84 51.2571 135.02 51.4157L135.059 51.4487C135.102 51.4925 135.152 51.5307 135.201 51.5635C135.157 51.7113 135.113 51.8644 135.075 52.0122C135.026 52.1982 134.971 52.3898 134.927 52.5758C134.845 52.8768 134.774 53.1775 134.703 53.4841C134.648 53.7247 134.593 53.9711 134.539 54.2226C134.528 54.2774 134.517 54.3376 134.506 54.3978C134.418 54.8082 134.337 55.2186 134.271 55.6343C134.183 56.1269 134.107 56.6193 134.041 57.1172C133.981 57.555 133.932 57.9927 133.888 58.4359C133.849 58.8407 133.817 59.2456 133.789 59.656H133.866C133.937 59.656 134.008 59.6614 134.079 59.6614H134.2C134.287 58.3099 134.451 56.9586 134.687 55.6179C134.758 55.235 134.829 54.8574 134.905 54.4744C134.911 54.447 134.922 54.4142 134.927 54.3814C134.982 54.1187 135.037 53.8617 135.102 53.5991C135.108 53.5607 135.119 53.5279 135.124 53.4895C135.283 52.8112 135.458 52.1434 135.655 51.4759C136.06 51.5417 136.476 51.5307 136.892 51.4595C137.22 51.4103 137.548 51.3283 137.866 51.2297C138.063 51.1695 138.243 51.0929 138.418 51.0109C139.004 50.7209 139.507 50.3106 140.098 49.9548C140.251 49.8564 140.262 49.6648 140.147 49.55C139.709 49.0795 138.998 48.9537 138.238 49.0903C138.024 49.1287 137.811 49.1835 137.597 49.2601C137.373 49.3364 137.154 49.435 136.946 49.55C136.629 49.714 136.328 49.922 136.071 50.1464C136.169 49.84 136.279 49.539 136.388 49.2381C136.624 48.5705 136.886 47.9084 137.165 47.2574C137.417 46.6391 137.696 46.0317 137.991 45.4354C138.019 45.3698 138.052 45.2986 138.084 45.2328C138.117 45.2274 138.145 45.2274 138.177 45.222C138.96 45.1508 139.682 45.0798 140.421 44.828C140.694 44.735 140.968 44.62 141.253 44.4668C141.559 44.2919 142.073 44.0237 142.287 43.6899C142.429 43.4765 142.445 43.2414 142.21 42.984C141.712 42.4314 140.727 42.6174 140.016 42.8418C139.841 42.8964 139.655 42.9568 139.469 43.0334C139.376 43.0716 139.283 43.11 139.19 43.1538C139.245 43.0552 139.305 42.9622 139.359 42.8638C140.087 41.6271 140.875 40.4124 141.767 39.2907C142.046 39.3401 142.287 39.4877 142.56 39.5425C142.883 39.608 143.222 39.608 143.567 39.5806C144.147 39.5368 144.727 39.3947 145.285 39.2907C145.531 39.2361 145.958 39.1649 146.286 39.0337C146.609 38.9023 146.839 38.6997 146.729 38.3057C146.62 37.9282 146.281 37.693 145.849 37.5562C145.427 37.4304 144.924 37.4194 144.563 37.4414C144.131 37.4632 143.655 37.5342 143.179 37.6876C143.873 36.9873 144.617 36.3415 145.438 35.7944C146.259 35.2526 147.118 34.771 148.032 34.4101C148.158 34.793 148.502 35.0994 148.907 35.3622C149.312 35.6138 149.761 35.7944 150.16 35.9094C151.435 36.2485 152.836 35.9147 154.149 35.4934C154.324 35.4332 154.357 35.2362 154.22 35.1378C153.192 34.3991 151.949 33.7479 150.527 33.6057C151.501 33.3704 152.497 33.201 153.493 33.086C155.774 33.7589 158.083 34.3827 160.529 33.5345C160.655 33.4853 160.693 33.3432 160.622 33.2502Z" fill="#0A8E6D"/>
<path fill-rule="evenodd" clip-rule="evenodd" d="M136.574 45.0086C135.896 44.8772 135.261 45.3094 134.758 45.9825C134.468 46.3655 134.222 46.8307 134.036 47.3066C133.932 47.5692 133.849 47.8318 133.784 48.0892L133.778 48.0946C133.773 48.122 133.767 48.1437 133.762 48.1711C133.652 47.81 133.543 47.449 133.428 47.0876C133.412 47.0386 133.401 46.9948 133.384 46.9454C133.018 45.7909 132.618 44.6528 132.175 43.5313C132.109 43.3451 132.038 43.1592 131.962 42.9786C132.038 42.8692 132.115 42.7542 132.197 42.6448V42.6394C132.657 41.9665 133.045 41.2825 133.176 40.3468C133.198 40.2264 133.209 40.095 133.215 39.9582C133.22 39.9144 133.226 39.8652 133.226 39.816C133.259 39.2907 133.209 38.2512 132.722 37.972L132.711 37.9612C132.635 37.9174 132.547 37.89 132.449 37.89C132.394 37.89 132.339 37.8954 132.279 37.9064C131.721 38.0268 131.447 38.6887 131.272 39.3291C131.223 39.5205 131.179 39.701 131.141 39.8706C131.108 40.0184 131.075 40.1662 131.048 40.3248C131.021 40.4672 130.999 40.6094 130.977 40.7626C130.528 39.8488 130.036 38.9625 129.488 38.1144C129.166 37.6164 128.832 37.1405 128.471 36.6753C128.58 36.4127 128.777 36.2103 128.881 35.9365C129.002 35.6248 129.045 35.2636 129.034 34.8806C129.029 34.7548 129.018 34.6235 129.002 34.4921C128.931 33.9559 128.761 33.3924 128.542 32.8452C128.515 32.774 128.487 32.6974 128.449 32.6098C128.318 32.3034 128.126 31.9041 127.863 31.5813C127.535 31.1653 127.114 30.87 126.704 31.0559C126.468 31.1653 126.359 31.3733 126.326 31.6305C126.299 31.7947 126.304 31.9807 126.321 32.1721C126.375 32.6646 126.523 33.201 126.616 33.5839C126.731 34.0325 126.862 34.5305 127.021 35.012C125.587 33.5729 123.897 32.3636 121.993 31.6251C122.173 31.2639 122.124 30.7934 121.916 30.3118C121.703 29.8466 121.314 29.3817 120.904 29.0697C120.225 28.55 119.311 28.2326 118.381 28.1396C117.446 28.0466 116.494 28.1396 115.667 28.3476C115.437 28.4022 115.399 28.6047 115.558 28.6977C116.784 29.4527 118.069 30.2626 119.372 30.9302C118.337 30.777 117.292 30.7332 116.247 30.7824C115.093 30.3666 113.801 30.1368 112.527 30.2024C111.252 30.2626 110.01 30.6128 108.888 31.3351C108.768 31.4115 108.768 31.5593 108.855 31.6305C109.933 32.4568 111.7 32.2653 113.161 32.1011C114.004 32.0081 114.797 31.7673 115.602 31.5703C116.346 31.3897 117.041 31.1489 117.85 31.1927C118.633 31.2311 119.41 31.3351 120.176 31.4991C119.24 31.5539 118.316 31.8603 117.67 32.3472C117.019 32.8288 116.636 33.5017 116.658 34.2569C116.663 34.3991 116.806 34.4811 116.937 34.4539C117.686 34.2787 118.66 33.9723 119.568 33.6003C120.466 33.2228 121.374 32.7796 121.686 31.9589L121.768 31.9917C121.79 31.9971 121.807 31.9971 121.823 32.0027C123.825 32.7796 125.615 34.0873 127.081 35.674C126.638 35.4224 126.14 35.269 125.828 35.1706C124.559 34.7602 123.295 34.7766 122.299 35.3238C122.173 35.395 122.167 35.5482 122.25 35.6466C122.6 36.0843 123.037 36.3415 123.546 36.5221C124.044 36.7081 124.613 36.8067 125.171 36.8777C126.107 37.0037 127.158 36.6315 128.132 37.1732C128.761 37.5288 129.21 38.2292 129.576 38.9679C129.948 39.712 130.249 40.5 130.681 41.0963C130.063 40.2428 129.221 39.4659 128.334 38.9733C127.453 38.4645 126.545 38.2458 125.823 38.3495C125.713 38.3605 125.62 38.4699 125.653 38.5849C125.954 39.734 126.802 40.5218 127.858 41.2495C128.783 41.8733 129.855 42.4368 130.769 42.8856H130.774C130.906 42.9458 131.032 43.006 131.157 43.0662C131.179 43.0826 131.201 43.0936 131.229 43.099C131.305 43.1318 131.382 43.1702 131.453 43.203C131.502 43.2247 131.546 43.2247 131.584 43.2137L131.623 43.2301C132.093 44.4121 132.52 45.616 132.908 46.8307C133.056 47.2738 133.198 47.7224 133.335 48.1711C133.116 47.8812 132.875 47.602 132.613 47.3394C132.476 47.1916 132.328 47.0494 132.175 46.9237C132.093 46.8471 132.011 46.7813 131.929 46.7157C131.382 46.2779 130.807 45.9605 130.249 45.8403C130.112 45.8129 129.981 45.7965 129.85 45.7965C129.696 45.7855 129.554 45.7965 129.412 45.8293C129.286 45.8567 129.248 46.0809 129.341 46.2013C129.395 46.2779 129.456 46.3545 129.516 46.4311C129.937 46.9948 130.408 47.5856 130.917 48.1163L130.928 48.1273C131.283 48.4939 131.655 48.8333 132.044 49.1123C132.607 49.517 133.204 49.8016 133.822 49.8618C133.888 50.1082 133.953 50.3598 134.019 50.6059C134.047 50.6935 134.068 50.7811 134.09 50.8687C134.21 51.3501 134.331 51.8316 134.44 52.3186C134.484 52.4936 134.522 52.6634 134.561 52.8384C134.61 53.0517 134.659 53.2651 134.703 53.4841C134.769 53.7795 134.834 54.0805 134.889 54.3814C134.9 54.4086 134.905 54.4416 134.905 54.4744C134.955 54.6932 134.998 54.9122 135.037 55.131C135.07 55.2898 135.102 55.4484 135.124 55.6125C135.343 56.7724 135.524 57.9433 135.671 59.1142C135.699 59.3004 135.726 59.4864 135.748 59.678C135.797 59.678 135.847 59.678 135.89 59.6724C135.983 59.678 136.071 59.6724 136.158 59.6724C136.137 59.5028 136.12 59.3386 136.093 59.1744C136.06 58.9009 136.027 58.6273 135.983 58.3537C135.858 57.4346 135.71 56.5153 135.54 55.6069C135.469 55.1966 135.392 54.7808 135.305 54.3758C135.25 54.0749 135.19 53.7851 135.124 53.4895C135.119 53.4567 135.113 53.4293 135.108 53.4019C135.048 53.1229 134.987 52.8494 134.927 52.5758C134.873 52.346 134.818 52.116 134.763 51.8864C134.692 51.5909 134.621 51.3009 134.55 51.0109C134.528 50.9233 134.506 50.8411 134.479 50.7537C134.473 50.7209 134.468 50.6825 134.451 50.6497C134.446 50.6005 134.429 50.5511 134.413 50.502C134.336 50.1846 134.249 49.8672 134.161 49.55C134.282 49.5006 134.402 49.4404 134.511 49.3748C134.676 49.2819 134.823 49.1779 134.971 49.0521C135.19 48.8769 135.398 48.6691 135.584 48.4393C135.688 48.3243 135.781 48.2039 135.868 48.0782C136.049 47.8264 136.191 47.5474 136.306 47.2518C136.399 47.011 136.476 46.7649 136.547 46.5077C136.64 46.1631 136.722 45.8019 136.815 45.4354C136.864 45.2328 136.738 45.0414 136.574 45.0086Z" fill="#0A8E6D"/>
<path fill-rule="evenodd" clip-rule="evenodd" d="M135.163 50.4201C135.119 50.4255 135.07 50.4311 135.026 50.4475C134.862 50.4749 134.697 50.5349 134.539 50.6114C134.506 50.6224 134.479 50.6334 134.451 50.6498L134.429 50.6608C134.314 50.721 134.2 50.7922 134.09 50.8688C133.992 50.9288 133.899 51 133.806 51.0822C133.663 51.1916 133.527 51.3174 133.401 51.4542C132.925 51.9357 132.531 52.5101 132.312 52.9809C131.945 52.0725 131.524 51.1916 131.064 50.3271C131.305 50.0645 131.535 49.8017 131.737 49.5391C131.852 49.397 131.951 49.2546 132.044 49.1124C132.268 48.7676 132.438 48.401 132.536 47.9907C132.564 47.8921 132.585 47.7719 132.602 47.6459C132.618 47.5419 132.624 47.4381 132.613 47.3395C132.602 47.0715 132.498 46.858 132.175 46.9238C132.159 46.9292 132.142 46.9348 132.12 46.9402C132.077 46.9512 132.033 46.9676 131.978 46.9893C131.502 47.2027 131.163 47.6679 130.922 48.1111L130.917 48.1165C130.824 48.2806 130.747 48.4394 130.681 48.5816C130.594 48.7732 130.501 48.9866 130.419 49.2C129.97 48.4666 129.505 47.7499 128.985 47.0659C129.138 46.858 129.346 46.672 129.499 46.4586L129.516 46.4312C129.664 46.2288 129.768 46.0154 129.85 45.7966C129.871 45.7529 129.882 45.7144 129.899 45.6707C130.052 45.2057 130.09 44.7297 130.09 44.2536C130.09 44.188 130.09 44.1004 130.085 44.0018C130.052 43.586 129.91 42.9951 129.499 43.0171C129.423 43.0225 129.341 43.0443 129.248 43.0937C128.586 43.4712 128.493 44.5655 128.383 45.1127C128.329 45.4465 128.279 45.802 128.257 46.1412C127.557 45.3041 126.775 44.5325 125.839 43.9636C126.304 43.3071 126.277 42.2399 125.927 41.6164C125.385 40.5875 124.105 40.2703 123.136 40.4181C122.999 40.4345 122.939 40.6149 122.999 40.7409C123.503 41.6818 124.001 42.6339 124.531 43.3342C124.012 43.1375 123.47 42.9897 122.923 42.8801C121.9 41.7202 120.422 40.987 119.054 41.8188C118.983 41.857 118.956 42.0048 118.994 42.0921C119.41 43.1647 120.34 43.4328 121.101 43.5914C121.538 43.679 121.976 43.608 122.425 43.5478C122.835 43.493 123.245 43.3616 123.656 43.4766C124.055 43.5914 124.444 43.7282 124.816 43.8924C124.285 43.9362 123.722 44.166 123.284 44.5763C122.841 44.9867 122.518 45.5777 122.359 46.3272C122.332 46.464 122.381 46.5626 122.447 46.5462C122.819 46.4696 123.327 46.2288 123.886 45.8676C124.438 45.5011 125.095 45.0361 125.549 44.281L125.593 44.3028L125.62 44.3084C126.578 44.8937 127.393 45.7144 128.121 46.6174C127.836 46.5134 127.491 46.4806 127.289 46.4532C126.441 46.3492 125.571 46.5134 124.75 47.1097C124.646 47.1863 124.586 47.3121 124.602 47.3779C124.695 47.9469 125.423 47.9195 126.26 47.8483C126.961 47.7773 127.913 47.3177 128.591 47.4927C129.488 47.7281 129.505 48.9756 130.112 49.4899C129.226 48.7238 127.65 48.3736 126.403 48.8114C126.31 48.8442 126.206 48.9428 126.206 49.0194C126.195 49.8071 126.791 50.1465 127.606 50.3435C128.422 50.5349 129.477 50.5786 130.32 50.595C130.342 50.6007 130.358 50.6007 130.38 50.6007H130.577C130.621 50.6007 130.659 50.5897 130.692 50.5733H130.725C131.163 51.3886 131.562 52.2201 131.907 53.0739C131.01 52.4993 129.664 52.2037 128.465 52.7127C128.35 52.7619 128.296 52.8987 128.367 52.9425C129.27 53.506 130.583 54.201 132.246 53.9438C132.323 54.1518 132.394 54.3541 132.46 54.5621C132.596 54.9505 132.717 55.3391 132.826 55.733C133.204 57.0133 133.483 58.3264 133.663 59.6507C133.702 59.6507 133.74 59.6561 133.778 59.6561H133.866C133.937 59.6561 134.008 59.6615 134.079 59.6615C134.057 59.4701 134.03 59.2785 133.997 59.087C133.964 58.8682 133.926 58.6494 133.888 58.436C133.817 58.0146 133.729 57.5933 133.631 57.1775C133.521 56.6796 133.39 56.1872 133.248 55.6946C133.138 55.3007 133.012 54.9067 132.881 54.5183C132.788 54.2448 132.695 53.9656 132.591 53.692C132.897 53.5554 133.182 53.3856 133.45 53.1942C133.587 53.1013 133.724 52.9973 133.849 52.8877C134.008 52.7563 134.161 52.6141 134.309 52.4663C134.358 52.4171 134.402 52.3679 134.44 52.3187C134.489 52.2695 134.528 52.2201 134.566 52.1709C134.637 52.0779 134.703 51.9849 134.763 51.8865C134.862 51.7332 134.944 51.5746 135.02 51.4158C135.031 51.3886 135.042 51.3666 135.059 51.3392C135.163 51.1094 135.256 50.8742 135.365 50.6334C135.425 50.4913 135.316 50.4037 135.163 50.4201Z" fill="#0A8E6D"/>
<path fill-rule="evenodd" clip-rule="evenodd" d="M157.777 40.9762C157.06 40.0132 155.791 39.9748 154.729 40.0952C154.116 40.1664 153.558 40.4126 153.011 40.6862C152.502 40.9434 152.075 41.2771 151.523 41.4413C150.986 41.6055 150.45 41.7859 149.925 41.9885C150.937 41.0417 151.977 39.7069 151.599 38.2186C151.567 38.0872 151.408 38.038 151.293 38.0982C150.631 38.4484 149.794 39.1049 149.258 39.9038C148.716 40.7082 148.486 41.6219 148.858 42.4208L148.798 42.448L148.765 42.4698C147.342 43.1102 145.991 43.9307 144.782 44.9266C144.962 44.5929 145.094 44.1935 145.186 43.9419C145.613 42.9514 145.969 41.8791 146.035 40.719C146.046 40.5768 145.909 40.4948 145.772 40.5276C145.17 40.6424 144.7 41.0036 144.361 41.4521C144.005 41.8899 143.802 42.4426 143.693 42.9678C143.496 43.8487 143.928 44.8554 143.676 45.6818C143.501 46.2071 143.107 46.6175 142.637 46.9895C142.21 47.3998 141.712 47.7774 141.51 48.2754C142.095 46.9567 142.484 45.1018 142.287 43.6901C142.287 43.6353 142.276 43.5754 142.265 43.5206C142.243 43.4166 142.134 43.329 142.019 43.3674C141.734 43.4604 141.477 43.5971 141.253 43.7667C141.039 43.9419 140.853 44.1443 140.694 44.3741C140.59 44.5163 140.497 44.6695 140.421 44.8282C140.251 45.1728 140.142 45.556 140.076 45.9497C139.967 46.5135 139.983 47.1099 140.043 47.668C140.098 48.226 140.213 48.7513 140.355 49.2055C140.361 49.2275 140.366 49.2493 140.377 49.2711C140.399 49.3367 140.415 49.4079 140.437 49.4737C140.454 49.5173 140.481 49.5503 140.514 49.5721L140.525 49.6105C139.814 50.6172 139.19 51.6787 138.599 52.7512C138.604 52.1984 138.555 51.5967 138.418 51.0111C138.396 50.9071 138.369 50.8088 138.336 50.7048C138.183 50.163 137.948 49.6543 137.597 49.2603C137.515 49.1671 137.428 49.0851 137.335 49.0085C137.236 48.9263 137.056 49.0029 137.029 49.1289C136.996 49.2657 136.968 49.4079 136.946 49.5503C136.842 50.163 136.821 50.8306 136.892 51.4597C136.897 51.5309 136.903 51.5967 136.914 51.6621C137.056 52.5048 137.384 53.2817 138.024 53.8455C137.926 54.0423 137.822 54.2449 137.729 54.4473C137.532 54.8466 137.34 55.2516 137.154 55.662C136.744 56.5485 136.355 57.4512 135.983 58.3539C135.879 58.6057 135.775 58.8629 135.671 59.1145C135.595 59.3007 135.524 59.492 135.447 59.6782H135.748C135.797 59.6782 135.847 59.6782 135.89 59.6726C135.956 59.5084 136.027 59.3389 136.093 59.1747C136.563 58.0038 137.061 56.8383 137.592 55.6894C137.778 55.2844 137.969 54.885 138.167 54.4857C138.26 54.2887 138.358 54.0917 138.457 53.8947C139.135 54.1737 139.863 54.2667 140.568 54.2777C141.368 54.2887 141.997 54.0423 142.713 53.8783C142.861 53.8455 142.872 53.7031 142.774 53.5881C141.986 52.6526 140.103 52.5268 138.922 53.0192C139.529 51.9085 140.169 50.8142 140.902 49.7854C141.904 49.9714 142.817 50.174 143.769 50.0098C144.218 49.9168 145.143 49.8182 144.59 49.1235C144.147 48.5487 143.283 48.4175 142.642 48.4011C142.407 48.3901 142.15 48.4011 141.904 48.4339C142.248 48.0018 142.62 47.5858 142.987 47.1754C143.381 46.7815 143.742 46.3603 144.163 46.0045C144.404 46.1249 144.612 46.3109 144.847 46.4369C145.126 46.5791 145.411 46.6721 145.695 46.7377C146.182 46.8473 146.68 46.9019 147.135 46.9349C147.545 46.9403 148.53 47.1316 148.289 46.3603C148.081 45.6216 147.069 45.266 146.462 45.1346C146.1 45.047 145.723 45.0142 145.329 45.0252C145.871 44.5765 146.472 44.2099 147.058 43.8215C147.66 43.4604 148.289 43.143 148.924 42.8474C149.225 43.6025 150.133 44.1661 150.751 44.3849C151.769 44.7406 152.748 44.3631 153.607 43.8433C153.722 43.7777 153.706 43.5807 153.596 43.4932C152.732 42.8474 151.725 42.2838 150.658 42.1581C151.337 41.9229 152.021 41.7149 152.715 41.5343C154.472 42.0377 156.179 42.3714 157.755 41.2661C157.837 41.2059 157.837 41.0584 157.777 40.9762Z" fill="#0B7C5C"/>
<path fill-rule="evenodd" clip-rule="evenodd" d="M138.26 24.6269C140.016 23.0674 141.652 21.4972 142.292 19.1334C142.325 19.0076 142.226 18.8926 142.117 18.8926C140.815 18.9036 139.617 20.1895 138.84 21.426C138.385 22.1319 138.101 22.9089 137.877 23.7022C137.652 24.4299 137.581 25.1413 137.264 25.858C136.974 26.5638 136.695 27.2751 136.438 27.9918C136.487 27.0781 136.465 26.1152 136.246 25.2835C136.049 24.4571 135.66 23.7624 134.966 23.4396C134.84 23.3794 134.687 23.5052 134.643 23.6804C134.386 24.6269 134.254 25.962 134.44 27.1109C134.61 28.2546 135.102 29.2065 135.934 29.4639L135.907 29.5459L135.901 29.5951C135.266 31.6031 134.779 33.655 134.402 35.7232C134.331 35.2252 134.194 34.7329 134.118 34.4101C133.893 33.4526 133.609 32.5389 133.176 31.7289C133.018 31.4226 132.837 31.1326 132.635 30.8646C132.542 30.7442 132.383 30.7988 132.301 30.9466C131.924 31.6087 131.809 32.3255 131.858 33.0148C131.863 33.1078 131.869 33.1954 131.88 33.283C131.951 33.8356 132.11 34.3719 132.312 34.8423C132.372 34.9791 132.443 35.1105 132.52 35.2362C132.881 35.8164 133.395 36.2814 133.724 36.8887C133.822 37.0637 133.904 37.2499 133.959 37.4523C134.32 38.7656 133.494 40.4616 133.598 41.8569C133.603 41.8953 133.603 41.9335 133.609 41.9719C133.603 41.9007 133.592 41.8351 133.581 41.7639C133.505 41.173 133.384 40.5602 133.215 39.9583C133.018 39.2197 132.761 38.5084 132.449 37.89C132.175 37.3483 131.863 36.8833 131.519 36.5331C131.442 36.4509 131.3 36.4619 131.229 36.5877C130.807 37.3483 130.692 38.1854 130.769 39.0171C130.813 39.4549 130.911 39.8981 131.048 40.3248C131.075 40.4124 131.103 40.5 131.136 40.5874C131.404 41.3315 131.781 42.0267 132.197 42.6394V42.6448C132.498 43.1044 132.821 43.5204 133.116 43.8705C133.133 43.8923 133.149 43.9143 133.165 43.9305C133.22 43.9909 133.275 44.0565 133.33 44.1113C133.362 44.1549 133.401 44.1659 133.439 44.1715L133.472 44.2043C133.466 44.3519 133.455 44.5051 133.45 44.6529C133.417 45.4134 133.395 46.1796 133.384 46.9455C133.384 46.9839 133.379 47.0277 133.379 47.0659C133.368 47.7718 133.368 48.4776 133.368 49.1835C133.16 48.6635 132.903 48.133 132.602 47.6458C132.454 47.3943 132.296 47.1535 132.121 46.9401C132.06 46.8635 132 46.7869 131.929 46.7157C131.486 46.2069 130.977 45.8404 130.419 45.7308C130.353 45.72 130.293 45.7692 130.249 45.8404C130.216 45.906 130.2 45.9934 130.216 46.0646C130.391 46.7375 130.621 47.449 130.922 48.111L130.928 48.1274C131.157 48.6417 131.426 49.1233 131.737 49.5391C132.192 50.1572 132.739 50.6334 133.384 50.8524C133.39 51.0548 133.39 51.2515 133.401 51.4541C133.412 52.0341 133.428 52.614 133.45 53.1942C133.461 53.6153 133.477 54.0367 133.499 54.4525C133.516 54.8574 133.532 55.2678 133.554 55.6728C133.576 56.1761 133.603 56.6739 133.631 57.1774C133.68 58.0036 133.729 58.8299 133.778 59.656H133.866C133.937 59.656 134.008 59.6614 134.079 59.6614H134.189C134.167 59.2895 134.145 58.9173 134.123 58.5453V58.5397C134.09 58.0638 134.063 57.5932 134.041 57.1173C134.014 56.6247 133.986 56.1323 133.964 55.6454C133.943 55.235 133.926 54.83 133.91 54.4251C133.888 53.9109 133.866 53.402 133.849 52.8876C133.833 52.2859 133.817 51.6839 133.806 51.0821C133.8 50.9344 133.795 50.7922 133.795 50.6444C133.871 50.6334 133.948 50.6224 134.019 50.606C134.134 50.5842 134.243 50.5568 134.353 50.5186C134.369 50.513 134.391 50.5074 134.413 50.502C134.451 50.4856 134.495 50.4748 134.533 50.4528C134.698 50.3982 134.856 50.327 135.015 50.2448C135.256 50.1244 135.491 49.9822 135.715 49.8237L135.759 49.7963C135.781 49.7799 135.808 49.7635 135.83 49.7469C136.038 49.5939 136.224 49.4241 136.388 49.2381C136.799 48.7949 137.132 48.2806 137.51 47.7662C137.619 47.6186 137.565 47.4324 137.422 47.3559C137.34 47.3121 137.253 47.2793 137.165 47.2575C137.029 47.2137 136.892 47.1973 136.744 47.1973C136.602 47.1973 136.454 47.2137 136.306 47.2519C136.016 47.3177 135.721 47.4491 135.431 47.6186C135.261 47.7224 135.091 47.8428 134.933 47.9742C134.774 48.1 134.621 48.2422 134.479 48.39V48.3956C134.254 48.6143 134.063 48.8551 133.904 49.1013C133.855 49.1615 133.817 49.2273 133.778 49.2929V48.0946L133.784 48.0892V48.0618C133.784 47.7882 133.784 47.509 133.789 47.2301C133.789 47.0549 133.795 46.8799 133.8 46.6993C133.806 46.1796 133.822 45.6596 133.844 45.1398C133.855 44.8061 133.871 44.4669 133.888 44.1277C133.915 44.1113 133.943 44.0947 133.97 44.0839C134.145 43.9855 134.315 43.8923 134.484 43.7993C135.212 43.389 135.885 42.9348 136.454 42.1525C136.804 41.6817 137.504 40.708 136.673 40.3906C135.989 40.128 135.174 40.7244 134.637 41.2224C134.468 41.3753 134.293 41.5451 134.134 41.7365C134.096 41.7693 134.068 41.8077 134.036 41.8405C134.047 41.6983 134.057 41.5559 134.074 41.4137C134.112 40.883 134.167 40.3522 134.227 39.8215C134.315 38.9953 134.424 38.1746 134.55 37.3539C134.818 37.2609 135.097 37.2663 135.36 37.1787C135.677 37.0749 135.962 36.8997 136.246 36.6917C136.383 36.5933 136.509 36.4837 136.635 36.369C136.952 36.0844 137.242 35.7562 137.537 35.4332C137.723 35.2308 138.035 34.8861 138.221 34.5305C138.413 34.1803 138.473 33.8192 138.139 33.5676C137.499 33.086 136.438 33.8466 135.885 34.3171C135.557 34.5961 135.206 34.9245 134.894 35.3074C135.256 33.4252 135.715 31.5649 136.284 29.7373C137.039 30.0383 138.145 29.5021 138.779 28.966C139.83 28.074 140.355 26.6513 140.651 25.3273C140.694 25.1523 140.541 25.0263 140.388 25.0865C139.217 25.5626 138.03 26.2738 137.116 27.3299C137.291 26.8701 137.482 26.4216 137.663 25.9674L138.26 24.6269Z" fill="#0B7C5C"/>
<path fill-rule="evenodd" clip-rule="evenodd" d="M140.926 72.5144C137.302 73.5772 132.568 73.5772 128.944 72.5146C128.231 67.2861 127.496 62.0608 126.699 56.8447C132.189 56.8447 137.68 56.8447 143.171 56.8447C142.374 62.0608 141.638 67.2861 140.926 72.5144Z" fill="#BBBDBF"/>
<path fill-rule="evenodd" clip-rule="evenodd" d="M143.171 56.8447H126.699L127.439 61.672H142.431L143.171 56.8447Z" fill="#929497"/>
<path fill-rule="evenodd" clip-rule="evenodd" d="M143.967 56.8447H125.903L126.478 60.5966H143.392L143.967 56.8447Z" fill="#D0D2D3"/>
<path fill-rule="evenodd" clip-rule="evenodd" d="M142.738 59.8606C142.731 59.8606 142.724 59.86 142.717 59.8592C142.63 59.8473 142.57 59.7676 142.582 59.6815L142.895 57.3947C142.906 57.3154 142.974 57.2583 143.051 57.2583C143.058 57.2583 143.066 57.2587 143.073 57.2598C143.159 57.2714 143.22 57.3511 143.208 57.4374L142.894 59.7242C142.884 59.8033 142.816 59.8606 142.738 59.8606Z" fill="#EEEFEF"/>
<path fill-rule="evenodd" clip-rule="evenodd" d="M140.403 70.6669C140.397 70.6669 140.391 70.6665 140.384 70.6659C140.298 70.6557 140.236 70.5772 140.246 70.4909L141.208 62.2948C141.217 62.2144 141.285 62.1553 141.364 62.1553C141.37 62.1553 141.377 62.1557 141.383 62.1563C141.469 62.1667 141.531 62.2449 141.521 62.3315L140.56 70.5274C140.55 70.6077 140.482 70.6669 140.403 70.6669Z" fill="#DBDCDD"/>
<path fill-rule="evenodd" clip-rule="evenodd" d="M1.69211 55.6124L1.48413 55.9485C1.9962 56.2656 2.56744 56.4178 3.12954 56.4176C4.17714 56.4182 5.20275 55.8904 5.79495 54.9337L5.79619 54.9318L35.9671 4.77578L35.6284 4.57215L35.9647 4.78013C36.2816 4.26785 36.4338 3.69683 36.4338 3.13452C36.4342 2.08712 35.9065 1.06131 34.9498 0.469109C34.4376 0.151942 33.8663 -0.00020702 33.3042 5.50334e-07C32.2566 -0.00062216 31.2308 0.527229 30.6386 1.48392L30.6369 1.48662L0.466618 51.6418L0.805165 51.8454L0.469109 51.6374C0.151942 52.1495 -0.00020702 52.7208 5.50334e-07 53.2829C-0.00062216 54.3305 0.527229 55.3563 1.48413 55.9485L1.9001 55.2764C1.18377 54.833 0.791051 54.0681 0.790635 53.2829C0.790635 52.8623 0.903139 52.4385 1.14122 52.0534L1.14267 52.0513L31.3134 1.89574L30.9749 1.69191L31.3109 1.89989C31.7541 1.18357 32.519 0.791051 33.3042 0.790428C33.725 0.790635 34.1488 0.903139 34.5337 1.14122C35.25 1.58438 35.6425 2.34928 35.6431 3.13452C35.6429 3.55526 35.5304 3.97912 35.2923 4.36416L35.2911 4.36624L5.12034 54.5218L5.45889 54.7257L5.12283 54.5177C4.67967 55.2338 3.91477 55.6265 3.12954 55.6269C2.70879 55.6269 2.28514 55.5144 1.9001 55.2764L1.69211 55.6124Z" fill="#A6A8AB"/>
<path fill-rule="evenodd" clip-rule="evenodd" d="M20.2211 124.074H20.6165V124.074H20.2211L20.3363 124.452C21.0105 124.247 21.5678 123.832 21.9537 123.303C22.3397 122.774 22.5573 122.129 22.5573 121.456C22.5573 121.154 22.5133 120.847 22.4211 120.544L22.0429 120.659L22.4271 120.567L6.13204 52.9544L6.12851 52.9432C5.92364 52.269 5.50933 51.7117 4.98023 51.3258C4.45093 50.9397 3.80559 50.7222 3.13348 50.7222C2.83147 50.7222 2.52405 50.7662 2.22121 50.8583C1.54702 51.0632 0.989487 51.4777 0.603822 52.0068C0.217741 52.5359 0.00020757 53.1813 0 53.8536C0 54.1556 0.0442125 54.463 0.136374 54.7658L0.514359 54.6508L0.130147 54.7434L16.4254 122.356L16.4288 122.367C16.6336 123.041 17.0479 123.598 17.5773 123.984C18.1063 124.37 18.7517 124.588 19.424 124.588C19.726 124.588 20.0332 124.544 20.3361 124.452L20.6165 124.367V124.074H20.2211L20.1063 123.696C19.8784 123.765 19.6492 123.797 19.424 123.797C18.9231 123.798 18.4395 123.635 18.0432 123.346C17.6468 123.056 17.3392 122.643 17.1849 122.137L16.807 122.252L17.1912 122.159L0.896081 54.5469L0.892552 54.5359C0.823223 54.3079 0.790635 54.0788 0.790635 53.8536C0.790427 53.3527 0.953162 52.8691 1.24231 52.4728C1.53187 52.0766 1.94493 51.7689 2.4512 51.6147C2.67911 51.5454 2.90806 51.5126 3.13348 51.5126C3.63435 51.5126 4.11799 51.6753 4.51424 51.9645C4.91049 52.254 5.21811 52.6671 5.37233 53.1734L5.75052 53.0584L5.36611 53.1509L21.6614 120.763L21.6649 120.774C21.7341 121.002 21.7668 121.231 21.7668 121.456C21.7668 121.957 21.6043 122.441 21.315 122.837C21.0256 123.233 20.6123 123.541 20.1061 123.695L19.8259 123.781V124.074H20.2211L20.1063 123.696L20.2211 124.074Z" fill="#A6A8AB"/>
<path fill-rule="evenodd" clip-rule="evenodd" d="M1.08057 123.402C1.08057 124.869 9.69805 126.057 20.3283 126.057C30.9586 126.057 39.5763 124.869 39.5763 123.402C39.5763 121.936 30.9586 120.748 20.3283 120.748C9.69805 120.748 1.08057 121.936 1.08057 123.402Z" fill="#A6A8AB"/>
<path fill-rule="evenodd" clip-rule="evenodd" d="M36.0385 4.61367H44.268C44.4864 4.61367 44.6632 4.43682 44.6632 4.21846C44.6632 4.00009 44.4864 3.82324 44.268 3.82324H36.0385C35.8201 3.82324 35.6431 4.00009 35.6431 4.21846C35.6431 4.43682 35.8201 4.61367 36.0385 4.61367Z" fill="#A6A8AB"/>
<path fill-rule="evenodd" clip-rule="evenodd" d="M44.5853 12.3754L50.0983 8.81699L47.2839 4.45656C46.3013 2.93424 44.2706 2.49669 42.7481 3.47932C41.2257 4.46175 40.7882 6.49262 41.7708 8.01515L44.5853 12.3754Z" fill="#3A3942"/>
<path fill-rule="evenodd" clip-rule="evenodd" d="M45.419 7.6171C51.7144 3.55371 60.0762 5.2753 64.2724 11.4312L52.0696 19.3075L45.2787 7.71778C45.3271 7.68581 45.37 7.64865 45.419 7.6171Z" fill="#808184"/>
<path fill-rule="evenodd" clip-rule="evenodd" d="M45.2788 7.71777L52.0696 19.3075L41.1303 26.3682C37.2792 20.0584 39.1006 11.815 45.2788 7.71777Z" fill="#181733"/>
<path fill-rule="evenodd" clip-rule="evenodd" d="M45.1239 7.80764C50.3059 4.46286 57.7625 6.76875 61.9309 12.9425L42.8813 25.2379C38.9722 18.8969 39.9417 11.1524 45.1239 7.80764Z" fill="#3A3942"/>
<path fill-rule="evenodd" clip-rule="evenodd" d="M30.9226 3.27536H30.5273C30.5276 4.92077 31.861 6.25441 33.5066 6.25462C35.1522 6.25441 36.4856 4.92077 36.4859 3.27536C36.4856 1.62974 35.1522 0.296314 33.5066 0.295898C31.861 0.296106 30.5276 1.62974 30.5273 3.27536H31.3178C31.318 2.66967 31.5623 2.1248 31.959 1.72751C32.3562 1.33084 32.9009 1.08653 33.5066 1.08653C34.1123 1.08653 34.657 1.33084 35.0542 1.72751C35.4511 2.1248 35.6952 2.66967 35.6954 3.27536C35.6952 3.88105 35.4511 4.42572 35.0542 4.823C34.657 5.21967 34.1123 5.46398 33.5066 5.46419C32.9009 5.46398 32.3562 5.21967 31.959 4.823C31.5623 4.42572 31.318 3.88105 31.3178 3.27536H30.9226Z" fill="#A6A8AB"/>
<path fill-rule="evenodd" clip-rule="evenodd" d="M6.10531 53.2322L31.3297 1.86609L30.62 1.51758L5.39563 52.8837" fill="#A6A8AB"/>
<path fill-rule="evenodd" clip-rule="evenodd" d="M92.014 63.4355C91.0586 66.262 84.4782 81.0985 82.4795 83.0221C83.9126 84.7007 85.3456 86.3795 86.7785 88.0584C88.9295 86.6506 93.3348 70.7657 94.0189 65.3232L92.014 63.4355Z" fill="#F6BD96"/>
<path fill-rule="evenodd" clip-rule="evenodd" d="M95.7272 59.8699C96.5618 59.4807 97.4755 59.252 98.3967 59.2225C98.7648 59.2107 99.134 59.231 99.4979 59.2864C99.6795 59.3142 100.409 59.4384 100.292 59.6248C100.23 59.7234 100.139 59.758 100.035 59.7945C99.5384 59.9677 99.0433 60.1439 98.5493 60.3232C98.1541 60.4667 97.7595 60.6122 97.3657 60.7597C97.2318 60.8098 97.6682 61.0769 97.6873 61.0931C97.8695 61.2467 98.0042 61.4539 98.0928 61.6735C98.2685 62.1081 98.2664 62.616 98.1078 63.0551C97.8519 63.7637 97.2605 64.3038 96.6162 64.6942C95.6192 65.2981 94.4465 65.6078 93.2814 65.5748C92.7095 65.5586 92.0833 64.8844 91.9517 64.348C91.818 63.8034 92.0432 63.2471 92.3253 62.789C92.9951 61.7025 94.0969 60.8245 95.1773 60.17C95.3558 60.0619 95.5379 59.9583 95.7272 59.8699Z" fill="#F6BD96"/>
<path fill-rule="evenodd" clip-rule="evenodd" d="M106.714 68.3382L100.195 68.444C99.8399 68.4496 99.5785 68.1117 99.6738 67.769L103.071 55.5431C103.134 55.3156 103.34 55.157 103.576 55.1531L110.094 55.0474C110.45 55.0416 110.711 55.3795 110.616 55.7225L107.219 67.9481C107.155 68.1756 106.95 68.3342 106.714 68.3382Z" fill="#091A4C"/>
<path fill-rule="evenodd" clip-rule="evenodd" d="M136.729 114.805C135.581 117.517 133.868 119.593 131.781 121.169C124.494 126.699 112.632 126.189 104.158 125.87C87.4466 125.239 70.4773 123.503 54.6887 117.671C46.466 114.634 39.8817 108.391 37.6702 99.7455C35.899 92.8205 36.7029 85.4846 38.2917 78.5156C39.7279 72.2161 41.8214 66.0052 45.2019 60.4992C49.553 53.4115 58.4248 43.9946 67.6274 46.2783C71.4622 47.23 74.5532 50.0692 77.01 53.1638C79.9259 56.837 82.2034 61.0158 83.7097 65.4572C85.1841 69.8047 85.965 74.4842 88.4865 78.3205C91.4786 82.8721 96.5708 85.5056 101.8 86.564C107.528 87.7232 113.24 86.2034 119.013 87.2747C125.169 88.4169 131.001 91.7833 134.56 96.9344C138.124 102.086 139.178 109.044 136.729 114.805Z" fill="#FFA82F"/>
<path fill-rule="evenodd" clip-rule="evenodd" d="M78.6454 71.0822C78.7899 76.1112 79.9814 81.2675 83.6944 84.881C86.508 87.6193 90.2756 89.1491 94.108 89.7766C100.033 90.7468 106.77 89.8131 112.229 86.8947C108.747 86.9868 105.277 87.2679 101.8 86.5642C96.5708 85.5058 91.4787 82.8724 88.4866 78.3206C85.965 74.4845 85.1841 69.8048 83.7097 65.4575C82.7005 62.4819 81.3175 59.6418 79.6561 56.9751C79.2229 61.6724 78.5097 66.3529 78.6454 71.0822Z" fill="#EE8D1B"/>
<path fill-rule="evenodd" clip-rule="evenodd" d="M109.449 124.714C104.931 124.111 100.451 123.23 95.9693 122.405C91.3444 121.555 86.7266 120.655 82.1509 119.567C74.6755 117.789 67.2538 115.515 60.3484 112.103C54.4443 109.185 48.8872 105.403 44.4763 100.474C41.0697 96.6675 38.4983 92.2498 36.8523 87.4653C36.4998 91.5962 36.6457 95.7393 37.6703 99.7454C39.8818 108.391 46.4661 114.634 54.6888 117.671C70.4772 123.503 87.4467 125.239 104.158 125.87C108.562 126.036 113.879 126.245 118.996 125.64C115.805 125.432 112.619 125.137 109.449 124.714Z" fill="#EE8D1B"/>
<path fill-rule="evenodd" clip-rule="evenodd" d="M72.4079 86.6228C67.8997 80.4455 64.9248 73.1577 63.8224 65.5901C63.5322 63.5983 63.3477 61.5199 62.3368 59.7792C60.5494 56.7016 56.375 56.5685 56.8312 60.679C57.2044 64.0388 58.5267 67.5149 59.9203 70.57C61.3621 73.7315 63.1897 76.7161 65.3341 79.4492C67.3816 82.0584 70.5134 84.027 72.4079 86.6228Z" fill="#EE8D1B"/>
<path fill-rule="evenodd" clip-rule="evenodd" d="M166.37 113.591C166.035 114.417 165.032 114.789 164.142 114.728C163.253 114.666 162.425 114.277 161.577 114.002C160.032 113.502 158.368 113.377 156.767 113.64C155.544 113.842 154.079 114.192 153.231 113.289C152.498 112.509 152.714 111.28 152.683 110.21C152.632 108.443 151.716 106.721 150.279 105.69C150.539 105.876 151.476 104.076 151.845 103.986C152.63 103.797 153.403 103.347 153.943 103.898C155.082 105.059 156.424 107.616 157.69 108.677C160.253 110.824 163.207 112.506 166.37 113.591Z" fill="#E7A579"/>
<path fill-rule="evenodd" clip-rule="evenodd" d="M169.917 122.615C169.749 123.2 168.879 123.119 168.418 123.089C167.751 123.046 167.068 123.084 166.418 123.003C165.307 122.864 164.241 123.13 163.139 123.191C162.054 123.251 160.959 123.15 159.904 122.89C158.409 122.522 157.244 122.594 155.732 122.933C154.595 123.189 152.66 123.301 151.947 122.122C151.465 121.326 151.859 120.311 151.851 119.38C151.838 117.909 150.798 116.654 149.694 115.682C147.946 114.144 146.101 112.798 146.007 110.25C145.939 108.41 148.497 106.696 150.201 107.205C151.541 107.605 152.186 109.074 152.792 110.335C153.597 112.01 154.638 113.566 155.894 114.937C157.179 116.34 159.25 117.178 160.915 118.043C160.915 118.198 162.521 118.878 162.719 118.981C163.384 119.326 164.049 119.672 164.713 120.017C165.346 120.346 165.98 120.675 166.612 121.004C167.251 121.337 167.829 121.438 168.546 121.53C168.876 121.573 169.22 121.611 169.507 121.781C169.794 121.95 170.008 122.294 169.917 122.615Z" fill="#F6BD96"/>
<path fill-rule="evenodd" clip-rule="evenodd" d="M134.946 94.1147C139.587 96.8405 140.526 95.5034 144.847 98.707C145.659 99.3092 148.778 101.376 149.752 101.677C150.322 101.853 151.819 103.679 152.268 103.941C153.174 104.47 155.628 106.85 155.664 107.054C155.755 107.575 152.716 110.811 151.275 111.626C148.586 113.146 146.634 115.031 143.635 115.926C143.232 116.046 138.432 109.184 133.767 105.702C130.463 103.236 127.102 100.683 123.196 99.2994C119.98 98.1609 117.166 96.3693 113.668 96.0906C111.317 95.9029 108.92 95.6752 106.55 95.5326C105.596 95.4753 99.6333 94.7762 99.1553 95.5368C100.901 92.7589 102.647 89.981 104.393 87.203C105.885 84.8289 106.298 83.5409 109.177 84.0598C114.969 85.1041 120.582 86.9851 125.935 89.4147C129.022 90.8156 132.024 92.3983 134.946 94.1147Z" fill="#0B7C5C"/>
<path fill-rule="evenodd" clip-rule="evenodd" d="M61.8547 33.7869C61.4537 35.3323 61.1078 36.7672 60.2412 38.1396C59.0901 39.9627 57.8731 41.8514 56.0259 42.9634C54.8482 43.6722 53.4896 44.0155 52.2467 44.6028C50.4558 45.4488 48.8573 46.9014 48.2873 48.7984C47.7173 50.6952 48.4191 53.0247 50.1735 53.9442C50.8489 54.2984 51.6211 54.4302 52.3067 54.7644C52.9921 55.0983 53.6247 55.7451 53.5745 56.5061C53.5 57.6334 52.3175 58.2391 52.4792 59.4625C52.7083 61.1968 54.6055 61.5749 55.859 62.2884C57.634 63.2986 59.2447 65.4432 61.233 65.9651C68.6848 67.9208 66.8538 58.5208 70.3918 55.7347C71.7305 54.6807 73.6038 54.7328 75.2216 54.1989C78.7677 53.028 80.6649 49.2588 82.0652 45.7969C83.6263 41.9378 85.0583 37.7478 84.1513 33.685C83.5456 30.9712 81.873 28.5107 79.5727 26.9489C72.9022 22.4204 63.8536 26.085 61.8547 33.7869Z" fill="#091A4C"/>
<path fill-rule="evenodd" clip-rule="evenodd" d="M95.4151 86.5441C93.8116 87.9006 93.0592 89.9709 92.1751 91.8766C91.2909 93.7767 90.0498 95.7428 88.0563 96.3906C86.5954 96.863 84.9973 96.5334 83.5365 96.0612C77.4573 94.0897 72.3335 89.7073 68.7695 84.4078C65.1999 79.1139 63.102 72.9358 61.8883 66.6643C61.0317 62.2488 60.7901 56.5431 65.1449 53.7918C67.4458 52.3363 70.4554 52.7647 73.0309 53.6544C76.3645 54.8023 79.6979 56.6747 82.1966 59.1845C84.5801 61.5734 87.9519 64.4182 88.0781 68.0811C88.0835 68.202 88.0835 68.3228 88.0781 68.4436C88.0233 70.4645 86.9248 72.2768 86.837 74.2701C86.7712 75.8684 87.1884 77.911 87.7267 79.4105C88.0507 80.3056 88.4899 81.1622 89.0227 81.9531C89.539 82.7109 90.1374 83.4083 90.8074 84.0234C91.3183 84.4902 94.6956 87.1537 95.4151 86.5441Z" fill="#ED5830"/>
<path fill-rule="evenodd" clip-rule="evenodd" d="M89.0227 81.9533C88.5668 82.7936 88.2042 83.6612 88.0946 84.6113C85.5683 82.6728 83.8056 79.762 83.2674 76.6265C83.0037 75.1272 83.0698 73.4247 84.0746 72.2824C84.6402 71.64 85.4367 71.2556 86.1231 70.7448C87.0235 70.1847 87.6334 69.3609 88.078 68.4438C88.0232 70.4648 86.9247 72.277 86.8369 74.2703C86.7711 75.8686 87.1884 77.9113 87.7266 79.4108C88.0506 80.3059 88.4898 81.1625 89.0227 81.9533Z" fill="#D73B1D"/>
<path fill-rule="evenodd" clip-rule="evenodd" d="M67.6187 52.8068C70.6266 54.5817 72.4571 61.0459 83.6757 60.6399C80.5746 57.7194 77.1044 52.9233 76.0421 50.459C75.2967 48.7305 74.5357 46.9068 74.7259 45.0343C74.9162 43.1618 75.9115 41.9559 78.1381 41.5827C76.5242 40.6305 74.2833 40.4827 72.5005 39.8272C71.7595 39.5547 70.836 39.732 70.836 39.732C70.836 39.732 70.9279 48.0555 67.6187 52.8068Z" fill="#F6BD96"/>
<path fill-rule="evenodd" clip-rule="evenodd" d="M75.8792 50.0771C75.1911 48.4626 74.5497 46.7701 74.726 45.0344C74.9163 43.1619 75.9116 41.9559 78.1382 41.5825C76.5245 40.6304 74.2834 40.4828 72.5006 39.8271C71.7596 39.5547 70.8361 39.732 70.8361 39.732C70.8361 39.732 70.8564 41.9764 70.4185 44.7953C71.0738 47.721 73.4932 48.8821 75.8792 50.0771Z" fill="#E7A579"/>
<path fill-rule="evenodd" clip-rule="evenodd" d="M94.5516 99.1636C96.8772 99.0843 99.2126 98.8178 101.57 98.5407C106.932 97.9101 112.294 97.2797 117.657 96.6489C122.254 96.1084 126.635 95.3671 131.221 95.8896C138.562 96.7263 143.31 98.7225 149.586 102.261C150.571 102.817 153.62 105.051 153.62 105.051C154.199 104.622 155.44 103.529 155.896 102.603C156.214 101.957 148.607 96.1055 145.215 93.2837C136.868 86.3391 126.516 81.9243 115.788 80.3814C110.422 79.6096 104.95 79.5534 99.5738 80.2622C94.7693 80.8958 88.7087 82.05 84.8207 85.1331C82.9021 86.6546 76.8616 91.0507 79.0102 94.1429C80.7995 96.7182 83.8759 97.783 86.7945 98.4855C89.3792 99.1075 91.9593 99.252 94.5516 99.1636Z" fill="#00B580"/>
<path fill-rule="evenodd" clip-rule="evenodd" d="M114.599 106.061C105.359 106.643 96.0102 107.219 86.9003 105.567C82.3552 104.743 77.8903 103.323 73.7902 101.181C71.1078 99.7797 63.7662 95.8403 63.4474 92.4969C69.7278 90.6564 78.0744 91.8088 84.4109 92.9293C91.3735 94.1604 98.1546 96.4308 104.445 99.662C108.008 101.493 111.413 103.632 114.599 106.061Z" fill="#FFA82F"/>
<path fill-rule="evenodd" clip-rule="evenodd" d="M62.6436 96.0732C64.6954 95.8942 66.755 95.8054 68.8145 95.8054C79.1639 95.805 89.5177 98.0497 98.9209 102.372C99.3343 102.562 99.8234 102.381 100.013 101.968C100.203 101.554 100.022 101.065 99.609 100.875C89.9854 96.452 79.402 94.1581 68.8145 94.1577C66.7074 94.1577 64.6002 94.2486 62.5004 94.4319C62.0473 94.4714 61.7118 94.8709 61.7515 95.3241C61.7909 95.7774 62.1905 96.1126 62.6436 96.0732Z" fill="#FFCB71"/>
<path fill-rule="evenodd" clip-rule="evenodd" d="M104.571 102.73C106.621 101.956 108.816 101.574 111.015 101.574C114.562 101.574 118.117 102.568 121.087 104.482C121.469 104.728 121.979 104.618 122.225 104.236C122.472 103.853 122.361 103.344 121.979 103.097C118.724 101.001 114.868 99.9274 111.015 99.9268C108.625 99.9268 106.235 100.341 103.989 101.188C103.563 101.349 103.348 101.824 103.509 102.249C103.67 102.675 104.145 102.89 104.571 102.73Z" fill="#FFCB71"/>
<path fill-rule="evenodd" clip-rule="evenodd" d="M81.4525 43.1933C80.7488 44.8779 79.7734 46.3326 78.4965 47.0275C75.2731 48.7821 72.0728 46.0405 70.154 43.6089C68.2487 41.1942 67.2165 38.1809 67.4251 35.2718C67.5482 33.5546 68.0252 31.2038 69.4377 30.1006C70.8305 29.0131 72.862 28.4187 74.7023 28.3769C76.7809 28.33 79.5324 28.9604 80.9609 30.5477C82.3313 32.0706 82.8874 34.3047 82.8911 36.187C82.8949 37.9941 82.4428 40.8216 81.4525 43.1933Z" fill="#F6BD96"/>
<path fill-rule="evenodd" clip-rule="evenodd" d="M77.2601 32.5418C76.2152 33.9143 74.5185 34.6013 73.1917 35.7035C70.7073 37.768 70.8051 40.5071 70.5271 44.0655C67.4486 42.2974 65.2617 39.6812 64.6074 36.1919C63.953 32.7027 65.2351 28.824 68.0801 26.7008C71.1475 24.4113 75.6774 24.4941 78.8426 26.6458C82.008 28.7979 83.739 32.7676 83.4861 36.5867C83.723 35.8085 83.278 34.9687 82.6735 34.4245C82.0691 33.8802 81.3139 33.5348 80.6597 33.0514C79.0975 31.8969 78.3278 30.0997 77.9843 28.2414C78.4245 29.6852 78.1811 31.3325 77.2601 32.5418Z" fill="#091A4C"/>
<path fill-rule="evenodd" clip-rule="evenodd" d="M65.8737 61.5276C65.2302 63.3199 65.6549 65.3091 66.2247 67.1262C69.2473 76.7639 76.39 85.0332 85.4857 89.4252C87.11 90.2092 88.9193 90.8882 90.6824 90.5085C92.4719 90.1233 93.8537 88.7261 95.0146 87.3109C97.1229 84.7404 100.147 72.5265 102.279 69.8121C103.261 68.5615 104.382 67.3975 105.105 65.981C105.975 64.2775 106.242 62.4125 106.405 60.5119C106.419 60.3482 106.217 60.256 106.112 60.3824C104.842 61.9114 101.762 64.1455 100.455 64.9382L101.495 61.4398C100.174 62.2746 98.9734 63.513 98.4348 65.3857C97.9945 66.9151 98.1072 68.5476 97.8318 70.1152C97.3712 72.737 92.2446 81.8304 90.8821 81.8311C90.0649 81.8315 89.3334 81.3507 88.6738 80.8681C83.1111 76.7977 78.6548 71.2302 75.9014 64.9112C75.3027 63.5375 74.7726 62.1111 73.872 60.9138C71.8463 58.2212 67.1816 57.8847 65.8737 61.5276Z" fill="#F6BD96"/>
<path fill-rule="evenodd" clip-rule="evenodd" d="M64.3907 65.381C65.8464 64.5357 66.735 62.9478 67.1751 61.323C67.6151 59.6983 67.6724 57.9989 67.8686 56.3272C68.2229 53.3081 69.0339 50.3645 69.7917 47.4205C70.2774 45.5333 70.6239 43.2137 69.174 41.9116C64.3038 45.5105 61.0121 50.9407 59.1039 56.6877C58.2722 59.1931 58.0868 61.5793 59.2733 63.995C60.2084 65.8995 62.506 66.4753 64.3907 65.381Z" fill="#091A4C"/>
<path fill-rule="evenodd" clip-rule="evenodd" d="M78.9394 43.3507C79.0903 43.2602 79.279 43.1904 79.4664 43.1024C79.6528 43.0138 79.8427 42.9044 79.9795 42.7172L79.9963 42.6864C80.0175 42.6318 80.0223 42.5785 80.0225 42.5231C80.0214 42.3655 79.9791 42.1723 79.9395 41.9213C79.8992 41.6714 79.8597 41.3696 79.8597 41.0203C79.8597 40.6529 79.9033 40.2334 80.0368 39.7682C80.0993 39.5494 80.164 39.3514 80.2577 39.1897C80.3519 39.0276 80.4702 38.901 80.6554 38.8072C80.9412 38.6629 81.2714 38.589 81.5982 38.5892C81.7327 38.5892 81.8665 38.6017 81.9965 38.6264C82.071 38.6407 82.143 38.5919 82.1573 38.5172C82.1717 38.4425 82.1229 38.3704 82.0482 38.3561C81.9006 38.3279 81.7497 38.314 81.5982 38.314C81.2303 38.314 80.8596 38.3962 80.5314 38.5612C80.2952 38.6795 80.1325 38.8547 80.0194 39.0521C79.9056 39.2497 79.8365 39.4687 79.7722 39.6922C79.631 40.1846 79.5845 40.6311 79.5845 41.0203C79.5845 41.3902 79.6264 41.7086 79.6677 41.9649C79.7093 42.22 79.7483 42.4185 79.7472 42.5231C79.7475 42.559 79.7425 42.5812 79.7402 42.5858L79.8683 42.6362L79.757 42.555C79.6646 42.6829 79.5214 42.7722 79.3487 42.8535C79.1768 42.9351 78.9805 43.0063 78.7984 43.1144C78.7331 43.1533 78.7117 43.2377 78.7507 43.3031C78.7897 43.3683 78.8742 43.3897 78.9394 43.3507Z" fill="#E7A579"/>
<path fill-rule="evenodd" clip-rule="evenodd" d="M75.9719 39.2196C76.2245 39.4529 76.5627 39.5754 76.901 39.5756C77.0654 39.5756 77.23 39.5465 77.3853 39.4853C77.4558 39.4575 77.4907 39.3776 77.4629 39.307C77.4349 39.2362 77.355 39.2016 77.2844 39.2294C77.1634 39.2769 77.0328 39.3004 76.901 39.3004C76.6293 39.3008 76.3551 39.1997 76.1592 39.0176C76.1033 38.966 76.0161 38.9693 75.9647 39.0251C75.913 39.0807 75.9163 39.1679 75.9721 39.2196" fill="#39395C"/>
<path fill-rule="evenodd" clip-rule="evenodd" d="M80.9169 39.8217C81.0894 39.9757 81.3144 40.0511 81.5379 40.0513C81.7222 40.0513 81.9082 39.9996 82.0645 39.8902C82.1266 39.8466 82.1417 39.7607 82.0981 39.6986C82.0546 39.6363 81.9686 39.6212 81.9063 39.6648C81.8021 39.7383 81.671 39.7762 81.5379 39.776C81.3764 39.7762 81.2156 39.72 81.1006 39.6166C81.0441 39.566 80.9571 39.5707 80.9063 39.6272C80.8556 39.6839 80.8604 39.7708 80.9171 39.8217" fill="#39395C"/>
<path fill-rule="evenodd" clip-rule="evenodd" d="M75.8851 38.0022C76.068 37.9314 76.2648 37.8963 76.4626 37.8963C76.8182 37.8963 77.1752 38.0097 77.4558 38.2226C77.5162 38.2687 77.6026 38.2567 77.6484 38.1963C77.6945 38.1357 77.6825 38.0493 77.6221 38.0034C77.2893 37.7514 76.8759 37.6213 76.4626 37.6211C76.2326 37.6213 76.0022 37.6618 75.7857 37.7454C75.7149 37.773 75.6796 37.8527 75.707 37.9235C75.7346 37.9945 75.8144 38.0296 75.8851 38.0022Z" fill="#E7A579"/>
</svg>
