<svg width="142" height="140" viewBox="0 0 142 140" fill="none" xmlns="http://www.w3.org/2000/svg">
<g id="Group 46">
<path id="Fill 85" fill-rule="evenodd" clip-rule="evenodd" d="M70.7 139.351C70.5796 139.351 70.4592 139.32 70.35 139.255L0.35 98.8401C0.1344 98.7169 0 98.4845 0 98.2353V66.6541C0 66.2677 0.3136 65.9541 0.7 65.9541C1.0864 65.9541 1.4 66.2677 1.4 66.6541V97.8293L70.7 137.841L140 97.8293V66.6541C140 66.2677 140.314 65.9541 140.7 65.9541C141.086 65.9541 141.4 66.2677 141.4 66.6541V98.2353C141.4 98.4845 141.266 98.7169 141.05 98.8401L71.05 139.255C70.9408 139.32 70.8204 139.351 70.7 139.351Z" fill="#221C35"/>
<path id="Fill 86" fill-rule="evenodd" clip-rule="evenodd" d="M2.1 66.654L70.7 106.263L139.3 66.654L70.7 27.0481L2.1 66.654ZM70.7 107.769C70.5796 107.769 70.4592 107.738 70.35 107.674L0.35 67.2589C0.1344 67.1357 0 66.9032 0 66.654C0 66.4049 0.1344 66.1725 0.35 66.0493L70.35 25.6341C70.5656 25.5081 70.8344 25.5081 71.05 25.6341L141.05 66.0493C141.266 66.1725 141.4 66.4049 141.4 66.654C141.4 66.9032 141.266 67.1357 141.05 67.2589L71.05 107.674C70.9408 107.738 70.8204 107.769 70.7 107.769Z" fill="#221C35"/>
<path id="Fill 266" fill-rule="evenodd" clip-rule="evenodd" d="M24.156 60H39.844V29.4756C39.844 29.1222 40.1587 28.8307 40.5464 28.8307H49L32 2L15 28.8307H23.4536C23.8442 28.8307 24.156 29.1222 24.156 29.4756V60ZM40.5808 61H23.4192C23.03 61 22.714 60.712 22.714 60.3572V29.9298H13.7073C13.4534 29.9298 13.2221 29.8064 13.0952 29.6084C12.9683 29.4079 12.9683 29.1611 13.0952 28.9631L31.3907 0.296971C31.6418 -0.0989905 32.3554 -0.0989905 32.6093 0.296971L50.9048 28.9631C51.0317 29.1611 51.0317 29.4079 50.9048 29.6084C50.7779 29.8064 50.5466 29.9298 50.2927 29.9298H41.286V60.3572C41.286 60.712 40.97 61 40.5808 61Z" fill="#21517F"/>
<path id="Fill 267" fill-rule="evenodd" clip-rule="evenodd" d="M87.9173 35.2352L104.86 64.3608L121.803 35.2352H113.378C112.988 35.2352 112.678 34.9216 112.678 34.5352V1.4H97.0453V34.5352C97.0453 34.9216 96.7317 35.2352 96.3453 35.2352H87.9173ZM104.86 66.4524C104.611 66.4524 104.381 66.3208 104.255 66.1052L86.0945 34.888C85.9685 34.6724 85.9685 34.4036 86.0945 34.1852C86.2205 33.9696 86.4501 33.8352 86.7021 33.8352H95.6453V0.7C95.6453 0.3136 95.9561 0 96.3453 0H113.378C113.764 0 114.078 0.3136 114.078 0.7V33.8352H123.018C123.27 33.8352 123.5 33.9696 123.626 34.1852C123.752 34.4036 123.752 34.6724 123.626 34.888L105.465 66.1052C105.339 66.3208 105.109 66.4524 104.86 66.4524Z" fill="#21517F"/>
<path id="Fill 88" fill-rule="evenodd" clip-rule="evenodd" d="M70.7 139.35C70.3136 139.35 70 139.037 70 138.65V107.069C70 106.683 70.3136 106.369 70.7 106.369C71.0864 106.369 71.4 106.683 71.4 107.069V138.65C71.4 139.037 71.0864 139.35 70.7 139.35Z" fill="#221C35"/>
<path id="Fill 89" fill-rule="evenodd" clip-rule="evenodd" d="M112.412 65.3462C111.322 65.3462 110.233 65.5814 109.421 66.049C108.766 66.4298 108.388 66.9086 108.388 67.3706C108.388 67.8326 108.766 68.3142 109.421 68.695C111.042 69.6302 113.778 69.6302 115.399 68.695C116.057 68.3142 116.435 67.8326 116.435 67.3706C116.435 66.9086 116.057 66.4298 115.399 66.049C114.59 65.5814 113.501 65.3462 112.412 65.3462ZM112.412 70.8034C111.084 70.8034 109.757 70.5038 108.721 69.9046C107.604 69.2606 106.988 68.359 106.988 67.3706C106.988 66.3822 107.604 65.4834 108.721 64.8366C110.79 63.641 114.03 63.641 116.099 64.8366C117.219 65.4834 117.835 66.3822 117.835 67.3706C117.835 68.359 117.219 69.2606 116.099 69.9046C115.066 70.5038 113.739 70.8034 112.412 70.8034Z" fill="#21517F"/>
<path id="Fill 90" fill-rule="evenodd" clip-rule="evenodd" d="M90.9356 52.9478C89.8436 52.9478 88.7544 53.183 87.9452 53.6506C87.2872 54.0286 86.912 54.5102 86.912 54.9722C86.912 55.4342 87.2872 55.9158 87.9452 56.2938C89.5664 57.229 92.302 57.229 93.9232 56.2938C94.5812 55.9158 94.9592 55.4342 94.9592 54.9722C94.9592 54.5102 94.5812 54.0286 93.9232 53.6506C93.114 53.183 92.0248 52.9478 90.9356 52.9478ZM90.9356 58.4022C89.6056 58.4022 88.2784 58.1026 87.2452 57.5062C86.1252 56.8622 85.512 55.9606 85.512 54.9722C85.512 53.9838 86.1252 53.0822 87.2452 52.4382C89.3144 51.2426 92.554 51.2426 94.6232 52.4382C95.7432 53.0822 96.3592 53.9838 96.3592 54.9722C96.3592 55.9606 95.7432 56.8622 94.6232 57.5062C93.59 58.1026 92.2628 58.4022 90.9356 58.4022Z" fill="#21517F"/>
<path id="Fill 91" fill-rule="evenodd" clip-rule="evenodd" d="M69.4568 40.5497C68.3676 40.5497 67.2784 40.7821 66.4692 41.2497C66.4692 41.2497 66.4692 41.2497 66.4692 41.2525C65.8112 41.6305 65.436 42.1093 65.436 42.5713C65.436 43.0333 65.8112 43.5149 66.4692 43.8957C68.0904 44.8309 70.826 44.8309 72.4472 43.8957C73.1052 43.5149 73.4832 43.0333 73.4832 42.5713C73.4804 42.1121 73.1052 41.6305 72.4472 41.2525C71.638 40.7821 70.546 40.5497 69.4568 40.5497ZM69.4596 46.0041C68.1296 46.0041 66.8024 45.7045 65.7692 45.1053C64.6492 44.4613 64.036 43.5625 64.036 42.5713C64.036 41.5829 64.652 40.6841 65.7692 40.0373C67.8412 38.8445 71.078 38.8445 73.1472 40.0401C74.2644 40.6841 74.8804 41.5829 74.8832 42.5713C74.8832 43.5625 74.2644 44.4613 73.1472 45.1053C72.1112 45.7045 70.784 46.0041 69.4596 46.0041Z" fill="#21517F"/>
<path id="Fill 92" fill-rule="evenodd" clip-rule="evenodd" d="M92.176 77.0309C91.0868 77.0309 89.9976 77.2633 89.1884 77.7309C88.5304 78.1117 88.1524 78.5933 88.1524 79.0525C88.1524 79.5145 88.5304 79.9961 89.1884 80.3769C90.8096 81.3093 93.5452 81.3121 95.1664 80.3769C95.8216 79.9961 96.1996 79.5145 96.1996 79.0525C96.1996 78.5933 95.8216 78.1117 95.1664 77.7309C94.3544 77.2633 93.2652 77.0309 92.176 77.0309ZM92.176 82.4853C90.8488 82.4853 89.5216 82.1857 88.4884 81.5893C87.3684 80.9425 86.7524 80.0437 86.7524 79.0525C86.7524 78.0641 87.3684 77.1653 88.4884 76.5213C90.5548 75.3257 93.7944 75.3229 95.8664 76.5213C96.9836 77.1653 97.5996 78.0641 97.5996 79.0525C97.5996 80.0437 96.9836 80.9425 95.8664 81.5893C94.8304 82.1857 93.5032 82.4853 92.176 82.4853Z" fill="#21517F"/>
<path id="Fill 93" fill-rule="evenodd" clip-rule="evenodd" d="M70.7 64.6298C69.6108 64.6298 68.5216 64.865 67.7096 65.3326C67.0544 65.7134 66.6764 66.195 66.6764 66.657C66.6764 67.1162 67.0544 67.5978 67.7096 67.9786C69.3308 68.9138 72.0692 68.9138 73.6904 67.9786C74.3456 67.5978 74.7236 67.1162 74.7236 66.657C74.7236 66.195 74.3456 65.7134 73.6904 65.3326C72.8784 64.865 71.7892 64.6298 70.7 64.6298ZM70.7 70.087C69.3728 70.087 68.0456 69.7874 67.0096 69.1882C65.8924 68.5442 65.2764 67.6454 65.2764 66.657C65.2764 65.6658 65.8924 64.767 67.0096 64.1202C69.0788 62.9274 72.3212 62.9274 74.3904 64.1202C75.5076 64.767 76.1236 65.6658 76.1236 66.657C76.1236 67.6454 75.5076 68.5442 74.3904 69.1882C73.3544 69.7874 72.0272 70.087 70.7 70.087Z" fill="#21517F"/>
<path id="Fill 94" fill-rule="evenodd" clip-rule="evenodd" d="M49.224 52.2314C48.132 52.2314 47.0456 52.4666 46.2336 52.9342C45.5784 53.3122 45.2004 53.7938 45.2004 54.253C45.2004 54.715 45.5784 55.1966 46.2336 55.5774C47.852 56.5126 50.5932 56.5126 52.2144 55.5774C52.8696 55.1966 53.2476 54.715 53.2476 54.253C53.2476 53.7938 52.8696 53.3122 52.2144 52.9342C51.4024 52.4666 50.3132 52.2314 49.224 52.2314ZM49.224 57.6858C47.894 57.6858 46.5696 57.3862 45.5336 56.7898C44.4164 56.143 43.8004 55.2442 43.8004 54.253C43.8004 53.2646 44.4164 52.3658 45.5336 51.7218C47.6056 50.529 50.8452 50.5262 52.9144 51.7218C54.0316 52.3658 54.6476 53.2646 54.6476 54.253C54.6476 55.2442 54.0316 56.143 52.9144 56.7898C51.8784 57.3862 50.5512 57.6858 49.224 57.6858Z" fill="#21517F"/>
<path id="Fill 95" fill-rule="evenodd" clip-rule="evenodd" d="M71.9433 88.7125C70.8541 88.7125 69.7649 88.9477 68.9529 89.4153C68.2977 89.7933 67.9197 90.2749 67.9197 90.7369C67.9197 91.1989 68.2977 91.6805 68.9529 92.0585C70.5741 92.9937 73.3097 92.9937 74.9309 92.0585C75.5889 91.6805 75.9641 91.1989 75.9641 90.7369C75.9641 90.2749 75.5889 89.7933 74.9309 89.4153C74.1217 88.9477 73.0325 88.7125 71.9433 88.7125ZM71.9433 94.1669C70.6161 94.1669 69.2889 93.8673 68.2529 93.2709C67.1357 92.6241 66.5197 91.7253 66.5197 90.7369C66.5197 89.7485 67.1357 88.8469 68.2529 88.2029C70.3221 87.0073 73.5617 87.0073 75.6309 88.2029C76.7509 88.8469 77.3641 89.7485 77.3641 90.7369C77.3641 91.7253 76.7509 92.6241 75.6309 93.2709C74.5977 93.8673 73.2705 94.1669 71.9433 94.1669Z" fill="#21517F"/>
<path id="Fill 96" fill-rule="evenodd" clip-rule="evenodd" d="M50.4644 76.314C49.3752 76.314 48.286 76.5464 47.4768 77.014C46.8188 77.3948 46.4408 77.8764 46.4408 78.3356C46.4408 78.7976 46.8188 79.2792 47.4768 79.66C49.098 80.5952 51.8336 80.5952 53.4548 79.66C54.1128 79.2792 54.488 78.7976 54.488 78.3356C54.488 77.8764 54.1128 77.3948 53.4548 77.014C52.6456 76.5464 51.5564 76.314 50.4644 76.314ZM50.4644 81.7684C49.1372 81.7684 47.81 81.4688 46.7768 80.8724C45.6568 80.2256 45.0408 79.3268 45.0408 78.3356C45.0408 77.3472 45.6568 76.4484 46.7768 75.8044C48.846 74.6088 52.0856 74.6088 54.1548 75.8044C55.2748 76.4484 55.888 77.3472 55.888 78.3356C55.888 79.3268 55.2748 80.2256 54.1548 80.8724C53.1216 81.4688 51.7944 81.7684 50.4644 81.7684Z" fill="#21517F"/>
<path id="Fill 97" fill-rule="evenodd" clip-rule="evenodd" d="M28.9912 63.9158C27.8992 63.9158 26.81 64.1482 26.0008 64.6158C26.0008 64.6158 26.0008 64.6158 26.0008 64.6186C25.3428 64.9938 24.9676 65.4754 24.9676 65.9374C24.9676 66.3994 25.3428 66.881 26.0008 67.259C27.6192 68.1942 30.3576 68.1942 31.9788 67.259C32.6368 66.881 33.0148 66.3994 33.0148 65.9374C33.0148 65.4754 32.6368 64.9938 31.9788 64.6186C31.1696 64.1482 30.0804 63.9158 28.9912 63.9158ZM28.9912 69.3674C27.6612 69.3674 26.334 69.0678 25.3008 68.4714C24.1808 67.8274 23.5676 66.9258 23.5676 65.9374C23.5676 64.949 24.1836 64.0474 25.3008 63.4034C27.37 62.2106 30.6096 62.2106 32.6788 63.4034C33.796 64.0474 34.412 64.949 34.412 65.9374C34.412 66.9258 33.7988 67.8274 32.6788 68.4714C31.6456 69.0678 30.3184 69.3674 28.9912 69.3674Z" fill="#21517F"/>
<path id="Fill 98" fill-rule="evenodd" clip-rule="evenodd" d="M73.2703 129.296C72.6739 129.296 72.1139 129.15 71.6155 128.865C70.4423 128.187 69.7983 126.818 69.7983 125.012C69.7983 124.625 70.1119 124.312 70.4983 124.312C70.8847 124.312 71.1983 124.625 71.1983 125.012C71.1983 126.297 71.5959 127.235 72.3155 127.652C73.0379 128.067 74.0459 127.943 75.1631 127.299C77.7335 125.815 79.8279 122.192 79.8279 119.221C79.8279 115.749 82.1827 111.667 85.1899 109.931C86.7551 109.024 88.2643 108.903 89.4375 109.578C90.6107 110.256 91.2547 111.625 91.2547 113.431C91.2547 114.719 91.6523 115.654 92.3747 116.071C93.0943 116.486 94.1051 116.363 95.2195 115.721C97.7927 114.235 99.8843 110.611 99.8843 107.641C99.8843 104.169 102.242 100.089 105.249 98.3501C106.814 97.4457 108.324 97.3225 109.497 97.9973C110.667 98.6777 111.314 100.044 111.314 101.85C111.314 103.138 111.712 104.073 112.431 104.491C113.154 104.908 114.164 104.785 115.279 104.141C117.849 102.657 119.941 99.0305 119.941 96.0625C119.941 92.5877 122.298 88.5053 125.306 86.7693C126.874 85.8649 128.38 85.7445 129.553 86.4193C130.726 87.0969 131.373 88.4633 131.373 90.2721C131.373 91.5573 131.771 92.4953 132.49 92.9125C133.216 93.3269 134.221 93.2037 135.335 92.5597C137.906 91.0757 140 87.4497 140 84.4817C140 84.0953 140.314 83.7817 140.7 83.7817C141.086 83.7817 141.4 84.0953 141.4 84.4817C141.4 87.9565 139.042 92.0361 136.035 93.7721C134.47 94.6765 132.964 94.7997 131.79 94.1249C130.617 93.4473 129.973 92.0781 129.973 90.2721C129.973 88.9841 129.573 88.0489 128.853 87.6317C128.131 87.2145 127.117 87.3405 126.006 87.9817C123.435 89.4685 121.341 93.0917 121.341 96.0625C121.341 99.5345 118.986 103.614 115.979 105.35C114.414 106.255 112.91 106.381 111.731 105.703C110.558 105.028 109.914 103.659 109.914 101.85C109.914 100.565 109.516 99.6269 108.794 99.2125C108.072 98.7953 107.061 98.9213 105.949 99.5625C103.376 101.047 101.284 104.673 101.284 107.641C101.284 111.115 98.9295 115.195 95.9195 116.931C94.3543 117.838 92.8479 117.959 91.6747 117.284C90.5015 116.606 89.8547 115.24 89.8547 113.431C89.8547 112.146 89.4571 111.208 88.7375 110.791C88.0151 110.376 87.0043 110.499 85.8899 111.141C83.3195 112.627 81.2279 116.251 81.2279 119.221C81.2279 122.696 78.8703 126.776 75.8631 128.512C74.9615 129.033 74.0795 129.296 73.2703 129.296Z" fill="#221C35"/>
</g>
</svg>
