<svg width="166" height="133" viewBox="0 0 166 133" fill="none" xmlns="http://www.w3.org/2000/svg">
<path d="M97.0362 122.226C97.0306 122.434 97.009 122.642 96.9716 122.846C95.7555 122.632 94.5324 122.439 93.3024 122.267C93.3024 122.213 93.3024 122.157 93.3024 122.101C93.3138 121.521 93.4645 120.956 93.7392 120.463C94.0991 119.833 94.646 119.44 95.2488 119.461C95.8516 119.482 96.374 119.913 96.6973 120.563C96.9417 121.075 97.0587 121.648 97.0362 122.226Z" fill="#3F3D56"/>
<path d="M97.1366 118.926C97.1793 117.433 96.3773 116.193 95.3453 116.157C94.3133 116.121 93.4421 117.302 93.3994 118.796C93.3567 120.289 94.1587 121.529 95.1907 121.565C96.2227 121.601 97.0939 120.42 97.1366 118.926Z" fill="#3F3D56"/>
<path d="M97.2319 115.62C97.2747 114.127 96.4727 112.887 95.4406 112.851C94.4086 112.815 93.5374 113.996 93.4947 115.49C93.452 116.983 94.254 118.223 95.286 118.259C96.318 118.295 97.1892 117.114 97.2319 115.62Z" fill="#3F3D56"/>
<path d="M97.3256 112.315C97.3683 110.821 96.5663 109.581 95.5343 109.545C94.5023 109.509 93.631 110.691 93.5883 112.184C93.5456 113.677 94.3476 114.917 95.3796 114.953C96.4117 114.989 97.2829 113.808 97.3256 112.315Z" fill="#3F3D56"/>
<path d="M97.4191 109.008C97.4618 107.515 96.6598 106.275 95.6278 106.239C94.5958 106.203 93.7245 107.385 93.6818 108.878C93.6391 110.371 94.4411 111.611 95.4731 111.647C96.5052 111.683 97.3764 110.502 97.4191 109.008Z" fill="#3F3D56"/>
<path d="M89.1912 86.0694C88.9451 85.7012 88.7232 85.314 88.5272 84.9108L93.4649 84.1905L88.1498 84.0496C87.1912 81.5366 87.2108 78.6984 88.204 76.2019L95.2139 80.537L88.7928 74.9679C90.5585 71.8117 93.7726 70.0114 97.1197 70.3038C100.467 70.5962 103.385 72.9323 104.68 76.3558C105.975 79.7794 105.43 83.7158 103.267 86.5541C103.65 87.1268 103.975 87.7439 104.237 88.3944L97.7562 91.8316L104.628 89.5472C105.507 92.7534 104.862 96.2334 102.912 98.7988C105.685 102.957 105.101 108.772 101.569 112.156C98.0381 115.539 92.7467 115.355 89.4154 111.732C86.0841 108.109 85.8321 102.265 88.8365 98.3083C86.3832 94.6285 86.5276 89.571 89.1859 86.0694H89.1912Z" fill="#00B580"/>
<path opacity="0.1" d="M105.009 92.7471C104.948 94.968 104.209 97.1008 102.912 98.799C105.685 102.957 105.101 108.772 101.569 112.156C98.0381 115.539 92.7467 115.355 89.4154 111.732C86.0841 108.109 85.8321 102.265 88.8365 98.3085C87.6886 96.5841 105.04 91.6367 105.009 92.7471Z" fill="black"/>
<path d="M70.4781 122.226C70.4725 122.434 70.4509 122.642 70.4135 122.846C69.1974 122.632 67.9743 122.439 66.7443 122.267C66.7443 122.213 66.7443 122.157 66.7443 122.101C66.7556 121.521 66.9064 120.956 67.1811 120.463C67.541 119.833 68.0879 119.44 68.6907 119.461C69.2935 119.482 69.8159 119.913 70.1392 120.563C70.3836 121.075 70.5006 121.648 70.4781 122.226Z" fill="#3F3D56"/>
<path d="M70.5766 118.927C70.6193 117.434 69.8173 116.194 68.7853 116.158C67.7532 116.122 66.882 117.303 66.8393 118.797C66.7966 120.29 67.5986 121.53 68.6306 121.566C69.6626 121.602 70.5339 120.421 70.5766 118.927Z" fill="#3F3D56"/>
<path d="M70.6719 115.621C70.7146 114.128 69.9126 112.888 68.8806 112.852C67.8486 112.816 66.9774 113.997 66.9347 115.491C66.892 116.984 67.6939 118.224 68.726 118.26C69.758 118.296 70.6292 117.115 70.6719 115.621Z" fill="#3F3D56"/>
<path d="M70.7655 112.315C70.8082 110.822 70.0062 109.582 68.9742 109.546C67.9422 109.51 67.071 110.691 67.0283 112.185C66.9856 113.678 67.7876 114.918 68.8196 114.954C69.8516 114.99 70.7228 113.808 70.7655 112.315Z" fill="#3F3D56"/>
<path d="M70.8591 109.009C70.9018 107.516 70.0999 106.276 69.0678 106.24C68.0358 106.204 67.1646 107.385 67.1219 108.879C67.0792 110.372 67.8812 111.612 68.9132 111.648C69.9452 111.684 70.8164 110.503 70.8591 109.009Z" fill="#3F3D56"/>
<path d="M62.6331 86.0694C62.387 85.7012 62.1651 85.314 61.9691 84.9108L66.9068 84.1905L61.5917 84.0496C60.6331 81.5366 60.6527 78.6984 61.6459 76.2019L68.6558 80.537L62.2347 74.9679C64.0004 71.8117 67.2145 70.0114 70.5616 70.3038C73.9087 70.5962 76.827 72.9323 78.1221 76.3558C79.4172 79.7794 78.8717 83.7158 76.7089 86.5541C77.0916 87.1268 77.4167 87.7439 77.6786 88.3944L71.1981 91.8316L78.07 89.5472C78.9492 92.7534 78.3038 96.2334 76.3542 98.7988C79.1271 102.957 78.5424 108.772 75.0112 112.156C71.48 115.539 66.1886 115.355 62.8573 111.732C59.526 108.109 59.274 102.265 62.2784 98.3083C59.8251 94.6285 59.9695 89.571 62.6278 86.0694H62.6331Z" fill="#00B580"/>
<path opacity="0.1" d="M78.4509 92.7471C78.3897 94.968 77.6508 97.1008 76.3542 98.799C79.1271 102.957 78.5424 108.772 75.0112 112.156C71.48 115.539 66.1886 115.355 62.8573 111.732C59.526 108.109 59.274 102.265 62.2784 98.3085C61.1304 96.5841 78.4823 91.6367 78.4509 92.7471Z" fill="black"/>
<path d="M143.024 124.339C143.01 124.734 142.968 125.127 142.896 125.513C140.555 125.1 138.197 124.731 135.822 124.405C135.822 124.301 135.822 124.194 135.822 124.086C135.844 122.971 136.134 121.883 136.664 120.933C137.363 119.722 138.411 118.963 139.569 119.002C140.728 119.041 141.736 119.873 142.365 121.126C142.839 122.113 143.067 123.223 143.024 124.339Z" fill="#3F3D56"/>
<path d="M143.214 117.981C143.296 115.105 141.751 112.718 139.763 112.648C137.776 112.579 136.097 114.854 136.015 117.73C135.933 120.606 137.478 122.994 139.466 123.063C141.453 123.132 143.131 120.857 143.214 117.981Z" fill="#3F3D56"/>
<path d="M143.395 111.617C143.478 108.741 141.933 106.353 139.945 106.284C137.957 106.214 136.279 108.489 136.197 111.365C136.115 114.241 137.659 116.629 139.647 116.698C141.635 116.768 143.313 114.493 143.395 111.617Z" fill="#3F3D56"/>
<path d="M143.579 105.252C143.661 102.376 142.116 99.9882 140.128 99.9188C138.141 99.8494 136.462 102.125 136.38 105C136.298 107.876 137.843 110.264 139.831 110.333C141.818 110.403 143.496 108.128 143.579 105.252Z" fill="#3F3D56"/>
<path d="M143.555 98.5975C143.634 95.7202 142.085 93.3341 140.096 93.2682C138.107 93.2023 136.431 95.4814 136.353 98.3587C136.275 101.236 137.824 103.622 139.813 103.688C141.802 103.754 143.477 101.475 143.555 98.5975Z" fill="#3F3D56"/>
<path d="M127.919 54.733C127.447 54.0241 127.02 53.2802 126.641 52.5065L136.146 51.12L125.916 50.8478C124.07 46.0103 124.106 40.546 126.018 35.7394L139.515 44.0834L127.155 33.3622C130.562 27.3009 136.746 23.8495 143.181 24.4177C149.617 24.9859 155.227 29.4786 157.719 36.0608C160.212 42.6429 159.17 50.2124 155.018 55.6773C155.755 56.7808 156.381 57.9688 156.886 59.2207L144.409 65.8422L157.638 61.4395C159.331 67.6044 158.094 74.2976 154.347 79.234C159.685 87.2387 158.558 98.4327 151.761 104.946C144.963 111.46 134.777 111.105 128.364 104.131C121.951 97.1571 121.465 85.907 127.248 78.2897C122.527 71.2059 122.805 61.4727 127.919 54.7311V54.733Z" fill="#009469"/>
<path opacity="0.1" d="M158.373 67.5862C158.259 71.8594 156.843 75.9648 154.355 79.2381C159.692 87.2428 158.566 98.4368 151.768 104.95C144.97 111.464 134.784 111.109 128.371 104.135C121.958 97.1613 121.472 85.9111 127.255 78.2938C125.029 74.9705 158.434 65.4486 158.373 67.5862Z" fill="black"/>
<path d="M5.74976 124.679L7.58261 124.673H10.1668L13.4341 66.0121L45.7913 6.33736L44.3848 4.66895V0.443848L9.39101 64.6295L5.74976 124.679Z" fill="#F1C0C0"/>
<path d="M7.77832 124.673H10.1668L13.4341 66.0121L45.7913 6.33736L44.3848 4.66895L11.009 65.118L7.77832 124.673Z" fill="#E7840F"/>
<path d="M0.348999 125.167L84.1905 132.258L84.2621 132.264L165.402 126.749L165.464 126.745V122.958L76.0571 121.145L1.46549 121.066H0.920348L0.860941 121.491L0.348999 125.167Z" fill="#BE6F00"/>
<path d="M0.348999 125.167L84.1905 132.258L84.2621 132.264L165.402 126.749L165.464 126.676V123.038H165.392L84.1905 126.034L1.46549 121.066H1.45326L1.30649 121.172L0.860941 121.491L0.348999 125.167Z" fill="#E7840F"/>
<path d="M0.348999 125.168L84.1905 132.258V126.035L1.30649 121.172L0.860941 121.491L0.348999 125.168Z" fill="#E7840F"/>
<path d="M44.3743 4.5898L81.3372 48.4359L80.1945 125.561L83.3343 125.98L83.3867 125.988H86.5265L86.9022 51.7476L156.116 77.299L157.283 122.794L159.809 123.107L160.666 123.213L158.684 74.1437L86.3308 46.0704L46.6579 0.488281H44.3743V4.5898Z" fill="#F1C0C0"/>
<path d="M86.6174 50.3281L86.9022 51.7474L156.116 77.2989L157.283 122.794L159.809 123.107L157.828 76.3527L86.6174 50.3281Z" fill="#E7840F"/>
<path d="M44.3743 4.5898L81.3372 48.4359L80.1945 125.561L83.3343 125.98L84.1905 45.912L44.3743 0.488281V4.5898Z" fill="#E7840F"/>
<path d="M86.752 81.2806L112.138 86.8053L112.146 86.8072L156.608 96.4875L158.644 95.5857L158.637 95.4273L158.504 92.2894L86.7782 76.2715L86.752 81.2806Z" fill="#F1C0C0"/>
<path opacity="0.1" d="M112.146 86.8076L156.608 96.4879L158.644 95.5861L158.637 95.4278L112.146 86.8076Z" fill="black"/>
<path d="M113.846 61.6943L114.533 103.47L114.888 124.903L118.014 124.787L119.981 124.714L119.369 62.2987L118.014 61.8005L117.717 61.6943H113.846Z" fill="#F1C0C0"/>
<path d="M113.874 61.6846V61.6942L114.533 103.47L114.888 124.903L118.014 124.787V61.6846H113.874Z" fill="#E7840F"/>
<path d="M64.8834 72.3631C65.0668 72.4733 65.2421 72.5992 65.4076 72.7397C65.6033 72.9291 65.7792 73.1422 65.9318 73.375C66.6813 74.4467 67.3732 75.6922 67.2999 77.044C67.303 77.4412 67.1628 77.8234 66.9102 78.106C66.601 78.3976 66.1572 78.4111 65.7518 78.4111C65.3115 78.4111 64.8485 78.4111 64.4676 78.1601C64.0867 77.9091 63.7687 77.4205 63.3179 77.4321C63.2543 77.4437 63.1893 77.4437 63.1257 77.4321C62.9702 77.3761 62.9387 77.1502 62.8374 77.0073C62.6627 76.7504 62.294 76.8142 62.0197 76.9262C61.7454 77.0382 61.4413 77.2062 61.1705 77.0768C61.0133 76.9851 60.8848 76.8431 60.8019 76.6693C60.1536 75.5107 60.0156 74.1184 59.8933 72.7725C59.8182 71.9537 59.2451 69.1615 60.8263 69.7968C61.5252 70.0749 62.1787 70.631 62.8147 71.0384L64.8834 72.3631Z" fill="#39395C"/>
<path d="M63.3213 72.6396C63.612 72.8707 64.0076 72.8531 64.2806 72.5972C64.5407 72.3373 64.7065 71.9818 64.7471 71.5969C64.9218 71.537 65.0109 71.79 65.1227 71.9445C65.3184 72.2071 65.7168 72.2032 65.895 72.4832C66.0191 72.6763 65.9911 72.9447 66.0785 73.163C66.1921 73.4449 66.4734 73.5916 66.6656 73.8195C66.847 74.0685 66.9781 74.3575 67.05 74.6672L67.3365 75.6173C67.4736 76.0124 67.5618 76.4262 67.5986 76.8474C67.6351 77.2727 67.5155 77.6964 67.2666 78.0234C66.8822 78.481 66.2515 78.5293 65.6941 78.5158C65.508 78.5202 65.3222 78.4961 65.142 78.4443C64.6475 78.2744 64.3312 77.7241 64.2002 77.1698C64.0692 76.6156 64.0831 76.0344 64.0063 75.4667C63.9232 74.909 63.7764 74.3653 63.5694 73.8485C63.4157 73.4468 62.9929 72.8482 62.9998 72.4214C63.1256 72.4214 63.2165 72.5489 63.3213 72.6396Z" fill="#39395C"/>
<path d="M63.9487 70.6834C63.867 70.4092 63.8194 70.1241 63.8072 69.8357C63.8072 69.2564 64.0466 68.7119 64.2877 68.1943L62.2906 68.4936C62.0495 68.5303 61.7804 68.5844 61.6441 68.8065C61.539 69.0298 61.539 69.2957 61.6441 69.519C61.7442 69.7393 61.8238 69.9703 61.8817 70.2084C61.8862 70.4168 61.9079 70.6242 61.9464 70.8283C62.0085 70.9781 62.0957 71.1138 62.2032 71.228C62.7746 71.927 63.2026 72.7516 63.629 73.5684C63.6167 73.5452 64.8328 72.5044 64.7839 72.1645C64.7559 71.9714 64.4047 71.7397 64.2929 71.5543C64.1384 71.2853 64.0224 70.9915 63.9487 70.6834Z" fill="#F6BD96"/>
<path d="M81.0716 63.1387V65.0407L51.6009 71.3938L50.072 72.4173H44.7971V71.3456L73.7524 63.6137L81.0716 63.1387Z" fill="#F1C0C0"/>
<path opacity="0.1" d="M81.0716 65.041L51.6009 71.3941L50.072 72.4176H44.7971L73.9673 65.518L81.0716 65.041Z" fill="black"/>
<path d="M57.4104 117.134C56.7343 116.229 55.583 115.959 54.6323 116.482C54.5335 116.533 54.4463 116.608 54.3772 116.702C54.2025 116.972 54.3143 117.345 54.33 117.679C54.3702 118.494 53.7831 119.156 53.2555 119.726C52.9724 120.031 52.6841 120.357 52.5566 120.772C52.429 121.188 52.5234 121.715 52.8658 121.931C53.0153 122.014 53.1779 122.064 53.3446 122.078C53.9031 122.198 54.4757 122.216 55.0394 122.13C55.5968 122.012 56.1437 121.663 56.3848 121.095C56.4313 120.941 56.5083 120.8 56.6102 120.684C56.9177 120.415 57.3895 120.73 57.7389 120.539C58.0272 120.38 58.0394 120.131 58.0429 119.803C58.0534 118.895 57.9311 117.868 57.4104 117.134Z" fill="#D24242"/>
<path d="M61.6038 117.099C61.8188 117.725 61.8485 118.407 61.8764 119.075C61.8921 119.461 61.9026 119.874 61.7139 120.201C61.5252 120.527 61.1566 120.699 60.8036 120.78C60.075 120.946 59.2311 120.79 58.7611 120.15C58.4011 119.662 58.326 118.992 58.3924 118.358C58.4483 117.839 58.5671 117.231 58.2299 116.862C58.1426 116.763 58.029 116.694 57.9486 116.588C57.7739 116.352 57.8018 115.997 57.8962 115.707C58.0191 115.43 58.1112 115.138 58.1705 114.836C58.1845 114.693 60.5363 114.937 60.7529 115.054C61.0482 115.215 61.0028 115.483 61.0919 115.807C61.216 116.259 61.4536 116.667 61.6038 117.099Z" fill="#D24242"/>
<path d="M62.0354 89.3581C62.4967 89.6883 62.6749 90.3372 62.7465 90.9397C62.944 92.5907 62.598 94.2591 62.5718 95.9256C62.5473 98.2602 63.1589 100.637 62.6364 102.899C62.3237 104.25 62.5893 105.795 62.2957 107.16C62.2084 107.566 62.0476 107.948 61.9637 108.354C61.789 109.232 61.9725 110.152 62.2188 111.011C62.2975 111.242 62.3475 111.485 62.3674 111.731C62.3555 112.11 62.2684 112.482 62.1123 112.82L61.0639 115.56C60.9469 115.867 60.4856 115.918 60.1903 115.958C59.6347 116.032 59.0144 116.084 58.5723 115.703C58.1303 115.323 58.0237 114.686 57.9556 114.091C57.8249 112.949 57.7665 111.799 57.7808 110.648C57.8001 110.347 57.7759 110.046 57.7092 109.754C57.6131 109.424 57.4017 109.138 57.344 108.788C57.2707 108.336 57.4786 107.892 57.5555 107.436C57.6082 107.02 57.6023 106.597 57.538 106.183C57.4698 105.565 57.3912 104.947 57.3021 104.333C57.1763 103.474 57.3563 102.626 57.4768 101.765C57.5904 100.956 57.4454 100.131 57.3021 99.3281C57.3145 99.98 57.2409 100.631 57.0837 101.259C56.9911 101.566 56.8583 101.86 56.7779 102.172C56.4197 103.576 57.1833 105.05 57.075 106.504C57.0243 107.184 56.7832 107.856 56.8513 108.526C56.8985 109.016 57.1047 109.466 57.2462 109.933C57.3877 110.401 57.4611 110.936 57.2462 111.372C56.6783 112.558 57.1029 114.17 57.6114 115.387C57.7146 115.602 57.8045 115.826 57.8804 116.055C58.0307 116.603 57.9049 117.192 57.9451 117.764C57.6486 117.817 57.3462 117.717 57.1256 117.491C57.0488 117.403 56.9859 117.298 56.9107 117.206C56.7008 116.984 56.4523 116.813 56.1804 116.702C56.0207 116.603 55.8388 116.557 55.6562 116.568C55.4642 116.628 55.2914 116.746 55.1582 116.91C54.9854 117.078 54.8021 117.232 54.6096 117.372C54.5276 117.441 54.4318 117.488 54.33 117.509C54.2251 117.527 54.1216 117.468 54.0732 117.364C54.0623 117.332 54.0558 117.298 54.054 117.264C53.9891 116.68 53.9547 116.094 53.9509 115.506C53.9509 114.496 52.8571 113.801 52.7191 112.803C52.609 111.998 52.8134 111.177 52.7453 110.366C52.7121 109.949 52.6073 109.539 52.6142 109.122C52.6142 108.852 52.6702 108.587 52.6894 108.319C52.7054 108.021 52.7013 107.722 52.6772 107.425L52.623 106.492C52.5706 105.571 52.5129 104.631 52.1844 103.789C51.7949 102.806 51.5643 101.755 51.503 100.684C51.4681 100.008 51.4908 99.3319 51.4209 98.6541C51.358 98.042 51.2182 97.4337 51.2584 96.8197C51.2916 96.3446 51.4331 95.885 51.4663 95.41C51.5345 94.4966 51.2199 93.6083 50.9736 92.7336C50.7272 91.8588 50.5455 90.8894 50.8688 90.0456C50.9149 89.9071 50.9918 89.7836 51.0924 89.6864C51.2163 89.5958 51.3574 89.5377 51.5047 89.5165C54.5026 88.8205 57.5753 88.6039 60.6289 88.8734C61.1266 88.9046 61.6098 89.0711 62.0354 89.3581Z" fill="#39395C"/>
<path d="M52.1163 68.8487C53.6622 68.8487 54.9154 67.4636 54.9154 65.7551C54.9154 64.0466 53.6622 62.6616 52.1163 62.6616C50.5705 62.6616 49.3173 64.0466 49.3173 65.7551C49.3173 67.4636 50.5705 68.8487 52.1163 68.8487Z" fill="#F6BD96"/>
<path d="M51.5747 69.6191C51.6149 69.796 51.6149 69.9811 51.5747 70.1579C51.5307 70.2814 51.4687 70.3962 51.3912 70.4977C51.1203 70.884 50.8204 71.2445 50.4949 71.5753C50.6607 71.9847 50.9593 72.3105 51.3318 72.4886C51.7016 72.6626 52.0896 72.7852 52.4867 72.8536C52.685 72.9112 52.8913 72.9269 53.0948 72.9C53.2823 72.8479 53.4599 72.7589 53.6189 72.6373L55.174 71.6081C55.4086 71.4676 55.6259 71.2943 55.8205 71.0925C56.1057 70.7685 56.2671 70.3357 56.2713 69.8837C56.2785 69.8027 56.2586 69.7216 56.2153 69.6558C56.1557 69.5985 56.081 69.5639 56.0022 69.5573C55.4553 69.4241 55.0237 68.9336 54.7791 68.3775C54.558 67.8074 54.4149 67.2041 54.3545 66.5874L52.6964 67.5529C52.45 67.6977 52.2054 67.8426 51.9503 67.9681C51.7878 68.0492 51.4594 68.1168 51.344 68.2809C51.1239 68.5841 51.517 69.2542 51.5747 69.6191Z" fill="#F6BD96"/>
<path d="M50.5054 71.0134C50.2693 71.2273 50.085 71.5027 49.969 71.8148C49.8606 72.201 49.969 72.6084 50.0668 72.9908C50.5254 74.6204 50.8758 76.2849 51.1152 77.9709C51.2619 79.1295 51.3161 80.3055 51.3877 81.4777C51.5345 83.8683 51.7477 87.6802 52.0325 90.0553C53.0808 90.1075 54.1029 89.7695 55.1426 89.646C57.0855 89.4181 59.0861 89.9395 60.9888 89.4529C60.5276 87.4388 60.0663 83.9996 59.605 81.9875C59.4009 81.1947 59.2594 80.3838 59.1822 79.564C59.142 78.9751 59.1665 78.3842 59.1734 77.7913C59.1892 76.6327 59.1315 75.4741 59.0739 74.3155C59.0075 72.9638 58.9411 71.612 58.651 70.2893C58.6308 70.1207 58.5593 69.9648 58.4483 69.8471C58.2736 69.7061 58.0465 69.7563 57.8386 69.7872C57.2019 69.8766 56.5576 69.7078 56.0249 69.3122C55.7943 69.1384 55.485 68.926 55.2701 69.1191C55.1784 69.2355 55.1179 69.378 55.0954 69.5304C54.903 70.083 54.5044 70.5172 54.0016 70.7218C53.5037 70.9211 52.9822 71.0395 52.4535 71.0733C52.2918 71.1117 52.1231 71.0906 51.9731 71.0134C51.7249 70.8454 51.7075 70.241 51.3947 70.2004C51.1204 70.1657 50.6906 70.8184 50.5054 71.0134Z" fill="#39395C"/>
<path d="M54.6393 75.7289C53.9946 75.0472 53.7115 74.0586 53.2415 73.2186C52.9214 72.6537 52.5126 72.1567 52.0341 71.751C51.7936 71.5754 51.5731 71.3686 51.3772 71.135C51.2112 70.909 51.0854 70.6078 50.8338 70.5209C50.6227 70.4701 50.4026 70.5373 50.245 70.7005C50.0909 70.8627 49.9451 71.0342 49.8082 71.2141C49.0673 72.0619 47.7656 72.1797 47.1786 73.1606C47.0202 73.3686 46.9125 73.6179 46.8658 73.8848C46.6968 75.3125 47.0308 76.7575 47.7988 77.9206C47.9475 78.1902 48.1759 78.3949 48.4453 78.4999C48.4088 78.86 48.4519 79.2245 48.5711 79.562C48.8946 80.7842 49.2921 81.9809 49.761 83.1441C49.6489 83.5991 49.5706 84.0634 49.5269 84.5325C49.4045 85.7123 49.5181 86.9096 49.4028 88.0914C49.3084 89.0569 49.0534 89.9973 49.0446 90.9648C49.0446 91.1192 49.0568 91.3027 49.1774 91.3819C49.2415 91.4183 49.3134 91.435 49.3853 91.4301L51.5344 91.5016C52.782 91.5421 54.0417 91.5827 55.27 91.3278C55.4336 91.301 55.5923 91.2456 55.7401 91.1637C56.1559 90.9068 56.2939 90.3275 56.3603 89.8119C56.447 89.1432 56.4815 88.4674 56.4634 87.7921C56.7237 88.7016 57.033 89.642 57.8193 90.0359C58.2351 90.2445 58.7104 90.229 59.1664 90.2155C60.1493 90.1671 61.1288 90.0556 62.1 89.8814C62.2214 89.8981 62.3427 89.8502 62.4271 89.7524C62.5115 89.6546 62.5489 89.5184 62.5281 89.3852L62.5386 88.3308C62.5595 86.1893 62.0791 84.1424 61.8921 82.0106C61.8327 81.3386 61.8379 80.6588 61.6894 80.0003C61.6283 79.7242 61.5392 79.4539 61.485 79.1758C61.4384 78.9036 61.4092 78.628 61.3976 78.3512L61.2613 76.2271C61.1967 75.2442 61.1041 74.2961 61.0359 73.3151C60.9985 72.3599 60.8732 71.4114 60.662 70.4842C60.51 69.9049 60.1938 69.2483 59.6469 69.1769C59.3551 69.1402 59.072 69.2812 58.7942 69.3797C58.1114 69.6172 57.3786 69.6139 56.6975 69.37C56.4871 69.2782 56.2679 69.2134 56.0441 69.1769C55.8147 69.1424 55.5863 69.2472 55.4465 69.4511C55.3787 69.602 55.3468 69.7695 55.3539 69.9377C55.2718 71.8668 55.1198 73.8539 54.6393 75.7289Z" fill="#D73B1D"/>
<path d="M51.828 75.787C51.0225 74.8485 50.1961 73.8926 49.1582 73.2959C48.7493 73.0604 48.2846 72.8827 47.832 72.9715C47.3795 73.0604 46.9584 73.4948 46.9794 74.0027C46.9934 74.3175 47.1663 74.5955 47.2205 74.9045C47.2834 75.2521 47.1926 75.6228 47.2904 75.9588C47.3699 76.1802 47.4887 76.3818 47.6398 76.5517L48.8769 78.1718C49.4011 78.8477 49.9252 79.5332 50.5997 80.0005C51.2741 80.4678 52.1477 80.686 52.8886 80.3539C53.4157 80.0831 53.8539 79.6386 54.1431 79.0813C54.4506 78.5406 54.6673 77.9497 54.9556 77.3917C55.4043 76.5 55.9964 75.7062 56.7028 75.0493C56.3394 74.945 55.8833 74.7983 55.6545 74.47C55.5893 74.3656 55.5337 74.2544 55.4885 74.1379L55.2054 73.462C55.0108 73.4508 54.8208 73.5299 54.6812 73.6802C54.5599 73.8353 54.4297 73.9817 54.2916 74.1186C54.0452 74.3232 53.7115 74.3792 53.4879 74.6129C53.4013 74.7132 53.323 74.8218 53.2537 74.9373C52.9115 75.4344 52.3918 75.7441 51.828 75.787Z" fill="#39395C"/>
<path d="M56.7675 71.7493C57.3738 70.5269 57.3459 69.0613 57.5188 67.6806C57.5376 67.3149 57.6537 66.9636 57.8526 66.6706C58.202 66.2342 58.8188 66.2284 59.3465 66.2844C59.502 66.3037 59.6959 66.3849 59.6872 66.5567C59.6749 66.6183 59.6477 66.675 59.6085 66.7209C59.0971 67.4504 58.7963 68.3332 58.7454 69.2544C59.0197 69.4649 59.4443 69.0323 59.7081 69.2544C59.8829 69.4166 59.8025 69.7371 59.6977 69.9689C59.4542 70.5057 59.2032 71.0386 58.9446 71.5677C58.7382 72.0341 58.4689 72.4632 58.1461 72.8403C57.9242 73.0759 57.6639 73.2613 57.4385 73.493C56.9143 74.0356 56.598 74.8022 56.0564 75.3313C56.0106 75.3861 55.9487 75.4211 55.8817 75.4298C55.8128 75.4244 55.7478 75.3922 55.6982 75.3391C55.4276 75.0958 55.2032 74.7959 55.0378 74.4566C54.8316 74.0356 54.863 73.912 55.188 73.6146C55.7961 73.0836 56.3884 72.514 56.7675 71.7493Z" fill="#F6BD96"/>
<path d="M50.8146 74.9565C50.9194 75.0279 51.0487 75.109 51.164 75.0492C51.2111 75.0177 51.2512 74.9747 51.2811 74.9236C51.4808 74.629 51.6475 74.3087 51.7773 73.9697C51.7996 73.9218 51.8122 73.8691 51.814 73.8152C51.814 73.6916 51.7144 73.6009 51.6218 73.5294C51.1256 73.1799 50.5921 72.8997 50.0335 72.6952C49.5723 72.5021 49.09 72.3341 48.6008 72.3824C48.2294 72.41 47.8842 72.6038 47.6451 72.9192C47.2956 73.4155 47.8809 73.5661 48.2479 73.7457C49.097 74.1725 50.0161 74.4196 50.8146 74.9565Z" fill="#6C63FF"/>
<path opacity="0.1" d="M50.2642 78.2393C50.2523 78.3287 50.2795 78.419 50.3376 78.4826C50.3883 78.2084 50.3219 77.9187 50.3743 77.6426C50.4512 77.2274 50.8164 76.9146 50.8478 76.4975C50.1786 76.3527 50.2695 77.7913 50.2642 78.2393Z" fill="#39395C"/>
<path opacity="0.2" d="M81.0716 63.1387V65.0407L73.9674 65.5177L73.7524 63.6137L81.0716 63.1387Z" fill="black"/>
<path d="M49.5968 66.2148C50.0406 65.8151 49.7837 64.977 50.0842 64.4402C50.259 64.1466 50.5543 63.9922 50.8443 63.8609C51.1943 63.6798 51.5694 63.565 51.9538 63.521C52.3438 63.4796 52.7296 63.6366 53.0021 63.9477C53.1157 64.0906 53.1926 64.2644 53.2992 64.4131C53.5681 64.7665 53.9909 64.9282 54.3999 64.8341C54.6323 64.7762 54.8734 64.5811 54.8577 64.3185C54.8315 64.1588 54.7577 64.0133 54.648 63.9053L54.1483 63.2931C53.5805 62.598 52.9497 61.8603 52.1163 61.6865C51.5362 61.5649 50.9421 61.7367 50.383 61.9433C50.1576 62.0264 49.9043 62.15 49.8414 62.4029C49.7994 62.5767 49.8623 62.766 49.8257 62.9417C49.754 63.2912 49.3487 63.409 49.16 63.7025C48.9713 63.996 49.0289 64.3436 48.9747 64.668C48.9206 64.9924 48.7633 65.3091 48.7441 65.6451C48.7319 65.8479 48.8245 66.2244 49.0307 66.2978C49.2368 66.3712 49.4692 65.9734 49.5968 66.2148Z" fill="#3F3D56"/>
<path d="M54.6882 64.0404C54.5409 63.1908 54.2233 62.3885 53.7587 61.6923C53.3456 61.0418 52.7709 60.5375 52.104 60.2402C51.4287 59.9485 50.6697 60.0147 50.044 60.4197C49.5856 60.7814 49.2289 61.2787 49.0149 61.8545C48.5624 62.932 48.3946 64.249 48.9206 65.284C49.1302 65.0021 49.4902 65.1295 49.8082 65.0272C50.2065 64.9017 50.5438 64.6082 50.9229 64.4247C52.0674 63.8666 53.4651 64.3185 54.6882 64.0404Z" fill="#58595B"/>
<path opacity="0.1" d="M49.188 63.9808C49.1478 63.6332 49.1216 63.2296 49.3452 62.9825C49.3678 62.9518 49.4021 62.9346 49.4378 62.9361C49.4693 62.9474 49.4952 62.9726 49.5095 63.0056C49.6385 63.2308 49.7485 63.4687 49.8379 63.7163C49.5715 63.6484 49.2945 63.767 49.139 64.0156" fill="black"/>
<path opacity="0.1" d="M53.2712 62.9999L53.2083 62.3106C53.1982 62.2538 53.2024 62.195 53.2205 62.1406C53.2751 62.0464 53.3853 62.0131 53.4756 62.0634C53.5616 62.116 53.6324 62.1943 53.6801 62.2893C53.8255 62.5361 53.9462 62.7996 54.04 63.0753C53.7586 63.0153 53.4691 63.0193 53.1891 63.0868" fill="black"/>
<path opacity="0.1" d="M54.8351 90.9785V92.5542L53.6312 92.6431H47.2992V90.9785H54.8351Z" fill="black"/>
<path d="M54.8351 90.9785V92.6431H47.2992L27.2793 64.9269V63.6177H31.4762L54.8351 90.9785Z" fill="#F1C0C0"/>
<path opacity="0.1" d="M54.8351 90.9785V92.6431H47.2992L27.2793 64.9269V63.6177H31.4762L54.8351 90.9785Z" fill="black"/>
<path opacity="0.1" d="M54.8351 90.9785V92.6431H47.2992L27.2793 64.9269V63.6177L47.4075 90.9785H54.8351Z" fill="black"/>
<path d="M29.9036 118.758C29.9302 118.917 29.896 119.08 29.8092 119.209C29.7223 119.339 29.5907 119.422 29.4458 119.44C28.9601 119.622 28.4447 119.801 28.1004 120.212C27.7562 120.624 27.6881 121.387 28.1004 121.721C28.3112 121.861 28.5532 121.934 28.7993 121.931C29.5908 121.991 30.4155 121.979 31.1337 121.609C31.6473 121.346 32.1313 120.898 32.6957 120.939C32.9875 120.958 33.2985 121.108 33.5588 120.962C33.8192 120.815 33.8926 120.406 33.8943 120.064C33.9009 119.35 33.8036 118.64 33.606 117.961C33.5798 117.868 32.4686 117.797 32.3358 117.768L30.9886 117.575C30.7335 117.538 30.1832 117.326 29.9822 117.561C29.7813 117.797 29.9036 118.478 29.9036 118.758Z" fill="#D24242"/>
<path d="M37.9427 113.938C37.9997 114.286 38.0924 114.626 38.2188 114.95C38.4057 115.475 38.6451 116.034 39.1029 116.288C39.5187 116.518 40.0289 116.435 40.4518 116.217C40.6282 116.136 40.7829 116.007 40.9008 115.84C41.0372 115.578 41.0981 115.275 41.0755 114.973C41.0755 114.226 41.0353 113.454 40.7261 112.789C40.4605 112.21 39.9975 111.712 39.9905 111.071L38.3987 111.411C38.3135 111.42 38.2324 111.455 38.1646 111.513C38.1142 111.572 38.0791 111.644 38.0633 111.723C37.8933 112.446 37.8524 113.198 37.9427 113.938Z" fill="#D24242"/>
<path d="M18.9344 95.5935C18.868 96.2153 18.8959 96.8815 19.1895 97.4183C19.483 97.9551 20.1015 98.3104 20.6362 98.0961C20.6915 98.0805 20.7388 98.0408 20.7672 97.986C20.7814 97.9208 20.7734 97.852 20.7445 97.7929C20.5085 97.0967 20.5279 96.3262 20.7987 95.6456C20.8336 95.5568 20.9087 95.4525 20.9909 95.4873C21.0252 95.5065 21.0529 95.5377 21.0695 95.5761C21.1541 95.7378 21.1964 95.9223 21.1918 96.109C21.1671 96.2782 21.1624 96.4502 21.1778 96.6208C21.211 96.7868 21.3718 96.9433 21.5115 96.8718C21.5932 96.8164 21.6507 96.7263 21.6705 96.6227C22.0602 95.3772 21.8837 94.0158 21.7055 92.7124C21.7085 92.6518 21.687 92.5928 21.6469 92.5514C21.6067 92.51 21.552 92.4905 21.4976 92.498C20.6729 92.4073 20.2221 92.189 19.7503 93.0368C19.345 93.7513 18.9344 94.7342 18.9344 95.5935Z" fill="#F6BD96"/>
<path d="M28.5757 92.4246C28.3311 93.5485 28.0847 94.6859 28.069 95.8406C28.0733 96.5599 28.1223 97.278 28.2157 97.9899L28.3992 99.6621C28.4621 100.226 28.5233 100.788 28.6124 101.346C28.6692 101.634 28.7002 101.927 28.705 102.221C28.6878 102.511 28.6463 102.799 28.5809 103.08C28.471 103.671 28.4096 104.272 28.3975 104.876C28.3782 105.841 28.4866 106.807 28.5547 107.772C28.6907 109.697 28.6703 111.63 28.4935 113.55C28.423 114.068 28.5248 114.597 28.7801 115.039C28.8837 115.178 28.969 115.333 29.0334 115.499C29.1645 115.941 28.8587 116.383 28.7801 116.837C28.6754 117.574 29.1304 118.265 29.797 118.382C31.1948 118.565 32.631 118.482 33.8908 119.189C34.0236 118.76 33.7335 118.273 33.8663 117.837C33.9502 117.567 34.1808 117.391 34.3381 117.163C34.5493 116.816 34.6546 116.403 34.6386 115.985C34.6448 115.44 34.557 114.898 34.38 114.388C34.2315 113.963 34.0183 113.544 34.0306 113.089C34.0306 112.865 34.1022 112.629 34.0201 112.422C33.9638 112.304 33.8872 112.198 33.7947 112.112C33.2725 111.479 32.9516 110.676 32.8809 109.823C32.8127 108.977 32.8374 108.125 32.9543 107.286C33.0399 106.486 33.1552 105.643 33.6147 105.019C33.4016 103.128 33.5269 101.208 33.9834 99.3706C34.0288 99.2006 34.1005 99.0037 34.2577 98.9631C34.3845 98.9488 34.5096 99.0035 34.5932 99.1099C34.8675 99.3937 34.9985 99.805 35.1173 100.199C35.2484 100.626 35.3812 101.081 35.2816 101.518C35.2397 101.711 35.1558 101.881 35.1069 102.066C35.0006 102.439 35.0192 102.841 35.1593 103.2C35.2276 103.331 35.2704 103.476 35.2851 103.627C35.2689 103.756 35.2335 103.881 35.1803 103.997C35.0492 104.459 35.1019 104.961 35.3253 105.378C35.548 105.788 35.8228 106.161 36.1412 106.484C35.9891 107.226 36.0284 107.999 36.2548 108.717C36.2878 108.782 36.296 108.859 36.2775 108.931C36.2461 109.004 36.1657 109.032 36.1028 109.084C35.9281 109.242 36.0364 109.541 36.1535 109.748C36.4743 110.315 36.8286 110.858 37.214 111.374C37.5635 111.835 37.532 112.726 38.0527 112.892C38.2715 112.944 38.4979 112.944 38.7167 112.892C39.2304 112.805 39.8035 112.641 40.0551 112.139C40.1581 111.932 40.2001 111.681 40.3608 111.526C40.5216 111.372 40.7295 111.345 40.8186 111.16C40.9077 110.974 40.8081 110.731 40.8378 110.516C40.8675 110.302 41.037 110.13 41.0912 109.904C41.2205 109.383 40.6701 108.954 40.595 108.421C40.4866 107.649 41.3672 107.07 41.3305 106.297C41.2537 104.619 41.2047 102.933 41.1261 101.255C41.0274 99.7521 41.0134 98.2436 41.0842 96.7386C41.1453 95.802 41.2589 94.821 40.9479 93.9501C40.5006 92.722 39.2671 92.0326 38.0737 91.9013C36.8803 91.77 35.6904 92.0828 34.5076 92.2875C32.5444 92.6219 30.5498 92.668 28.5757 92.4246Z" fill="#39395C"/>
<path d="M32.1226 73.9678C33.6685 73.9678 34.9217 72.5828 34.9217 70.8743C34.9217 69.1658 33.6685 67.7808 32.1226 67.7808C30.5767 67.7808 29.3235 69.1658 29.3235 70.8743C29.3235 72.5828 30.5767 73.9678 32.1226 73.9678Z" fill="#F6BD96"/>
<path d="M30.9834 74.5456C30.7888 75.0465 30.3353 75.3634 29.8424 75.3431C29.7411 75.8066 29.984 76.2739 30.2618 76.6388C31.4364 78.1496 33.2584 78.8402 35.0248 78.4444C35.3623 78.3776 35.6826 78.2299 35.963 78.0118C36.3411 77.6629 36.595 77.1771 36.6794 76.6408C36.7598 76.1082 36.7827 75.5669 36.7476 75.0284C36.7574 74.922 36.7298 74.8156 36.6707 74.731C36.6008 74.6712 36.5144 74.6398 36.4261 74.6422C35.8355 74.5842 35.2187 74.5591 34.6998 74.2386C34.1809 73.918 33.8122 73.1939 34.062 72.5991C34.0219 72.6918 33.0015 72.7362 32.8669 72.7555C32.4458 72.8212 32.0248 72.8946 31.6054 72.9795C31.4039 72.9918 31.2048 73.0333 31.0131 73.1031C30.7597 73.2479 30.8541 73.1765 30.9135 73.4391C31.0026 73.8408 31.1337 74.1285 30.9834 74.5456Z" fill="#F6BD96"/>
<path d="M33.1133 76.4264C32.7363 76.4312 32.3602 76.3852 31.9933 76.2893C31.6229 76.1937 31.2964 75.9529 31.0743 75.6115C30.945 75.3952 30.8611 75.123 30.655 75.0013C30.3177 74.8082 29.9333 75.1346 29.6643 75.4339C29.4193 75.729 29.1354 75.9816 28.8221 76.1831C28.4482 76.4013 28.0114 76.4786 27.6584 76.7354C27.3827 76.9656 27.1461 77.2481 26.9595 77.5696L24.4837 81.2965C23.4895 82.795 22.6246 84.4035 21.7388 85.985C20.9717 87.3541 20.5699 88.9299 19.9915 90.4071C19.9457 90.4975 19.9268 90.6015 19.9374 90.7045C19.9583 90.8049 20.0684 90.886 20.1453 90.8281C19.8849 91.1139 20.1138 91.6005 20.0527 92.0021C19.9832 92.2832 19.8382 92.5343 19.6368 92.7224C20.0214 92.667 20.4118 92.6872 20.79 92.7823C21.1809 92.9047 21.5497 93.1007 21.8803 93.3616C22.0917 93.3249 22.0725 92.9097 22.2298 92.7552C22.3241 92.6645 22.4639 92.6761 22.5879 92.649C23.0544 92.5486 23.2397 91.9288 23.5978 91.5792C23.8966 91.2877 24.3195 91.193 24.6357 90.9188C25.1494 90.4728 25.2595 89.6791 25.5285 89.0206C25.7574 88.4626 26.1174 87.9759 26.3183 87.4043C26.4493 87.0336 26.5122 86.6319 26.6992 86.2901C26.998 85.7379 27.5606 85.4443 28.097 85.1798C28.436 85.0118 28.7959 84.838 29.1611 84.865C29.1418 85.763 29.0388 86.6474 29.2152 87.5241C29.2764 87.833 29.362 88.1343 29.4354 88.4413C29.7691 89.8239 29.8477 91.2645 29.8635 92.6896C30.6662 92.4866 31.4862 92.3778 32.3096 92.3652C32.9578 92.3439 33.6043 92.4366 34.2525 92.4231C35.0213 92.4077 35.7814 92.2435 36.5502 92.1856C37.3189 92.1277 38.1227 92.1856 38.8024 92.5718C38.7472 91.348 38.7781 90.1213 38.895 88.9028L39.0802 86.9834C39.122 86.4257 39.1996 85.872 39.3125 85.3266C39.4139 84.8863 39.5607 84.4614 39.6725 84.0231C40.0656 82.4783 39.994 80.8292 39.9188 79.2206C39.8804 78.3941 39.5921 77.5812 39.2531 76.8454C39.1305 76.5722 38.9903 76.3089 38.8338 76.0576C38.0012 74.7898 36.6384 74.0826 35.224 74.1845C35.1351 74.1875 35.0475 74.2085 34.9654 74.2463C34.8179 74.3506 34.7027 74.5022 34.6352 74.6808C34.2737 75.3988 33.7492 76.0005 33.1133 76.4264Z" fill="#39395C"/>
<path d="M29.6608 71.8999C29.7394 71.7068 29.9508 71.6353 30.0801 71.4809C30.3282 71.1873 30.2164 70.7181 30.2548 70.3222C30.3177 69.7429 30.7528 69.2582 31.2508 69.0516C31.7586 68.8715 32.2989 68.8337 32.8233 68.9415C33.0757 68.9619 33.3195 69.0515 33.5327 69.2022C33.6235 69.2756 33.7074 69.3702 33.793 69.4378C34.1176 69.6546 34.5393 69.5458 34.7435 69.1926C34.125 68.37 33.44 67.501 32.5 67.248C32.1775 67.1753 31.8489 67.141 31.5198 67.1457C31.0848 67.136 30.6357 67.1283 30.2339 67.3117C29.687 67.5609 29.3026 68.1344 29.1051 68.7523C28.9325 69.3786 28.8401 70.0287 28.8308 70.6833C28.795 71.1201 28.795 71.5596 28.8308 71.9964C28.8984 72.593 29.0989 73.1616 29.4144 73.6513C29.4571 73.7274 29.5174 73.7894 29.5891 73.8309C30.3859 74.2171 29.5961 72.0602 29.6608 71.8999Z" fill="#3F3D56"/>
<path d="M34.6526 68.7155C34.5565 67.806 33.9694 67.0548 33.3456 66.4504C32.8429 65.9263 32.244 65.5279 31.5896 65.2822C30.9309 65.0678 30.1726 65.1142 29.6083 65.5486C29.154 65.8982 28.8657 66.4543 28.6438 67.0143C28.3523 67.6751 28.2079 68.4034 28.2227 69.1384C28.2664 69.8684 28.5879 70.6079 29.161 70.9768C29.3672 70.6408 29.7253 70.467 30.0695 70.3299C31.5698 69.7008 33.0997 69.1619 34.6526 68.7155Z" fill="#58595B"/>
<path opacity="0.1" d="M29.3532 68.337C29.4091 68.337 29.4458 68.4007 29.4738 68.4529C29.6161 68.6978 29.7383 68.9563 29.839 69.2253C29.6345 69.2736 29.2833 69.3276 29.182 69.1287C29.1278 69.0283 29.1925 68.3274 29.3532 68.337Z" fill="black"/>
<path opacity="0.1" d="M33.3352 67.9008C33.2932 67.9452 33.2443 67.8545 33.2443 67.7888V67.0396C33.2432 67.0187 33.2474 66.998 33.2566 66.9797C33.2712 66.9612 33.292 66.95 33.3142 66.9488C33.4557 66.9314 33.5728 67.0647 33.6637 67.1921C33.8015 67.3987 33.9215 67.6191 34.0218 67.8506L33.2828 67.8255" fill="black"/>
<path d="M42.5589 80.3075C42.7197 80.1388 42.8913 79.9833 43.0725 79.8421C43.5565 79.4849 44.1419 79.3439 44.6853 79.1161C45.2286 78.8882 45.7808 78.5194 45.9922 77.9208C46.098 77.5464 46.1325 77.1519 46.0935 76.7621C46.0986 76.5989 46.0724 76.4364 46.0167 76.2852C45.9501 76.1515 45.8554 76.0376 45.7406 75.953C45.0032 75.3505 44.0143 75.3023 43.0988 75.3641C41.0802 75.5024 39.1017 76.0482 37.2612 76.9745C37.1639 77.0101 37.0786 77.0774 37.0166 77.1677C36.9808 77.2513 36.9645 77.3436 36.9694 77.4361C36.9369 78.0055 37.0039 78.5766 37.1669 79.118C37.408 79.8054 37.9042 80.3597 38.1121 81.0606C38.2065 81.3754 38.2379 81.7094 38.32 82.0261C38.3874 82.3532 38.5624 82.6409 38.811 82.8333C39.5012 83.289 40.1529 82.6769 40.6316 82.2019L42.5589 80.3075Z" fill="#3F3D56"/>
<path d="M33.5205 82.9819L32.6346 80.8462C32.5047 80.5502 32.3927 80.2451 32.2991 79.9328C32.1978 79.5601 32.1489 79.1739 32.0545 78.7993C31.7435 77.5519 30.959 76.513 30.5764 75.2906C30.5522 75.1803 30.5029 75.0786 30.4331 74.9952C30.32 74.9068 30.1773 74.8785 30.0435 74.9179C29.5088 75.0203 29.0912 75.4702 28.602 75.7251C28.3748 75.841 28.1302 75.9182 27.9031 76.0515C27.6733 76.1717 27.5024 76.3966 27.4348 76.6675C27.3807 76.9629 27.5134 77.2468 27.6253 77.5345C28.1005 78.7201 28.2088 80.0448 28.2298 81.3425C28.2455 82.2153 28.2054 83.1519 27.7388 83.8528C26.8425 85.2046 27.4156 87.1897 27.7511 88.8252C27.7913 89.0184 27.8384 89.2269 27.8664 89.4316C27.896 89.6877 27.9094 89.9458 27.9066 90.204C27.9066 91.071 27.8629 91.9651 27.5344 92.751C27.8587 92.9417 28.2161 93.0537 28.5828 93.0793C29.5973 93.2222 30.616 93.3226 31.6387 93.3806C31.9591 93.4139 32.2822 93.3956 32.5979 93.3265C33.3692 93.0961 33.9008 92.3169 33.8891 91.4341C33.945 91.969 34.0481 92.5502 34.3993 92.921C34.7505 93.2917 35.2625 93.3477 35.7395 93.3767C37.0857 93.4556 38.4355 93.4136 39.7756 93.2512C39.8611 93.2469 39.9452 93.2253 40.0237 93.1875C40.2823 93.0446 40.2963 92.6506 40.2753 92.3339C40.2369 91.7411 40.1967 91.1483 40.132 90.5593C40.0772 90.1838 40.0492 89.8042 40.0482 89.4239C40.0748 89.0326 40.1333 88.6449 40.2229 88.2652C40.457 87.0603 40.6422 85.8302 40.5636 84.5963C40.5325 84.2957 40.5214 83.993 40.5304 83.6906C40.5758 83.009 40.9008 82.3601 40.8397 81.6824C40.6649 79.6895 40.5234 77.6446 40.0202 75.7212C39.9294 75.3775 39.814 75.0087 39.5432 74.8117C39.1938 74.553 38.7028 74.6881 38.3027 74.524C38.1149 74.4274 37.9364 74.3104 37.7698 74.1745C37.4077 73.9242 36.9927 73.7831 36.5659 73.7651C36.2444 73.7516 35.8862 73.8308 35.6923 74.1166C35.6025 74.2775 35.5431 74.4568 35.5176 74.6437C35.2642 75.8217 34.9672 76.9861 34.6702 78.1505L34.3854 79.2666L33.6218 82.2636C33.5467 82.5822 33.5973 82.6807 33.5205 82.9819Z" fill="#D73B1D"/>
<path d="M37.9881 71.2896L54.8892 90.9185V92.5831H47.3533L34.6526 74.2633" fill="#F1C0C0"/>
<path opacity="0.1" d="M37.9881 71.2896L54.8892 90.9185V92.5831H47.3533L34.6526 74.2633" fill="black"/>
<path opacity="0.1" d="M34.9217 74.0049L34.9758 74.0261L47.4616 90.9188H54.8892V92.5834H47.3533L34.6526 74.2636L34.9217 74.0049Z" fill="black"/>
<path d="M36.8664 74.4178C36.2549 74.7133 35.5752 75.0918 35.3917 75.8024C35.3555 75.9271 35.3477 76.0597 35.369 76.1886C35.4605 76.4987 35.7155 76.7145 36.0103 76.7312C36.298 76.7389 36.5841 76.6811 36.8507 76.5613L40.4588 75.2443C40.5566 75.2095 40.6684 75.1574 40.6929 75.0512C40.6992 74.9844 40.687 74.9171 40.6579 74.8581C40.5461 74.5569 40.436 73.9409 40.2019 73.7304C40.0097 73.5604 39.6288 73.6203 39.3964 73.6242C38.5018 73.6319 37.6614 74.0316 36.8664 74.4178Z" fill="#F6BD96"/>
<path d="M40.083 75.4006C40.6909 75.3987 41.2952 75.5023 41.874 75.7077C42.4553 75.9163 42.9702 76.305 43.3574 76.8277C43.4701 76.9738 43.5503 77.147 43.5915 77.3336C43.6264 77.5267 44.196 77.6426 44.0702 77.7739C44.4529 77.7063 44.362 77.9052 44.7499 77.9013C45.1378 77.8975 45.5571 77.7874 45.7895 77.4456C45.951 77.1648 46.0229 76.8325 45.994 76.5013C45.9991 76.2721 45.9597 76.0443 45.8786 75.8332C45.7039 75.4277 45.3021 75.2095 44.9316 75.0222L41.8111 73.4445C41.63 73.3381 41.4357 73.2619 41.2345 73.2186C41.0651 73.2009 40.8944 73.2054 40.726 73.2321L39.3125 73.4117C39.9414 73.8615 40.3088 74.6448 40.2787 75.4721" fill="#39395C"/>
</svg>
