<svg width="142" height="140" viewBox="0 0 142 140" fill="none" xmlns="http://www.w3.org/2000/svg">
<g id="Group 5">
<path id="Fill 165" fill-rule="evenodd" clip-rule="evenodd" d="M70.7 139.084C70.5796 139.084 70.4592 139.053 70.35 138.992L0.35 98.5735C0.1316 98.4475 0 98.2151 0 97.9659V66.3875C0 66.0011 0.3136 65.6875 0.7 65.6875C1.0836 65.6875 1.4 66.0011 1.4 66.3875V97.5627L70.7 137.575L140 97.5627V66.3875C140 66.0011 140.314 65.6875 140.7 65.6875C141.084 65.6875 141.4 66.0011 141.4 66.3875V97.9659C141.4 98.2151 141.266 98.4475 141.05 98.5735L71.05 138.992C70.938 139.053 70.8204 139.084 70.7 139.084Z" fill="#221C35"/>
<path id="Fill 166" fill-rule="evenodd" clip-rule="evenodd" d="M70.7 139.084C70.3136 139.084 70 138.77 70 138.384V106.803C70 106.416 70.3136 106.103 70.7 106.103C71.0836 106.103 71.4 106.416 71.4 106.803V138.384C71.4 138.77 71.0836 139.084 70.7 139.084Z" fill="#221C35"/>
<path id="Fill 167" fill-rule="evenodd" clip-rule="evenodd" d="M70.7 107.502C70.5796 107.502 70.4592 107.472 70.35 107.407L0.35 66.9948C0.1316 66.8688 0 66.6364 0 66.3872C0 66.138 0.1316 65.9056 0.35 65.7796L7.546 61.6244C7.8736 61.4312 8.302 61.5432 8.5036 61.882C8.694 62.2152 8.5792 62.6436 8.246 62.8368L2.1 66.3872L70.7 105.993L139.3 66.3872L132.166 62.2684C131.832 62.0752 131.718 61.6468 131.908 61.3108C132.101 60.972 132.535 60.8628 132.866 61.056L141.05 65.7796C141.266 65.9056 141.4 66.138 141.4 66.3872C141.4 66.6364 141.266 66.8688 141.05 66.9948L71.05 107.407C70.938 107.472 70.8204 107.502 70.7 107.502Z" fill="#221C35"/>
<path id="Fill 168" fill-rule="evenodd" clip-rule="evenodd" d="M10.1304 58.707C10.01 58.707 9.88678 58.6734 9.78039 58.6146L5.31439 56.0358C5.13799 55.935 5.01759 55.7614 4.97839 55.5626L2.52559 42.985L0.568385 41.8538C0.235185 41.6606 0.120385 41.235 0.310785 40.8962C0.506785 40.5602 0.935185 40.4482 1.26839 40.6414L3.50279 41.9294C3.67639 42.0302 3.79959 42.201 3.83879 42.4026L6.29159 54.983L9.67679 56.9374L11.9644 47.8458C12.0176 47.633 12.166 47.4566 12.3704 47.3698C12.5692 47.2858 12.8044 47.3026 12.992 47.409L15.2236 48.697C15.5568 48.8902 15.6716 49.3186 15.4812 49.6518C15.2824 49.9878 14.8484 50.097 14.5236 49.9094L13.0956 49.0834L10.808 58.175C10.7548 58.3906 10.6064 58.5642 10.402 58.651C10.3152 58.6874 10.2228 58.707 10.1304 58.707Z" fill="#21517F"/>
<path id="Fill 169" fill-rule="evenodd" clip-rule="evenodd" d="M24.0856 66.7626C23.9652 66.7626 23.8448 66.7318 23.7356 66.6702L19.2696 64.0914C19.096 63.9906 18.9728 63.817 18.9336 63.6182L16.4808 51.0406L14.5236 49.9094C14.1904 49.7162 14.0756 49.2878 14.266 48.9518C14.462 48.6158 14.896 48.5038 15.2236 48.697L17.458 49.9878C17.6316 50.0886 17.7548 50.2594 17.794 50.461L20.2468 63.0386L23.632 64.993L25.9196 55.9014C25.9728 55.6886 26.124 55.5094 26.3256 55.4254C26.5244 55.3442 26.7568 55.3554 26.95 55.4646L29.1788 56.7554C29.5176 56.9486 29.6296 57.377 29.4364 57.7102C29.2376 58.0434 28.8092 58.1582 28.4788 57.9678L27.0536 57.139L24.7632 66.2306C24.7128 66.4434 24.5616 66.6198 24.36 66.7066C24.2704 66.743 24.178 66.7626 24.0856 66.7626Z" fill="#21517F"/>
<path id="Fill 170" fill-rule="evenodd" clip-rule="evenodd" d="M38.0408 74.8211C37.9204 74.8211 37.8028 74.7903 37.6908 74.7259L33.2276 72.1499C33.0512 72.0463 32.928 71.8755 32.8916 71.6767L30.4388 59.0963L28.4788 57.9679C28.1456 57.7747 28.0308 57.3463 28.224 57.0103C28.4172 56.6715 28.8484 56.5651 29.1788 56.7555L31.4132 58.0435C31.5896 58.1443 31.7128 58.3151 31.7492 58.5139L34.202 71.0971L37.5872 73.0515L39.8776 63.9599C39.928 63.7471 40.0792 63.5679 40.2808 63.4839C40.4824 63.4027 40.7148 63.4139 40.9052 63.5231L43.1368 64.8111C43.4728 65.0071 43.5848 65.4355 43.3944 65.7687C43.1956 66.1047 42.7616 66.2111 42.4368 66.0263L41.0088 65.1975L38.7212 74.2891C38.668 74.5019 38.5168 74.6783 38.3152 74.7651C38.2284 74.8015 38.136 74.8211 38.0408 74.8211Z" fill="#21517F"/>
<path id="Fill 171" fill-rule="evenodd" clip-rule="evenodd" d="M51.9988 82.8793C51.8784 82.8793 51.7552 82.8457 51.6488 82.7841L47.18 80.2081C47.0064 80.1045 46.8832 79.9337 46.844 79.7349L44.394 67.1517L42.4368 66.0261C42.1036 65.8329 41.9888 65.4045 42.1792 65.0685C42.3752 64.7297 42.8064 64.6205 43.1368 64.8109L45.3712 66.0989C45.5448 66.2025 45.668 66.3733 45.7072 66.5721L48.1572 79.1553L51.5452 81.1097L53.83 72.0181C53.8832 71.8053 54.0316 71.6289 54.236 71.5421C54.4348 71.4581 54.6644 71.4665 54.8576 71.5785L57.092 72.8665C57.4252 73.0625 57.54 73.4881 57.3496 73.8241C57.1508 74.1601 56.7168 74.2665 56.392 74.0817L54.9612 73.2557L52.6764 82.3473C52.6232 82.5601 52.4748 82.7365 52.2704 82.8233C52.1836 82.8597 52.0912 82.8793 51.9988 82.8793Z" fill="#21517F"/>
<path id="Fill 172" fill-rule="evenodd" clip-rule="evenodd" d="M65.954 90.935C65.8336 90.935 65.7132 90.9014 65.604 90.8398L61.1352 88.261C60.9616 88.1602 60.8384 87.9894 60.7992 87.7906L58.3492 75.2102L56.392 74.0818C56.0588 73.8886 55.944 73.4574 56.1344 73.1242C56.3304 72.7854 56.7644 72.6762 57.092 72.8666L59.3264 74.1574C59.5028 74.261 59.6232 74.4318 59.6624 74.6306L62.1124 87.211L65.5004 89.1654L67.7852 80.0738C67.8384 79.861 67.9896 79.6846 68.1912 79.5978C68.39 79.511 68.6224 79.5278 68.8156 79.6342L71.05 80.925C71.3832 81.121 71.498 81.5494 71.3048 81.8826C71.106 82.2158 70.6776 82.325 70.35 82.1402L68.9192 81.3114L66.6316 90.403C66.5812 90.6158 66.43 90.7922 66.2284 90.879C66.1416 90.9154 66.0464 90.935 65.954 90.935Z" fill="#21517F"/>
<path id="Fill 173" fill-rule="evenodd" clip-rule="evenodd" d="M2.1 41.1173L70.7 80.7233L139.3 41.1173L70.7 1.5113L2.1 41.1173ZM70.7 82.2325C70.5796 82.2325 70.4592 82.2017 70.35 82.1401L0.35 41.7221C0.1316 41.5961 0 41.3637 0 41.1173C0 40.8681 0.1316 40.6357 0.35 40.5097L70.35 0.0945C70.5684 -0.0315 70.8288 -0.0315 71.05 0.0945L141.05 40.5097C141.266 40.6357 141.4 40.8681 141.4 41.1173C141.4 41.3637 141.266 41.5961 141.05 41.7221L71.05 82.1401C70.938 82.2017 70.8204 82.2325 70.7 82.2325Z" fill="#21517F"/>
<path id="Fill 174" fill-rule="evenodd" clip-rule="evenodd" d="M65.954 90.9349C65.7132 90.9349 65.478 90.8089 65.3492 90.5877C65.156 90.2489 65.268 89.8233 65.6012 89.6301L135.125 49.2345L136.735 42.8449C136.828 42.4697 137.194 42.2233 137.581 42.3353C137.959 42.4277 138.186 42.8085 138.09 43.1837L136.41 49.8617C136.366 50.0437 136.248 50.2033 136.086 50.2957L66.3068 90.8369C66.1948 90.9041 66.0744 90.9349 65.954 90.9349Z" fill="#21517F"/>
<path id="Fill 175" fill-rule="evenodd" clip-rule="evenodd" d="M51.9988 82.8793C51.758 82.8793 51.5228 82.7533 51.394 82.5321C51.2008 82.1933 51.3128 81.7677 51.646 81.5745L59.2088 77.1757C59.5448 76.9769 59.9704 77.0945 60.1664 77.4277C60.3596 77.7637 60.2476 78.1921 59.9144 78.3853L52.3516 82.7813C52.2396 82.8485 52.1192 82.8793 51.9988 82.8793Z" fill="#21517F"/>
<path id="Fill 176" fill-rule="evenodd" clip-rule="evenodd" d="M38.0547 74.8208C37.8139 74.8208 37.5787 74.6948 37.4527 74.4736C37.2567 74.1376 37.3687 73.7092 37.7019 73.516L45.2703 69.12C45.6035 68.9184 46.0319 69.036 46.2251 69.3692C46.4211 69.708 46.3091 70.1336 45.9731 70.3268L38.4075 74.7256C38.2955 74.79 38.1751 74.8208 38.0547 74.8208Z" fill="#21517F"/>
<path id="Fill 177" fill-rule="evenodd" clip-rule="evenodd" d="M24.0912 66.7624C23.8504 66.7624 23.6152 66.6364 23.4864 66.4152C23.2932 66.0792 23.4052 65.6508 23.7384 65.4576L31.304 61.0644C31.6372 60.8628 32.0684 60.9804 32.2616 61.3136C32.4548 61.6524 32.3428 62.078 32.0096 62.2712L24.444 66.6672C24.332 66.7316 24.2116 66.7624 24.0912 66.7624Z" fill="#21517F"/>
<path id="Fill 178" fill-rule="evenodd" clip-rule="evenodd" d="M10.1472 58.7067C9.90637 58.7067 9.67117 58.5807 9.54237 58.3595C9.34637 58.0235 9.45837 57.5951 9.79437 57.4019L17.36 53.0059C17.6932 52.8071 18.1216 52.9219 18.3176 53.2579C18.5108 53.5939 18.3988 54.0195 18.0656 54.2127L10.5 58.6115C10.3852 58.6759 10.2676 58.7067 10.1472 58.7067Z" fill="#21517F"/>
<path id="Fill 179" fill-rule="evenodd" clip-rule="evenodd" d="M80.2732 111.983C79.8896 111.983 79.5732 111.669 79.5732 111.283V101.597C79.5732 101.211 79.8896 100.897 80.2732 100.897C80.6596 100.897 80.9732 101.211 80.9732 101.597V111.283C80.9732 111.669 80.6596 111.983 80.2732 111.983Z" fill="#221C35"/>
<path id="Fill 180" fill-rule="evenodd" clip-rule="evenodd" d="M90.832 105.744C90.4456 105.744 90.132 105.428 90.132 105.044V95.3562C90.132 94.9698 90.4456 94.6562 90.832 94.6562C91.2184 94.6562 91.532 94.9698 91.532 95.3562V105.044C91.532 105.428 91.2184 105.744 90.832 105.744Z" fill="#221C35"/>
<path id="Fill 181" fill-rule="evenodd" clip-rule="evenodd" d="M101.388 99.6316C101.004 99.6316 100.688 99.318 100.688 98.9316V89.2464C100.688 88.86 101.004 88.5464 101.388 88.5464C101.774 88.5464 102.088 88.86 102.088 89.2464V98.9316C102.088 99.318 101.774 99.6316 101.388 99.6316Z" fill="#221C35"/>
<path id="Fill 182" fill-rule="evenodd" clip-rule="evenodd" d="M111.95 93.4913C111.563 93.4913 111.25 93.1749 111.25 92.7913V83.1033C111.25 82.7169 111.563 82.4033 111.95 82.4033C112.336 82.4033 112.65 82.7169 112.65 83.1033V92.7913C112.65 93.1749 112.336 93.4913 111.95 93.4913Z" fill="#221C35"/>
<path id="Fill 183" fill-rule="evenodd" clip-rule="evenodd" d="M122.506 87.4123C122.122 87.4123 121.806 87.0959 121.806 86.7123V77.0271C121.806 76.6407 122.122 76.3271 122.506 76.3271C122.892 76.3271 123.206 76.6407 123.206 77.0271V86.7123C123.206 87.0959 122.892 87.4123 122.506 87.4123Z" fill="#221C35"/>
<path id="Fill 184" fill-rule="evenodd" clip-rule="evenodd" d="M133.064 81.3028C132.678 81.3028 132.364 80.9892 132.364 80.6028V70.9148C132.364 70.5284 132.678 70.2148 133.064 70.2148C133.451 70.2148 133.764 70.5284 133.764 70.9148V80.6028C133.764 80.9892 133.451 81.3028 133.064 81.3028Z" fill="#221C35"/>
</g>
</svg>
