<svg width="170" height="136" viewBox="0 0 170 136" fill="none" xmlns="http://www.w3.org/2000/svg">
<path fill-rule="evenodd" clip-rule="evenodd" d="M17.0959 53.5322V54.9066C17.0959 57.4357 19.1446 59.4859 21.675 59.4859C24.2032 59.4859 26.2541 57.4357 26.2541 54.9066V53.5322H17.0959Z" fill="#18A2F7"/>
<path fill-rule="evenodd" clip-rule="evenodd" d="M14.6548 58.4761C16.2328 59.3352 18.785 59.896 21.675 59.896C24.5628 59.896 27.115 59.3352 28.6951 58.4761H14.6548Z" fill="#18A2F7"/>
<path fill-rule="evenodd" clip-rule="evenodd" d="M23.7172 58.4186L23.6845 57.9232C23.7107 57.9221 26.1669 57.7477 26.9123 56.6974C27.2262 56.2543 27.2676 55.74 27.0213 55.322C26.4917 54.4201 24.7634 54.7451 24.4212 54.8194L24.3166 54.3338C24.8789 54.2109 26.7641 53.9027 27.4507 55.0702C27.7928 55.6528 27.7405 56.3862 27.3155 56.9847C26.435 58.2274 23.8284 58.4107 23.7172 58.4186Z" fill="#18A2F7"/>
<path fill-rule="evenodd" clip-rule="evenodd" d="M22.2896 43.2559C22.5098 43.3729 22.7103 43.5248 22.8868 43.7109C23.0655 43.8953 23.2159 44.1176 23.314 44.3757C23.4121 44.6337 23.4556 44.9192 23.4208 45.2093C23.3924 45.4962 23.2595 45.7995 23.0481 46.0053C22.8389 46.213 22.5948 46.3305 22.3659 46.4248C22.1371 46.5196 21.9104 46.597 21.7077 46.7088C21.5072 46.8176 21.3263 46.9601 21.2217 47.1423C21.1127 47.323 21.1018 47.5368 21.1367 47.7423C21.1715 47.9422 21.2696 48.1096 21.3873 48.2706C21.5094 48.4308 21.6532 48.5875 21.8145 48.7451C22.1349 49.0609 22.5315 49.3752 22.8105 49.8689C22.9456 50.1164 23.0372 50.4137 23.0459 50.7047C23.0524 50.9963 22.9936 51.2731 22.8977 51.5194C22.6994 52.0124 22.3921 52.4012 22.0412 52.7432L21.9758 52.7046C22.1065 52.2336 22.27 51.7881 22.3223 51.3646C22.3485 51.1541 22.3485 50.9545 22.3158 50.7738C22.2765 50.5931 22.209 50.4347 22.1109 50.2705C21.906 49.9434 21.5987 49.6086 21.2849 49.2244C21.1301 49.0306 20.971 48.8194 20.8577 48.5671C20.7422 48.3179 20.6921 48.0215 20.7226 47.7458C20.7509 47.4797 20.8468 47.2112 21.0081 46.9983C21.1737 46.7886 21.3808 46.6402 21.5791 46.5018C21.9758 46.2322 22.3703 45.9161 22.5642 45.6003C22.6645 45.4467 22.719 45.295 22.756 45.1141C22.7865 44.9349 22.7844 44.7383 22.7495 44.5426C22.7146 44.3465 22.6427 44.144 22.5533 43.9385C22.4618 43.7338 22.3485 43.5283 22.2373 43.3088L22.2896 43.2559Z" fill="#D0CCC8"/>
<path fill-rule="evenodd" clip-rule="evenodd" d="M94.0144 45.7222C89.6118 51.2286 84.9608 55.9939 78.3482 58.4386C86.761 59.9664 95.8931 56.5146 101.189 49.8024L94.0144 45.7222Z" fill="#F6BD96"/>
<path fill-rule="evenodd" clip-rule="evenodd" d="M101.636 30.0425C102.063 30.5446 99.1318 37.1319 98.7155 38.0759C98.1619 39.326 97.4885 40.4997 96.7169 41.6269C96.0936 42.5397 94.2977 43.853 94.0427 44.8262C93.9359 45.242 94.1408 45.684 94.4372 45.9955C94.7314 46.3067 95.1128 46.5227 95.455 46.7801C96.3028 47.4132 96.9414 48.3188 97.2553 49.3283C97.4231 49.8654 97.5495 50.4974 98.0421 50.7685C98.5019 51.0216 99.1057 50.8206 99.4696 50.4438C102.983 46.8158 106.213 42.3812 108.094 37.6149L101.636 30.0425Z" fill="#667CD7"/>
<path fill-rule="evenodd" clip-rule="evenodd" d="M92.5258 47.0888C95.3787 47.7577 97.8437 49.8986 98.9051 52.6295C100.121 52.6823 101.285 51.894 101.841 50.8132C102.397 49.7321 102.39 48.4162 101.987 47.2693C101.586 46.1222 100.819 45.1312 99.9295 44.3037C98.709 43.169 96.9283 42.1405 95.1934 42.365C93.5283 42.581 93.0684 45.6859 92.5258 47.0888Z" fill="#576FD2"/>
<path fill-rule="evenodd" clip-rule="evenodd" d="M108.95 122.255H110.979V78.5737H108.95V122.255Z" fill="#6D6E71"/>
<path fill-rule="evenodd" clip-rule="evenodd" d="M84.7537 68.6731L70.9684 72.6555L108.689 83.6955C108.689 83.6955 142.519 82.6282 144.047 36.5216L113.41 29.6982C113.41 29.6982 112.287 53.8526 106.139 60.0792C99.9905 66.3058 84.7537 68.6731 84.7537 68.6731Z" fill="#EE8D1B"/>
<path fill-rule="evenodd" clip-rule="evenodd" d="M82.1557 68.2525L68.3705 72.2348L106.091 83.2746C106.091 83.2746 139.921 82.2075 141.449 36.1007L110.812 29.2773C110.812 29.2773 109.689 53.4319 103.541 59.6583C97.3925 65.8849 82.1557 68.2525 82.1557 68.2525Z" fill="#FFA82F"/>
<path fill-rule="evenodd" clip-rule="evenodd" d="M113.654 97.5297C113.889 98.3043 114.532 99.009 115.33 98.9874C115.899 98.9719 116.321 97.263 116.481 96.8798C116.807 96.1013 116.973 95.3012 117.248 94.5003C117.609 93.4441 117.712 92.2157 117.91 91.1177C118.172 89.6805 118.451 88.2362 118.632 86.7857C118.762 85.7243 118.817 84.5463 118.17 83.6941C117.455 82.7515 116.149 82.5408 114.974 82.398C113.8 82.2555 112.492 82.034 111.79 81.082C111.23 82.34 110.672 83.598 110.112 84.856C110.036 85.0262 109.959 85.2037 109.966 85.3896C109.997 86.288 113.902 87.9869 113.662 94.7267C113.632 95.5952 113.425 96.4723 113.601 97.3234C113.614 97.3924 113.634 97.4613 113.654 97.5297Z" fill="#D24242"/>
<path fill-rule="evenodd" clip-rule="evenodd" d="M64.7722 127.001C64.0944 127.446 63.5996 128.261 63.8459 129.021C64.0224 129.563 79.1241 129.501 79.5883 129.226C80.4253 128.729 80.094 127.981 79.9937 127.233C79.8542 126.187 79.6297 125.129 79.5556 124.076C79.5317 123.719 79.3508 120.484 80.0264 120.574C78.6621 120.392 77.2977 120.21 75.9333 120.029C75.7481 120.004 75.5563 119.98 75.3797 120.039C74.5254 120.321 73.998 124.549 67.4639 126.219C66.6226 126.434 65.7224 126.483 64.9553 126.893C64.8921 126.926 64.831 126.962 64.7722 127.001Z" fill="#D24242"/>
<path fill-rule="evenodd" clip-rule="evenodd" d="M114.621 68.0085C109.953 71.5512 104.014 73.1957 98.1554 73.2528C92.2947 73.3097 86.4973 71.8564 81.0508 69.6943C76.0336 67.7034 72.8624 67.444 67.952 65.2137C66.98 64.7713 66.3392 62.0504 67.6927 60.2815C68.5296 59.1896 68.0305 58.1175 69.3273 57.9961C79.3115 57.0598 89.2565 58.4843 98.8681 61.3445C104.343 62.9745 109.643 65.2039 114.621 68.0085Z" fill="#2C2C4C"/>
<path fill-rule="evenodd" clip-rule="evenodd" d="M98.7112 86.1093C101.392 84.9921 104.086 83.902 106.758 82.7656C109.142 81.7521 111.738 81.1758 114.109 80.0521C116.311 79.0103 118.364 77.5435 119.748 75.5404C120.648 74.2383 121.256 72.6174 120.894 71.0768C119.636 65.7074 110.145 66.1077 106.106 66.7265C94.9973 68.4274 81.223 77.5056 76.9424 88.2023C74.7957 93.5643 72.76 112.413 72.76 122.455C75.2315 122.744 77.7009 123.034 80.1724 123.323C82.5699 114.247 84.9651 105.171 87.3626 96.0955C87.8072 94.4138 88.2736 92.6835 89.3285 91.3009C90.7364 89.4549 92.9835 88.4878 95.1281 87.5973C96.3224 87.1012 97.5168 86.6054 98.7112 86.1093Z" fill="#4C4C75"/>
<path fill-rule="evenodd" clip-rule="evenodd" d="M112.867 79.9528C109.63 80.9331 106.278 81.4547 102.959 82.0745C98.4169 82.9226 93.4804 83.8794 89.869 86.9816C87.9554 88.6252 86.7305 90.8659 85.7258 93.1446C84.6317 95.6198 83.8361 98.2193 83.1714 100.838C82.5197 103.393 82.001 105.978 81.4845 108.563C80.8873 111.561 80.1572 114.53 79.4532 117.504C79.0151 119.362 78.577 121.223 78.152 123.087C78.8255 123.165 79.499 123.244 80.1724 123.323C82.5699 114.247 84.9651 105.171 87.3626 96.0956C87.8072 94.4139 88.2736 92.6836 89.3284 91.3009C90.7364 89.4549 92.9834 88.4879 95.1281 87.5973C96.3224 87.1013 97.5168 86.6055 98.7111 86.1094C101.392 84.9922 104.086 83.902 106.758 82.7656C109.142 81.7522 111.738 81.1759 114.109 80.0522C115.144 79.562 116.145 78.974 117.06 78.2842C115.72 78.9834 114.316 79.5143 112.867 79.9528Z" fill="#39395C"/>
<path fill-rule="evenodd" clip-rule="evenodd" d="M127.67 27.4303C125.756 25.7724 123.553 24.4965 121.293 23.3723C119.203 22.3314 116.94 21.2296 114.543 21.2852C113.033 21.3203 111.524 21.5877 110.097 22.0929C106.344 23.4224 103.197 26.3782 101.636 30.0424C100.67 32.3084 100.008 35.2383 100.091 37.6963C100.187 40.4924 100.81 43.1862 100.699 46.0272C100.585 48.8618 100.154 51.6838 99.4151 54.4224C99.0642 55.7194 98.7242 57.5238 98.0398 58.682C97.386 59.7865 97.0831 60.3959 97.8829 61.6256C98.5019 62.576 99.4914 63.2101 100.45 63.8151C102.765 65.2756 105.106 66.7456 107.656 67.765C108.953 68.2835 110.254 68.5816 111.614 68.8636C112.967 69.1446 114.308 69.7649 115.626 70.2391C117.274 70.8317 119.105 71.4241 120.728 70.7666C122.282 70.1365 123.189 68.5382 123.921 67.029C127.195 60.2852 129.143 53.021 131.288 45.8602C133.199 39.4798 133.055 32.0963 127.67 27.4303Z" fill="#7E8EE8"/>
<path fill-rule="evenodd" clip-rule="evenodd" d="M112.68 25.103L113.617 25.6791C113.66 25.4847 113.708 25.2996 113.75 25.103H112.68Z" fill="#A6A8AB"/>
<path fill-rule="evenodd" clip-rule="evenodd" d="M116.485 26.6417C118.806 26.6083 120.663 24.6984 120.628 22.3757L120.401 6.55615L111.991 6.67711L112.217 22.4967C112.252 24.8192 114.162 26.675 116.485 26.6417Z" fill="#F6BD96"/>
<path fill-rule="evenodd" clip-rule="evenodd" d="M119.691 14.5788L120.401 6.55615L111.991 6.67711L112.217 22.4967C112.228 23.2192 112.438 23.8859 112.767 24.475C117.32 22.9917 118.778 18.9123 119.691 14.5788Z" fill="#E7A579"/>
<path fill-rule="evenodd" clip-rule="evenodd" d="M112.677 23.2663C103.312 26.6578 101.08 4.9551 110.598 1.25346C125.233 -4.4374 124.747 18.8949 112.677 23.2663Z" fill="#F6BD96"/>
<path fill-rule="evenodd" clip-rule="evenodd" d="M120.035 15.2647C120.07 15.9471 120.249 16.6216 120.569 17.2258C120.441 17.0026 121.463 15.2446 121.581 14.9654C122.494 12.7992 123.418 10.5735 123.505 8.22493C123.536 7.42223 123.448 6.61495 123.228 5.8421C120.948 -2.11564 109.715 -0.768939 104.411 2.96409C103.933 3.29907 103.462 3.6746 103.183 4.18569C102.713 5.04898 102.9 6.17316 103.489 6.96214C104.731 8.63293 107.739 9.37875 109.722 9.37156C112.008 9.3635 114.314 8.49977 115.933 6.86363C115.524 9.33691 116.98 11.9981 119.283 12.9871C119.53 12.5438 119.935 12.583 120.327 12.906C119.909 13.6739 119.989 14.3924 120.035 15.2647Z" fill="#ED5830"/>
<path fill-rule="evenodd" clip-rule="evenodd" d="M106.86 14.9718L106.736 14.9553C106.684 15.3384 106.477 15.668 106.169 15.9053C105.862 16.1422 105.452 16.2839 105.01 16.2839C104.918 16.2839 104.825 16.2778 104.731 16.2652C104.267 16.203 103.863 15.9938 103.578 15.7033C103.295 15.4125 103.129 15.0431 103.129 14.6558C103.129 14.5961 103.133 14.5359 103.14 14.4756C103.192 14.092 103.399 13.7627 103.707 13.5253C104.016 13.2884 104.424 13.1467 104.866 13.1467C104.958 13.1467 105.051 13.1528 105.145 13.1655C105.611 13.2276 106.012 13.4368 106.298 13.7271C106.581 14.0181 106.747 14.3875 106.747 14.7748C106.747 14.8345 106.745 14.8947 106.736 14.9555L106.86 14.9718L106.985 14.9882C106.993 14.9167 106.998 14.8454 106.998 14.7748C106.998 14.3149 106.801 13.8836 106.477 13.5526C106.152 13.2211 105.699 12.9874 105.178 12.9179C105.073 12.9037 104.968 12.897 104.866 12.897C104.369 12.8972 103.909 13.0552 103.556 13.3274C103.201 13.5992 102.955 13.9882 102.894 14.4422C102.883 14.5139 102.878 14.5852 102.878 14.6558C102.878 15.1157 103.077 15.547 103.401 15.8781C103.726 16.2096 104.18 16.4432 104.698 16.5127C104.803 16.5267 104.907 16.5334 105.01 16.5334C105.507 16.5334 105.967 16.3754 106.322 16.1032C106.675 15.8314 106.923 15.4424 106.985 14.9884L106.86 14.9718Z" fill="#808184"/>
<path fill-rule="evenodd" clip-rule="evenodd" d="M112.113 15.673L111.989 15.6565C111.936 16.0398 111.729 16.3691 111.422 16.6065C111.115 16.8434 110.705 16.9851 110.262 16.9851C110.171 16.9851 110.077 16.979 109.983 16.9663C109.519 16.9042 109.116 16.695 108.831 16.4047C108.547 16.1139 108.382 15.7445 108.382 15.3572C108.382 15.2973 108.386 15.2371 108.392 15.1767C108.445 14.7932 108.652 14.4638 108.959 14.2265C109.269 13.9896 109.676 13.8479 110.119 13.8479C110.21 13.8479 110.304 13.854 110.398 13.8667C110.864 13.9288 111.265 14.138 111.551 14.4283C111.834 14.7191 112 15.0885 112 15.4758C112 15.5355 111.995 15.5959 111.989 15.6565L112.113 15.673L112.235 15.6894C112.246 15.6179 112.25 15.5464 112.25 15.4758C112.25 15.0159 112.052 14.5846 111.729 14.2535C111.405 13.9222 110.951 13.6886 110.43 13.6191C110.326 13.6051 110.221 13.5981 110.119 13.5981C109.622 13.5984 109.162 13.7564 108.807 14.0286C108.453 14.3004 108.205 14.6894 108.146 15.1434C108.135 15.2151 108.131 15.2864 108.131 15.3572C108.131 15.8169 108.329 16.2484 108.654 16.5795C108.979 16.9107 109.432 17.1444 109.951 17.2139C110.055 17.2279 110.16 17.2348 110.262 17.2348C110.759 17.2346 111.219 17.0766 111.575 16.8044C111.928 16.5326 112.176 16.1436 112.235 15.6894L112.113 15.673Z" fill="#808184"/>
<path fill-rule="evenodd" clip-rule="evenodd" d="M112.191 15.5339L119.135 13.1022L119.046 12.8496L112.104 15.2813" fill="#808184"/>
<path fill-rule="evenodd" clip-rule="evenodd" d="M106.943 14.8315V14.8313C106.958 14.8256 107.152 14.7572 107.416 14.7574C107.651 14.7576 107.943 14.8101 108.229 15.0054L108.379 14.7844C108.042 14.553 107.693 14.4895 107.416 14.4897C107.085 14.49 106.856 14.5782 106.847 14.5819L106.943 14.8315Z" fill="#808184"/>
<path fill-rule="evenodd" clip-rule="evenodd" d="M119.089 12.976C119.24 12.7507 119.451 12.553 119.711 12.4802C119.972 12.4076 120.284 12.4868 120.434 12.7125C120.602 12.9684 120.521 13.3123 120.399 13.5935C120.096 14.2848 119.591 14.8626 119.092 15.4282L119.089 12.976Z" fill="#F6BD96"/>
<path fill-rule="evenodd" clip-rule="evenodd" d="M107.098 15.0581C107.128 15.4179 107.154 15.785 107.154 16.1452C107.154 16.8392 107.056 17.5033 106.705 18.0555C106.664 18.1207 106.614 18.1946 106.573 18.2779C106.531 18.3611 106.494 18.4564 106.494 18.5653C106.494 18.6052 106.501 18.6466 106.512 18.688C106.542 18.802 106.614 18.8883 106.69 18.9511C106.769 19.0143 106.854 19.0585 106.932 19.0941C107.172 19.2022 107.425 19.2806 107.684 19.3273C107.763 19.3414 107.839 19.2891 107.852 19.2102C107.867 19.1316 107.815 19.0561 107.736 19.042C107.501 18.9995 107.27 18.928 107.052 18.8297C106.984 18.7998 106.921 18.7648 106.875 18.7268C106.828 18.6883 106.801 18.6512 106.79 18.6115L106.784 18.5653C106.784 18.5228 106.799 18.469 106.832 18.4075C106.862 18.3463 106.906 18.2798 106.95 18.2109C107.344 17.5883 107.444 16.8642 107.444 16.1452C107.444 15.7708 107.416 15.3964 107.388 15.0348C107.381 14.9548 107.311 14.8955 107.231 14.9018C107.152 14.9084 107.091 14.9781 107.098 15.0581Z" fill="#E7A579"/>
<path fill-rule="evenodd" clip-rule="evenodd" d="M107.006 20.33C107.516 20.517 108.057 20.6127 108.599 20.6127C108.704 20.6127 108.809 20.6092 108.911 20.602C108.992 20.5966 109.053 20.5273 109.046 20.4475C109.042 20.3675 108.972 20.3073 108.892 20.3128C108.796 20.3193 108.698 20.3228 108.599 20.3228C108.092 20.3228 107.584 20.2328 107.107 20.0578C107.032 20.0301 106.95 20.0687 106.921 20.1439C106.893 20.2191 106.932 20.3023 107.008 20.33" fill="#D79468"/>
<path fill-rule="evenodd" clip-rule="evenodd" d="M83.9364 61.8509C78.0322 59.3857 69.9288 55.7361 63.7827 59.7751C61.8059 61.0752 60.2519 63.2569 60.1647 65.6667C60.071 68.2754 61.6991 70.6793 63.774 72.1551C65.851 73.631 68.3356 74.3461 70.7723 75.0372C77.1168 76.8381 83.4613 78.6393 89.8079 80.4404C93.5349 81.4981 97.2553 82.7733 101.006 83.7109C103.901 84.4326 111.402 87.258 111.402 87.258C111.402 87.258 113.562 83.9768 114.34 81.082C105.742 72.331 95.1455 66.5313 83.9364 61.8509Z" fill="#4C4C75"/>
<path fill-rule="evenodd" clip-rule="evenodd" d="M92.5062 66.0384C95.0889 67.6208 97.6062 69.3144 100.008 71.1613C101.126 72.0209 102.19 72.9446 103.297 73.8173C104.31 74.6147 105.363 75.3571 106.424 76.0859C109.022 77.8683 111.786 79.6201 114.118 81.7852C114.196 81.5499 114.277 81.314 114.34 81.0817C107.22 73.8336 98.7242 68.6133 89.6489 64.3735C90.6035 64.923 91.5646 65.4626 92.5062 66.0384Z" fill="#39395C"/>
<path fill-rule="evenodd" clip-rule="evenodd" d="M108.493 86.0769C105.393 84.9277 102.222 84.0029 99.1078 82.9036C93.6395 80.9746 88.4545 78.3779 83.1714 76.0121C80.0373 74.6085 76.7419 73.5891 73.5708 72.2769C70.4563 70.9886 67.2481 69.4706 64.831 67.0618C63.7587 65.9943 62.8738 64.7332 62.3573 63.3041C62.1372 62.6906 62.0108 62.0581 61.9323 61.4204C60.9123 62.6183 60.2214 64.0907 60.1647 65.6665C60.071 68.2751 61.6991 70.6791 63.7762 72.1548C65.851 73.6308 68.3356 74.3459 70.7723 75.037C77.1168 76.8379 83.4613 78.639 89.8079 80.4401C93.5349 81.4978 97.2553 82.7731 101.006 83.7107C103.901 84.4323 111.402 87.2578 111.402 87.2578C111.402 87.2578 111.411 87.2443 111.426 87.2227C110.454 86.8271 109.478 86.4418 108.493 86.0769Z" fill="#39395C"/>
<path fill-rule="evenodd" clip-rule="evenodd" d="M119.514 49.6195C119.142 49.8034 118.799 50.1499 118.497 50.7212C116.997 53.5476 114.074 55.4723 111.335 57.1369C109.805 58.0676 108.207 58.8884 106.557 59.59C105.629 59.9851 103.007 61.4556 102.022 61.1788C107.296 62.6611 111.516 61.3854 116.537 59.9348C120.567 58.7703 124.1 56.8615 126.53 53.2433C127.151 52.3183 123.464 50.6124 122.954 50.3694C121.65 49.7487 120.476 49.1474 119.514 49.6195Z" fill="#F6BD96"/>
<path fill-rule="evenodd" clip-rule="evenodd" d="M130.298 35.1086C130.107 34.0956 129.754 33.1344 129.148 32.2934C127.55 30.0812 125.011 30.4393 123.59 32.5603C123.067 33.3393 122.762 34.2401 122.492 35.1374C121.452 38.5707 121.153 42.0492 120.465 45.5337C120.21 46.8288 119.915 48.1814 119.338 49.3505C122.077 49.4171 124.924 50.9842 126.53 53.2432C127.143 52.334 127.668 51.3787 128.088 50.4049C129.379 47.4162 129.961 44.1838 130.266 40.9586C130.44 39.1313 130.658 37.027 130.298 35.1086Z" fill="#7E8EE8"/>
<path fill-rule="evenodd" clip-rule="evenodd" d="M122.72 38.6958C123.015 37.0289 123.217 35.3407 123.71 33.7159C123.956 32.8984 124.29 32.0736 124.767 31.3599C124.331 31.6541 123.928 32.0556 123.59 32.5605C123.067 33.3395 122.762 34.2403 122.492 35.1376C121.452 38.5709 121.153 42.0494 120.465 45.5339C120.21 46.829 119.915 48.1816 119.338 49.3507C120.048 49.3679 120.763 49.4899 121.465 49.6944C122.136 46.0612 122.077 42.3373 122.72 38.6958Z" fill="#A5B4F6"/>
<path fill-rule="evenodd" clip-rule="evenodd" d="M127.79 51.0125C127.888 50.8094 127.999 50.61 128.088 50.4051C129.3 47.6023 129.882 44.585 130.203 41.5605C129.974 42.1739 129.719 42.7782 129.451 43.3691C128.832 44.7324 127.212 49.0063 126.824 49.5386C127.476 50.146 127.354 50.2462 127.79 51.0125Z" fill="#576FD2"/>
<path fill-rule="evenodd" clip-rule="evenodd" d="M117.651 51.1538C120.504 51.8225 122.969 53.9636 124.03 56.6943C125.244 56.7473 126.41 55.959 126.966 54.8779C127.522 53.7969 127.513 52.4811 127.112 51.3343C126.709 50.1872 125.944 49.196 125.052 48.3687C123.832 47.234 122.051 46.2053 120.319 46.43C118.653 46.6458 118.194 49.7509 117.651 51.1538Z" fill="#576FD2"/>
<path fill-rule="evenodd" clip-rule="evenodd" d="M109.966 121.292L90.7626 124.879H129.169L109.966 121.292Z" fill="#6D6E71"/>
<path fill-rule="evenodd" clip-rule="evenodd" d="M101.688 58.2871C99.8227 58.4161 98.005 59.1787 96.6058 60.4206C99.9077 60.9798 103.325 61.5356 106.57 60.712C108.512 60.2192 106.756 59.4326 105.936 59.0915C104.567 58.5223 103.181 58.1836 101.688 58.2871Z" fill="#F6BD96"/>
<path fill-rule="evenodd" clip-rule="evenodd" d="M132.219 135.048L150.733 62.8674L148.713 62.3491L130.198 134.529" fill="#A6A8AB"/>
<path fill-rule="evenodd" clip-rule="evenodd" d="M169.847 134.529L151.333 62.3491L149.31 62.8674L167.825 135.048" fill="#A6A8AB"/>
<path fill-rule="evenodd" clip-rule="evenodd" d="M2.02038 135.048L20.5351 62.8674L18.5147 62.3491L0 134.529" fill="#A6A8AB"/>
<path fill-rule="evenodd" clip-rule="evenodd" d="M39.6471 134.529L21.1323 62.3491L19.1119 62.8674L37.6267 135.048" fill="#A6A8AB"/>
<path fill-rule="evenodd" clip-rule="evenodd" d="M8.59369 65.0624H161.973V59.9888H8.59369V65.0624Z" fill="#FF7E19"/>
<path fill-rule="evenodd" clip-rule="evenodd" d="M37.4872 37.6138L37.3411 38.0479L37.631 38.0412L37.4872 37.6138Z" fill="#808184"/>
<path fill-rule="evenodd" clip-rule="evenodd" d="M37.9885 39.1079L37.631 38.0415L37.3412 38.0483L36.9728 39.133L36.975 39.1482L37.9885 39.1188V39.1079Z" fill="#FFA82F"/>
<path fill-rule="evenodd" clip-rule="evenodd" d="M36.975 39.1481L37.3019 52.73L38.3175 52.706L37.9884 39.1187L36.975 39.1481Z" fill="#808184"/>
<path fill-rule="evenodd" clip-rule="evenodd" d="M41.8048 42.2114L40.0634 52.4376C39.9936 52.8517 40.2726 53.2451 40.6867 53.3155C40.7303 53.3233 40.7717 53.3264 40.8153 53.3264C41.1793 53.3264 41.5018 53.0637 41.565 52.6932L43.2999 42.4956L41.8048 42.2114Z" fill="#20A7F7"/>
<path fill-rule="evenodd" clip-rule="evenodd" d="M43.5941 40.7695C43.6638 40.355 43.3849 39.962 42.9708 39.8916C42.5545 39.8199 42.1643 40.0993 42.0946 40.5141L41.9747 41.213L43.472 41.4876L43.5941 40.7695Z" fill="#FA9E9E"/>
<path fill-rule="evenodd" clip-rule="evenodd" d="M41.9747 41.2134L41.8047 42.2116L43.2999 42.4958L43.4721 41.488L41.9747 41.2134Z" fill="#D0CCC8"/>
<path fill-rule="evenodd" clip-rule="evenodd" d="M33.8213 42.5481L34.9895 52.118C35.0374 52.5057 35.3905 52.7821 35.7785 52.7346C35.8177 52.73 35.8569 52.7213 35.8962 52.7102C36.2187 52.6134 36.4367 52.2939 36.3931 51.9469L35.2292 42.4038L33.8213 42.5481Z" fill="#00B580"/>
<path fill-rule="evenodd" clip-rule="evenodd" d="M35.033 40.7889C34.9851 40.4007 34.632 40.1248 34.2441 40.1723C33.8561 40.219 33.5815 40.5716 33.6295 40.96L33.7079 41.614L35.1137 41.4608L35.033 40.7889Z" fill="#FA9E9E"/>
<path fill-rule="evenodd" clip-rule="evenodd" d="M33.7079 41.6142L33.8213 42.5483L35.2292 42.404L35.1137 41.4609L33.7079 41.6142Z" fill="#D0CCC8"/>
<path fill-rule="evenodd" clip-rule="evenodd" d="M35.0004 43.1004L36.5849 49.9499L37.5743 49.7211L35.9877 42.8716" fill="#FF7E19"/>
<path fill-rule="evenodd" clip-rule="evenodd" d="M38.7534 40.2158L38.6292 40.6569L38.9191 40.6354L38.7534 40.2158Z" fill="#00B580"/>
<path fill-rule="evenodd" clip-rule="evenodd" d="M39.331 41.6821L38.9191 40.6353L38.6292 40.6568L38.3176 41.7588L38.3197 41.774L39.331 41.693V41.6821Z" fill="#FFA82F"/>
<path fill-rule="evenodd" clip-rule="evenodd" d="M38.3198 41.7744L39.3376 55.3221L40.351 55.2463L39.331 41.6934L38.3198 41.7744Z" fill="#1A1A3A"/>
<path fill-rule="evenodd" clip-rule="evenodd" d="M31.5982 40.3462L31.5437 40.8289L31.8445 40.7568L31.5982 40.3462Z" fill="#18A2F7"/>
<path fill-rule="evenodd" clip-rule="evenodd" d="M32.4547 41.7818L31.8445 40.7568L31.5437 40.829L31.4086 42.0349L31.4107 42.0506L32.4569 41.793L32.4547 41.7818Z" fill="#FFA82F"/>
<path fill-rule="evenodd" clip-rule="evenodd" d="M31.4108 42.0506L34.7912 56.0503L35.8395 55.7981L32.4569 41.793L31.4108 42.0506Z" fill="#18A2F7"/>
<path fill-rule="evenodd" clip-rule="evenodd" d="M40.6257 38.8735L40.4535 39.2988L40.7434 39.3083L40.6257 38.8735Z" fill="#FFA82F"/>
<path fill-rule="evenodd" clip-rule="evenodd" d="M41.0419 40.3934L40.7434 39.3084L40.4535 39.2988L40.0285 40.3615L40.0263 40.3768L41.0419 40.4043V40.3934Z" fill="#D0D2D3"/>
<path fill-rule="evenodd" clip-rule="evenodd" d="M40.0263 40.377L39.5947 53.9558L40.6082 53.9887L41.0419 40.4044L40.0263 40.377Z" fill="#FFA82F"/>
<path fill-rule="evenodd" clip-rule="evenodd" d="M40.5755 60.0677H34.7541L32.725 48.7632H42.6046L40.5755 60.0677Z" fill="#ED5830"/>
<path fill-rule="evenodd" clip-rule="evenodd" d="M93.5937 60.0901H54.9143L49.5615 34.6089H88.2387L93.5937 60.0901Z" fill="#BBBDBF"/>
<path fill-rule="evenodd" clip-rule="evenodd" d="M72.8689 47.3497C72.8689 48.0628 72.2914 48.6412 71.5765 48.6412C70.8638 48.6412 70.2863 48.0628 70.2863 47.3497C70.2863 46.6363 70.8638 46.0581 71.5765 46.0581C72.2914 46.0581 72.8689 46.6363 72.8689 47.3497Z" fill="white"/>
</svg>
