<svg width="855" height="434" viewBox="0 0 855 434" fill="none" xmlns="http://www.w3.org/2000/svg">
<g id="undraw_connected_world_wuay" opacity="0.596563">
<path id="Path" opacity="0.158831" d="M198.792 38.9188C198.484 36.4891 197.863 34.1096 196.943 31.84C196.705 30.9722 196.114 30.2441 195.314 29.8337C194.784 29.6961 194.23 29.6898 193.697 29.8156L185.399 31.0854C184.704 31.1171 184.039 31.3755 183.505 31.8211C182.424 32.9578 183.489 34.7881 183.456 36.3563C183.418 38.1197 181.852 39.5511 180.153 40.0247C178.418 40.3751 176.629 40.3529 174.904 39.9596L163.3 38.1563C166.718 37.0653 169.759 35.0353 172.079 32.2982C173.606 30.4892 174.418 27.1119 172.211 26.2552C171.555 26.0753 170.872 26.0204 170.196 26.0934C164.938 26.1343 160.801 21.7447 155.879 19.896C149.417 17.6256 142.228 19.7687 138.064 25.2067L144.246 25.5047C144.827 25.4726 145.404 25.6264 145.892 25.9439C147.247 27.0569 145.563 29.1948 145.754 30.9377C146.002 33.2022 149.008 33.6856 151.275 33.9146C153.541 34.1436 156.416 35.985 155.326 37.9852C143.935 41.9089 132.343 30.3152 120.379 31.7423C117.351 32.1035 114.492 33.293 111.536 34.041C93.4775 38.61 74.8082 26.4193 56.3603 29.0011C52.2592 29.7002 48.2284 30.7633 44.3159 32.1777C41.8051 33.002 39.1862 33.8929 37.3618 35.8049C35.5375 37.7168 34.8432 40.9865 36.5715 42.9857C31.8079 43.3779 27.0126 42.9221 22.4083 41.6394C24.9444 43.0492 26.5088 45.7309 26.4877 48.6324C19.05 49.8453 11.8093 52.0531 4.96026 55.1964C6.23855 57.3221 7.73159 59.311 9.41593 61.1319L0 67.1811C3.18115 67.9826 4.82588 72.3203 2.97593 75.0295C6.27442 73.5621 8.31866 69.766 11.8459 68.9964C14.1566 68.4922 16.5079 69.4375 18.7 70.3255C20.8921 71.2135 23.3015 72.0746 25.5708 71.4081C27.8401 70.7416 29.514 67.7991 28.072 65.9244C37.7716 63.0944 47.796 61.5282 57.8966 61.2648C58.6759 61.167 59.4661 61.317 60.1554 61.6935C61.4702 62.6057 61.1243 64.576 61.0535 66.1747C60.9826 67.7734 62.2287 69.8746 63.6575 69.154C61.9765 70.6117 63.4136 73.3559 65.0264 74.8888C66.6392 76.4217 68.5831 78.5369 67.5957 80.5309C67.338 81.0513 66.9009 81.4677 66.653 81.9928C65.9211 83.5429 67.0831 85.35 68.4538 86.3794C69.8245 87.4087 71.5034 88.1282 72.4556 89.5536C73.4077 90.979 72.9754 93.4741 71.2728 93.6731L66.4334 87.5287C64.78 89.2432 63.6465 91.3912 63.1644 93.7237C68.2961 97.9188 69.068 106.457 64.7717 111.505C62.5762 114.084 59.4541 115.651 56.7291 117.663C54.0042 119.675 51.4827 122.54 51.4896 125.927C51.5014 131.779 51.0233 137.215 53.2161 142.641C57.2597 152.645 61.9282 162.385 67.1939 171.803C68.5767 174.276 70.3639 176.987 73.1652 177.412C69.6249 168.794 66.438 160.041 63.6043 151.155C65.4499 151.162 67.5827 151.308 68.6647 152.804C69.5606 154.042 69.3681 155.725 69.6465 157.228C70.0006 158.684 70.591 160.072 71.3943 161.337L88.3001 191.451C89.7015 193.947 91.3091 196.627 93.9876 197.638C95.7001 198.284 97.6813 198.162 99.2575 199.093C100.493 199.822 101.325 201.117 102.585 201.804C106.146 203.747 111.098 200.021 114.426 202.341C115.378 203.004 115.983 204.057 116.86 204.817C119.934 207.479 124.976 205.698 128.525 207.684C130.812 208.963 131.997 211.523 133.217 213.842C136.272 219.652 141.216 225.344 147.764 225.807C149.821 225.952 151.922 225.562 153.932 226.019C155.943 226.477 157.922 228.232 157.599 230.268C157.046 233.76 158.771 237.583 158.308 241.087C157.464 247.471 148.409 250.276 147.631 256.668C147.461 258.068 147.728 259.512 147.394 260.882C146.986 262.561 145.725 263.928 145.277 265.597C144.428 268.759 146.694 271.907 149.183 274.035C151.672 276.162 154.641 277.997 156.002 280.975C157.44 284.123 156.734 287.794 157.201 291.223C158.223 298.71 164.689 304.26 171.344 307.839C173.372 308.929 175.549 309.985 176.861 311.876C178.574 314.345 178.403 317.6 178.975 320.55C180.376 327.774 186.458 333.727 186.631 341.084C186.753 346.313 183.847 351.057 182.11 355.99C178.816 365.556 179.853 376.082 184.949 384.822C186.248 387.015 187.802 389.083 188.72 391.461C190.36 395.704 189.828 400.527 191.34 404.817C193.339 410.489 198.831 415.174 198.305 421.165C200.799 426.343 206.305 428.887 211.842 430.429L221.764 433.191C223.664 433.72 225.65 434.253 227.584 433.87C229.519 433.487 231.366 431.88 231.316 429.909C226.45 428.811 221.427 427.644 217.416 424.679C213.405 421.714 210.657 416.434 212.179 411.683C212.885 409.481 214.386 406.937 212.959 405.117C212.142 404.075 210.647 403.802 209.725 402.852C208.287 401.369 208.781 398.877 209.815 397.089C210.849 395.301 212.343 393.702 212.76 391.679C213.191 389.361 212.136 387.02 210.114 385.807C211.954 385.112 213.627 384.039 215.026 382.656C216.317 381.181 216.914 378.907 215.898 377.23C218.915 377.613 222.477 377.8 224.458 375.492C226.039 373.649 225.931 370.893 225.306 368.547C224.681 366.2 223.625 363.92 223.592 361.492C230.552 361.822 237.527 361.585 244.449 360.784C243.448 357.413 241.174 354.565 238.108 352.843C241.243 352.312 244.099 348.559 245.089 345.538C246.08 342.517 245.827 339.226 245.215 336.106C244.98 335.302 244.947 334.453 245.121 333.635C245.474 332.51 246.579 331.823 247.602 331.236L263.162 322.299C264.091 321.834 264.933 321.213 265.651 320.462C267.281 318.547 267.039 315.657 266.205 313.284C265.37 310.912 264.033 308.681 263.711 306.187C262.75 298.727 270.735 293.375 273.43 286.353C274.488 283.597 274.703 280.602 274.908 277.657C275.128 274.494 275.144 270.821 272.716 268.783C270.388 266.829 266.751 267.265 264.315 265.448C262.082 263.782 261.311 260.546 258.872 259.2C256.656 257.978 253.878 258.755 251.414 258.181C247.076 257.169 244.345 252.168 239.915 251.705C237.415 251.444 234.585 252.666 232.536 251.21C230.731 249.927 230.658 247.349 230.315 245.161C229.081 238.196 223.64 232.737 216.679 231.481C214.101 231.068 211.295 231.225 209.103 229.808C206.882 228.374 205.864 225.688 204.12 223.702C201.309 220.501 196.882 219.363 192.734 218.388L175.865 214.422C172.87 213.718 169.01 213.345 167.403 215.968C166.927 216.967 166.59 218.026 166.402 219.117C165.167 223.162 161.463 225.95 157.234 226.017C155.82 223.606 153.529 221.833 150.84 221.07C149.129 220.594 147.298 220.541 145.667 219.839C143.871 218.963 142.516 217.385 141.919 215.478C141.323 213.571 141.538 211.503 142.514 209.759C144.513 206.199 143.88 201.741 140.968 198.879C138.099 196.304 133.95 195.681 130.103 195.939C129.095 193.741 130.78 191.26 132.595 189.663C134.41 188.065 136.615 186.495 137.01 184.109C137.632 180.356 132.844 177.506 129.208 178.625C125.573 179.744 123.252 183.275 121.718 186.756C120.838 188.753 120.09 190.856 118.702 192.54C117.314 194.224 115.078 195.43 112.964 194.89C109.97 194.125 108.814 190.568 108.151 187.55C107.262 183.501 106.368 179.396 106.555 175.255C106.741 171.113 108.137 166.861 111.191 164.058C116.167 159.489 123.801 159.937 130.517 160.666C128.93 158.878 129.322 155.865 131.02 154.183C132.839 152.566 135.339 151.952 137.701 152.541C139.725 152.963 141.548 154.053 142.876 155.636C144.785 157.963 145.328 161.104 146.77 163.745C148.213 166.386 151.456 168.639 154.111 167.222C156.404 165.998 156.768 162.819 156.198 160.283C155.627 157.747 154.415 155.281 154.621 152.69C155.016 147.746 160.141 144.77 164.664 142.734C169.186 140.698 174.365 137.959 175.081 133.052C175.106 132.091 175.287 131.14 175.618 130.238C176.119 129.441 176.816 128.785 177.643 128.334C190.842 119.611 204.261 110.782 219.347 106.015C220.131 105.767 220.223 106.043 221.023 105.849C222.143 105.202 221.401 103.412 220.328 102.691C219.254 101.97 217.82 101.417 217.548 100.153C217.347 99.2236 217.895 98.3113 218.037 97.3715C218.387 95.0622 215.624 92.9301 213.479 93.8534C212.267 92.2485 214.665 90.3837 216.603 89.8499C222.426 88.2476 228.402 87.2713 234.431 86.9376C235.127 86.827 235.84 86.9482 236.46 87.2827C237.473 87.9842 237.343 89.5931 236.626 90.5943C235.908 91.5956 234.792 92.2242 233.897 93.0714C231.905 95.0118 231.16 97.9002 231.965 100.562C235.113 102.163 238.535 103.811 242.021 103.247C245.507 102.683 248.601 98.7662 246.963 95.638C245.437 92.7249 240.853 92.0678 240.065 88.8751C239.142 85.137 244.434 81.8124 243.242 78.1512C242.72 76.5475 241.122 75.6037 239.895 74.4458C236.931 71.5402 236.057 67.1113 237.695 63.2972C233.641 64.0103 229.494 62.7124 226.57 59.8158C223.909 57.1304 221.786 52.8942 218.008 53.0143C214.54 53.1246 211.553 57.17 208.311 55.9358C207.513 55.6322 206.672 55.0142 205.9 55.3763C205.386 55.7095 205.055 56.26 205 56.8694C204.176 60.8088 205.594 65.2971 203.446 68.7012C201.11 72.4054 195.706 72.919 192.874 76.2593C191.336 78.0726 190.74 80.5159 189.327 82.4276C187.914 84.3393 184.914 85.5547 183.218 83.8888C184.935 80.3599 183.986 76.1132 180.931 73.6504C179.356 72.6231 177.659 71.7975 175.879 71.193C173.889 70.3509 171.997 69.2962 170.234 68.0473C169.351 67.5147 168.634 66.7471 168.162 65.8302C167.789 64.6821 167.839 63.4384 168.304 62.3242C170.057 57.299 174.449 53.6584 179.712 52.8685C181.97 52.5613 184.599 52.6696 186.093 50.949C186.884 50.0386 187.299 48.6622 188.446 48.2924C189.181 48.1449 189.943 48.2388 190.619 48.56L199.048 51.5267C199.988 51.9513 201.024 52.1225 202.051 52.0233C203.107 51.881 203.875 50.948 203.811 49.884C203.542 48.4843 201.388 47.8126 201.584 46.4008C201.693 45.9432 201.939 45.5298 202.289 45.215C208.448 38.6597 217.213 35.1984 226.189 35.777C227.253 37.5242 225.571 39.5932 224.171 41.0847C222.771 42.5763 221.646 45.2413 223.339 46.3894C224.033 46.7435 224.804 46.9173 225.583 46.8949C227.658 47.1757 229.675 47.7874 231.556 48.7067C234.469 49.9742 237.326 51.361 240.126 52.8672C239.879 51.0205 239.643 49.075 240.343 47.3483C241.043 45.6216 243.032 44.2672 244.77 44.9397C246.444 45.5878 247.303 47.8051 249.087 48.0082C251.467 48.2792 252.406 44.7634 251.412 42.5842C250.418 40.405 248.45 38.5802 248.286 36.1906C248.175 34.5785 248.788 32.5792 247.501 31.603C247.042 31.3099 246.522 31.1275 245.981 31.0702L213.827 25.1534C211.918 24.802 209.159 25.0713 209.075 27.0109C209.027 28.0935 209.995 29.1646 209.566 30.16C209.109 31.2224 207.607 31.1253 206.513 31.501C204.816 32.0841 203.964 34.0994 204.127 35.8866C204.426 37.6624 205.114 39.3502 206.141 40.8289C204.05 39.9542 200.883 39.7935 198.792 38.9188Z" fill="#A8C4C9"/>
<path id="Path_2" opacity="0.158831" d="M173.509 12.5154C169.233 11.1732 164.528 12.5096 161.733 15.8602C161.188 16.5409 160.73 17.4793 161.187 18.2164C161.841 19.2731 163.508 18.8557 164.737 18.4777C166.544 17.8656 168.51 17.8211 170.345 18.3509C171.499 18.7267 172.532 19.3909 173.691 19.7525C174.841 20.2086 176.162 20.0255 177.126 19.2763C177.922 18.5068 177.972 17.3105 177.973 16.2328C178.085 15.5025 177.843 14.7633 177.316 14.2211C176.852 13.9662 176.33 13.8199 175.795 13.7944C174.595 13.5839 173.511 12.983 172.729 12.0954" fill="#A8C4C9"/>
<path id="Path_3" opacity="0.158831" d="M185.605 9.00382C184.744 8.95495 183.921 9.37739 183.434 10.1185C182.946 10.8596 182.864 11.8122 183.217 12.6321C184.517 13.0017 185.875 13.0941 187.209 12.9036C188.571 12.6832 189.672 11.6308 190 10.2356C188.429 10.5338 186.807 10.2108 185.451 9.32968" fill="#A8C4C9"/>
<path id="Path_4" opacity="0.158831" d="M222.995 3.52646C219.196 4.33661 215.505 5.59402 212 7.27257C215.392 8.58045 217.534 11.9585 217.276 15.5945C217.128 16.2745 217.145 16.9802 217.326 17.6521C217.73 18.6339 218.9 19.0024 219.929 19.2544C221.777 19.8185 223.707 20.0656 225.637 19.9852C227.599 19.8822 229.376 18.7929 230.362 17.0891C230.642 16.2931 230.97 15.5151 231.345 14.7594C233.811 10.9929 241.136 15.5472 243.783 11.9068C244.716 10.6244 244.631 8.69402 245.846 7.67784C246.475 7.23512 247.204 6.95616 247.967 6.86607C253.291 5.80516 258.669 5.03695 264.077 4.5649C266.639 4.34127 269.979 3.4185 270 0.839003C260.349 -1.06206 250.342 0.288147 241.535 4.67971C238.362 6.27373 234.166 9.62679 231.109 7.51351C229.965 6.72226 230.021 4.59162 228.446 3.70187C226.836 2.79222 224.704 3.16219 222.995 3.52646Z" fill="#A8C4C9"/>
<path id="Path_5" opacity="0.158831" d="M255.593 9.8582L260.102 10.725C258.423 10.6506 256.793 11.3031 255.629 12.5159C254.464 13.7287 253.879 15.3842 254.021 17.0596C258.244 18.4708 262.848 17.0976 267.296 17.2851C271.744 17.4727 276.919 20.6513 276.16 25.0397C275.93 26.3667 275.164 27.6927 275.563 28.979C275.842 29.8806 276.637 30.5203 277.085 31.3506C278.02 33.0809 277.273 35.2694 276.093 36.8423C274.912 38.4152 273.325 39.6702 272.289 41.3417C269.712 45.499 271.176 50.8736 272.712 55.5181C273.155 57.273 273.975 58.9105 275.114 60.3173C277.388 62.7365 281.095 62.9469 284.414 62.9953C286.83 63.0306 289.598 62.9112 291.126 61.0386C293.12 58.5939 291.726 54.7796 293.039 51.9104C294.232 49.3045 297.27 48.1866 300.024 47.3937C305.067 45.9412 310.207 44.7063 314.976 42.5122C320.897 39.7877 326.431 35.542 332.939 35.1913C334.765 35.0929 336.636 35.3084 338.394 34.808C340.153 34.3076 341.824 32.7865 341.691 30.9622C341.577 29.4036 340.259 28.259 339.228 27.084C338.198 25.9089 337.389 24.1021 338.336 22.8589L355.395 19.6716C354.185 16.3751 353.243 12.0336 356.022 9.88784C357.024 9.11365 358.367 8.80422 359.22 7.86827C360.675 6.27305 359.944 3.52514 358.264 2.16849C356.585 0.811851 354.314 0.496919 352.163 0.318172C344.683 -0.303241 337.161 0.107383 329.666 0.518319C315.017 1.32161 300.367 2.12489 285.718 2.92818C282.769 3.08988 279.364 2.84284 276.659 3.84931C274.369 4.70139 272.741 6.26546 270.122 6.81499C265.288 7.82947 259.967 7.14298 255.593 9.8582Z" fill="#A8C4C9"/>
<path id="Path_6" opacity="0.158831" d="M336.811 45.448C336.358 45.3719 335.896 45.4835 335.519 45.7597C335.27 46.0519 335.122 46.4257 335.099 46.8196C334.812 48.5579 335.154 50.3472 336.054 51.8292C336.988 53.3097 338.604 54.1341 340.273 53.9821C342.271 53.711 343.743 51.8971 345.579 51.0119C348.41 49.649 360.43 47.5242 352.115 42.7427C349.25 41.0949 347.398 42.5495 345.139 43.6347C342.57 45.0339 339.69 45.6609 336.811 45.448Z" fill="#A8C4C9"/>
<path id="Path_7" opacity="0.158831" d="M411.537 6.79146C410.569 7.18029 409.759 7.87335 409.234 8.76241C408.731 9.70003 409.065 10.8604 409.992 11.4005C410.354 11.5294 410.737 11.5892 411.122 11.5766L415.059 11.6922C416.732 11.7413 418.821 12.0915 419.27 13.6758C419.604 14.8521 418.857 16.3638 419.758 17.2044C420.145 17.4988 420.61 17.6771 421.098 17.7179C422.395 18.0454 423.749 18.0883 425.065 17.8437C427.929 17.0885 426.424 15.37 427.326 13.8398C428.707 11.4984 428.468 12.9157 430.9 11.5739C432.697 10.5829 435.018 8.78524 433.519 6.25949C430.911 1.86729 415.385 4.90458 411.537 6.79146Z" fill="#A8C4C9"/>
<path id="Path_8" opacity="0.158831" d="M490.091 5.40236L487.74 5.68465C482.438 6.32124 477.106 6.96369 472 8.39622C474.21 9.18256 476.529 9.69457 478.893 9.91816C480.195 9.97555 481.487 10.1409 482.755 10.412C485.01 11.0161 487.283 12.5762 489.462 11.777C490.813 11.2815 491.254 10.0158 492.373 9.345C493.146 8.88181 496.077 8.1321 496.404 7.66459C499.053 3.88504 492.127 5.15787 490.091 5.40236Z" fill="#A8C4C9"/>
<path id="Path_9" opacity="0.158831" d="M500.663 15.1223C497.567 16.8314 494.694 18.9082 492.109 21.3064C491.02 22.317 489.907 23.574 490.006 25.0463C490.137 27.0032 492.249 28.1383 494.078 28.9029L501.489 32C502.388 30.7492 501.565 29.0227 500.636 27.7935C499.707 26.5644 498.603 25.1423 499.013 23.6632C499.482 21.9753 501.566 21.4002 503.315 21.1094C506.163 20.6356 513.847 20.6736 512.924 16.142C511.836 10.8025 503.522 13.5446 500.663 15.1223Z" fill="#A8C4C9"/>
<path id="Path_10" opacity="0.158831" d="M498.528 324.072C497.791 326.186 497.721 328.677 498.997 330.523C500.429 332.594 503.294 333.366 505.774 332.841C508.243 332.19 510.443 330.79 512.066 328.836C513.549 327.199 514.77 325.347 515.685 323.343C516.961 320.22 517.862 316.959 518.367 313.627L520.773 301.123C521.311 298.328 521.29 289.76 516.101 292.552C514.683 293.314 511.401 299.335 509.916 301.043C507.238 304.12 506.884 307.106 505.474 310.834C503.709 315.504 500.161 319.395 498.528 324.072Z" fill="#A8C4C9"/>
<path id="Path_11" opacity="0.158831" d="M762.794 386.24C761.241 385.608 759.734 384.859 758.285 384C756.832 388.169 756.06 392.564 756 397L766.623 390.726C768.221 389.782 770.032 388.471 769.997 386.555C770.027 386.073 769.802 385.613 769.41 385.355C769.174 385.256 768.917 385.225 768.665 385.264C767.09 385.401 765.654 386.21 764.168 386.772C762.682 387.335 760.945 387.632 759.581 386.797" fill="#A8C4C9"/>
<path id="Path_12" opacity="0.158831" d="M823.291 390.031C822.052 390.375 820.841 390.819 819.67 391.358C817.079 392.704 815.316 395.261 812.984 397.034C810.753 398.731 808.066 399.662 805.429 400.568C804.654 401.268 805.01 402.678 805.852 403.293C806.757 403.819 807.796 404.058 808.834 403.978C811.574 404.04 814.46 404.066 816.86 402.715C818.212 401.82 819.477 400.795 820.638 399.653C823.444 397.263 826.813 395.686 830.148 394.162C831.362 393.694 832.485 393.009 833.463 392.138C835.559 390.03 835.706 386.778 832.684 386.06C830.242 385.48 825.616 389.263 823.291 390.031Z" fill="#A8C4C9"/>
<path id="Path_13" opacity="0.158831" d="M848 372.528C848.275 369.72 847.211 366.945 845.113 365C845.082 367.773 844.996 370.726 843.394 373.019C842.253 374.653 840.465 375.756 839.215 377.312C837.965 378.868 837.41 381.335 838.876 382.7C839.813 383.395 840.955 383.777 842.132 383.792C845.051 384.127 848.429 384.313 850.476 382.26C851.593 381.139 852.137 379.479 853.499 378.655C854.007 378.448 854.46 378.132 854.826 377.731C855.388 376.86 854.494 375.712 853.488 375.398C852.482 375.084 851.373 375.232 850.361 374.934C849.35 374.635 848.422 373.528 848.941 372.632" fill="#A8C4C9"/>
<path id="Path_14" opacity="0.158831" d="M802.64 269.708C801.113 270.076 799.532 270.168 797.972 269.981C795.381 269.508 793.364 267.573 791.272 265.985C786.299 262.232 780.254 260.139 774.005 260.005C768.321 259.899 762.583 261.426 757 260.361C757.365 262.372 759.101 263.88 760.953 264.776C762.805 265.673 764.85 266.124 766.711 267.002C769.692 268.423 772.056 270.861 773.37 273.869C773.97 275.256 774.347 276.765 775.255 277.976C777.111 280.452 780.629 280.995 783.733 280.793C787.781 280.529 792.009 279.375 795.775 280.87C798.656 282.013 800.718 284.513 803.123 286.456C805.528 288.4 808.916 289.842 811.678 288.44C805.79 286.55 801.825 281.085 801.892 274.95C804.601 275.197 812.404 275.101 811.984 270.539C811.628 266.672 804.966 269.29 802.64 269.708Z" fill="#A8C4C9"/>
<path id="Path_15" opacity="0.158831" d="M767.152 302.188C767.629 299.582 770.235 297.28 769.423 294.758C768.862 293.014 766.833 292.152 764.997 292.109C763.16 292.066 761.355 292.612 759.519 292.663C758.324 292.6 757.125 292.617 755.932 292.714C752.287 293.312 750.04 297.122 746.604 298.477C744.515 299.301 742.168 299.143 739.995 299.713C735.064 301.006 731.943 305.653 728.496 309.4C722.925 315.427 715.668 319.647 707.665 321.514C704.861 322.162 701.846 322.576 699.617 324.392C696.666 326.797 695.939 330.92 695.283 334.664C693.468 345.004 690.695 355.155 687 364.984L698.711 366.475C700.937 366.758 703.244 367.036 705.39 366.378C706.948 365.792 708.425 365.008 709.783 364.045C714.998 360.816 720.835 358.714 726.917 357.877C729.983 357.457 733.198 357.38 736.076 358.517C738.954 359.654 741.423 362.232 741.664 365.309C744.2 364.522 746.964 365.193 748.855 367.053C750.688 368.916 751.889 371.307 752.288 373.887C752.596 375.484 752.905 377.399 754.391 378.069C755.604 378.616 756.996 378.027 758.322 377.921C762.825 377.562 766.561 382.797 770.986 381.895C775.732 380.929 776.897 373.841 781.527 372.421C784.187 371.605 787.917 372.597 789.19 370.13C790.313 367.956 788.073 365.447 788.304 363.012C788.589 360.015 792.134 358.742 794.868 357.463C804.292 353.054 808.764 340.405 804.197 331.076C801.492 325.549 796.168 321.198 795.185 315.126C794.428 310.455 796.275 305.007 793.288 301.33C791.769 299.459 789.196 298.427 788.292 296.195C787.723 294.79 787.951 293.196 787.645 291.711C787.339 290.227 786.04 288.675 784.571 289.059C780.304 290.176 778.943 303.319 776.659 306.512C773.187 311.366 766.059 308.169 767.152 302.188Z" fill="#A8C4C9"/>
<path id="Path_16" opacity="0.158831" d="M688.084 274.495C686.621 274.106 685.024 273.723 683.623 274.279C682.221 274.835 681.403 276.786 682.528 277.754C691.327 277.429 700.18 277.106 708.904 278.239C718.956 279.545 728.904 282.779 739 281.827C733.233 280.214 727.371 278.924 721.444 277.964L711.56 276.174C708.908 275.647 706.229 275.254 703.534 274.998C697.895 274.556 693.628 275.969 688.084 274.495Z" fill="#A8C4C9"/>
<path id="Path_17" opacity="0.158831" d="M696.596 244.529C695.851 244.469 694.928 244.416 694.543 245.04C694.175 245.636 694.596 246.423 694.398 247.091C694.128 248.003 692.9 248.237 691.932 248.112C690.965 247.988 689.918 247.69 689.061 248.145C688.168 248.738 687.785 249.834 688.12 250.835C688.471 251.802 689.037 252.682 689.78 253.41C691.047 254.964 692.492 256.375 694.085 257.613C697.17 259.829 701.349 260.897 703.291 264.114C703.566 264.738 703.987 265.29 704.521 265.725C705.454 266.3 706.67 265.863 707.674 265.416L711.194 263.851C711.828 263.628 712.394 263.254 712.84 262.761C713.644 261.699 713.15 260.189 712.475 259.045C711.8 257.901 710.936 256.717 711.081 255.405C711.339 253.067 714.428 252.172 715.699 250.171C716.979 248.154 716.146 245.555 716.293 243.188C716.466 240.42 718.253 236.82 715.378 234.752C712.935 232.994 710.599 234.618 708.845 236.558C705.146 240.65 703.397 245.082 696.596 244.529Z" fill="#A8C4C9"/>
<path id="Path_18" opacity="0.158831" d="M717.636 201.994C718.813 204.216 721.266 205.541 722.549 207.705C723.94 210.05 723.782 213.08 725.291 215.353C726.839 217.685 729.954 218.923 730.822 221.575C731.77 224.471 729.619 227.991 731.334 230.521C731.98 231.357 732.952 231.888 734.014 231.984C735.076 232.08 736.13 231.733 736.92 231.027C738.423 229.414 738.348 226.913 736.751 225.39C735.736 224.477 734.279 224.083 733.431 223.017C732.99 222.402 732.696 221.696 732.571 220.953C732.109 218.809 732.183 216.586 732.787 214.476C733.014 213.941 733.071 213.35 732.952 212.782C732.571 211.688 731.069 211.611 730.015 211.104C727.622 209.952 727.68 206.621 728.098 204.027C727.82 205.754 721.581 202.817 720.928 201.839C719.63 199.896 720.336 196.147 720.08 194C717.278 195.331 716.197 199.278 717.636 201.994Z" fill="#A8C4C9"/>
<path id="Path_19" opacity="0.158831" d="M654.66 237.082C653.511 235.797 651.78 234.453 650.239 235.228C649.064 235.819 648.741 237.443 649.201 238.674C649.763 239.87 650.627 240.899 651.708 241.659C654.919 244.303 658.377 246.689 661.178 249.763C666.191 255.264 668.846 262.686 674.298 267.753C675.394 268.928 676.845 269.712 678.429 269.986C680.017 270.133 681.801 269.118 681.984 267.536C682.134 266.232 681.224 265.066 680.335 264.1C678.217 261.8 675.899 259.683 673.899 257.279C672.976 256.356 672.395 255.146 672.254 253.849C672.244 252.555 673.426 251.2 674.681 251.521C673.154 251.131 672.022 248.591 669.781 248.113C667.907 247.714 667.454 248.872 665.225 247.917C660.974 246.096 657.638 240.41 654.66 237.082Z" fill="#A8C4C9"/>
<path id="Path_20" opacity="0.158831" d="M754.173 111.52C752.972 111.152 751.792 110.717 750.637 110.217C747.528 109.255 743.416 111.611 743.83 114.931C744.105 117.137 746.096 118.625 747.195 120.538C748.825 123.376 748.39 126.975 747.534 130.153C747.323 131.137 746.923 132.067 746.358 132.888C745.567 133.755 744.621 134.457 743.572 134.955C739.375 137.383 735.673 140.627 732.672 144.507C732.346 144.866 732.118 145.308 732.014 145.787C731.865 146.908 732.958 147.725 733.575 148.66C734.947 150.737 733.956 153.532 734.091 156.041C734.049 156.762 734.371 157.455 734.944 157.872C735.771 158.305 736.75 157.569 737.199 156.732C738.686 153.952 737.566 149.49 740.356 148.15C740.883 147.897 741.523 147.79 741.875 147.312C742.434 146.553 741.895 145.43 742.178 144.523C742.603 143.161 744.408 143.1 745.794 143.16C748.18 143.263 750.566 142.936 752.843 142.192C753.737 141.973 754.548 141.489 755.177 140.798C756.011 139.725 755.937 138.198 755.771 136.833C754.936 130.027 752.846 123.449 749.614 117.454C752.065 117.777 754.731 118.057 756.846 116.739C758.03 116.001 759.45 113.795 758.863 112.293C757.934 109.918 756.256 111.917 754.173 111.52Z" fill="#A8C4C9"/>
<path id="Path_21" opacity="0.158831" d="M434.016 148.562C434.316 150.164 434.611 151.851 434.084 153.394C433.557 154.937 431.898 156.227 430.331 155.754C429.116 155.387 428.414 154.17 427.55 153.242C422.75 148.081 411.919 151.069 408.954 144.684C407.744 142.079 408.566 138.957 407.741 136.206C406.669 132.936 403.514 130.801 400.066 131.015C398.538 131.234 397.05 131.677 395.65 132.327C386.274 136.067 376.431 138.518 366.391 139.615C364.483 139.731 362.596 140.073 360.769 140.633C356.646 142.122 353.83 145.928 351.825 149.811C349.821 153.695 348.341 157.899 345.653 161.35C342.829 164.976 338.871 167.515 335.179 170.262C333.757 171.174 332.572 172.41 331.724 173.868C330.923 175.504 330.968 177.408 331.03 179.227L331.785 201.32C331.882 204.162 332.004 207.105 333.281 209.648C334.876 212.824 338.027 214.904 340.213 217.709C342.443 220.592 343.605 224.154 343.502 227.791C343.455 229.254 343.309 230.984 344.453 231.903C345.149 232.352 345.963 232.585 346.793 232.573L376.804 235.019C382.083 235.449 387.934 236.156 391.381 240.161C393.008 242.052 394.314 244.77 396.806 244.973C397.875 245.06 398.915 244.623 399.983 244.539C402.68 244.326 405.05 246.364 406.545 248.61C408.808 252.032 409.835 256.118 409.458 260.198C409.213 262.759 408.415 265.249 408.243 267.816C407.589 277.584 415.904 286.07 416.066 295.858C416.16 301.615 413.416 306.995 410.74 312.099C415.059 318.614 411.522 327.29 413.242 334.906C414.873 342.132 420.923 347.789 422.431 355.042C423.121 358.362 423.161 362.448 426.101 364.158C427.391 364.784 428.821 365.069 430.254 364.986C438.896 365.088 447.439 363.151 455.185 359.334C458.821 357.537 462.588 354.855 463.223 350.864C463.735 347.645 462.096 344.044 463.764 341.24C465.731 337.935 470.768 338.197 473.661 335.656C478.354 331.534 474.694 323.673 476.596 317.736C478.305 312.4 484.189 309.564 487.106 304.775C488.254 302.715 489.077 300.492 489.548 298.183C490.884 292.665 491.716 287.039 492.033 281.372C492.111 277.928 492.366 274.491 492.797 271.074C495.942 251.62 515.256 238.592 521.526 219.903C522.125 218.118 522.407 215.741 520.812 214.731C519.866 214.281 518.794 214.169 517.775 214.414L503.941 216.151C502.222 216.367 500.401 216.568 498.823 215.858C497.245 215.147 496.114 213.159 496.951 211.649C499.3 207.411 494.467 202.055 492.32 197.711C486.536 186.015 479.65 174.894 471.752 164.496C471.247 163.961 470.93 163.277 470.851 162.547L474.777 162.677C473.452 157.941 471.264 152.758 466.644 151.026C464.04 150.049 461.157 150.387 458.379 150.538C450.422 150.971 441.892 149.775 434.016 148.562Z" fill="#A8C4C9"/>
<path id="Path_22" opacity="0.158831" d="M459.696 42.1343C461.774 44.34 464.102 46.6785 467.109 47.0629C472.419 47.742 476.238 42.2532 478.669 37.4855C478.856 40.0128 481.022 41.9321 483.554 41.8149C484.865 41.5945 486.116 41.1056 487.229 40.3789C497.751 34.6318 509.536 31.5867 521.527 31.5172C521.288 29.6369 522.509 27.8803 524.355 27.4474C526.793 26.9643 528.989 29.071 530.165 31.2593C531.341 33.4477 532.074 35.9841 533.943 37.6221C535.811 39.2601 539.429 39.1888 540.167 36.8168C540.875 34.5395 538.502 32.5975 536.53 31.255C534.558 29.9124 532.479 27.4275 533.807 25.4462C543.881 23.2173 554.018 20.9799 564.327 20.5368C566.082 20.5979 567.831 20.2968 569.465 19.6523C571.037 18.8812 572.286 17.1308 571.864 15.4323C567.262 16.5134 562.464 14.7044 559.723 10.8552C574.027 9.67543 589.241 8.66981 601.918 15.3971C603.439 18.6612 595.686 21.3768 597.76 24.3208C598.422 25.2598 599.748 25.3699 600.896 25.3912C609.706 25.5547 618.566 25.715 627.276 24.3856C630.458 23.8999 633.673 23.2141 636.869 23.608C642.192 24.2641 646.744 27.8138 651.981 28.9711C654.112 29.4422 656.502 29.4581 658.299 28.2191C660.095 26.9801 660.867 24.1588 659.395 22.5481C664.326 17.7183 672.508 18.9154 679.013 21.2276C685.517 23.5399 691.679 27.2688 698.564 27.7842C703.5 28.1538 708.505 26.8266 713.383 27.6702C716.449 28.2003 719.302 29.5633 722.298 30.4007C727.964 31.9845 733.958 31.6502 739.841 31.7264C754.852 31.9285 769.699 34.8772 783.647 40.4265C785.461 41.017 787.124 41.9987 788.517 43.3023C789.815 44.6913 790.477 46.8499 789.604 48.5387L775.191 46.4339C776.549 49.1058 780.063 49.5611 782.916 50.4829C785.769 51.4047 788.727 54.5537 787.012 57.0123C783.921 56.0285 781.12 59.1176 779.558 61.9598C777.996 64.802 776.094 68.2059 772.854 68.3791C769.953 68.5341 766.445 66.0653 764.554 68.2696C767.166 71.5635 769.403 75.138 771.223 78.9271C773.091 82.817 774.422 87.7184 771.897 91.2182C771.5 91.843 770.897 92.31 770.193 92.539C768.131 93.0608 766.791 90.5394 765.312 89.0111C763.449 87.0853 760.631 86.5399 758.107 85.6367C755.583 84.7335 752.925 82.9568 752.728 80.285C752.605 78.6226 753.483 77.0773 754.13 75.5409C755.217 72.9512 755.692 70.1459 755.519 67.3428C755.378 65.0877 754.745 62.7419 753.124 61.1662C751.504 59.5906 748.707 59.0908 746.967 60.5339C746.155 61.2072 745.505 62.2843 744.451 62.3246C742.588 62.3958 741.158 59.1504 739.66 60.2583C739.836 61.4387 739.591 62.6433 738.968 63.6616C734.497 67.5484 727.628 65.904 721.863 67.2771C719.122 68.0611 716.498 69.2066 714.06 70.6834C713.147 71.0732 712.371 71.7244 711.829 72.5548C711.109 73.9524 711.903 75.7423 713.171 76.6716C714.516 77.4961 716.027 78.0117 717.596 78.1812C724.624 79.5115 731.754 81.5708 737.302 86.0824C742.85 90.5939 746.489 98.0518 744.733 104.982L730.874 91.7464C731.401 97.3037 731.699 102.876 731.77 108.464C731.86 109.555 731.71 110.653 731.331 111.68C730.343 113.861 727.665 114.595 725.319 115.076C723.999 115.327 722.849 116.129 722.158 117.281C721.468 118.433 721.302 119.825 721.704 121.107C722.537 123.823 724.616 125.941 726.519 128.051C728.423 130.161 730.296 132.559 730.545 135.389C730.794 138.219 728.658 141.409 725.822 141.212C723.673 141.063 722.078 139.139 721.161 137.19C720.244 135.241 719.699 133.07 718.321 131.414C714.151 126.402 704.786 128.55 701.05 123.206C699.114 125.401 698.453 128.441 699.303 131.241C701.041 130.154 703.42 131.164 704.726 132.744C706.031 134.324 706.647 136.349 707.673 138.124C709.056 140.518 711.258 142.641 711.451 145.4C711.4 146.443 711.418 147.488 711.504 148.529C711.847 150.2 713.26 151.4 714.24 152.797C716.521 156.048 716.408 160.513 714.938 164.201C713.469 167.89 710.828 170.972 708.213 173.959C703.645 179.178 698.984 184.367 693.568 188.701C692.023 189.937 690.374 191.153 689.411 192.882C688.449 194.611 688.4 197.038 689.879 198.353C688.82 198.406 686.923 198.926 685.864 198.979C685.492 194.736 685.412 190.473 685.622 186.219C681.446 184.215 676.95 189.582 677.489 194.181C678.028 198.78 681.356 202.47 683.725 206.449C685.458 209.358 686.745 212.751 686.167 216.087C685.588 219.423 682.609 222.501 679.234 222.207C673.866 221.739 671.621 214.036 666.305 213.155C665.836 213.045 665.344 213.093 664.906 213.293C664.117 213.726 663.98 214.782 663.935 215.68C663.718 220.09 663.53 224.676 665.252 228.742C667.772 234.69 674.281 239.686 672.916 246C665.56 242.582 661.735 234.337 659.999 226.417C658.262 218.497 657.973 210.183 654.86 202.695C652.496 205.724 647.528 203.22 645.368 200.044C643.321 197.032 642.06 193.548 640.074 190.496C638.087 187.444 635.044 184.711 631.405 184.543C627.59 184.367 624.281 186.984 621.371 189.457C618.978 191.49 616.521 193.603 615.122 196.414C613.087 200.504 613.619 205.326 613.521 209.893C613.415 214.83 612.368 220.039 609.002 223.654C605.635 227.268 599.42 228.527 595.707 225.27C593.768 223.569 592.829 221.028 591.993 218.589C587.963 206.832 584.606 194.855 581.94 182.716C581.316 185.487 578.881 189.058 576.556 187.426C576.034 186.987 575.612 186.442 575.316 185.828C570.978 178.481 562.946 174.073 554.83 171.431C546.714 168.788 538.175 167.556 530.15 164.651C525.652 163.023 521.356 160.885 517.347 158.277C515.264 161.335 515.028 165.288 516.731 168.572C518.512 171.723 522.54 173.546 525.989 172.444C527.771 171.875 529.276 170.639 531.044 170.028C532.812 169.417 535.186 169.717 535.959 171.42C536.699 173.05 535.58 175.022 536.135 176.723C536.981 179.315 540.892 179.515 542.259 181.873C543.277 183.628 542.439 185.958 540.987 187.375C539.534 188.791 537.595 189.567 535.822 190.553C530.067 193.751 525.975 199.211 520.946 203.459C515.917 207.707 508.821 210.808 502.828 208.083C504.257 200.853 495.639 195.544 494.054 188.346C493.532 185.977 493.803 183.46 493.058 181.151C491.979 177.809 489.012 175.51 486.578 172.977C480.613 166.703 477.438 158.285 477.774 149.637C477.905 146.662 478.452 143.639 477.774 140.739C477.096 137.839 474.694 135.033 471.718 135.164C464.92 135.464 456.356 135.97 452.79 130.178C451.517 128.111 450.963 125.083 452.803 123.499C454.102 122.382 456.018 122.487 457.723 122.655L473.039 124.161C476.622 124.513 480.494 124.804 483.568 122.932C486.642 121.06 487.974 116.091 485.128 113.889C483.048 112.28 479.322 112.367 478.717 109.809C478.214 107.678 480.573 105.261 479.299 103.48C478.385 102.203 476.331 102.557 475.086 103.515C473.841 104.472 472.938 105.871 471.544 106.596C469.1 107.867 466.18 106.658 463.551 105.835C460.921 105.013 457.396 104.943 456.121 107.384C454.694 110.114 457.386 113.691 455.97 116.427C454.099 120.043 447.761 117.985 445.132 121.095C442.116 124.665 447.185 129.988 446.167 134.549C443.526 135.856 440.391 135.68 437.913 134.085C435.471 132.425 434.14 129.559 434.448 126.623C434.699 124.572 435.769 122.478 435.052 120.539C434.473 118.972 432.898 118.038 431.435 117.23L416.551 109.009C415.169 111.572 416.916 114.748 419.101 116.673C421.286 118.597 424.022 120.046 425.458 122.579C427.342 126.222 426.063 130.701 422.539 132.801C422.108 133.098 421.569 133.192 421.063 133.058C420.584 132.776 420.238 132.312 420.106 131.772C417.48 125.055 413.537 118.432 407.234 114.923C400.93 111.414 391.872 112.135 387.738 118.046C386.756 119.45 386.097 121.051 385.242 122.535C380.698 130.421 370.956 134.156 361.854 133.912C360.963 133.961 360.077 133.753 359.302 133.312C357.831 132.297 357.897 130.142 358.123 128.37L359.078 120.847C359.27 119.336 359.548 117.667 360.744 116.724C362.43 115.395 364.863 116.233 367.01 116.202C370.343 116.046 373.222 113.825 374.218 110.643C375.102 107.445 374.143 104.021 371.726 101.747C370.742 100.823 369.421 99.6627 369.941 98.4172C370.361 97.7197 371.068 97.2438 371.872 97.1172C375.73 95.9976 379.805 95.7042 383.598 94.3832C387.391 93.0622 391.069 90.3595 391.968 86.4467C392.243 85.2476 392.368 83.795 393.446 83.2005C393.986 82.9724 394.567 82.8538 395.154 82.8517C399.416 82.2456 402.51 78.4872 402.284 74.1901C404.102 72.9206 406.649 73.8544 408.407 75.2047C410.166 76.5549 411.718 78.3389 413.858 78.9209C417.846 80.0056 421.699 76.4768 425.832 76.4605C427.57 76.4536 429.369 77.0678 431.004 76.4789C432.661 75.8819 433.651 74.2328 434.923 73.0145C436.195 71.7962 438.427 71.0531 439.602 72.3655L438.602 64.9602C442.677 65.9893 446.999 65.2084 450.455 62.8182L437.528 58.4524C437.078 58.3401 436.663 58.1182 436.319 57.8064C435.379 56.7949 436.313 55.2186 437.077 54.0687C438.905 51.318 439.212 46.7868 436.206 45.4174C434.154 44.4826 431.798 45.6047 429.828 46.7024L420.393 51.9608C420.093 53.7534 422.286 54.7693 423.645 55.9768C425.328 57.4721 425.919 59.8477 425.131 61.9564C424.344 64.0651 422.341 65.4732 420.089 65.5007C421.348 67.1362 421.794 69.2548 421.303 71.2588L414.954 71.7151C414.242 71.8584 413.501 71.714 412.895 71.3134C412.216 70.7107 412.308 69.6545 412.151 68.7606C411.771 66.6031 409.657 65.0909 407.5 64.7032C405.343 64.3154 403.136 64.8124 401 65.3032C400.093 65.6294 399.097 65.6064 398.206 65.2387C397.695 64.907 397.307 64.4172 397.101 63.8442C396.164 61.5747 397.039 58.907 398.544 56.9662C400.048 55.0253 402.107 53.6065 403.956 51.9907C408.378 48.1126 411.627 43.0758 413.336 37.4492C416.831 35.9857 420.449 33.9972 423.943 32.5336C429.331 29.8071 435.374 28.637 441.391 29.1549L453.226 29.3809C456.73 29.4478 460.329 29.5335 463.569 30.8687C466.809 32.2039 469.656 35.0918 469.88 38.5876C470.017 39.3921 469.73 40.2105 469.121 40.7538C468.663 41.0034 468.145 41.1202 467.625 41.0909C464.357 41.2057 462.963 42.0196 459.696 42.1343Z" fill="#A8C4C9"/>
<path id="Path_23" opacity="0.158831" d="M365.035 77.8673C365.992 76.9864 366.363 75.6592 365.994 74.4289C363.662 73.5547 361.022 74.0391 359.179 75.6793C358.467 76.3794 357.853 77.1679 357.353 78.0244C355.773 80.5291 354.375 83.5209 355.291 86.3207C355.442 86.9375 355.842 87.4693 356.401 87.7959C356.812 87.956 357.254 88.0233 357.695 87.9929C359.436 87.9907 361.175 87.8867 362.903 87.6815C363.964 87.5554 365.196 87.2643 365.606 86.3051C366.145 85.0443 364.841 83.6175 365.221 82.3032C365.471 81.7154 365.851 81.1878 366.332 80.7571C366.817 80.3174 367.06 79.6816 366.988 79.0412C366.834 78.4245 365.862 78.0747 365.512 78.6105" fill="#A8C4C9"/>
<path id="Path_24" opacity="0.158831" d="M373.409 67.3733C371.895 67.0146 370.335 66.9135 368.789 67.0739C368.448 67.0634 368.109 67.1429 367.805 67.3048C367.511 67.5288 367.297 67.8478 367.198 68.2112C366.522 70.4529 367.628 72.8551 369.739 73.7298C370.294 73.8615 370.826 74.0819 371.315 74.3831C372.621 75.4292 371.789 77.5673 372.036 79.2545C372.314 81.1491 374.091 82.7394 373.765 84.6258C373.508 86.112 371.97 87.2888 372.218 88.7766C372.477 90.3349 374.393 90.8032 375.921 90.928C376.806 91.0879 377.717 90.9802 378.545 90.6177C379.374 90.0327 379.964 89.1514 380.2 88.144C380.825 86.2233 381.088 84.1967 380.974 82.1739C380.967 81.2539 380.743 80.3494 380.322 79.5388C379.862 78.8967 379.352 78.2942 378.797 77.7374C375.87 74.2247 378.952 68.9851 373.409 67.3733Z" fill="#A8C4C9"/>
</g>
</svg>
