<svg width="853" height="372" viewBox="0 0 853 372" fill="none" xmlns="http://www.w3.org/2000/svg">
<g id="Pattern">
<path id="Path" opacity="0.523554" d="M636.727 127.273H644V128.727H636.727V136H635.273V128.727H628V127.273H635.273V120H636.727V127.273Z" fill="#F3DCB4"/>
<path id="Path_2" opacity="0.523554" d="M740.727 127.273H748V128.727H740.727V136H739.273V128.727H732V127.273H739.273V120H740.727V127.273Z" fill="#F3DCB4"/>
<path id="Path_3" opacity="0.523554" d="M845.727 127.273H853V128.727H845.727V136H844.273V128.727H837V127.273H844.273V120H845.727V127.273Z" fill="#F3DCB4"/>
<path id="Path_4" opacity="0.523554" d="M636.727 244.273H644V245.727H636.727V253H635.273V245.727H628V244.273H635.273V237H636.727V244.273Z" fill="#F3DCB4"/>
<path id="Path_5" opacity="0.523554" d="M740.727 244.273H748V245.727H740.727V253H739.273V245.727H732V244.273H739.273V237H740.727V244.273Z" fill="#F3DCB4"/>
<path id="Path_6" opacity="0.523554" d="M845.727 244.273H853V245.727H845.727V253H844.273V245.727H837V244.273H844.273V237H845.727V244.273Z" fill="#F3DCB4"/>
<path id="Path_7" opacity="0.523554" d="M322.727 127.273H330V128.727H322.727V136H321.273V128.727H314V127.273H321.273V120H322.727V127.273Z" fill="#F3DCB4"/>
<path id="Path_8" opacity="0.523554" d="M427.727 127.273H435V128.727H427.727V136H426.273V128.727H419V127.273H426.273V120H427.727V127.273Z" fill="#F3DCB4"/>
<path id="plus-pattern-a" opacity="0.523554" d="M322.727 244.273H330V245.727H322.727V253H321.273V245.727H314V244.273H321.273V237H322.727V244.273Z" fill="#F3DCB4"/>
<path id="plus-pattern-b" opacity="0.523554" d="M322.727 355.273H330V356.727H322.727V364H321.273V356.727H314V355.273H321.273V348H322.727V355.273Z" fill="#F3DCB4"/>
<path id="plus-pattern-c" opacity="0.523554" d="M427.727 355.273H435V356.727H427.727V364H426.273V356.727H419V355.273H426.273V348H427.727V355.273Z" fill="#F3DCB4"/>
<path id="plus-pattern-d" opacity="0.523554" d="M322.727 7.27273H330V8.72727H322.727V16H321.273V8.72727H314V7.27273H321.273V0H322.727V7.27273Z" fill="#F3DCB4"/>
<path id="plus-pattern-e" opacity="0.523554" d="M427.727 244.273H435V245.727H427.727V253H426.273V245.727H419V244.273H426.273V237H427.727V244.273Z" fill="#F3DCB4"/>
<path id="plus-pattern-f" opacity="0.523554" d="M427.727 7.27273H435V8.72727H427.727V16H426.273V8.72727H419V7.27273H426.273V0H427.727V7.27273Z" fill="#F3DCB4"/>
<path id="plus-pattern-g" opacity="0.523554" d="M217.727 127.273H225V128.727H217.727V136H216.273V128.727H209V127.273H216.273V120H217.727V127.273Z" fill="#F3DCB4"/>
<path id="plus-pattern-h" opacity="0.523554" d="M113.727 127.273H121V128.727H113.727V136H112.273V128.727H105V127.273H112.273V120H113.727V127.273Z" fill="#F3DCB4"/>
<path id="plus-pattern-i" opacity="0.523554" d="M8.72727 127.273H16V128.727H8.72727V136H7.27273V128.727H0V127.273H7.27273V120H8.72727V127.273Z" fill="#F3DCB4"/>
<path id="plus-pattern-j" opacity="0.523554" d="M531.727 127.273H539V128.727H531.727V136H530.273V128.727H523V127.273H530.273V120H531.727V127.273Z" fill="#F3DCB4"/>
<path id="plus-pattern-k" opacity="0.523554" d="M217.727 244.273H225V245.727H217.727V253H216.273V245.727H209V244.273H216.273V237H217.727V244.273Z" fill="#F3DCB4"/>
<path id="plus-pattern-l" opacity="0.523554" d="M217.727 355.273H225V356.727H217.727V364H216.273V356.727H209V355.273H216.273V348H217.727V355.273Z" fill="#F3DCB4"/>
<path id="plus-pattern-m" opacity="0.523554" d="M217.727 7.27273H225V8.72727H217.727V16H216.273V8.72727H209V7.27273H216.273V0H217.727V7.27273Z" fill="#F3DCB4"/>
<path id="plus-pattern-n" opacity="0.523554" d="M113.727 244.273H121V245.727H113.727V253H112.273V245.727H105V244.273H112.273V237H113.727V244.273Z" fill="#F3DCB4"/>
<path id="plus-pattern-o" opacity="0.523554" d="M8.72727 244.273H16V245.727H8.72727V253H7.27273V245.727H0V244.273H7.27273V237H8.72727V244.273Z" fill="#F3DCB4"/>
<path id="plus-pattern-p" opacity="0.523554" d="M113.727 355.273H121V356.727H113.727V364H112.273V356.727H105V355.273H112.273V348H113.727V355.273Z" fill="#F3DCB4"/>
<path id="plus-pattern-q" opacity="0.523554" d="M8.72727 355.273H16V356.727H8.72727V364H7.27273V356.727H0V355.273H7.27273V348H8.72727V355.273Z" fill="#F3DCB4"/>
<path id="plus-pattern-r" opacity="0.523554" d="M113.727 7.27273H121V8.72727H113.727V16H112.273V8.72727H105V7.27273H112.273V0H113.727V7.27273Z" fill="#F3DCB4"/>
<path id="plus-pattern-s" opacity="0.523554" d="M8.72727 7.27273H16V8.72727H8.72727V16H7.27273V8.72727H0V7.27273H7.27273V0H8.72727V7.27273Z" fill="#F3DCB4"/>
<path id="plus-pattern-t" opacity="0.523554" d="M531.727 244.273H539V245.727H531.727V253H530.273V245.727H523V244.273H530.273V237H531.727V244.273Z" fill="#F3DCB4"/>
<path id="plus-pattern-u" opacity="0.523554" d="M531.727 7.27273H539V8.72727H531.727V16H530.273V8.72727H523V7.27273H530.273V0H531.727V7.27273Z" fill="#F3DCB4"/>
<path id="plus-pattern-v" opacity="0.523554" d="M531.727 363.273H539V364.727H531.727V372H530.273V364.727H523V363.273H530.273V356H531.727V363.273Z" fill="#F3DCB4"/>
<path id="plus-pattern-w" opacity="0.523554" d="M636.727 9.27273H644V10.7273H636.727V18H635.273V10.7273H628V9.27273H635.273V2H636.727V9.27273Z" fill="#F3DCB4"/>
<path id="plus-pattern-x" opacity="0.523554" d="M740.727 9.27273H748V10.7273H740.727V18H739.273V10.7273H732V9.27273H739.273V2H740.727V9.27273Z" fill="#F3DCB4"/>
<path id="plus-pattern-y" opacity="0.523554" d="M845.727 9.27273H853V10.7273H845.727V18H844.273V10.7273H837V9.27273H844.273V2H845.727V9.27273Z" fill="#F3DCB4"/>
<path id="plus-pattern-z" opacity="0.523554" d="M636.727 363.273H644V364.727H636.727V372H635.273V364.727H628V363.273H635.273V356H636.727V363.273Z" fill="#F3DCB4"/>
<path id="plus-pattern-A" opacity="0.523554" d="M740.727 363.273H748V364.727H740.727V372H739.273V364.727H732V363.273H739.273V356H740.727V363.273Z" fill="#F3DCB4"/>
<path id="plus-pattern-B" d="M845.727 363.273H853V364.727H845.727V372H844.273V364.727H837V363.273H844.273V356H845.727V363.273Z" fill="#F3DCB4"/>
</g>
</svg>
