<svg width="1677" height="704" viewBox="0 0 1677 704" fill="none" xmlns="http://www.w3.org/2000/svg">

<g opacity="0.3" >
<ellipse cx="1487.5" cy="65" rx="188.5" ry="303.5" stroke="#B1B1B1" stroke-dasharray="4"/>
<ellipse cx="1432.5" cy="133.5" rx="224.5" ry="362" stroke="#B1B1B1" stroke-dasharray="4"/>
<ellipse cx="1377" cy="202" rx="261" ry="420.5" stroke="#B1B1B1" stroke-dasharray="4"/>
<ellipse cx="1321.5" cy="269.5" rx="297.5" ry="479" stroke="#B1B1B1" stroke-dasharray="4"/>
<ellipse cx="1266.5" cy="338" rx="333.5" ry="537.5" stroke="#B1B1B1" stroke-dasharray="4"/>
<ellipse cx="1211" cy="406.5" rx="370" ry="596" stroke="#B1B1B1" stroke-dasharray="4"/>
<ellipse cx="1155.5" cy="474.5" rx="406.5" ry="655" stroke="#B1B1B1" stroke-dasharray="4"/>
<ellipse cx="1100.5" cy="543" rx="442.5" ry="713.5" stroke="#B1B1B1" stroke-dasharray="4"/>
<ellipse cx="304.5" cy="392" rx="303.5" ry="188.5" stroke="#B1B1B1" stroke-dasharray="4"/>
<ellipse cx="372" cy="447" rx="362" ry="224.5" stroke="#B1B1B1" stroke-dasharray="4"/>
<ellipse cx="440.5" cy="502.5" rx="420.5" ry="261" stroke="#B1B1B1" stroke-dasharray="4"/>
<ellipse cx="509" cy="558" rx="479" ry="297.5" stroke="#B1B1B1" stroke-dasharray="4"/>
<ellipse cx="576.5" cy="614" rx="537.5" ry="333.5" stroke="#B1B1B1" stroke-dasharray="4"/>
<ellipse cx="645" cy="668.5" rx="596" ry="370" stroke="#B1B1B1" stroke-dasharray="4"/>
<ellipse cx="713.5" cy="724" rx="654.5" ry="406.5" stroke="#B1B1B1" stroke-dasharray="4"/>
<ellipse cx="782" cy="779.5" rx="713" ry="443" stroke="#B1B1B1" stroke-dasharray="4"/>
</g>
</svg>
